<?xml version="1.0" encoding="UTF-8" standalone="no"?>
<!DOCTYPE svg PUBLIC "-//W3C//DTD SVG 1.1//EN"
 "http://www.w3.org/Graphics/SVG/1.1/DTD/svg11.dtd">
<!-- Generated by graphviz version 2.43.0 (0)
 -->
<!-- Title: %3 Pages: 1 -->
<svg width="1420pt" height="536pt"
 viewBox="0.00 0.00 1420.39 536.40" xmlns="http://www.w3.org/2000/svg" xmlns:xlink="http://www.w3.org/1999/xlink">
<g id="graph0" class="graph" transform="scale(1 1) rotate(0) translate(7.2 529.2)">
<title>%3</title>
<polygon fill="white" stroke="transparent" points="-7.2,7.2 -7.2,-529.2 1413.19,-529.2 1413.19,7.2 -7.2,7.2"/>
<!-- bread_waste -->
<g id="node1" class="node">
<title>bread_waste</title>
<polygon fill="none" stroke="red" points="160,-265 0,-265 0,-229 160,-229 160,-265"/>
<text text-anchor="middle" x="80" y="-243.3" font-family="Times,serif" font-size="14.00">bread waste market</text>
</g>
<!-- feed_treat -->
<g id="node5" class="node">
<title>feed_treat</title>
<polygon fill="none" stroke="red" points="398,-258 250,-258 250,-222 398,-222 398,-258"/>
<text text-anchor="middle" x="324" y="-236.3" font-family="Times,serif" font-size="14.00">feed pretreatment</text>
</g>
<!-- bread_waste&#45;&gt;feed_treat -->
<g id="edge1" class="edge">
<title>bread_waste&#45;&gt;feed_treat</title>
<path fill="none" stroke="black" stroke-width="1.1" d="M160.12,-241.75C166.17,-241.45 172.18,-241.2 178,-241 198.02,-240.31 219.6,-239.96 239.83,-239.79"/>
<polygon fill="black" stroke="black" stroke-width="1.1" points="239.99,-243.29 249.96,-239.72 239.94,-236.29 239.99,-243.29"/>
<text text-anchor="middle" x="205" y="-244.8" font-family="Times,serif" font-size="14.00">1 kg</text>
</g>
<!-- enz_mkt -->
<g id="node2" class="node">
<title>enz_mkt</title>
<polygon fill="none" stroke="red" points="143.5,-211 16.5,-211 16.5,-175 143.5,-175 143.5,-211"/>
<text text-anchor="middle" x="80" y="-189.3" font-family="Times,serif" font-size="14.00">enzyme market</text>
</g>
<!-- enz_mkt&#45;&gt;feed_treat -->
<g id="edge6" class="edge">
<title>enz_mkt&#45;&gt;feed_treat</title>
<path fill="none" stroke="black" stroke-width="0.18" d="M143.55,-203.62C170.77,-208.38 203.01,-214.22 232,-220 234.5,-220.5 237.03,-221.01 239.59,-221.53"/>
<polygon fill="black" stroke="black" stroke-width="0.18" points="239.04,-224.99 249.55,-223.6 240.46,-218.14 239.04,-224.99"/>
<text text-anchor="middle" x="205" y="-223.8" font-family="Times,serif" font-size="14.00">0.01 kg</text>
</g>
<!-- ecoli_prop -->
<g id="node3" class="node">
<title>ecoli_prop</title>
<polygon fill="none" stroke="red" points="377.5,-485 270.5,-485 270.5,-449 377.5,-449 377.5,-485"/>
<text text-anchor="middle" x="324" y="-463.3" font-family="Times,serif" font-size="14.00">Ecoli market</text>
</g>
<!-- bact_ferm -->
<g id="node6" class="node">
<title>bact_ferm</title>
<polygon fill="none" stroke="red" points="665,-314 488,-314 488,-278 665,-278 665,-314"/>
<text text-anchor="middle" x="576.5" y="-292.3" font-family="Times,serif" font-size="14.00">bacterial fermentation</text>
</g>
<!-- ecoli_prop&#45;&gt;bact_ferm -->
<g id="edge8" class="edge">
<title>ecoli_prop&#45;&gt;bact_ferm</title>
<path fill="none" stroke="black" stroke-width="1.1" d="M377.33,-448.98C384.36,-446.17 391.42,-443.15 398,-440 431.62,-423.91 440.35,-419.59 470,-397 500.36,-373.87 531.49,-343.03 551.99,-321.53"/>
<polygon fill="black" stroke="black" stroke-width="1.1" points="554.72,-323.74 559.04,-314.07 549.63,-318.94 554.72,-323.74"/>
<text text-anchor="middle" x="443" y="-433.8" font-family="Times,serif" font-size="14.00">1 kg</text>
</g>
<!-- MgCO3_mkt -->
<g id="node4" class="node">
<title>MgCO3_mkt</title>
<polygon fill="none" stroke="blue" points="387,-431 261,-431 261,-395 387,-395 387,-431"/>
<text text-anchor="middle" x="324" y="-409.3" font-family="Times,serif" font-size="14.00">MgCO3 market</text>
</g>
<!-- MgCO3_mkt&#45;&gt;bact_ferm -->
<g id="edge9" class="edge">
<title>MgCO3_mkt&#45;&gt;bact_ferm</title>
<path fill="none" stroke="black" stroke-width="0.62" d="M375.46,-394.9C383.05,-392.02 390.76,-388.99 398,-386 430.53,-372.55 438.5,-368.71 470,-353 491.55,-342.25 515.17,-329.58 534.58,-318.92"/>
<polygon fill="black" stroke="black" stroke-width="0.62" points="536.4,-321.91 543.47,-314.02 533.02,-315.78 536.4,-321.91"/>
<text text-anchor="middle" x="443" y="-381.8" font-family="Times,serif" font-size="14.00">0.27 kg</text>
</g>
<!-- feed_treat&#45;&gt;bact_ferm -->
<g id="edge7" class="edge">
<title>feed_treat&#45;&gt;bact_ferm</title>
<path fill="none" stroke="black" stroke-width="3.26" d="M398.13,-256.35C425.26,-262.41 456.35,-269.36 484.86,-275.74"/>
<polygon fill="black" stroke="black" stroke-width="3.26" points="484.3,-279.2 494.82,-277.96 485.83,-272.37 484.3,-279.2"/>
<text text-anchor="middle" x="443" y="-274.8" font-family="Times,serif" font-size="14.00">10 kg</text>
</g>
<!-- feed_treat&#45;&gt;bact_ferm -->
<g id="edge19" class="edge">
<title>feed_treat&#45;&gt;bact_ferm</title>
<path fill="none" stroke="black" stroke-width="0.62" d="M398.12,-234.54C421.38,-234.51 447.03,-236.3 470,-242 494.76,-248.15 520.29,-261.01 540.03,-272.64"/>
<polygon fill="black" stroke="black" stroke-width="0.62" points="538.3,-275.69 548.67,-277.87 541.93,-269.7 538.3,-275.69"/>
<text text-anchor="middle" x="443" y="-245.8" font-family="Times,serif" font-size="14.00">0.27 kg</text>
</g>
<!-- unalloc_bio -->
<g id="node26" class="node">
<title>unalloc_bio</title>
<polygon fill="none" stroke="red" points="1274,-225 1059,-225 1059,-189 1274,-189 1274,-225"/>
<text text-anchor="middle" x="1166.5" y="-203.3" font-family="Times,serif" font-size="14.00">unallocated biosphere flows</text>
</g>
<!-- feed_treat&#45;&gt;unalloc_bio -->
<g id="edge22" class="edge">
<title>feed_treat&#45;&gt;unalloc_bio</title>
<path fill="none" stroke="black" stroke-width="3.26" d="M398.2,-230.47C470.44,-221.58 584.12,-208.96 683,-204 807.64,-197.75 950.62,-199.79 1048.38,-202.59"/>
<polygon fill="black" stroke="black" stroke-width="3.26" points="1048.48,-206.09 1058.58,-202.89 1048.69,-199.1 1048.48,-206.09"/>
<text text-anchor="middle" x="714.5" y="-207.8" font-family="Times,serif" font-size="14.00">10 kg</text>
</g>
<!-- SA_purif -->
<g id="node7" class="node">
<title>SA_purif</title>
<polygon fill="none" stroke="red" points="960,-162 764,-162 764,-126 960,-126 960,-162"/>
<text text-anchor="middle" x="862" y="-140.3" font-family="Times,serif" font-size="14.00">Succinic acid purification</text>
</g>
<!-- bact_ferm&#45;&gt;SA_purif -->
<g id="edge16" class="edge">
<title>bact_ferm&#45;&gt;SA_purif</title>
<path fill="none" stroke="black" stroke-width="1.1" d="M625.88,-277.93C660.21,-264.41 706.95,-244.61 746,-223 775.51,-206.67 806.93,-184.74 829.46,-168.13"/>
<polygon fill="black" stroke="black" stroke-width="1.1" points="831.7,-170.82 837.64,-162.05 827.52,-165.21 831.7,-170.82"/>
<text text-anchor="middle" x="714.5" y="-255.8" font-family="Times,serif" font-size="14.00">1 kg</text>
</g>
<!-- biogas_mkt -->
<g id="node16" class="node">
<title>biogas_mkt</title>
<polygon fill="none" stroke="blue" points="921.5,-289 802.5,-289 802.5,-253 921.5,-253 921.5,-289"/>
<text text-anchor="middle" x="862" y="-267.3" font-family="Times,serif" font-size="14.00">biogas market</text>
</g>
<!-- bact_ferm&#45;&gt;biogas_mkt -->
<g id="edge15" class="edge">
<title>bact_ferm&#45;&gt;biogas_mkt</title>
<path fill="none" stroke="black" stroke-width="1.1" d="M665.26,-288.26C706.16,-284.65 754.12,-280.43 792.32,-277.06"/>
<polygon fill="black" stroke="black" stroke-width="1.1" points="792.67,-280.54 802.32,-276.17 792.05,-273.57 792.67,-280.54"/>
<text text-anchor="middle" x="714.5" y="-289.8" font-family="Times,serif" font-size="14.00">1 kg</text>
</g>
<!-- bact_ferm&#45;&gt;unalloc_bio -->
<g id="edge23" class="edge">
<title>bact_ferm&#45;&gt;unalloc_bio</title>
<path fill="none" stroke="black" stroke-width="3.26" d="M665.33,-307.71C743.67,-315.51 860.95,-320.65 960,-298 1020.7,-284.12 1085.57,-252.19 1125.83,-230.1"/>
<polygon fill="black" stroke="black" stroke-width="3.26" points="1127.73,-233.05 1134.78,-225.13 1124.33,-226.93 1127.73,-233.05"/>
<text text-anchor="middle" x="862" y="-317.8" font-family="Times,serif" font-size="14.00">10 kg</text>
</g>
<!-- sol_biomass -->
<g id="node8" class="node">
<title>sol_biomass</title>
<polygon fill="none" stroke="red" points="1251,-157 1082,-157 1082,-121 1251,-121 1251,-157"/>
<text text-anchor="middle" x="1166.5" y="-135.3" font-family="Times,serif" font-size="14.00">solid biomass market</text>
</g>
<!-- SA_purif&#45;&gt;sol_biomass -->
<g id="edge20" class="edge">
<title>SA_purif&#45;&gt;sol_biomass</title>
<path fill="none" stroke="black" stroke-width="3.36" d="M960.24,-140.42C966.25,-140.26 972.21,-140.12 978,-140 1008.56,-139.39 1041.92,-139.09 1071.92,-138.96"/>
<polygon fill="black" stroke="black" stroke-width="3.36" points="1071.97,-142.46 1081.96,-138.92 1071.94,-135.46 1071.97,-142.46"/>
<text text-anchor="middle" x="1009.5" y="-143.8" font-family="Times,serif" font-size="14.00">10.64 kg</text>
</g>
<!-- SA_mkt -->
<g id="node9" class="node">
<title>SA_mkt</title>
<ellipse fill="pink" stroke="pink" cx="1166.5" cy="-85" rx="105.88" ry="18"/>
<text text-anchor="middle" x="1166.5" y="-81.3" font-family="Times,serif" font-size="14.00">succinic acid market</text>
</g>
<!-- SA_purif&#45;&gt;SA_mkt -->
<g id="edge21" class="edge">
<title>SA_purif&#45;&gt;SA_mkt</title>
<path fill="none" stroke="black" stroke-width="1.1" d="M948.37,-125.97C958.35,-123.93 968.4,-121.9 978,-120 1012.45,-113.19 1050.52,-106.02 1083.31,-99.95"/>
<polygon fill="black" stroke="black" stroke-width="1.1" points="1084.11,-103.36 1093.31,-98.11 1082.84,-96.48 1084.11,-103.36"/>
<text text-anchor="middle" x="1009.5" y="-123.8" font-family="Times,serif" font-size="14.00">1 kg</text>
</g>
<!-- SA_purif&#45;&gt;unalloc_bio -->
<g id="edge24" class="edge">
<title>SA_purif&#45;&gt;unalloc_bio</title>
<path fill="none" stroke="black" stroke-width="3.26" d="M960.14,-161.82C986.43,-166.85 1014.84,-172.46 1041,-178 1053.72,-180.69 1067.13,-183.67 1080.26,-186.67"/>
<polygon fill="black" stroke="black" stroke-width="3.26" points="1079.7,-190.13 1090.22,-188.95 1081.26,-183.31 1079.7,-190.13"/>
<text text-anchor="middle" x="1009.5" y="-181.8" font-family="Times,serif" font-size="14.00">10 kg</text>
</g>
<!-- HCl_mkt -->
<g id="node10" class="node">
<title>HCl_mkt</title>
<polygon fill="none" stroke="blue" points="626,-168 527,-168 527,-132 626,-132 626,-168"/>
<text text-anchor="middle" x="576.5" y="-146.3" font-family="Times,serif" font-size="14.00">HCl market</text>
</g>
<!-- HCl_mkt&#45;&gt;SA_purif -->
<g id="edge17" class="edge">
<title>HCl_mkt&#45;&gt;SA_purif</title>
<path fill="none" stroke="black" stroke-width="0.38" d="M626.24,-148.97C661.26,-148.23 709.86,-147.2 753.76,-146.27"/>
<polygon fill="black" stroke="black" stroke-width="0.38" points="754,-149.77 763.92,-146.05 753.85,-142.77 754,-149.77"/>
<text text-anchor="middle" x="714.5" y="-150.8" font-family="Times,serif" font-size="14.00">0.08 kg</text>
</g>
<!-- NaCl_brine -->
<g id="node11" class="node">
<title>NaCl_brine</title>
<polygon fill="none" stroke="blue" points="636.5,-114 516.5,-114 516.5,-78 636.5,-78 636.5,-114"/>
<text text-anchor="middle" x="576.5" y="-92.3" font-family="Times,serif" font-size="14.00">NaCl brine x%</text>
</g>
<!-- NaCl_brine&#45;&gt;SA_purif -->
<g id="edge18" class="edge">
<title>NaCl_brine&#45;&gt;SA_purif</title>
<path fill="none" stroke="black" stroke-width="3.97" d="M636.59,-106C670.47,-111.74 714.04,-119.12 753.76,-125.84"/>
<polygon fill="black" stroke="black" stroke-width="3.97" points="753.33,-129.32 763.77,-127.54 754.49,-122.42 753.33,-129.32"/>
<text text-anchor="middle" x="714.5" y="-127.8" font-family="Times,serif" font-size="14.00">15.01 kg</text>
</g>
<!-- NaOH_mkt -->
<g id="node12" class="node">
<title>NaOH_mkt</title>
<polygon fill="none" stroke="blue" points="382,-377 266,-377 266,-341 382,-341 382,-377"/>
<text text-anchor="middle" x="324" y="-355.3" font-family="Times,serif" font-size="14.00">NaOH market</text>
</g>
<!-- NaOH_mkt&#45;&gt;bact_ferm -->
<g id="edge10" class="edge">
<title>NaOH_mkt&#45;&gt;bact_ferm</title>
<path fill="none" stroke="black" stroke-width="0.54" d="M382.16,-344.63C415.15,-336.33 457.21,-325.75 493.67,-316.58"/>
<polygon fill="black" stroke="black" stroke-width="0.54" points="494.94,-319.87 503.79,-314.04 493.24,-313.08 494.94,-319.87"/>
<text text-anchor="middle" x="443" y="-337.8" font-family="Times,serif" font-size="14.00">0.2 kg</text>
</g>
<!-- steam_mkt -->
<g id="node13" class="node">
<title>steam_mkt</title>
<polygon fill="none" stroke="blue" points="138,-323 22,-323 22,-287 138,-287 138,-323"/>
<text text-anchor="middle" x="80" y="-301.3" font-family="Times,serif" font-size="14.00">steam market</text>
</g>
<!-- steam_mkt&#45;&gt;feed_treat -->
<g id="edge5" class="edge">
<title>steam_mkt&#45;&gt;feed_treat</title>
<path fill="none" stroke="black" stroke-width="1.1" d="M138.04,-289.68C170.23,-281.03 210.89,-270.11 245.89,-260.71"/>
<polygon fill="black" stroke="black" stroke-width="1.1" points="246.85,-264.08 255.6,-258.1 245.03,-257.32 246.85,-264.08"/>
<text text-anchor="middle" x="205" y="-281.8" font-family="Times,serif" font-size="14.00">1 MJ</text>
</g>
<!-- steam_mkt&#45;&gt;bact_ferm -->
<g id="edge11" class="edge">
<title>steam_mkt&#45;&gt;bact_ferm</title>
<path fill="none" stroke="black" stroke-width="1.1" d="M138.21,-303.96C221.16,-302.45 375.99,-299.63 477.39,-297.79"/>
<polygon fill="black" stroke="black" stroke-width="1.1" points="477.7,-301.28 487.64,-297.6 477.58,-294.28 477.7,-301.28"/>
<text text-anchor="middle" x="324" y="-304.8" font-family="Times,serif" font-size="14.00">1 MJ</text>
</g>
<!-- water_mkt -->
<g id="node14" class="node">
<title>water_mkt</title>
<polygon fill="none" stroke="blue" points="136.5,-90 23.5,-90 23.5,-54 136.5,-54 136.5,-90"/>
<text text-anchor="middle" x="80" y="-68.3" font-family="Times,serif" font-size="14.00">water market</text>
</g>
<!-- water_mkt&#45;&gt;feed_treat -->
<g id="edge2" class="edge">
<title>water_mkt&#45;&gt;feed_treat</title>
<path fill="none" stroke="black" stroke-width="1.1" d="M129.18,-90.05C139.49,-94.32 150.22,-99.07 160,-104 193.49,-120.87 202.6,-124.72 232,-148 257.39,-168.1 283.04,-194.73 300.6,-214.17"/>
<polygon fill="black" stroke="black" stroke-width="1.1" points="298.11,-216.63 307.38,-221.76 303.33,-211.97 298.11,-216.63"/>
<text text-anchor="middle" x="205" y="-151.8" font-family="Times,serif" font-size="14.00">1 m³</text>
</g>
<!-- water_mkt&#45;&gt;bact_ferm -->
<g id="edge12" class="edge">
<title>water_mkt&#45;&gt;bact_ferm</title>
<path fill="none" stroke="black" stroke-width="1.1" d="M136.61,-75.83C202.04,-82.11 312.6,-98.43 398,-140 463.4,-171.83 523.34,-234.39 554.02,-269.85"/>
<polygon fill="black" stroke="black" stroke-width="1.1" points="551.68,-272.49 560.83,-277.83 557,-267.95 551.68,-272.49"/>
<text text-anchor="middle" x="324" y="-143.8" font-family="Times,serif" font-size="14.00">1 m³</text>
</g>
<!-- elec_mkt -->
<g id="node15" class="node">
<title>elec_mkt</title>
<polygon fill="none" stroke="blue" points="152,-149 8,-149 8,-113 152,-113 152,-149"/>
<text text-anchor="middle" x="80" y="-127.3" font-family="Times,serif" font-size="14.00">electricity market</text>
</g>
<!-- elec_mkt&#45;&gt;feed_treat -->
<g id="edge3" class="edge">
<title>elec_mkt&#45;&gt;feed_treat</title>
<path fill="none" stroke="black" stroke-width="1.1" d="M132.02,-149.05C161.62,-159.99 199.37,-174.74 232,-190 249.2,-198.04 267.65,-207.93 283.41,-216.79"/>
<polygon fill="black" stroke="black" stroke-width="1.1" points="281.93,-219.97 292.35,-221.86 285.38,-213.88 281.93,-219.97"/>
<text text-anchor="middle" x="205" y="-193.8" font-family="Times,serif" font-size="14.00">1 kWh</text>
</g>
<!-- elec_mkt&#45;&gt;bact_ferm -->
<g id="edge13" class="edge">
<title>elec_mkt&#45;&gt;bact_ferm</title>
<path fill="none" stroke="black" stroke-width="1.1" d="M152.06,-141.39C217.1,-151.98 315.48,-170.74 398,-198 431.42,-209.04 438.96,-214.4 470,-231 493.8,-243.72 519.6,-259.58 539.74,-272.45"/>
<polygon fill="black" stroke="black" stroke-width="1.1" points="537.97,-275.48 548.28,-277.95 541.76,-269.59 537.97,-275.48"/>
<text text-anchor="middle" x="324" y="-201.8" font-family="Times,serif" font-size="14.00">1 kWh</text>
</g>
<!-- kerosene -->
<g id="node17" class="node">
<title>kerosene</title>
<polygon fill="none" stroke="blue" points="154,-492 6,-492 6,-456 154,-456 154,-492"/>
<text text-anchor="middle" x="80" y="-470.3" font-family="Times,serif" font-size="14.00">heating oil market</text>
</g>
<!-- kerosene&#45;&gt;feed_treat -->
<g id="edge4" class="edge">
<title>kerosene&#45;&gt;feed_treat</title>
<path fill="none" stroke="black" stroke-width="1.1" d="M94.48,-455.92C121.42,-420.55 184.9,-340.88 250,-286 259.57,-277.93 270.68,-270.22 281.3,-263.51"/>
<polygon fill="black" stroke="black" stroke-width="1.1" points="283.38,-266.34 290.05,-258.11 279.7,-260.38 283.38,-266.34"/>
<text text-anchor="middle" x="205" y="-356.8" font-family="Times,serif" font-size="14.00">1 kg</text>
</g>
<!-- kerosene&#45;&gt;bact_ferm -->
<g id="edge14" class="edge">
<title>kerosene&#45;&gt;bact_ferm</title>
<path fill="none" stroke="black" stroke-width="1.1" d="M152.36,-492.02C217.6,-505.34 316.1,-517.49 398,-494 482.49,-469.77 539.48,-372.07 563.15,-323.58"/>
<polygon fill="black" stroke="black" stroke-width="1.1" points="566.43,-324.83 567.56,-314.3 560.1,-321.83 566.43,-324.83"/>
<text text-anchor="middle" x="324" y="-510.8" font-family="Times,serif" font-size="14.00">1 kg</text>
</g>
<!-- CO2 -->
<g id="node18" class="node">
<title>CO2</title>
<ellipse fill="none" stroke="green" cx="1373.5" cy="-396" rx="30.59" ry="18"/>
<text text-anchor="middle" x="1373.5" y="-392.3" font-family="Times,serif" font-size="14.00">CO2</text>
</g>
<!-- CH4 -->
<g id="node19" class="node">
<title>CH4</title>
<ellipse fill="none" stroke="green" cx="1373.5" cy="-342" rx="31.4" ry="18"/>
<text text-anchor="middle" x="1373.5" y="-338.3" font-family="Times,serif" font-size="14.00">CH4</text>
</g>
<!-- NH3 -->
<g id="node20" class="node">
<title>NH3</title>
<ellipse fill="none" stroke="green" cx="1373.5" cy="-288" rx="32.49" ry="18"/>
<text text-anchor="middle" x="1373.5" y="-284.3" font-family="Times,serif" font-size="14.00">NH3</text>
</g>
<!-- NOx -->
<g id="node21" class="node">
<title>NOx</title>
<ellipse fill="none" stroke="green" cx="1373.5" cy="-234" rx="31.4" ry="18"/>
<text text-anchor="middle" x="1373.5" y="-230.3" font-family="Times,serif" font-size="14.00">NOx</text>
</g>
<!-- SO2 -->
<g id="node22" class="node">
<title>SO2</title>
<ellipse fill="none" stroke="green" cx="1373.5" cy="-180" rx="30.59" ry="18"/>
<text text-anchor="middle" x="1373.5" y="-176.3" font-family="Times,serif" font-size="14.00">SO2</text>
</g>
<!-- CrVI -->
<g id="node23" class="node">
<title>CrVI</title>
<ellipse fill="none" stroke="green" cx="1373.5" cy="-126" rx="31.7" ry="18"/>
<text text-anchor="middle" x="1373.5" y="-122.3" font-family="Times,serif" font-size="14.00">CrVI</text>
</g>
<!-- As -->
<g id="node24" class="node">
<title>As</title>
<ellipse fill="none" stroke="green" cx="1373.5" cy="-72" rx="27" ry="18"/>
<text text-anchor="middle" x="1373.5" y="-68.3" font-family="Times,serif" font-size="14.00">As</text>
</g>
<!-- PAH -->
<g id="node25" class="node">
<title>PAH</title>
<ellipse fill="none" stroke="green" cx="1373.5" cy="-18" rx="30.59" ry="18"/>
<text text-anchor="middle" x="1373.5" y="-14.3" font-family="Times,serif" font-size="14.00">PAH</text>
</g>
<!-- unalloc_bio&#45;&gt;CO2 -->
<g id="edge25" class="edge">
<title>unalloc_bio&#45;&gt;CO2</title>
<path fill="none" stroke="black" stroke-width="1.1" d="M1185.27,-225.04C1209.09,-249.04 1252.92,-292.58 1292,-328 1309.89,-344.22 1330.73,-361.79 1346.73,-375.01"/>
<polygon fill="black" stroke="black" stroke-width="1.1" points="1344.66,-377.84 1354.61,-381.49 1349.11,-372.43 1344.66,-377.84"/>
<text text-anchor="middle" x="1307.5" y="-357.8" font-family="Times,serif" font-size="14.00">1 kg</text>
</g>
<!-- unalloc_bio&#45;&gt;CH4 -->
<g id="edge26" class="edge">
<title>unalloc_bio&#45;&gt;CH4</title>
<path fill="none" stroke="black" stroke-width="1.1" d="M1195.15,-225.21C1234.06,-250.83 1304.63,-297.3 1344,-323.23"/>
<polygon fill="black" stroke="black" stroke-width="1.1" points="1342.09,-326.17 1352.37,-328.74 1345.94,-320.32 1342.09,-326.17"/>
<text text-anchor="middle" x="1307.5" y="-312.8" font-family="Times,serif" font-size="14.00">1 kg</text>
</g>
<!-- unalloc_bio&#45;&gt;NH3 -->
<g id="edge27" class="edge">
<title>unalloc_bio&#45;&gt;NH3</title>
<path fill="none" stroke="black" stroke-width="1.1" d="M1213.25,-225.08C1250.63,-239.85 1302.7,-260.42 1336.99,-273.97"/>
<polygon fill="black" stroke="black" stroke-width="1.1" points="1336,-277.34 1346.59,-277.76 1338.57,-270.83 1336,-277.34"/>
<text text-anchor="middle" x="1307.5" y="-271.8" font-family="Times,serif" font-size="14.00">1 kg</text>
</g>
<!-- unalloc_bio&#45;&gt;NOx -->
<g id="edge28" class="edge">
<title>unalloc_bio&#45;&gt;NOx</title>
<path fill="none" stroke="black" stroke-width="1.1" d="M1274.2,-221.05C1295.15,-223.81 1315.86,-226.54 1332.83,-228.78"/>
<polygon fill="black" stroke="black" stroke-width="1.1" points="1332.51,-232.26 1342.88,-230.1 1333.43,-225.32 1332.51,-232.26"/>
<text text-anchor="middle" x="1307.5" y="-230.8" font-family="Times,serif" font-size="14.00">1 kg</text>
</g>
<!-- unalloc_bio&#45;&gt;SO2 -->
<g id="edge29" class="edge">
<title>unalloc_bio&#45;&gt;SO2</title>
<path fill="none" stroke="black" stroke-width="1.1" d="M1274.2,-192.95C1295.31,-190.17 1316.18,-187.42 1333.22,-185.17"/>
<polygon fill="black" stroke="black" stroke-width="1.1" points="1333.85,-188.62 1343.31,-183.84 1332.94,-181.68 1333.85,-188.62"/>
<text text-anchor="middle" x="1307.5" y="-193.8" font-family="Times,serif" font-size="14.00">1 kg</text>
</g>
<!-- unalloc_bio&#45;&gt;CrVI -->
<g id="edge30" class="edge">
<title>unalloc_bio&#45;&gt;CrVI</title>
<path fill="none" stroke="black" stroke-width="1.1" d="M1215.02,-188.92C1233.47,-181.84 1254.75,-173.61 1274,-166 1295.19,-157.62 1318.86,-148.02 1337.68,-140.32"/>
<polygon fill="black" stroke="black" stroke-width="1.1" points="1339.11,-143.52 1347.04,-136.49 1336.46,-137.04 1339.11,-143.52"/>
<text text-anchor="middle" x="1307.5" y="-161.8" font-family="Times,serif" font-size="14.00">1 kg</text>
</g>
<!-- unalloc_bio&#45;&gt;As -->
<g id="edge31" class="edge">
<title>unalloc_bio&#45;&gt;As</title>
<path fill="none" stroke="black" stroke-width="1.1" d="M1237.61,-188.9C1250.79,-183.16 1263.66,-175.69 1274,-166 1287.93,-152.95 1279.67,-141.58 1292,-127 1305.92,-110.53 1325.93,-96.83 1342.51,-87.23"/>
<polygon fill="black" stroke="black" stroke-width="1.1" points="1344.28,-90.25 1351.31,-82.32 1340.87,-84.13 1344.28,-90.25"/>
<text text-anchor="middle" x="1307.5" y="-130.8" font-family="Times,serif" font-size="14.00">1 kg</text>
</g>
<!-- unalloc_bio&#45;&gt;PAH -->
<g id="edge32" class="edge">
<title>unalloc_bio&#45;&gt;PAH</title>
<path fill="none" stroke="black" stroke-width="1.1" d="M1242.94,-188.95C1254.67,-183.27 1265.64,-175.8 1274,-166 1299.05,-136.61 1271.56,-113.76 1292,-81 1304.08,-61.64 1324.33,-45.83 1341.5,-34.9"/>
<polygon fill="black" stroke="black" stroke-width="1.1" points="1343.42,-37.82 1350.14,-29.63 1339.78,-31.85 1343.42,-37.82"/>
<text text-anchor="middle" x="1307.5" y="-84.8" font-family="Times,serif" font-size="14.00">1 kg</text>
</g>
</g>
</svg>
