<?xml version="1.0" encoding="UTF-8" standalone="no"?>
<!DOCTYPE svg PUBLIC "-//W3C//DTD SVG 1.1//EN"
 "http://www.w3.org/Graphics/SVG/1.1/DTD/svg11.dtd">
<!-- Generated by graphviz version 2.43.0 (0)
 -->
<!-- Title: %3 Pages: 1 -->
<svg width="1285pt" height="904pt"
 viewBox="0.00 0.00 1285.28 903.94" xmlns="http://www.w3.org/2000/svg" xmlns:xlink="http://www.w3.org/1999/xlink">
<g id="graph0" class="graph" transform="scale(1 1) rotate(0) translate(7.2 896.74)">
<title>%3</title>
<polygon fill="white" stroke="transparent" points="-7.2,7.2 -7.2,-896.74 1278.08,-896.74 1278.08,7.2 -7.2,7.2"/>
<!-- bread_waste -->
<g id="node1" class="node">
<title>bread_waste</title>
<polygon fill="none" stroke="red" points="160,-498.54 0,-498.54 0,-462.54 160,-462.54 160,-498.54"/>
<text text-anchor="middle" x="80" y="-476.84" font-family="Times,serif" font-size="14.00">bread waste market</text>
</g>
<!-- feed_treat -->
<g id="node5" class="node">
<title>feed_treat</title>
<polygon fill="none" stroke="red" points="398,-498.54 250,-498.54 250,-462.54 398,-462.54 398,-498.54"/>
<text text-anchor="middle" x="324" y="-476.84" font-family="Times,serif" font-size="14.00">feed pretreatment</text>
</g>
<!-- bread_waste&#45;&gt;feed_treat -->
<g id="edge1" class="edge">
<title>bread_waste&#45;&gt;feed_treat</title>
<path fill="none" stroke="black" stroke-width="1.1" d="M160.24,-480.54C185.67,-480.54 213.91,-480.54 239.63,-480.54"/>
<polygon fill="black" stroke="black" stroke-width="1.1" points="239.73,-484.04 249.73,-480.54 239.73,-477.04 239.73,-484.04"/>
<text text-anchor="middle" x="205" y="-484.34" font-family="Times,serif" font-size="14.00">1 kg</text>
</g>
<!-- enz_mkt -->
<g id="node2" class="node">
<title>enz_mkt</title>
<polygon fill="none" stroke="red" points="143.5,-552.54 16.5,-552.54 16.5,-516.54 143.5,-516.54 143.5,-552.54"/>
<text text-anchor="middle" x="80" y="-530.84" font-family="Times,serif" font-size="14.00">enzyme market</text>
</g>
<!-- enz_mkt&#45;&gt;feed_treat -->
<g id="edge6" class="edge">
<title>enz_mkt&#45;&gt;feed_treat</title>
<path fill="none" stroke="black" stroke-width="0.18" d="M143.64,-520.56C172.95,-514.02 208.28,-506.14 239.81,-499.1"/>
<polygon fill="black" stroke="black" stroke-width="0.18" points="240.9,-502.44 249.89,-496.85 239.37,-495.61 240.9,-502.44"/>
<text text-anchor="middle" x="205" y="-515.34" font-family="Times,serif" font-size="14.00">0.01 kg</text>
</g>
<!-- ecoli_prop -->
<g id="node3" class="node">
<title>ecoli_prop</title>
<polygon fill="none" stroke="red" points="377.5,-373.54 270.5,-373.54 270.5,-337.54 377.5,-337.54 377.5,-373.54"/>
<text text-anchor="middle" x="324" y="-351.84" font-family="Times,serif" font-size="14.00">Ecoli market</text>
</g>
<!-- bact_ferm -->
<g id="node6" class="node">
<title>bact_ferm</title>
<polygon fill="none" stroke="red" points="665,-460.54 488,-460.54 488,-424.54 665,-424.54 665,-460.54"/>
<text text-anchor="middle" x="576.5" y="-438.84" font-family="Times,serif" font-size="14.00">bacterial fermentation</text>
</g>
<!-- ecoli_prop&#45;&gt;bact_ferm -->
<g id="edge8" class="edge">
<title>ecoli_prop&#45;&gt;bact_ferm</title>
<path fill="none" stroke="black" stroke-width="1.1" d="M377.51,-359.98C405.59,-363.49 440.38,-369.69 470,-380.54 495.72,-389.95 522.29,-405.61 542.33,-418.83"/>
<polygon fill="black" stroke="black" stroke-width="1.1" points="540.53,-421.84 550.78,-424.52 544.43,-416.03 540.53,-421.84"/>
<text text-anchor="middle" x="443" y="-384.34" font-family="Times,serif" font-size="14.00">1 kg</text>
</g>
<!-- MgCO3_mkt -->
<g id="node4" class="node">
<title>MgCO3_mkt</title>
<polygon fill="none" stroke="blue" points="387,-174.54 261,-174.54 261,-138.54 387,-138.54 387,-174.54"/>
<text text-anchor="middle" x="324" y="-152.84" font-family="Times,serif" font-size="14.00">MgCO3 market</text>
</g>
<!-- MgCO3_mkt&#45;&gt;bact_ferm -->
<g id="edge9" class="edge">
<title>MgCO3_mkt&#45;&gt;bact_ferm</title>
<path fill="none" stroke="black" stroke-width="0.62" d="M339.58,-174.55C366.4,-207.94 424.94,-282.02 470,-347.54 478.6,-360.04 477.77,-365.33 488,-376.54 502.53,-392.45 521.33,-407.2 537.78,-418.7"/>
<polygon fill="black" stroke="black" stroke-width="0.62" points="535.9,-421.66 546.13,-424.41 539.85,-415.88 535.9,-421.66"/>
<text text-anchor="middle" x="443" y="-351.34" font-family="Times,serif" font-size="14.00">0.27 kg</text>
</g>
<!-- feed_treat&#45;&gt;bact_ferm -->
<g id="edge7" class="edge">
<title>feed_treat&#45;&gt;bact_ferm</title>
<path fill="none" stroke="black" stroke-width="3.26" d="M398.13,-469.44C422.97,-465.68 451.14,-461.4 477.6,-457.39"/>
<polygon fill="black" stroke="black" stroke-width="3.26" points="478.29,-460.82 487.65,-455.86 477.24,-453.9 478.29,-460.82"/>
<text text-anchor="middle" x="443" y="-469.34" font-family="Times,serif" font-size="14.00">10 kg</text>
</g>
<!-- feed_treat&#45;&gt;bact_ferm -->
<g id="edge19" class="edge">
<title>feed_treat&#45;&gt;bact_ferm</title>
<path fill="none" stroke="black" stroke-width="0.62" d="M356.29,-462.46C373.34,-453.65 395.16,-444.01 416,-439.54 435.78,-435.29 457.26,-433.71 477.85,-433.62"/>
<polygon fill="black" stroke="black" stroke-width="0.62" points="477.86,-437.12 487.88,-433.69 477.91,-430.12 477.86,-437.12"/>
<text text-anchor="middle" x="443" y="-443.34" font-family="Times,serif" font-size="14.00">0.27 kg</text>
</g>
<!-- CO2 -->
<g id="node18" class="node">
<title>CO2</title>
<ellipse fill="none" stroke="green" cx="1164.94" cy="-837.54" rx="30.59" ry="18"/>
<text text-anchor="middle" x="1164.94" y="-833.84" font-family="Times,serif" font-size="14.00">CO2</text>
</g>
<!-- feed_treat&#45;&gt;CO2 -->
<g id="edge22" class="edge">
<title>feed_treat&#45;&gt;CO2</title>
<path fill="none" stroke="black" stroke-width="1.1" d="M385.04,-498.59C389.95,-501.93 394.4,-505.87 398,-510.54 434.96,-558.48 396.12,-588.36 416,-645.54 436.55,-704.64 442.12,-723.98 488,-766.54 558.97,-832.36 589.34,-839.08 683,-863.54 843.99,-905.58 1045.29,-866.56 1126.96,-847.09"/>
<polygon fill="black" stroke="black" stroke-width="1.1" points="1127.88,-850.47 1136.77,-844.7 1126.23,-843.66 1127.88,-850.47"/>
<text text-anchor="middle" x="714.5" y="-878.34" font-family="Times,serif" font-size="14.00">1 kg</text>
</g>
<!-- CH4 -->
<g id="node19" class="node">
<title>CH4</title>
<ellipse fill="none" stroke="green" cx="1164.94" cy="-776.54" rx="31.4" ry="18"/>
<text text-anchor="middle" x="1164.94" y="-772.84" font-family="Times,serif" font-size="14.00">CH4</text>
</g>
<!-- feed_treat&#45;&gt;CH4 -->
<g id="edge25" class="edge">
<title>feed_treat&#45;&gt;CH4</title>
<path fill="none" stroke="black" stroke-width="1.1" d="M384.33,-498.65C389.45,-501.98 394.14,-505.91 398,-510.54 422.72,-540.2 399.4,-560.67 416,-595.54 437.88,-641.47 450.71,-649.93 488,-684.54 592.59,-781.6 623.41,-824.13 764,-848.54 849.83,-863.44 874.35,-864.41 960,-848.54 1006.34,-839.95 1014.57,-826.25 1059,-810.54 1081.55,-802.56 1107.08,-794.28 1127.31,-787.88"/>
<polygon fill="black" stroke="black" stroke-width="1.1" points="1128.58,-791.15 1137.07,-784.81 1126.48,-784.47 1128.58,-791.15"/>
<text text-anchor="middle" x="714.5" y="-848.34" font-family="Times,serif" font-size="14.00">1 kg</text>
</g>
<!-- NH3 -->
<g id="node20" class="node">
<title>NH3</title>
<ellipse fill="none" stroke="green" cx="1164.94" cy="-636.54" rx="32.49" ry="18"/>
<text text-anchor="middle" x="1164.94" y="-632.84" font-family="Times,serif" font-size="14.00">NH3</text>
</g>
<!-- feed_treat&#45;&gt;NH3 -->
<g id="edge28" class="edge">
<title>feed_treat&#45;&gt;NH3</title>
<path fill="none" stroke="black" stroke-width="1.1" d="M375.59,-498.71C383.31,-502.22 391.03,-506.18 398,-510.54 407.08,-516.21 406.97,-520.79 416,-526.54 485.32,-570.64 606.16,-635.75 764,-665.54 894.73,-690.2 1053.15,-661.88 1125.07,-645.94"/>
<polygon fill="black" stroke="black" stroke-width="1.1" points="1126.06,-649.3 1135.04,-643.68 1124.51,-642.48 1126.06,-649.3"/>
<text text-anchor="middle" x="714.5" y="-665.34" font-family="Times,serif" font-size="14.00">1 kg</text>
</g>
<!-- NOx -->
<g id="node21" class="node">
<title>NOx</title>
<ellipse fill="none" stroke="green" cx="1164.94" cy="-548.54" rx="31.4" ry="18"/>
<text text-anchor="middle" x="1164.94" y="-544.84" font-family="Times,serif" font-size="14.00">NOx</text>
</g>
<!-- feed_treat&#45;&gt;NOx -->
<g id="edge31" class="edge">
<title>feed_treat&#45;&gt;NOx</title>
<path fill="none" stroke="black" stroke-width="1.1" d="M387.18,-498.58C471.63,-522.06 627.68,-561.81 764,-576.54 850.61,-585.9 873.09,-582.48 960,-576.54 1017.73,-572.59 1084.01,-562.44 1124.94,-555.51"/>
<polygon fill="black" stroke="black" stroke-width="1.1" points="1125.76,-558.92 1135.02,-553.77 1124.58,-552.02 1125.76,-558.92"/>
<text text-anchor="middle" x="714.5" y="-577.34" font-family="Times,serif" font-size="14.00">1 kg</text>
</g>
<!-- SO2 -->
<g id="node22" class="node">
<title>SO2</title>
<ellipse fill="none" stroke="green" cx="1164.94" cy="-168.54" rx="30.59" ry="18"/>
<text text-anchor="middle" x="1164.94" y="-164.84" font-family="Times,serif" font-size="14.00">SO2</text>
</g>
<!-- feed_treat&#45;&gt;SO2 -->
<g id="edge34" class="edge">
<title>feed_treat&#45;&gt;SO2</title>
<path fill="none" stroke="black" stroke-width="1.1" d="M377.34,-462.53C385.42,-457.57 392.79,-451.33 398,-443.54 427.21,-399.8 388.09,-252.12 416,-207.54 435.66,-176.14 453.02,-177.73 488,-165.54 718.84,-85.09 1021.57,-137.55 1126.35,-159.89"/>
<polygon fill="black" stroke="black" stroke-width="1.1" points="1125.63,-163.31 1136.14,-162.01 1127.11,-156.47 1125.63,-163.31"/>
<text text-anchor="middle" x="714.5" y="-130.34" font-family="Times,serif" font-size="14.00">1 kg</text>
</g>
<!-- CrVI -->
<g id="node23" class="node">
<title>CrVI</title>
<ellipse fill="none" stroke="green" cx="1164.94" cy="-222.54" rx="31.7" ry="18"/>
<text text-anchor="middle" x="1164.94" y="-218.84" font-family="Times,serif" font-size="14.00">CrVI</text>
</g>
<!-- feed_treat&#45;&gt;CrVI -->
<g id="edge37" class="edge">
<title>feed_treat&#45;&gt;CrVI</title>
<path fill="none" stroke="black" stroke-width="1.1" d="M377.19,-462.43C385.28,-457.48 392.7,-451.27 398,-443.54 443.67,-376.83 366.39,-326.36 416,-262.54 493.48,-162.85 558.66,-187.42 683,-165.54 804.25,-144.19 838.22,-147.49 960,-165.54 1005.48,-172.28 1014.73,-183.14 1059,-195.54 1080.91,-201.67 1105.53,-208.03 1125.42,-213.04"/>
<polygon fill="black" stroke="black" stroke-width="1.1" points="1124.8,-216.49 1135.35,-215.53 1126.5,-209.7 1124.8,-216.49"/>
<text text-anchor="middle" x="714.5" y="-169.34" font-family="Times,serif" font-size="14.00">1 kg</text>
</g>
<!-- As -->
<g id="node24" class="node">
<title>As</title>
<ellipse fill="none" stroke="green" cx="1164.94" cy="-295.54" rx="27" ry="18"/>
<text text-anchor="middle" x="1164.94" y="-291.84" font-family="Times,serif" font-size="14.00">As</text>
</g>
<!-- feed_treat&#45;&gt;As -->
<g id="edge40" class="edge">
<title>feed_treat&#45;&gt;As</title>
<path fill="none" stroke="black" stroke-width="1.1" d="M375.7,-462.33C384.15,-457.36 392.07,-451.17 398,-443.54 420.62,-414.41 401.53,-396.46 416,-362.54 438.64,-309.48 437.14,-281.76 488,-254.54 508.39,-243.63 854,-249.35 960,-259.54 1019.92,-265.3 1088.69,-278.92 1129.11,-287.66"/>
<polygon fill="black" stroke="black" stroke-width="1.1" points="1128.48,-291.1 1139,-289.82 1129.98,-284.27 1128.48,-291.1"/>
<text text-anchor="middle" x="714.5" y="-254.34" font-family="Times,serif" font-size="14.00">1 kg</text>
</g>
<!-- PAH -->
<g id="node25" class="node">
<title>PAH</title>
<ellipse fill="none" stroke="green" cx="1164.94" cy="-722.54" rx="30.59" ry="18"/>
<text text-anchor="middle" x="1164.94" y="-718.84" font-family="Times,serif" font-size="14.00">PAH</text>
</g>
<!-- feed_treat&#45;&gt;PAH -->
<g id="edge43" class="edge">
<title>feed_treat&#45;&gt;PAH</title>
<path fill="none" stroke="black" stroke-width="1.1" d="M382.49,-498.69C388.17,-502.03 393.48,-505.94 398,-510.54 413.39,-526.19 403.31,-538.62 416,-556.54 440.41,-590.99 452.78,-595.24 488,-618.54 602.06,-693.98 630.82,-723.51 764,-754.54 894.93,-785.04 1055.77,-751.36 1126.99,-732.94"/>
<polygon fill="black" stroke="black" stroke-width="1.1" points="1128.06,-736.28 1136.84,-730.34 1126.28,-729.51 1128.06,-736.28"/>
<text text-anchor="middle" x="714.5" y="-752.34" font-family="Times,serif" font-size="14.00">1 kg</text>
</g>
<!-- SA_purif -->
<g id="node7" class="node">
<title>SA_purif</title>
<polygon fill="none" stroke="red" points="960,-460.54 764,-460.54 764,-424.54 960,-424.54 960,-460.54"/>
<text text-anchor="middle" x="862" y="-438.84" font-family="Times,serif" font-size="14.00">Succinic acid purification</text>
</g>
<!-- bact_ferm&#45;&gt;SA_purif -->
<g id="edge16" class="edge">
<title>bact_ferm&#45;&gt;SA_purif</title>
<path fill="none" stroke="black" stroke-width="1.1" d="M665.26,-442.54C693.19,-442.54 724.41,-442.54 753.56,-442.54"/>
<polygon fill="black" stroke="black" stroke-width="1.1" points="753.78,-446.04 763.78,-442.54 753.78,-439.04 753.78,-446.04"/>
<text text-anchor="middle" x="714.5" y="-446.34" font-family="Times,serif" font-size="14.00">1 kg</text>
</g>
<!-- biogas_mkt -->
<g id="node16" class="node">
<title>biogas_mkt</title>
<polygon fill="none" stroke="blue" points="921.5,-304.54 802.5,-304.54 802.5,-268.54 921.5,-268.54 921.5,-304.54"/>
<text text-anchor="middle" x="862" y="-282.84" font-family="Times,serif" font-size="14.00">biogas market</text>
</g>
<!-- bact_ferm&#45;&gt;biogas_mkt -->
<g id="edge15" class="edge">
<title>bact_ferm&#45;&gt;biogas_mkt</title>
<path fill="none" stroke="black" stroke-width="1.1" d="M600.88,-424.38C621.94,-408.3 653.94,-384.5 683,-365.54 717.86,-342.79 726.03,-335.59 764,-318.54 773.1,-314.45 782.88,-310.61 792.61,-307.12"/>
<polygon fill="black" stroke="black" stroke-width="1.1" points="794.01,-310.34 802.29,-303.73 791.7,-303.73 794.01,-310.34"/>
<text text-anchor="middle" x="714.5" y="-369.34" font-family="Times,serif" font-size="14.00">1 kg</text>
</g>
<!-- bact_ferm&#45;&gt;CO2 -->
<g id="edge23" class="edge">
<title>bact_ferm&#45;&gt;CO2</title>
<path fill="none" stroke="black" stroke-width="1.1" d="M576.72,-460.88C575.34,-519.36 579.77,-702.54 683,-787.54 814.07,-895.45 1038.21,-864.06 1126.56,-846.12"/>
<polygon fill="black" stroke="black" stroke-width="1.1" points="1127.33,-849.54 1136.41,-844.07 1125.9,-842.69 1127.33,-849.54"/>
<text text-anchor="middle" x="862" y="-868.34" font-family="Times,serif" font-size="14.00">1 kg</text>
</g>
<!-- bact_ferm&#45;&gt;CH4 -->
<g id="edge26" class="edge">
<title>bact_ferm&#45;&gt;CH4</title>
<path fill="none" stroke="black" stroke-width="1.1" d="M590.04,-460.78C608.48,-486.8 644.86,-535.21 683,-569.54 708.01,-592.05 727.33,-583.54 746,-611.54 769.11,-646.2 734.35,-674.26 764,-703.54 814.48,-753.39 1032.33,-769.96 1123.54,-774.78"/>
<polygon fill="black" stroke="black" stroke-width="1.1" points="1123.59,-778.29 1133.76,-775.3 1123.95,-771.3 1123.59,-778.29"/>
<text text-anchor="middle" x="862" y="-763.34" font-family="Times,serif" font-size="14.00">1 kg</text>
</g>
<!-- bact_ferm&#45;&gt;NH3 -->
<g id="edge29" class="edge">
<title>bact_ferm&#45;&gt;NH3</title>
<path fill="none" stroke="black" stroke-width="1.1" d="M616.51,-460.69C654.05,-477.96 712.53,-504.39 764,-525.54 850.13,-560.93 884.98,-544.39 960,-599.54 970.46,-607.22 966.55,-616.42 978,-622.54 1023.34,-646.78 1083.98,-646.33 1123.49,-642.5"/>
<polygon fill="black" stroke="black" stroke-width="1.1" points="1123.99,-645.96 1133.55,-641.4 1123.23,-639 1123.99,-645.96"/>
<text text-anchor="middle" x="862" y="-603.34" font-family="Times,serif" font-size="14.00">1 kg</text>
</g>
<!-- bact_ferm&#45;&gt;NOx -->
<g id="edge32" class="edge">
<title>bact_ferm&#45;&gt;NOx</title>
<path fill="none" stroke="black" stroke-width="1.1" d="M665,-458.32C671.09,-459.41 677.14,-460.49 683,-461.54 744.54,-472.52 906.75,-477.8 960,-510.54 971.36,-517.52 966.31,-528.13 978,-534.54 1023.61,-559.53 1085.2,-558.67 1124.75,-554.56"/>
<polygon fill="black" stroke="black" stroke-width="1.1" points="1125.27,-558.02 1134.8,-553.39 1124.46,-551.07 1125.27,-558.02"/>
<text text-anchor="middle" x="862" y="-514.34" font-family="Times,serif" font-size="14.00">1 kg</text>
</g>
<!-- bact_ferm&#45;&gt;SO2 -->
<g id="edge35" class="edge">
<title>bact_ferm&#45;&gt;SO2</title>
<path fill="none" stroke="black" stroke-width="1.1" d="M613.99,-424.35C632.44,-413.17 653.33,-397.04 665,-376.54 683.02,-344.86 657.02,-239.09 683,-213.54 744.85,-152.71 1020.86,-160.81 1124.47,-166.15"/>
<polygon fill="black" stroke="black" stroke-width="1.1" points="1124.35,-169.65 1134.52,-166.69 1124.72,-162.66 1124.35,-169.65"/>
<text text-anchor="middle" x="862" y="-183.34" font-family="Times,serif" font-size="14.00">1 kg</text>
</g>
<!-- bact_ferm&#45;&gt;CrVI -->
<g id="edge38" class="edge">
<title>bact_ferm&#45;&gt;CrVI</title>
<path fill="none" stroke="black" stroke-width="1.1" d="M624.04,-424.41C666.78,-407.22 726.37,-381.67 746,-365.54 756.58,-356.85 752.27,-347.6 764,-340.54 839.34,-295.19 896.1,-373.94 960,-313.54 990.28,-284.92 945.83,-248.02 978,-221.54 1019.9,-187.04 1086.97,-198.29 1128.07,-210.07"/>
<polygon fill="black" stroke="black" stroke-width="1.1" points="1127.1,-213.43 1137.68,-212.97 1129.12,-206.73 1127.1,-213.43"/>
<text text-anchor="middle" x="862" y="-344.34" font-family="Times,serif" font-size="14.00">1 kg</text>
</g>
<!-- bact_ferm&#45;&gt;As -->
<g id="edge41" class="edge">
<title>bact_ferm&#45;&gt;As</title>
<path fill="none" stroke="black" stroke-width="1.1" d="M656.39,-424.49C689.59,-416.97 728.65,-408.21 764,-400.54 850.97,-381.65 892.84,-417.93 960,-359.54 977.82,-344.04 959.2,-323.83 978,-309.54 1021.62,-276.37 1088.84,-280.94 1129.39,-287.85"/>
<polygon fill="black" stroke="black" stroke-width="1.1" points="1128.87,-291.31 1139.34,-289.68 1130.14,-284.43 1128.87,-291.31"/>
<text text-anchor="middle" x="862" y="-404.34" font-family="Times,serif" font-size="14.00">1 kg</text>
</g>
<!-- bact_ferm&#45;&gt;PAH -->
<g id="edge44" class="edge">
<title>bact_ferm&#45;&gt;PAH</title>
<path fill="none" stroke="black" stroke-width="1.1" d="M602.94,-460.55C637.81,-486.03 701.22,-535.22 746,-586.54 755.73,-597.68 752.5,-605.23 764,-614.54 836.39,-673.1 884.38,-634.21 960,-688.54 970.26,-695.91 966.76,-704.76 978,-710.54 1024.35,-734.36 1086,-732.95 1125.34,-728.63"/>
<polygon fill="black" stroke="black" stroke-width="1.1" points="1125.82,-732.1 1135.32,-727.42 1124.98,-725.15 1125.82,-732.1"/>
<text text-anchor="middle" x="862" y="-692.34" font-family="Times,serif" font-size="14.00">1 kg</text>
</g>
<!-- sol_biomass -->
<g id="node8" class="node">
<title>sol_biomass</title>
<polygon fill="none" stroke="red" points="1249.44,-476.54 1080.44,-476.54 1080.44,-440.54 1249.44,-440.54 1249.44,-476.54"/>
<text text-anchor="middle" x="1164.94" y="-454.84" font-family="Times,serif" font-size="14.00">solid biomass market</text>
</g>
<!-- SA_purif&#45;&gt;sol_biomass -->
<g id="edge20" class="edge">
<title>SA_purif&#45;&gt;sol_biomass</title>
<path fill="none" stroke="black" stroke-width="3.36" d="M960.07,-441.05C986.36,-441.2 1014.79,-441.87 1041,-443.54 1050.48,-444.14 1060.34,-444.98 1070.18,-445.96"/>
<polygon fill="black" stroke="black" stroke-width="3.36" points="1070.1,-449.47 1080.4,-447.03 1070.82,-442.51 1070.1,-449.47"/>
<text text-anchor="middle" x="1009.5" y="-447.34" font-family="Times,serif" font-size="14.00">10.64 kg</text>
</g>
<!-- SA_mkt -->
<g id="node9" class="node">
<title>SA_mkt</title>
<ellipse fill="pink" stroke="pink" cx="1164.94" cy="-404.54" rx="105.88" ry="18"/>
<text text-anchor="middle" x="1164.94" y="-400.84" font-family="Times,serif" font-size="14.00">succinic acid market</text>
</g>
<!-- SA_purif&#45;&gt;SA_mkt -->
<g id="edge21" class="edge">
<title>SA_purif&#45;&gt;SA_mkt</title>
<path fill="none" stroke="black" stroke-width="1.1" d="M957.97,-424.51C964.74,-423.44 971.46,-422.43 978,-421.54 1003.52,-418.05 1031.11,-415.09 1057.02,-412.66"/>
<polygon fill="black" stroke="black" stroke-width="1.1" points="1057.61,-416.12 1067.25,-411.73 1056.97,-409.15 1057.61,-416.12"/>
<text text-anchor="middle" x="1009.5" y="-425.34" font-family="Times,serif" font-size="14.00">1 kg</text>
</g>
<!-- SA_purif&#45;&gt;CO2 -->
<g id="edge24" class="edge">
<title>SA_purif&#45;&gt;CO2</title>
<path fill="none" stroke="black" stroke-width="1.1" d="M944.82,-460.74C950.58,-464.52 955.77,-469.06 960,-474.54 998.53,-524.4 944.58,-704.11 978,-757.54 994.61,-784.09 1078.21,-812.44 1127.48,-827.22"/>
<polygon fill="black" stroke="black" stroke-width="1.1" points="1126.56,-830.6 1137.14,-830.08 1128.54,-823.89 1126.56,-830.6"/>
<text text-anchor="middle" x="1009.5" y="-799.34" font-family="Times,serif" font-size="14.00">1 kg</text>
</g>
<!-- SA_purif&#45;&gt;CH4 -->
<g id="edge27" class="edge">
<title>SA_purif&#45;&gt;CH4</title>
<path fill="none" stroke="black" stroke-width="1.1" d="M944.2,-460.58C950.18,-464.39 955.58,-468.99 960,-474.54 987.1,-508.59 959.39,-630.2 978,-669.54 999.64,-715.28 1014.98,-724.59 1059,-749.54 1078.88,-760.8 1103.53,-767.46 1123.93,-771.34"/>
<polygon fill="black" stroke="black" stroke-width="1.1" points="1123.42,-774.8 1133.87,-773.08 1124.62,-767.91 1123.42,-774.8"/>
<text text-anchor="middle" x="1009.5" y="-742.34" font-family="Times,serif" font-size="14.00">1 kg</text>
</g>
<!-- SA_purif&#45;&gt;NH3 -->
<g id="edge30" class="edge">
<title>SA_purif&#45;&gt;NH3</title>
<path fill="none" stroke="black" stroke-width="1.1" d="M933.88,-460.63C943.06,-464.47 952.03,-469.07 960,-474.54 970.41,-481.69 969.46,-487.22 978,-496.54 1011.98,-533.61 1018.96,-545.12 1059,-575.54 1081.66,-592.75 1109.6,-608.77 1130.96,-620.08"/>
<polygon fill="black" stroke="black" stroke-width="1.1" points="1129.49,-623.25 1139.97,-624.77 1132.72,-617.05 1129.49,-623.25"/>
<text text-anchor="middle" x="1009.5" y="-564.34" font-family="Times,serif" font-size="14.00">1 kg</text>
</g>
<!-- SA_purif&#45;&gt;NOx -->
<g id="edge33" class="edge">
<title>SA_purif&#45;&gt;NOx</title>
<path fill="none" stroke="black" stroke-width="1.1" d="M960.05,-458.6C986.73,-464.41 1015.36,-471.97 1041,-481.54 1074.72,-494.13 1110.57,-514.57 1134.8,-529.57"/>
<polygon fill="black" stroke="black" stroke-width="1.1" points="1133.15,-532.67 1143.48,-535.02 1136.88,-526.74 1133.15,-532.67"/>
<text text-anchor="middle" x="1009.5" y="-485.34" font-family="Times,serif" font-size="14.00">1 kg</text>
</g>
<!-- SA_purif&#45;&gt;SO2 -->
<g id="edge36" class="edge">
<title>SA_purif&#45;&gt;SO2</title>
<path fill="none" stroke="black" stroke-width="1.1" d="M944.04,-424.36C950.05,-420.58 955.51,-416.02 960,-410.54 1002.26,-358.93 945.81,-319.96 978,-261.54 1000.41,-220.87 1017.55,-216.48 1059,-195.54 1079.68,-185.09 1104.76,-178.44 1125.21,-174.36"/>
<polygon fill="black" stroke="black" stroke-width="1.1" points="1125.95,-177.78 1135.14,-172.51 1124.67,-170.9 1125.95,-177.78"/>
<text text-anchor="middle" x="1009.5" y="-265.34" font-family="Times,serif" font-size="14.00">1 kg</text>
</g>
<!-- SA_purif&#45;&gt;CrVI -->
<g id="edge39" class="edge">
<title>SA_purif&#45;&gt;CrVI</title>
<path fill="none" stroke="black" stroke-width="1.1" d="M942.4,-424.28C948.91,-420.52 954.93,-415.99 960,-410.54 982.45,-386.37 960.72,-366.63 978,-338.54 1002.93,-298.01 1018.76,-293.93 1059,-268.54 1080.64,-254.88 1107.03,-243.34 1127.93,-235.23"/>
<polygon fill="black" stroke="black" stroke-width="1.1" points="1129.29,-238.45 1137.4,-231.64 1126.81,-231.91 1129.29,-238.45"/>
<text text-anchor="middle" x="1009.5" y="-342.34" font-family="Times,serif" font-size="14.00">1 kg</text>
</g>
<!-- SA_purif&#45;&gt;As -->
<g id="edge42" class="edge">
<title>SA_purif&#45;&gt;As</title>
<path fill="none" stroke="black" stroke-width="1.1" d="M929.79,-424.52C940.21,-420.58 950.63,-415.94 960,-410.54 969.27,-405.19 969.21,-400.65 978,-394.54 1029.12,-358.97 1094.5,-326.91 1132.55,-309.44"/>
<polygon fill="black" stroke="black" stroke-width="1.1" points="1134.42,-312.44 1142.07,-305.11 1131.52,-306.06 1134.42,-312.44"/>
<text text-anchor="middle" x="1009.5" y="-398.34" font-family="Times,serif" font-size="14.00">1 kg</text>
</g>
<!-- SA_purif&#45;&gt;PAH -->
<g id="edge45" class="edge">
<title>SA_purif&#45;&gt;PAH</title>
<path fill="none" stroke="black" stroke-width="1.1" d="M943.29,-460.68C949.54,-464.46 955.26,-469.03 960,-474.54 990.9,-510.41 956.62,-537.29 978,-579.54 1010.38,-643.52 1086.18,-687.14 1130.36,-708.13"/>
<polygon fill="black" stroke="black" stroke-width="1.1" points="1129,-711.36 1139.54,-712.39 1131.94,-705.01 1129,-711.36"/>
<text text-anchor="middle" x="1009.5" y="-654.34" font-family="Times,serif" font-size="14.00">1 kg</text>
</g>
<!-- HCl_mkt -->
<g id="node10" class="node">
<title>HCl_mkt</title>
<polygon fill="none" stroke="blue" points="626,-299.54 527,-299.54 527,-263.54 626,-263.54 626,-299.54"/>
<text text-anchor="middle" x="576.5" y="-277.84" font-family="Times,serif" font-size="14.00">HCl market</text>
</g>
<!-- HCl_mkt&#45;&gt;SA_purif -->
<g id="edge17" class="edge">
<title>HCl_mkt&#45;&gt;SA_purif</title>
<path fill="none" stroke="black" stroke-width="0.38" d="M626.25,-275.44C664.01,-273.62 714.96,-277.99 746,-308.54 778.81,-340.83 733.87,-375.73 764,-410.54 766.53,-413.46 769.33,-416.11 772.33,-418.53"/>
<polygon fill="black" stroke="black" stroke-width="0.38" points="770.53,-421.53 780.74,-424.37 774.52,-415.79 770.53,-421.53"/>
<text text-anchor="middle" x="714.5" y="-312.34" font-family="Times,serif" font-size="14.00">0.08 kg</text>
</g>
<!-- NaCl_brine -->
<g id="node11" class="node">
<title>NaCl_brine</title>
<polygon fill="none" stroke="blue" points="636.5,-367.54 516.5,-367.54 516.5,-331.54 636.5,-331.54 636.5,-367.54"/>
<text text-anchor="middle" x="576.5" y="-345.84" font-family="Times,serif" font-size="14.00">NaCl brine x%</text>
</g>
<!-- NaCl_brine&#45;&gt;SA_purif -->
<g id="edge18" class="edge">
<title>NaCl_brine&#45;&gt;SA_purif</title>
<path fill="none" stroke="black" stroke-width="3.97" d="M632.5,-367.58C679.29,-382.93 746.59,-405.01 796.03,-421.22"/>
<polygon fill="black" stroke="black" stroke-width="3.97" points="795.08,-424.6 805.67,-424.39 797.26,-417.94 795.08,-424.6"/>
<text text-anchor="middle" x="714.5" y="-407.34" font-family="Times,serif" font-size="14.00">15.01 kg</text>
</g>
<!-- NaOH_mkt -->
<g id="node12" class="node">
<title>NaOH_mkt</title>
<polygon fill="none" stroke="blue" points="382,-120.54 266,-120.54 266,-84.54 382,-84.54 382,-120.54"/>
<text text-anchor="middle" x="324" y="-98.84" font-family="Times,serif" font-size="14.00">NaOH market</text>
</g>
<!-- NaOH_mkt&#45;&gt;bact_ferm -->
<g id="edge10" class="edge">
<title>NaOH_mkt&#45;&gt;bact_ferm</title>
<path fill="none" stroke="black" stroke-width="0.54" d="M382.26,-119.06C387.91,-122.02 393.28,-125.49 398,-129.54 448.1,-172.57 448.65,-197.04 470,-259.54 487.01,-309.32 461.01,-331.37 488,-376.54 498.29,-393.76 514.96,-408 531,-418.78"/>
<polygon fill="black" stroke="black" stroke-width="0.54" points="529.49,-421.97 539.8,-424.42 533.26,-416.08 529.49,-421.97"/>
<text text-anchor="middle" x="443" y="-263.34" font-family="Times,serif" font-size="14.00">0.2 kg</text>
</g>
<!-- steam_mkt -->
<g id="node13" class="node">
<title>steam_mkt</title>
<polygon fill="none" stroke="blue" points="138,-84.54 22,-84.54 22,-48.54 138,-48.54 138,-84.54"/>
<text text-anchor="middle" x="80" y="-62.84" font-family="Times,serif" font-size="14.00">steam market</text>
</g>
<!-- steam_mkt&#45;&gt;feed_treat -->
<g id="edge5" class="edge">
<title>steam_mkt&#45;&gt;feed_treat</title>
<path fill="none" stroke="black" stroke-width="1.1" d="M93.18,-84.54C121.74,-127.55 193.51,-240.48 232,-344.54 245.25,-380.35 229.03,-396.63 250,-428.54 257.22,-439.52 267.61,-448.91 278.31,-456.57"/>
<polygon fill="black" stroke="black" stroke-width="1.1" points="276.64,-459.66 286.89,-462.34 280.54,-453.85 276.64,-459.66"/>
<text text-anchor="middle" x="205" y="-348.34" font-family="Times,serif" font-size="14.00">1 MJ</text>
</g>
<!-- steam_mkt&#45;&gt;bact_ferm -->
<g id="edge11" class="edge">
<title>steam_mkt&#45;&gt;bact_ferm</title>
<path fill="none" stroke="black" stroke-width="1.1" d="M122.33,-48.43C207.88,-13.94 402.07,48.05 470,-66.54 505.19,-125.9 455.45,-315.69 488,-376.54 497.32,-393.95 513.46,-408.09 529.36,-418.75"/>
<polygon fill="black" stroke="black" stroke-width="1.1" points="527.81,-421.91 538.13,-424.31 531.56,-416 527.81,-421.91"/>
<text text-anchor="middle" x="324" y="-13.34" font-family="Times,serif" font-size="14.00">1 MJ</text>
</g>
<!-- water_mkt -->
<g id="node14" class="node">
<title>water_mkt</title>
<polygon fill="none" stroke="blue" points="136.5,-435.54 23.5,-435.54 23.5,-399.54 136.5,-399.54 136.5,-435.54"/>
<text text-anchor="middle" x="80" y="-413.84" font-family="Times,serif" font-size="14.00">water market</text>
</g>
<!-- water_mkt&#45;&gt;feed_treat -->
<g id="edge2" class="edge">
<title>water_mkt&#45;&gt;feed_treat</title>
<path fill="none" stroke="black" stroke-width="1.1" d="M136.52,-431.99C168.28,-440.26 208.65,-450.77 243.71,-459.89"/>
<polygon fill="black" stroke="black" stroke-width="1.1" points="242.88,-463.3 253.44,-462.43 244.65,-456.52 242.88,-463.3"/>
<text text-anchor="middle" x="205" y="-459.34" font-family="Times,serif" font-size="14.00">1 m³</text>
</g>
<!-- water_mkt&#45;&gt;bact_ferm -->
<g id="edge12" class="edge">
<title>water_mkt&#45;&gt;bact_ferm</title>
<path fill="none" stroke="black" stroke-width="1.1" d="M136.81,-417.65C212.43,-418.17 351.6,-420.44 470,-429.54 472.54,-429.73 475.1,-429.94 477.69,-430.17"/>
<polygon fill="black" stroke="black" stroke-width="1.1" points="477.49,-433.67 487.77,-431.11 478.14,-426.7 477.49,-433.67"/>
<text text-anchor="middle" x="324" y="-428.34" font-family="Times,serif" font-size="14.00">1 m³</text>
</g>
<!-- elec_mkt -->
<g id="node15" class="node">
<title>elec_mkt</title>
<polygon fill="none" stroke="blue" points="152,-269.54 8,-269.54 8,-233.54 152,-233.54 152,-269.54"/>
<text text-anchor="middle" x="80" y="-247.84" font-family="Times,serif" font-size="14.00">electricity market</text>
</g>
<!-- elec_mkt&#45;&gt;feed_treat -->
<g id="edge3" class="edge">
<title>elec_mkt&#45;&gt;feed_treat</title>
<path fill="none" stroke="black" stroke-width="1.1" d="M96.29,-269.7C124.77,-303.03 188.66,-375.41 250,-428.54 261.36,-438.37 274.53,-448.19 286.54,-456.6"/>
<polygon fill="black" stroke="black" stroke-width="1.1" points="284.81,-459.66 295.03,-462.45 288.79,-453.89 284.81,-459.66"/>
<text text-anchor="middle" x="205" y="-414.34" font-family="Times,serif" font-size="14.00">1 kWh</text>
</g>
<!-- elec_mkt&#45;&gt;bact_ferm -->
<g id="edge13" class="edge">
<title>elec_mkt&#45;&gt;bact_ferm</title>
<path fill="none" stroke="black" stroke-width="1.1" d="M90.13,-233.34C111.53,-193.03 169.26,-96.91 250,-60.54 309.97,-33.52 338.16,-33.23 398,-60.54 442.43,-80.81 451.17,-98.48 470,-143.54 490.02,-191.45 463.06,-330.98 488,-376.54 497.56,-394 513.92,-408.21 529.93,-418.92"/>
<polygon fill="black" stroke="black" stroke-width="1.1" points="528.42,-422.1 538.74,-424.5 532.16,-416.19 528.42,-422.1"/>
<text text-anchor="middle" x="324" y="-64.34" font-family="Times,serif" font-size="14.00">1 kWh</text>
</g>
<!-- kerosene -->
<g id="node17" class="node">
<title>kerosene</title>
<polygon fill="none" stroke="blue" points="154,-624.54 6,-624.54 6,-588.54 154,-588.54 154,-624.54"/>
<text text-anchor="middle" x="80" y="-602.84" font-family="Times,serif" font-size="14.00">heating oil market</text>
</g>
<!-- kerosene&#45;&gt;feed_treat -->
<g id="edge4" class="edge">
<title>kerosene&#45;&gt;feed_treat</title>
<path fill="none" stroke="black" stroke-width="1.1" d="M117.8,-588.48C148.5,-573.3 193.3,-550.9 232,-530.54 248.4,-521.91 266.31,-512.14 281.87,-503.55"/>
<polygon fill="black" stroke="black" stroke-width="1.1" points="283.67,-506.55 290.72,-498.64 280.28,-500.43 283.67,-506.55"/>
<text text-anchor="middle" x="205" y="-561.34" font-family="Times,serif" font-size="14.00">1 kg</text>
</g>
<!-- kerosene&#45;&gt;bact_ferm -->
<g id="edge14" class="edge">
<title>kerosene&#45;&gt;bact_ferm</title>
<path fill="none" stroke="black" stroke-width="1.1" d="M154.19,-594.63C179.11,-589.88 206.97,-583.8 232,-576.54 340.91,-544.93 364.43,-525.95 470,-484.54 486.57,-478.04 504.57,-470.9 520.94,-464.38"/>
<polygon fill="black" stroke="black" stroke-width="1.1" points="522.37,-467.58 530.36,-460.62 519.78,-461.07 522.37,-467.58"/>
<text text-anchor="middle" x="324" y="-573.34" font-family="Times,serif" font-size="14.00">1 kg</text>
</g>
</g>
</svg>
