<?xml version="1.0" encoding="UTF-8" standalone="no"?>
<!DOCTYPE svg PUBLIC "-//W3C//DTD SVG 1.1//EN"
 "http://www.w3.org/Graphics/SVG/1.1/DTD/svg11.dtd">
<!-- Generated by graphviz version 2.43.0 (0)
 -->
<!-- Title: %3 Pages: 1 -->
<svg width="1459pt" height="842pt"
 viewBox="0.00 0.00 1458.98 842.08" xmlns="http://www.w3.org/2000/svg" xmlns:xlink="http://www.w3.org/1999/xlink">
<g id="graph0" class="graph" transform="scale(1 1) rotate(0) translate(7.2 834.88)">
<title>%3</title>
<polygon fill="white" stroke="transparent" points="-7.2,7.2 -7.2,-834.88 1451.78,-834.88 1451.78,7.2 -7.2,7.2"/>
<!-- bread_waste -->
<g id="node1" class="node">
<title>bread_waste</title>
<polygon fill="none" stroke="red" points="160,-355.68 0,-355.68 0,-319.68 160,-319.68 160,-355.68"/>
<text text-anchor="middle" x="80" y="-333.98" font-family="Times,serif" font-size="14.00">bread waste market</text>
</g>
<!-- feed_treat -->
<g id="node5" class="node">
<title>feed_treat</title>
<polygon fill="none" stroke="red" points="470,-355.68 322,-355.68 322,-319.68 470,-319.68 470,-355.68"/>
<text text-anchor="middle" x="396" y="-333.98" font-family="Times,serif" font-size="14.00">feed pretreatment</text>
</g>
<!-- bread_waste&#45;&gt;feed_treat -->
<g id="edge1" class="edge">
<title>bread_waste&#45;&gt;feed_treat</title>
<path fill="none" stroke="black" stroke-width="0.1" d="M160.24,-337.68C206.53,-337.68 264.89,-337.68 311.84,-337.68"/>
<polygon fill="black" stroke="black" stroke-width="0.1" points="311.98,-341.18 321.98,-337.68 311.98,-334.18 311.98,-341.18"/>
<text text-anchor="middle" x="241" y="-341.48" font-family="Times,serif" font-size="14.00">0 kg</text>
</g>
<!-- enz_mkt -->
<g id="node2" class="node">
<title>enz_mkt</title>
<polygon fill="none" stroke="red" points="143.5,-301.68 16.5,-301.68 16.5,-265.68 143.5,-265.68 143.5,-301.68"/>
<text text-anchor="middle" x="80" y="-279.98" font-family="Times,serif" font-size="14.00">enzyme market</text>
</g>
<!-- enz_mkt&#45;&gt;feed_treat -->
<g id="edge6" class="edge">
<title>enz_mkt&#45;&gt;feed_treat</title>
<path fill="none" stroke="black" stroke-width="0.18" d="M143.62,-292.65C188.4,-299.27 250.03,-308.82 304,-318.68 306.5,-319.14 309.04,-319.61 311.6,-320.09"/>
<polygon fill="black" stroke="black" stroke-width="0.18" points="311.07,-323.56 321.56,-322.02 312.4,-316.68 311.07,-323.56"/>
<text text-anchor="middle" x="241" y="-322.48" font-family="Times,serif" font-size="14.00">0.01 kg</text>
</g>
<!-- ecoli_prop -->
<g id="node3" class="node">
<title>ecoli_prop</title>
<polygon fill="none" stroke="red" points="294.5,-657.68 187.5,-657.68 187.5,-621.68 294.5,-621.68 294.5,-657.68"/>
<text text-anchor="middle" x="241" y="-635.98" font-family="Times,serif" font-size="14.00">Ecoli market</text>
</g>
<!-- bact_ferm -->
<g id="node6" class="node">
<title>bact_ferm</title>
<polygon fill="none" stroke="red" points="782,-368.68 605,-368.68 605,-332.68 782,-332.68 782,-368.68"/>
<text text-anchor="middle" x="693.5" y="-346.98" font-family="Times,serif" font-size="14.00">bacterial fermentation</text>
</g>
<!-- ecoli_prop&#45;&gt;bact_ferm -->
<g id="edge8" class="edge">
<title>ecoli_prop&#45;&gt;bact_ferm</title>
<path fill="none" stroke="black" stroke-width="0.1" d="M294.75,-622.59C297.94,-621.06 301.05,-619.42 304,-617.68 313.21,-612.23 312.32,-606.24 322,-601.68 429.82,-550.91 490.66,-630.83 587,-560.68 648.5,-515.9 676.38,-424.93 686.99,-378.82"/>
<polygon fill="black" stroke="black" stroke-width="0.1" points="690.44,-379.43 689.16,-368.91 683.6,-377.93 690.44,-379.43"/>
<text text-anchor="middle" x="396" y="-605.48" font-family="Times,serif" font-size="14.00">0 kg</text>
</g>
<!-- MgCO3_mkt -->
<g id="node4" class="node">
<title>MgCO3_mkt</title>
<polygon fill="none" stroke="blue" points="304,-616.68 178,-616.68 178,-580.68 304,-580.68 304,-616.68"/>
<text text-anchor="middle" x="241" y="-594.98" font-family="Times,serif" font-size="14.00">MgCO3 market</text>
</g>
<!-- MgCO3_mkt&#45;&gt;bact_ferm -->
<g id="edge9" class="edge">
<title>MgCO3_mkt&#45;&gt;bact_ferm</title>
<path fill="none" stroke="black" stroke-width="0.62" d="M297.18,-580.5C299.56,-579.01 301.85,-577.41 304,-575.68 315.53,-566.41 309.06,-554.84 322,-547.68 347.77,-533.42 561.77,-559.87 587,-544.68 647.81,-508.06 675.85,-422.93 686.7,-378.62"/>
<polygon fill="black" stroke="black" stroke-width="0.62" points="690.13,-379.32 688.99,-368.79 683.32,-377.74 690.13,-379.32"/>
<text text-anchor="middle" x="396" y="-551.48" font-family="Times,serif" font-size="14.00">0.27 kg</text>
</g>
<!-- feed_treat&#45;&gt;bact_ferm -->
<g id="edge7" class="edge">
<title>feed_treat&#45;&gt;bact_ferm</title>
<path fill="none" stroke="black" stroke-width="1.1" d="M470.04,-340.89C507.62,-342.55 553.95,-344.59 594.58,-346.37"/>
<polygon fill="black" stroke="black" stroke-width="1.1" points="594.64,-349.88 604.78,-346.82 594.94,-342.89 594.64,-349.88"/>
<text text-anchor="middle" x="537.5" y="-349.48" font-family="Times,serif" font-size="14.00">1 kg</text>
</g>
<!-- feed_treat&#45;&gt;bact_ferm -->
<g id="edge19" class="edge">
<title>feed_treat&#45;&gt;bact_ferm</title>
<path fill="none" stroke="black" stroke-width="0.62" d="M470.38,-324.53C476.33,-323.79 482.25,-323.15 488,-322.68 531.85,-319.09 543.37,-316.99 587,-322.68 599.6,-324.32 612.84,-327.03 625.52,-330.13"/>
<polygon fill="black" stroke="black" stroke-width="0.62" points="624.99,-333.6 635.55,-332.68 626.72,-326.82 624.99,-333.6"/>
<text text-anchor="middle" x="537.5" y="-326.48" font-family="Times,serif" font-size="14.00">0.27 kg</text>
</g>
<!-- CH4 -->
<g id="node20" class="node">
<title>CH4</title>
<ellipse fill="green" stroke="green" cx="831.85" cy="-206.68" rx="31.4" ry="18"/>
<text text-anchor="middle" x="831.85" y="-202.98" font-family="Times,serif" font-size="14.00" fill="white">CH4</text>
</g>
<!-- feed_treat&#45;&gt;CH4 -->
<g id="edge23" class="edge">
<title>feed_treat&#45;&gt;CH4</title>
<path fill="none" stroke="black" stroke-width="0.12" d="M406.67,-319.52C421.35,-291.61 449.66,-236.31 470,-187.68 479.27,-165.5 468.38,-150.56 488,-136.68 523.4,-111.63 723.74,-120.5 782,-149.68 795.84,-156.61 807.34,-169.37 815.71,-181.07"/>
<polygon fill="black" stroke="black" stroke-width="0.12" points="813.01,-183.33 821.48,-189.69 818.83,-179.43 813.01,-183.33"/>
<text text-anchor="middle" x="537.5" y="-140.48" font-family="Times,serif" font-size="14.00">0.0 kg</text>
</g>
<!-- CH4_bio -->
<g id="node21" class="node">
<title>CH4_bio</title>
<ellipse fill="green" stroke="green" cx="1155.19" cy="-494.68" rx="50.09" ry="18"/>
<text text-anchor="middle" x="1155.19" y="-490.98" font-family="Times,serif" font-size="14.00" fill="white">CH4_bio</text>
</g>
<!-- feed_treat&#45;&gt;CH4_bio -->
<g id="edge22" class="edge">
<title>feed_treat&#45;&gt;CH4_bio</title>
<path fill="none" stroke="black" stroke-width="0.29" d="M404.8,-319.47C417.71,-291.76 446.28,-239.63 488,-214.68 516.08,-197.88 756.86,-176.74 782,-197.68 816.02,-226.02 777.28,-257.67 800,-295.68 818.6,-326.81 840.03,-319.2 863.69,-346.68 874.09,-358.75 869.77,-367.11 881.69,-377.68 946.17,-434.82 1042.77,-467.25 1101.96,-482.86"/>
<polygon fill="black" stroke="black" stroke-width="0.29" points="1101.29,-486.3 1111.84,-485.4 1103.03,-479.52 1101.29,-486.3"/>
<text text-anchor="middle" x="693.5" y="-201.48" font-family="Times,serif" font-size="14.00">0.04 kg</text>
</g>
<!-- CrVI -->
<g id="node25" class="node">
<title>CrVI</title>
<ellipse fill="green" stroke="green" cx="831.85" cy="-268.68" rx="31.7" ry="18"/>
<text text-anchor="middle" x="831.85" y="-264.98" font-family="Times,serif" font-size="14.00" fill="white">CrVI</text>
</g>
<!-- feed_treat&#45;&gt;CrVI -->
<g id="edge24" class="edge">
<title>feed_treat&#45;&gt;CrVI</title>
<path fill="none" stroke="black" stroke-width="0.11" d="M404.15,-319.66C420.25,-280.07 460.1,-187.62 488,-169.68 523.17,-147.07 769.29,-151.76 782,-161.68 808,-181.98 784.66,-204.48 800,-233.68 802.18,-237.83 804.94,-241.88 807.92,-245.68"/>
<polygon fill="black" stroke="black" stroke-width="0.11" points="805.47,-248.2 814.64,-253.52 810.79,-243.65 805.47,-248.2"/>
<text text-anchor="middle" x="537.5" y="-173.48" font-family="Times,serif" font-size="14.00">0.0 kg</text>
</g>
<!-- As -->
<g id="node26" class="node">
<title>As</title>
<ellipse fill="green" stroke="green" cx="1155.19" cy="-555.68" rx="27" ry="18"/>
<text text-anchor="middle" x="1155.19" y="-551.98" font-family="Times,serif" font-size="14.00" fill="white">As</text>
</g>
<!-- feed_treat&#45;&gt;As -->
<g id="edge25" class="edge">
<title>feed_treat&#45;&gt;As</title>
<path fill="none" stroke="black" stroke-width="0.12" d="M421.61,-319.51C488.21,-272.71 674.2,-157.96 782,-250.68 822.55,-285.56 774.06,-322.9 800,-369.68 823.18,-411.5 841.07,-414.47 881.69,-439.68 962.14,-489.61 1067.84,-527.72 1120.84,-545.19"/>
<polygon fill="black" stroke="black" stroke-width="0.12" points="1119.82,-548.54 1130.42,-548.31 1121.99,-541.88 1119.82,-548.54"/>
<text text-anchor="middle" x="693.5" y="-254.48" font-family="Times,serif" font-size="14.00">0.0 kg</text>
</g>
<!-- PAH -->
<g id="node27" class="node">
<title>PAH</title>
<ellipse fill="green" stroke="green" cx="693.5" cy="-292.68" rx="30.59" ry="18"/>
<text text-anchor="middle" x="693.5" y="-288.98" font-family="Times,serif" font-size="14.00" fill="white">PAH</text>
</g>
<!-- feed_treat&#45;&gt;PAH -->
<g id="edge26" class="edge">
<title>feed_treat&#45;&gt;PAH</title>
<path fill="none" stroke="black" stroke-width="0.12" d="M431.9,-319.62C448.45,-311.97 468.76,-303.88 488,-299.68 544.31,-287.39 611.39,-287.87 652.97,-289.86"/>
<polygon fill="black" stroke="black" stroke-width="0.12" points="652.79,-293.36 662.97,-290.4 653.17,-286.37 652.79,-293.36"/>
<text text-anchor="middle" x="537.5" y="-303.48" font-family="Times,serif" font-size="14.00">0.0 kg</text>
</g>
<!-- SA_purif -->
<g id="node7" class="node">
<title>SA_purif</title>
<polygon fill="none" stroke="red" points="1077.69,-368.68 881.69,-368.68 881.69,-332.68 1077.69,-332.68 1077.69,-368.68"/>
<text text-anchor="middle" x="979.69" y="-346.98" font-family="Times,serif" font-size="14.00">Succinic acid purification</text>
</g>
<!-- bact_ferm&#45;&gt;SA_purif -->
<g id="edge16" class="edge">
<title>bact_ferm&#45;&gt;SA_purif</title>
<path fill="none" stroke="black" stroke-width="1.1" d="M782.09,-350.68C810.24,-350.68 841.77,-350.68 871.18,-350.68"/>
<polygon fill="black" stroke="black" stroke-width="1.1" points="871.49,-354.18 881.49,-350.68 871.49,-347.18 871.49,-354.18"/>
<text text-anchor="middle" x="831.85" y="-354.48" font-family="Times,serif" font-size="14.00">1 kg</text>
</g>
<!-- biogas_mkt -->
<g id="node16" class="node">
<title>biogas_mkt</title>
<polygon fill="none" stroke="blue" points="1214.69,-697.68 1095.69,-697.68 1095.69,-661.68 1214.69,-661.68 1214.69,-697.68"/>
<text text-anchor="middle" x="1155.19" y="-675.98" font-family="Times,serif" font-size="14.00">biogas market</text>
</g>
<!-- bact_ferm&#45;&gt;biogas_mkt -->
<g id="edge15" class="edge">
<title>bact_ferm&#45;&gt;biogas_mkt</title>
<path fill="none" stroke="black" stroke-width="0.1" d="M697.49,-368.78C705.84,-414.09 733.29,-533.92 800,-605.68 827.66,-635.43 842.8,-634.95 881.69,-646.68 949.13,-667.01 1029.53,-674.87 1085.45,-677.87"/>
<polygon fill="black" stroke="black" stroke-width="0.1" points="1085.43,-681.38 1095.59,-678.38 1085.78,-674.39 1085.43,-681.38"/>
<text text-anchor="middle" x="831.85" y="-644.48" font-family="Times,serif" font-size="14.00">0 kg</text>
</g>
<!-- CO2 -->
<g id="node18" class="node">
<title>CO2</title>
<ellipse fill="green" stroke="green" cx="1338.63" cy="-520.68" rx="30.59" ry="18"/>
<text text-anchor="middle" x="1338.63" y="-516.98" font-family="Times,serif" font-size="14.00" fill="white">CO2</text>
</g>
<!-- bact_ferm&#45;&gt;CO2 -->
<g id="edge27" class="edge">
<title>bact_ferm&#45;&gt;CO2</title>
<path fill="none" stroke="black" stroke-width="0.95" d="M700.47,-368.74C713.3,-405.11 746.74,-487.94 800,-537.68 829.4,-565.14 843.85,-563.02 881.69,-576.68 904.76,-585 1071.36,-627.66 1095.69,-630.68 1148.18,-637.2 1172.72,-662.86 1214.69,-630.68 1239.16,-611.92 1212.31,-586.82 1232.69,-563.68 1249.62,-544.46 1276.44,-533.67 1298.73,-527.71"/>
<polygon fill="black" stroke="black" stroke-width="0.95" points="1299.72,-531.07 1308.6,-525.29 1298.05,-524.27 1299.72,-531.07"/>
<text text-anchor="middle" x="979.69" y="-630.48" font-family="Times,serif" font-size="14.00">0.72 kg</text>
</g>
<!-- CO2_bio -->
<g id="node19" class="node">
<title>CO2_bio</title>
<ellipse fill="green" stroke="green" cx="1155.19" cy="-606.68" rx="49.29" ry="18"/>
<text text-anchor="middle" x="1155.19" y="-602.98" font-family="Times,serif" font-size="14.00" fill="white">CO2_bio</text>
</g>
<!-- bact_ferm&#45;&gt;CO2_bio -->
<g id="edge28" class="edge">
<title>bact_ferm&#45;&gt;CO2_bio</title>
<path fill="none" stroke="black" stroke-width="0.29" d="M707.4,-368.76C734.87,-405.79 803.11,-490.27 881.69,-531.68 951.72,-568.58 1041.7,-588.76 1098.67,-598.63"/>
<polygon fill="black" stroke="black" stroke-width="0.29" points="1098.13,-602.09 1108.57,-600.3 1099.29,-595.19 1098.13,-602.09"/>
<text text-anchor="middle" x="831.85" y="-522.48" font-family="Times,serif" font-size="14.00">0.04 kg</text>
</g>
<!-- NH3 -->
<g id="node22" class="node">
<title>NH3</title>
<ellipse fill="green" stroke="green" cx="1338.63" cy="-590.68" rx="32.49" ry="18"/>
<text text-anchor="middle" x="1338.63" y="-586.98" font-family="Times,serif" font-size="14.00" fill="white">NH3</text>
</g>
<!-- bact_ferm&#45;&gt;NH3 -->
<g id="edge29" class="edge">
<title>bact_ferm&#45;&gt;NH3</title>
<path fill="none" stroke="black" stroke-width="0.12" d="M696.63,-368.96C705.54,-442.49 742.1,-715.56 800,-776.68 857.16,-837.03 1067.14,-805.18 1077.69,-801.68 1185.18,-766.06 1279.6,-662.47 1318.6,-614.98"/>
<polygon fill="black" stroke="black" stroke-width="0.12" points="1321.44,-617.03 1325.02,-607.06 1316,-612.63 1321.44,-617.03"/>
<text text-anchor="middle" x="979.69" y="-816.48" font-family="Times,serif" font-size="14.00">0.0 kg</text>
</g>
<!-- NOx -->
<g id="node23" class="node">
<title>NOx</title>
<ellipse fill="green" stroke="green" cx="979.69" cy="-774.68" rx="31.4" ry="18"/>
<text text-anchor="middle" x="979.69" y="-770.98" font-family="Times,serif" font-size="14.00" fill="white">NOx</text>
</g>
<!-- bact_ferm&#45;&gt;NOx -->
<g id="edge30" class="edge">
<title>bact_ferm&#45;&gt;NOx</title>
<path fill="none" stroke="black" stroke-width="0.25" d="M694.03,-369.05C693.55,-428.67 700.26,-618.79 800,-721.68 836.26,-759.08 897.58,-770.4 938.1,-773.65"/>
<polygon fill="black" stroke="black" stroke-width="0.25" points="937.97,-777.15 948.18,-774.33 938.44,-770.17 937.97,-777.15"/>
<text text-anchor="middle" x="831.85" y="-761.48" font-family="Times,serif" font-size="14.00">0.02 kg</text>
</g>
<!-- SO2 -->
<g id="node24" class="node">
<title>SO2</title>
<ellipse fill="green" stroke="green" cx="979.69" cy="-720.68" rx="30.59" ry="18"/>
<text text-anchor="middle" x="979.69" y="-716.98" font-family="Times,serif" font-size="14.00" fill="white">SO2</text>
</g>
<!-- bact_ferm&#45;&gt;SO2 -->
<g id="edge31" class="edge">
<title>bact_ferm&#45;&gt;SO2</title>
<path fill="none" stroke="black" stroke-width="0.26" d="M694.94,-368.81C697.26,-422.71 711.62,-583.52 800,-668.68 837.48,-704.8 898.56,-716.05 938.69,-719.43"/>
<polygon fill="black" stroke="black" stroke-width="0.26" points="938.69,-722.94 948.91,-720.16 939.19,-715.96 938.69,-722.94"/>
<text text-anchor="middle" x="831.85" y="-706.48" font-family="Times,serif" font-size="14.00">0.03 kg</text>
</g>
<!-- sol_biomass -->
<g id="node8" class="node">
<title>sol_biomass</title>
<polygon fill="none" stroke="red" points="1423.13,-463.68 1254.13,-463.68 1254.13,-427.68 1423.13,-427.68 1423.13,-463.68"/>
<text text-anchor="middle" x="1338.63" y="-441.98" font-family="Times,serif" font-size="14.00">solid biomass market</text>
</g>
<!-- SA_purif&#45;&gt;sol_biomass -->
<g id="edge20" class="edge">
<title>SA_purif&#45;&gt;sol_biomass</title>
<path fill="none" stroke="black" stroke-width="3.36" d="M1048.67,-368.77C1108.96,-384.82 1196.98,-408.25 1260.02,-425.02"/>
<polygon fill="black" stroke="black" stroke-width="3.36" points="1259.35,-428.47 1269.91,-427.66 1261.15,-421.7 1259.35,-428.47"/>
<text text-anchor="middle" x="1155.19" y="-415.48" font-family="Times,serif" font-size="14.00">10.64 kg</text>
</g>
<!-- SA_mkt -->
<g id="node9" class="node">
<title>SA_mkt</title>
<ellipse fill="pink" stroke="pink" cx="1338.63" cy="-350.68" rx="105.88" ry="18"/>
<text text-anchor="middle" x="1338.63" y="-346.98" font-family="Times,serif" font-size="14.00">succinic acid market</text>
</g>
<!-- SA_purif&#45;&gt;SA_mkt -->
<g id="edge21" class="edge">
<title>SA_purif&#45;&gt;SA_mkt</title>
<path fill="none" stroke="black" stroke-width="1.1" d="M1077.76,-350.68C1122.38,-350.68 1175.64,-350.68 1222.29,-350.68"/>
<polygon fill="black" stroke="black" stroke-width="1.1" points="1222.45,-354.18 1232.45,-350.68 1222.45,-347.18 1222.45,-354.18"/>
<text text-anchor="middle" x="1155.19" y="-354.48" font-family="Times,serif" font-size="14.00">1 kg</text>
</g>
<!-- HCl_mkt -->
<g id="node10" class="node">
<title>HCl_mkt</title>
<polygon fill="none" stroke="blue" points="587,-40.68 488,-40.68 488,-4.68 587,-4.68 587,-40.68"/>
<text text-anchor="middle" x="537.5" y="-18.98" font-family="Times,serif" font-size="14.00">HCl market</text>
</g>
<!-- HCl_mkt&#45;&gt;SA_purif -->
<g id="edge17" class="edge">
<title>HCl_mkt&#45;&gt;SA_purif</title>
<path fill="none" stroke="black" stroke-width="0.38" d="M587.32,-10.11C638.44,0.39 719.78,9.45 782,-19.68 905.55,-77.53 957.11,-253.5 972.95,-322.5"/>
<polygon fill="black" stroke="black" stroke-width="0.38" points="969.61,-323.61 975.19,-332.62 976.45,-322.1 969.61,-323.61"/>
<text text-anchor="middle" x="693.5" y="-23.48" font-family="Times,serif" font-size="14.00">0.08 kg</text>
</g>
<!-- NaCl_brine -->
<g id="node11" class="node">
<title>NaCl_brine</title>
<polygon fill="none" stroke="blue" points="456,-178.68 336,-178.68 336,-142.68 456,-142.68 456,-178.68"/>
<text text-anchor="middle" x="396" y="-156.98" font-family="Times,serif" font-size="14.00">NaCl brine x%</text>
</g>
<!-- NaCl_brine&#45;&gt;SA_purif -->
<g id="edge18" class="edge">
<title>NaCl_brine&#45;&gt;SA_purif</title>
<path fill="none" stroke="black" stroke-width="3.97" d="M429.77,-142.6C446.68,-134.04 467.93,-124.45 488,-118.68 613.74,-82.53 660.24,-55.8 782,-103.68 882.13,-143.06 944.35,-267.26 967.92,-323.06"/>
<polygon fill="black" stroke="black" stroke-width="3.97" points="964.83,-324.73 971.88,-332.65 971.3,-322.07 964.83,-324.73"/>
<text text-anchor="middle" x="693.5" y="-107.48" font-family="Times,serif" font-size="14.00">15.01 kg</text>
</g>
<!-- NaOH_mkt -->
<g id="node12" class="node">
<title>NaOH_mkt</title>
<polygon fill="none" stroke="blue" points="299,-723.68 183,-723.68 183,-687.68 299,-687.68 299,-723.68"/>
<text text-anchor="middle" x="241" y="-701.98" font-family="Times,serif" font-size="14.00">NaOH market</text>
</g>
<!-- NaOH_mkt&#45;&gt;bact_ferm -->
<g id="edge10" class="edge">
<title>NaOH_mkt&#45;&gt;bact_ferm</title>
<path fill="none" stroke="black" stroke-width="0.54" d="M299.36,-704.38C394.54,-701.99 575.85,-696.33 587,-687.68 684.97,-611.68 693.99,-445.44 693.46,-378.97"/>
<polygon fill="black" stroke="black" stroke-width="0.54" points="696.95,-378.77 693.29,-368.83 689.96,-378.88 696.95,-378.77"/>
<text text-anchor="middle" x="396" y="-707.48" font-family="Times,serif" font-size="14.00">0.2 kg</text>
</g>
<!-- steam_mkt -->
<g id="node13" class="node">
<title>steam_mkt</title>
<polygon fill="none" stroke="blue" points="138,-479.68 22,-479.68 22,-443.68 138,-443.68 138,-479.68"/>
<text text-anchor="middle" x="80" y="-457.98" font-family="Times,serif" font-size="14.00">steam market</text>
</g>
<!-- steam_mkt&#45;&gt;feed_treat -->
<g id="edge5" class="edge">
<title>steam_mkt&#45;&gt;feed_treat</title>
<path fill="none" stroke="black" stroke-width="6.47" d="M138.45,-451.15C185.31,-440.84 252.02,-422.17 304,-391.68 313.49,-386.11 313,-381.01 322,-374.68 329.18,-369.63 337.14,-364.87 345.09,-360.54"/>
<polygon fill="black" stroke="black" stroke-width="6.47" points="347.8,-365.51 354.02,-355.85 342.54,-355.49 347.8,-365.51"/>
<text text-anchor="middle" x="241" y="-443.48" font-family="Times,serif" font-size="14.00">40.53 MJ</text>
</g>
<!-- steam_mkt&#45;&gt;bact_ferm -->
<g id="edge11" class="edge">
<title>steam_mkt&#45;&gt;bact_ferm</title>
<path fill="none" stroke="black" stroke-width="0.1" d="M138.02,-464.82C214.41,-467.78 353.83,-468.83 470,-445.68 524.33,-434.86 536.08,-424.51 587,-402.68 607.81,-393.76 630.38,-382.81 649.28,-373.27"/>
<polygon fill="black" stroke="black" stroke-width="0.1" points="650.92,-376.36 658.24,-368.71 647.74,-370.12 650.92,-376.36"/>
<text text-anchor="middle" x="396" y="-466.48" font-family="Times,serif" font-size="14.00">0 MJ</text>
</g>
<!-- water_mkt -->
<g id="node14" class="node">
<title>water_mkt</title>
<polygon fill="none" stroke="blue" points="136.5,-424.68 23.5,-424.68 23.5,-388.68 136.5,-388.68 136.5,-424.68"/>
<text text-anchor="middle" x="80" y="-402.98" font-family="Times,serif" font-size="14.00">water market</text>
</g>
<!-- water_mkt&#45;&gt;feed_treat -->
<g id="edge2" class="edge">
<title>water_mkt&#45;&gt;feed_treat</title>
<path fill="none" stroke="black" stroke-width="10.92" d="M135.31,-388.6C149.14,-384.36 164.04,-380.08 178,-376.68 184.75,-375.04 253.56,-362.73 311.92,-352.37"/>
<polygon fill="black" stroke="black" stroke-width="10.92" points="313.75,-361.75 321.93,-350.59 310.41,-342.93 313.75,-361.75"/>
<text text-anchor="middle" x="241" y="-380.48" font-family="Times,serif" font-size="14.00">117.14 m³</text>
</g>
<!-- water_mkt&#45;&gt;bact_ferm -->
<g id="edge12" class="edge">
<title>water_mkt&#45;&gt;bact_ferm</title>
<path fill="none" stroke="black" stroke-width="0.1" d="M136.51,-422.18C149.98,-425.29 164.42,-428.09 178,-429.68 233.62,-436.18 248.28,-435.29 304,-429.68 413.35,-418.68 537.43,-390.67 615.32,-371.14"/>
<polygon fill="black" stroke="black" stroke-width="0.1" points="616.22,-374.53 625.06,-368.69 614.5,-367.74 616.22,-374.53"/>
<text text-anchor="middle" x="396" y="-430.48" font-family="Times,serif" font-size="14.00">0 m³</text>
</g>
<!-- elec_mkt -->
<g id="node15" class="node">
<title>elec_mkt</title>
<polygon fill="none" stroke="blue" points="152,-668.68 8,-668.68 8,-632.68 152,-632.68 152,-668.68"/>
<text text-anchor="middle" x="80" y="-646.98" font-family="Times,serif" font-size="14.00">electricity market</text>
</g>
<!-- elec_mkt&#45;&gt;feed_treat -->
<g id="edge3" class="edge">
<title>elec_mkt&#45;&gt;feed_treat</title>
<path fill="none" stroke="black" stroke-width="1.1" d="M94.26,-632.67C111.18,-611.07 142.55,-575.43 178,-556.68 228.54,-529.94 265.4,-572.86 304,-530.68 351.12,-479.19 282.12,-431.96 322,-374.68 325.43,-369.75 329.72,-365.44 334.49,-361.68"/>
<polygon fill="black" stroke="black" stroke-width="1.1" points="336.68,-364.42 342.91,-355.85 332.7,-358.67 336.68,-364.42"/>
<text text-anchor="middle" x="241" y="-560.48" font-family="Times,serif" font-size="14.00">1.01 kWh</text>
</g>
<!-- elec_mkt&#45;&gt;bact_ferm -->
<g id="edge13" class="edge">
<title>elec_mkt&#45;&gt;bact_ferm</title>
<path fill="none" stroke="black" stroke-width="0.42" d="M97.48,-668.84C115.28,-686.98 145.49,-713.7 178,-724.68 350.4,-782.93 448.37,-823.57 587,-705.68 637.89,-662.41 675.67,-455.52 688.1,-379.11"/>
<polygon fill="black" stroke="black" stroke-width="0.42" points="691.62,-379.25 689.75,-368.82 684.71,-378.14 691.62,-379.25"/>
<text text-anchor="middle" x="396" y="-784.48" font-family="Times,serif" font-size="14.00">0.1 kWh</text>
</g>
<!-- kerosene -->
<g id="node17" class="node">
<title>kerosene</title>
<polygon fill="none" stroke="blue" points="154,-533.68 6,-533.68 6,-497.68 154,-497.68 154,-533.68"/>
<text text-anchor="middle" x="80" y="-511.98" font-family="Times,serif" font-size="14.00">heating oil market</text>
</g>
<!-- kerosene&#45;&gt;feed_treat -->
<g id="edge4" class="edge">
<title>kerosene&#45;&gt;feed_treat</title>
<path fill="none" stroke="black" stroke-width="0.1" d="M154.04,-515.93C203.07,-512.08 265.5,-498.72 304,-458.68 330.46,-431.16 298.7,-404.93 322,-374.68 325.87,-369.66 330.61,-365.26 335.8,-361.43"/>
<polygon fill="black" stroke="black" stroke-width="0.1" points="337.83,-364.28 344.26,-355.85 333.98,-358.43 337.83,-364.28"/>
<text text-anchor="middle" x="241" y="-515.48" font-family="Times,serif" font-size="14.00">0 kg</text>
</g>
<!-- kerosene&#45;&gt;bact_ferm -->
<g id="edge14" class="edge">
<title>kerosene&#45;&gt;bact_ferm</title>
<path fill="none" stroke="black" stroke-width="1.94" d="M95.61,-533.8C112.21,-554.77 139.61,-590.67 160,-623.68 169.19,-638.56 163.07,-649.57 178,-658.68 273.5,-716.95 551.83,-619.13 587,-589.68 653.09,-534.34 679.2,-429.44 688.26,-379.07"/>
<polygon fill="black" stroke="black" stroke-width="1.94" points="691.76,-379.35 689.99,-368.9 684.86,-378.18 691.76,-379.35"/>
<text text-anchor="middle" x="396" y="-675.48" font-family="Times,serif" font-size="14.00">3.38 kg</text>
</g>
</g>
</svg>
