<?xml version="1.0" encoding="UTF-8" standalone="no"?>
<!DOCTYPE svg PUBLIC "-//W3C//DTD SVG 1.1//EN"
 "http://www.w3.org/Graphics/SVG/1.1/DTD/svg11.dtd">
<!-- Generated by graphviz version 2.43.0 (0)
 -->
<!-- Title: %3 Pages: 1 -->
<svg width="2783pt" height="841pt"
 viewBox="0.00 0.00 2782.72 841.40" xmlns="http://www.w3.org/2000/svg" xmlns:xlink="http://www.w3.org/1999/xlink">
<g id="graph0" class="graph" transform="scale(1 1) rotate(0) translate(7.2 834.2)">
<title>%3</title>
<polygon fill="white" stroke="transparent" points="-7.2,7.2 -7.2,-834.2 2775.52,-834.2 2775.52,7.2 -7.2,7.2"/>
<!-- magnesium oxide production -->
<g id="node1" class="node">
<title>magnesium oxide production</title>
<polygon fill="none" stroke="blue" points="760.73,-158 536.73,-158 536.73,-122 760.73,-122 760.73,-158"/>
<text text-anchor="middle" x="648.73" y="-136.3" font-family="Times,serif" font-size="14.00">magnesium oxide production</text>
</g>
<!-- MgCO3 -->
<g id="node25" class="node">
<title>MgCO3</title>
<polygon fill="none" stroke="red" points="1262.97,-189 1191.97,-189 1191.97,-153 1262.97,-153 1262.97,-189"/>
<text text-anchor="middle" x="1227.47" y="-167.3" font-family="Times,serif" font-size="14.00">MgCO3</text>
</g>
<!-- magnesium oxide production&#45;&gt;MgCO3 -->
<g id="edge1" class="edge">
<title>magnesium oxide production&#45;&gt;MgCO3</title>
<path fill="none" stroke="black" stroke-width="1.1" d="M760.93,-145.98C888.77,-152.85 1092.44,-163.8 1181.88,-168.6"/>
<polygon fill="black" stroke="black" stroke-width="1.1" points="1181.78,-172.1 1191.96,-169.15 1182.16,-165.11 1181.78,-172.1"/>
<text text-anchor="middle" x="911.97" y="-159.8" font-family="Times,serif" font-size="14.00">1.00E+00 kg</text>
</g>
<!-- Electricity -->
<g id="node2" class="node">
<title>Electricity</title>
<polygon fill="none" stroke="red" points="957.47,-217 866.47,-217 866.47,-181 957.47,-181 957.47,-217"/>
<text text-anchor="middle" x="911.97" y="-195.3" font-family="Times,serif" font-size="14.00">Electricity</text>
</g>
<!-- Purification -->
<g id="node13" class="node">
<title>Purification</title>
<polygon fill="none" stroke="red" points="2390.04,-213 2291.04,-213 2291.04,-177 2390.04,-177 2390.04,-213"/>
<text text-anchor="middle" x="2340.54" y="-191.3" font-family="Times,serif" font-size="14.00">Purification</text>
</g>
<!-- Electricity&#45;&gt;Purification -->
<g id="edge19" class="edge">
<title>Electricity&#45;&gt;Purification</title>
<path fill="none" stroke="black" stroke-width="1" d="M925.41,-217.09C937.94,-233.63 958.88,-257.11 983.47,-268 1033.13,-290 1432.54,-259.11 1471.47,-297 1504.71,-329.36 1455.27,-473.64 1489.47,-505 1532.47,-544.44 1697.73,-526.33 1752.04,-505 1815.27,-480.17 1832.88,-461.36 1864.04,-401 1892.21,-346.43 1839.03,-307.84 1882.04,-264 1936.46,-208.54 2169.9,-197.5 2280.71,-195.41"/>
<polygon fill="black" stroke="black" stroke-width="1" points="2280.79,-198.91 2290.72,-195.24 2280.67,-191.91 2280.79,-198.91"/>
<text text-anchor="middle" x="1817.04" y="-500.8" font-family="Times,serif" font-size="14.00">3.30E&#45;01 kg</text>
</g>
<!-- Bacterial fermentation -->
<g id="node18" class="node">
<title>Bacterial fermentation</title>
<polygon fill="none" stroke="red" points="2061.04,-63 1882.04,-63 1882.04,-27 2061.04,-27 2061.04,-63"/>
<text text-anchor="middle" x="1971.54" y="-41.3" font-family="Times,serif" font-size="14.00">Bacterial fermentation</text>
</g>
<!-- Electricity&#45;&gt;Bacterial fermentation -->
<g id="edge30" class="edge">
<title>Electricity&#45;&gt;Bacterial fermentation</title>
<path fill="none" stroke="black" stroke-width="1" d="M937.42,-217.05C950.42,-225.62 967.06,-235.05 983.47,-240 1035.47,-255.69 1432.2,-231.46 1471.47,-269 1499.24,-295.56 1460.91,-415.28 1489.47,-441 1576.17,-519.11 1643.01,-482.59 1752.04,-441 1814.39,-417.22 1833.72,-400.45 1864.04,-341 1899.97,-270.56 1853.42,-237.71 1882.04,-164 1896.05,-127.93 1924.11,-93.2 1944.9,-70.67"/>
<polygon fill="black" stroke="black" stroke-width="1" points="1947.6,-72.9 1951.91,-63.22 1942.5,-68.1 1947.6,-72.9"/>
<text text-anchor="middle" x="1620.75" y="-489.8" font-family="Times,serif" font-size="14.00">3.30E&#45;01 kWh</text>
</g>
<!-- Pre&#45;treatment -->
<g id="node24" class="node">
<title>Pre&#45;treatment</title>
<polygon fill="none" stroke="red" points="1679.75,-594 1561.75,-594 1561.75,-558 1679.75,-558 1679.75,-594"/>
<text text-anchor="middle" x="1620.75" y="-572.3" font-family="Times,serif" font-size="14.00">Pre&#45;treatment</text>
</g>
<!-- Electricity&#45;&gt;Pre&#45;treatment -->
<g id="edge2" class="edge">
<title>Electricity&#45;&gt;Pre&#45;treatment</title>
<path fill="none" stroke="black" stroke-width="1" d="M949.77,-217.15C955.66,-221.36 961.21,-226.31 965.47,-232 983.16,-255.67 960.36,-277.58 983.47,-296 1025.92,-329.83 1432.48,-282.22 1471.47,-320 1507.17,-354.6 1457.38,-505.03 1489.47,-543 1504.75,-561.09 1528.39,-570.02 1551.36,-574.21"/>
<polygon fill="black" stroke="black" stroke-width="1" points="1551.07,-577.71 1561.49,-575.78 1552.14,-570.79 1551.07,-577.71"/>
<text text-anchor="middle" x="1227.47" y="-323.8" font-family="Times,serif" font-size="14.00">3.30E&#45;01 kWh</text>
</g>
<!-- Steam -->
<g id="node3" class="node">
<title>Steam</title>
<polygon fill="none" stroke="red" points="942.97,-744 880.97,-744 880.97,-708 942.97,-708 942.97,-744"/>
<text text-anchor="middle" x="911.97" y="-722.3" font-family="Times,serif" font-size="14.00">Steam</text>
</g>
<!-- Steam&#45;&gt;Purification -->
<g id="edge22" class="edge">
<title>Steam&#45;&gt;Purification</title>
<path fill="none" stroke="black" stroke-width="1.4" d="M943.04,-728.18C1052.63,-735.42 1440.39,-755.15 1752.04,-697 1803.58,-687.38 1831.99,-701.49 1864.04,-660 1902.43,-610.31 1843.13,-427.28 1882.04,-378 1885.56,-373.54 2268.14,-260.86 2273.04,-258 2289.77,-248.25 2305.62,-233.52 2317.65,-220.76"/>
<polygon fill="black" stroke="black" stroke-width="1.4" points="2320.46,-222.87 2324.62,-213.13 2315.3,-218.15 2320.46,-222.87"/>
<text text-anchor="middle" x="1817.04" y="-697.8" font-family="Times,serif" font-size="14.00">1.35E+01 kg</text>
</g>
<!-- Steam&#45;&gt;Bacterial fermentation -->
<g id="edge31" class="edge">
<title>Steam&#45;&gt;Bacterial fermentation</title>
<path fill="none" stroke="black" stroke-width="1.4" d="M943.05,-720.12C955.51,-717.88 970.14,-715.51 983.47,-714 1199.33,-689.51 1256.29,-715.88 1471.47,-686 1479.58,-684.87 1481.4,-683.46 1489.47,-682 1572.18,-666.98 1806.99,-690.75 1864.04,-629 1886.1,-605.13 1876.29,-368.99 1882.04,-337 1899.97,-237.29 1940.51,-123.59 1959.86,-72.45"/>
<polygon fill="black" stroke="black" stroke-width="1.4" points="1963.14,-73.68 1963.44,-63.08 1956.6,-71.18 1963.14,-73.68"/>
<text text-anchor="middle" x="1620.75" y="-685.8" font-family="Times,serif" font-size="14.00">1.35E+01 kg</text>
</g>
<!-- Steam&#45;&gt;Pre&#45;treatment -->
<g id="edge3" class="edge">
<title>Steam&#45;&gt;Pre&#45;treatment</title>
<path fill="none" stroke="black" stroke-width="1.4" d="M943.15,-710.15C950.81,-705.45 958.77,-699.96 965.47,-694 975.16,-685.37 971.93,-676.96 983.47,-671 1079.92,-621.16 1366.26,-674.81 1471.47,-648 1511.5,-637.8 1553.55,-616.2 1582.6,-599.31"/>
<polygon fill="black" stroke="black" stroke-width="1.4" points="1584.73,-602.11 1591.55,-594.01 1581.17,-596.09 1584.73,-602.11"/>
<text text-anchor="middle" x="1227.47" y="-674.8" font-family="Times,serif" font-size="14.00">1.35E+01 kg</text>
</g>
<!-- Enzyme -->
<g id="node4" class="node">
<title>Enzyme</title>
<polygon fill="none" stroke="red" points="948.97,-585 874.97,-585 874.97,-549 948.97,-549 948.97,-585"/>
<text text-anchor="middle" x="911.97" y="-563.3" font-family="Times,serif" font-size="14.00">Enzyme</text>
</g>
<!-- Enzyme&#45;&gt;Pre&#45;treatment -->
<g id="edge4" class="edge">
<title>Enzyme&#45;&gt;Pre&#45;treatment</title>
<path fill="none" stroke="black" stroke-width="0.71" d="M949.02,-552.82C959.91,-549.2 972.02,-545.82 983.47,-544 1197.66,-509.94 1255.8,-520.99 1471.47,-544 1497.94,-546.82 1526.62,-552.41 1551.65,-558.13"/>
<polygon fill="black" stroke="black" stroke-width="0.71" points="1550.87,-561.54 1561.41,-560.41 1552.47,-554.73 1550.87,-561.54"/>
<text text-anchor="middle" x="1227.47" y="-547.8" font-family="Times,serif" font-size="14.00">7.00E&#45;03 kg</text>
</g>
<!-- CO2 capture -->
<g id="node5" class="node">
<title>CO2 capture</title>
<polygon fill="none" stroke="red" points="965.47,-531 858.47,-531 858.47,-495 965.47,-495 965.47,-531"/>
<text text-anchor="middle" x="911.97" y="-509.3" font-family="Times,serif" font-size="14.00">CO2 capture</text>
</g>
<!-- CO2 capture&#45;&gt;Pre&#45;treatment -->
<g id="edge5" class="edge">
<title>CO2 capture&#45;&gt;Pre&#45;treatment</title>
<path fill="none" stroke="black" stroke-width="0.89" d="M965.62,-504.71C971.63,-504 977.67,-503.41 983.47,-503 1037.55,-499.18 1425.93,-473.56 1471.47,-503 1487.84,-513.59 1474.53,-530.47 1489.47,-543 1506.83,-557.57 1529.77,-565.83 1551.56,-570.48"/>
<polygon fill="black" stroke="black" stroke-width="0.89" points="1550.99,-573.93 1561.46,-572.37 1552.3,-567.05 1550.99,-573.93"/>
<text text-anchor="middle" x="1227.47" y="-506.8" font-family="Times,serif" font-size="14.00">1.00E&#45;01 kWh</text>
</g>
<!-- Water -->
<g id="node6" class="node">
<title>Water</title>
<polygon fill="none" stroke="red" points="941.47,-639 882.47,-639 882.47,-603 941.47,-603 941.47,-639"/>
<text text-anchor="middle" x="911.97" y="-617.3" font-family="Times,serif" font-size="14.00">Water</text>
</g>
<!-- Water&#45;&gt;Purification -->
<g id="edge23" class="edge">
<title>Water&#45;&gt;Purification</title>
<path fill="none" stroke="black" stroke-width="1.6" d="M941.91,-622.09C1094.67,-627.5 1802.65,-648.6 1864.04,-577 1898.86,-536.4 1848.73,-378.84 1882.04,-337 1885.26,-332.96 2158.88,-249.71 2281.38,-212.59"/>
<polygon fill="black" stroke="black" stroke-width="1.6" points="2282.44,-215.93 2290.99,-209.68 2280.41,-209.23 2282.44,-215.93"/>
<text text-anchor="middle" x="1817.04" y="-610.8" font-family="Times,serif" font-size="14.00">5.86E+01 kg</text>
</g>
<!-- Water&#45;&gt;Pre&#45;treatment -->
<g id="edge6" class="edge">
<title>Water&#45;&gt;Pre&#45;treatment</title>
<path fill="none" stroke="black" stroke-width="1.6" d="M941.51,-606.8C949.33,-602.78 957.78,-598.32 965.47,-594 973.64,-589.41 974.45,-585.59 983.47,-583 1088.22,-552.9 1409.49,-565.04 1551.28,-572.19"/>
<polygon fill="black" stroke="black" stroke-width="1.6" points="1551.42,-575.7 1561.58,-572.72 1551.78,-568.71 1551.42,-575.7"/>
<text text-anchor="middle" x="1227.47" y="-586.8" font-family="Times,serif" font-size="14.00">5.86E+01 kg</text>
</g>
<!-- Heating oil -->
<g id="node7" class="node">
<title>Heating oil</title>
<polygon fill="none" stroke="red" points="959.47,-477 864.47,-477 864.47,-441 959.47,-441 959.47,-477"/>
<text text-anchor="middle" x="911.97" y="-455.3" font-family="Times,serif" font-size="14.00">Heating oil</text>
</g>
<!-- Heating oil&#45;&gt;Pre&#45;treatment -->
<g id="edge7" class="edge">
<title>Heating oil&#45;&gt;Pre&#45;treatment</title>
<path fill="none" stroke="black" stroke-width="1.23" d="M959.89,-456.71C1087.17,-450.96 1432.03,-438.47 1471.47,-470 1497.57,-490.87 1465.91,-519.3 1489.47,-543 1505.87,-559.51 1529.27,-568.16 1551.72,-572.58"/>
<polygon fill="black" stroke="black" stroke-width="1.23" points="1551.16,-576.03 1561.6,-574.27 1552.34,-569.13 1551.16,-576.03"/>
<text text-anchor="middle" x="1227.47" y="-473.8" font-family="Times,serif" font-size="14.00">3.39E+00 kg</text>
</g>
<!-- Methane, non&#45;fossil -->
<g id="node8" class="node">
<title>Methane, non&#45;fossil</title>
<ellipse fill="green" stroke="green" cx="648.73" cy="-389" rx="102.08" ry="18"/>
<text text-anchor="middle" x="648.73" y="-385.3" font-family="Times,serif" font-size="14.00" fill="white">Methane, non&#45;fossil</text>
</g>
<!-- Methane, non&#45;fossil&#45;&gt;Pre&#45;treatment -->
<g id="edge8" class="edge">
<title>Methane, non&#45;fossil&#45;&gt;Pre&#45;treatment</title>
<path fill="none" stroke="black" stroke-width="0.46" d="M744.57,-395.28C960.39,-409.58 1469.78,-443.5 1471.47,-445 1504.51,-474.49 1459.21,-510.66 1489.47,-543 1505.51,-560.14 1529.06,-568.91 1551.75,-573.23"/>
<polygon fill="black" stroke="black" stroke-width="0.46" points="1551.3,-576.71 1561.74,-574.87 1552.44,-569.8 1551.3,-576.71"/>
<text text-anchor="middle" x="911.97" y="-412.8" font-family="Times,serif" font-size="14.00">4.10E&#45;05 kg</text>
</g>
<!-- Methane, fossil -->
<g id="node9" class="node">
<title>Methane, fossil</title>
<ellipse fill="green" stroke="green" cx="648.73" cy="-338" rx="81.79" ry="18"/>
<text text-anchor="middle" x="648.73" y="-334.3" font-family="Times,serif" font-size="14.00" fill="white">Methane, fossil</text>
</g>
<!-- Methane, fossil&#45;&gt;Pre&#45;treatment -->
<g id="edge9" class="edge">
<title>Methane, fossil&#45;&gt;Pre&#45;treatment</title>
<path fill="none" stroke="black" stroke-width="0.67" d="M721.38,-346.31C757.19,-350.64 801.17,-356.23 840.47,-362 904.23,-371.36 919.42,-378.81 983.47,-386 1037.44,-392.06 1431.53,-377.19 1471.47,-414 1514.03,-453.24 1450.83,-499.89 1489.47,-543 1505.2,-560.56 1528.81,-569.4 1551.63,-573.66"/>
<polygon fill="black" stroke="black" stroke-width="0.67" points="1551.26,-577.15 1561.68,-575.27 1552.36,-570.24 1551.26,-577.15"/>
<text text-anchor="middle" x="911.97" y="-386.8" font-family="Times,serif" font-size="14.00">3.72E&#45;03 kg</text>
</g>
<!-- Chromium VI -->
<g id="node10" class="node">
<title>Chromium VI</title>
<ellipse fill="green" stroke="green" cx="648.73" cy="-287" rx="72.29" ry="18"/>
<text text-anchor="middle" x="648.73" y="-283.3" font-family="Times,serif" font-size="14.00" fill="white">Chromium VI</text>
</g>
<!-- Chromium VI&#45;&gt;Pre&#45;treatment -->
<g id="edge10" class="edge">
<title>Chromium VI&#45;&gt;Pre&#45;treatment</title>
<path fill="none" stroke="black" stroke-width="0.29" d="M717.21,-293.03C753.88,-296.93 799.9,-302.82 840.47,-311 897.02,-322.41 914.4,-319.16 965.47,-346 974.68,-350.84 973.78,-357.18 983.47,-361 1033.98,-380.94 1431.95,-351.75 1471.47,-389 1521.61,-436.27 1444.05,-491.17 1489.47,-543 1505,-560.73 1528.58,-569.61 1551.42,-573.86"/>
<polygon fill="black" stroke="black" stroke-width="0.29" points="1551.06,-577.34 1561.48,-575.45 1552.15,-570.43 1551.06,-577.34"/>
<text text-anchor="middle" x="911.97" y="-349.8" font-family="Times,serif" font-size="14.00">7.40E&#45;08 kg</text>
</g>
<!-- Arsenic ion -->
<g id="node11" class="node">
<title>Arsenic ion</title>
<ellipse fill="green" stroke="green" cx="648.73" cy="-236" rx="62.29" ry="18"/>
<text text-anchor="middle" x="648.73" y="-232.3" font-family="Times,serif" font-size="14.00" fill="white">Arsenic ion</text>
</g>
<!-- Arsenic ion&#45;&gt;Pre&#45;treatment -->
<g id="edge11" class="edge">
<title>Arsenic ion&#45;&gt;Pre&#45;treatment</title>
<path fill="none" stroke="black" stroke-width="0.33" d="M708.95,-241.17C746.8,-245.04 796.79,-251.19 840.47,-260 897.02,-271.41 921.73,-257.37 965.47,-295 980.24,-307.71 967.41,-323.95 983.47,-335 1072.95,-396.57 1393.05,-287.84 1471.47,-363 1500.49,-390.82 1463.23,-512.55 1489.47,-543 1504.92,-560.94 1528.6,-569.84 1551.55,-574.05"/>
<polygon fill="black" stroke="black" stroke-width="0.33" points="1551.24,-577.55 1561.66,-575.63 1552.32,-570.63 1551.24,-577.55"/>
<text text-anchor="middle" x="911.97" y="-298.8" font-family="Times,serif" font-size="14.00">4.77E&#45;07 kg</text>
</g>
<!-- PAH, polycyclic aromatic hydrocarbons -->
<g id="node12" class="node">
<title>PAH, polycyclic aromatic hydrocarbons</title>
<ellipse fill="green" stroke="green" cx="648.73" cy="-651" rx="191.97" ry="18"/>
<text text-anchor="middle" x="648.73" y="-647.3" font-family="Times,serif" font-size="14.00" fill="white">PAH, polycyclic aromatic hydrocarbons</text>
</g>
<!-- PAH, polycyclic aromatic hydrocarbons&#45;&gt;Pre&#45;treatment -->
<g id="edge12" class="edge">
<title>PAH, polycyclic aromatic hydrocarbons&#45;&gt;Pre&#45;treatment</title>
<path fill="none" stroke="black" stroke-width="0.33" d="M840.56,-651.68C881.77,-651.13 925.09,-650.02 965.47,-648 1191,-636.7 1247.62,-631.75 1471.47,-602 1497.65,-598.52 1526.28,-593.73 1551.33,-589.22"/>
<polygon fill="black" stroke="black" stroke-width="0.33" points="1552.26,-592.61 1561.47,-587.37 1551,-585.72 1552.26,-592.61"/>
<text text-anchor="middle" x="911.97" y="-654.8" font-family="Times,serif" font-size="14.00">4.21E&#45;07 kg</text>
</g>
<!-- Succinic acid production -->
<g id="node35" class="node">
<title>Succinic acid production</title>
<ellipse fill="none" stroke="black" cx="2644.18" cy="-143" rx="124.28" ry="18"/>
<text text-anchor="middle" x="2644.18" y="-139.3" font-family="Times,serif" font-size="14.00">Succinic acid production</text>
</g>
<!-- Purification&#45;&gt;Succinic acid production -->
<g id="edge13" class="edge">
<title>Purification&#45;&gt;Succinic acid production</title>
<path fill="none" stroke="black" stroke-width="1.1" d="M2390.34,-186.59C2434.28,-179.01 2499.97,-167.69 2553.37,-158.48"/>
<polygon fill="black" stroke="black" stroke-width="1.1" points="2554.28,-161.88 2563.54,-156.73 2553.09,-154.98 2554.28,-161.88"/>
<text text-anchor="middle" x="2455.04" y="-185.8" font-family="Times,serif" font-size="14.00">1.00E+00 kg</text>
</g>
<!-- market for soybean meal -->
<g id="node14" class="node">
<title>market for soybean meal</title>
<polygon fill="none" stroke="blue" points="2273.04,-87 2079.04,-87 2079.04,-51 2273.04,-51 2273.04,-87"/>
<text text-anchor="middle" x="2176.04" y="-65.3" font-family="Times,serif" font-size="14.00">market for soybean meal</text>
</g>
<!-- market for soybean meal&#45;&gt;Succinic acid production -->
<g id="edge14" class="edge">
<title>market for soybean meal&#45;&gt;Succinic acid production</title>
<path fill="none" stroke="black" d="M2273.06,-84.24C2354.08,-97.11 2469.37,-115.41 2549.67,-128.16"/>
<polygon fill="black" stroke="black" points="2549.35,-131.65 2559.78,-129.76 2550.45,-124.74 2549.35,-131.65"/>
<text text-anchor="middle" x="2340.54" y="-104.8" font-family="Times,serif" font-size="14.00">&#45;1.06E+01 kg</text>
</g>
<!-- market for steam, in chemical industry -->
<g id="node15" class="node">
<title>market for steam, in chemical industry</title>
<polygon fill="none" stroke="blue" points="367,-576 72,-576 72,-540 367,-540 367,-576"/>
<text text-anchor="middle" x="219.5" y="-554.3" font-family="Times,serif" font-size="14.00">market for steam, in chemical industry</text>
</g>
<!-- market for steam, in chemical industry&#45;&gt;Steam -->
<g id="edge15" class="edge">
<title>market for steam, in chemical industry&#45;&gt;Steam</title>
<path fill="none" stroke="black" stroke-width="1.1" d="M247.86,-576.1C290.54,-603.34 376.42,-654.18 457,-678 604.83,-721.71 790.1,-726.71 870.57,-726.59"/>
<polygon fill="black" stroke="black" stroke-width="1.1" points="870.78,-730.09 880.76,-726.54 870.75,-723.09 870.78,-730.09"/>
<text text-anchor="middle" x="648.73" y="-729.8" font-family="Times,serif" font-size="14.00">1.00E+00 kg</text>
</g>
<!-- market for hydrochloric acid, without water, in 30% solution state -->
<g id="node16" class="node">
<title>market for hydrochloric acid, without water, in 30% solution state</title>
<polygon fill="none" stroke="blue" points="1471.47,-827 983.47,-827 983.47,-791 1471.47,-791 1471.47,-827"/>
<text text-anchor="middle" x="1227.47" y="-805.3" font-family="Times,serif" font-size="14.00">market for hydrochloric acid, without water, in 30% solution state</text>
</g>
<!-- HCl -->
<g id="node19" class="node">
<title>HCl</title>
<polygon fill="none" stroke="red" points="1844.04,-816 1790.04,-816 1790.04,-780 1844.04,-780 1844.04,-816"/>
<text text-anchor="middle" x="1817.04" y="-794.3" font-family="Times,serif" font-size="14.00">HCl</text>
</g>
<!-- market for hydrochloric acid, without water, in 30% solution state&#45;&gt;HCl -->
<g id="edge16" class="edge">
<title>market for hydrochloric acid, without water, in 30% solution state&#45;&gt;HCl</title>
<path fill="none" stroke="black" stroke-width="1.1" d="M1471.7,-804.45C1589.34,-802.24 1718.14,-799.83 1779.54,-798.68"/>
<polygon fill="black" stroke="black" stroke-width="1.1" points="1779.92,-802.18 1789.85,-798.49 1779.79,-795.18 1779.92,-802.18"/>
<text text-anchor="middle" x="1620.75" y="-806.8" font-family="Times,serif" font-size="14.00">1.00E+00 kg</text>
</g>
<!-- market group for electricity, high voltage -->
<g id="node17" class="node">
<title>market group for electricity, high voltage</title>
<polygon fill="none" stroke="blue" points="375,-190 64,-190 64,-154 375,-154 375,-190"/>
<text text-anchor="middle" x="219.5" y="-168.3" font-family="Times,serif" font-size="14.00">market group for electricity, high voltage</text>
</g>
<!-- market group for electricity, high voltage&#45;&gt;Electricity -->
<g id="edge17" class="edge">
<title>market group for electricity, high voltage&#45;&gt;Electricity</title>
<path fill="none" stroke="black" stroke-width="1.1" d="M375.03,-175.97C500.49,-179.55 681.97,-185.57 840.47,-194 845.54,-194.27 850.82,-194.58 856.11,-194.92"/>
<polygon fill="black" stroke="black" stroke-width="1.1" points="856.02,-198.42 866.23,-195.59 856.48,-191.44 856.02,-198.42"/>
<text text-anchor="middle" x="648.73" y="-197.8" font-family="Times,serif" font-size="14.00">1.00E+00 kWh</text>
</g>
<!-- Bacterial fermentation&#45;&gt;Purification -->
<g id="edge18" class="edge">
<title>Bacterial fermentation&#45;&gt;Purification</title>
<path fill="none" stroke="black" stroke-width="1.1" d="M2011.29,-63.03C2031.39,-72.24 2056.42,-83.48 2079.04,-93 2148.16,-122.08 2228.66,-153.19 2281.67,-173.3"/>
<polygon fill="black" stroke="black" stroke-width="1.1" points="2280.65,-176.65 2291.24,-176.92 2283.13,-170.1 2280.65,-176.65"/>
<text text-anchor="middle" x="2176.04" y="-171.8" font-family="Times,serif" font-size="14.00">1.00E+00 p</text>
</g>
<!-- HCl&#45;&gt;Purification -->
<g id="edge20" class="edge">
<title>HCl&#45;&gt;Purification</title>
<path fill="none" stroke="black" stroke-width="0.88" d="M1844.07,-785.98C1850.79,-782.46 1857.87,-778.37 1864.04,-774 2067.05,-630.27 2138.29,-601.07 2273.04,-392 2308.05,-337.69 2326.61,-263.01 2334.61,-223"/>
<polygon fill="black" stroke="black" stroke-width="0.88" points="2338.06,-223.63 2336.51,-213.15 2331.18,-222.31 2338.06,-223.63"/>
<text text-anchor="middle" x="1971.54" y="-759.8" font-family="Times,serif" font-size="14.00">7.90E&#45;02 kg</text>
</g>
<!-- NaCl -->
<g id="node20" class="node">
<title>NaCl</title>
<polygon fill="none" stroke="red" points="1844.04,-765 1790.04,-765 1790.04,-729 1844.04,-729 1844.04,-765"/>
<text text-anchor="middle" x="1817.04" y="-743.3" font-family="Times,serif" font-size="14.00">NaCl</text>
</g>
<!-- NaCl&#45;&gt;Purification -->
<g id="edge21" class="edge">
<title>NaCl&#45;&gt;Purification</title>
<path fill="none" stroke="black" stroke-width="2.72" d="M1844.06,-736.31C1851.79,-731.82 1859.41,-725.79 1864.04,-718 1896.01,-664.21 1840.89,-484.14 1882.04,-437 1998.64,-303.44 2136.47,-471.04 2273.04,-358 2314.29,-323.86 2330.23,-260.1 2336.18,-223.26"/>
<polygon fill="black" stroke="black" stroke-width="2.72" points="2339.67,-223.59 2337.66,-213.19 2332.74,-222.57 2339.67,-223.59"/>
<text text-anchor="middle" x="1971.54" y="-440.8" font-family="Times,serif" font-size="14.00">1.50E+04 kg</text>
</g>
<!-- market for sodium chloride, powder -->
<g id="node21" class="node">
<title>market for sodium chloride, powder</title>
<polygon fill="none" stroke="blue" points="1363.97,-783 1090.97,-783 1090.97,-747 1363.97,-747 1363.97,-783"/>
<text text-anchor="middle" x="1227.47" y="-761.3" font-family="Times,serif" font-size="14.00">market for sodium chloride, powder</text>
</g>
<!-- market for sodium chloride, powder&#45;&gt;NaCl -->
<g id="edge24" class="edge">
<title>market for sodium chloride, powder&#45;&gt;NaCl</title>
<path fill="none" stroke="black" stroke-width="1.1" d="M1364.01,-760.85C1499.42,-756.7 1698.78,-750.59 1779.81,-748.11"/>
<polygon fill="black" stroke="black" stroke-width="1.1" points="1780.1,-751.6 1789.99,-747.8 1779.89,-744.61 1780.1,-751.6"/>
<text text-anchor="middle" x="1620.75" y="-759.8" font-family="Times,serif" font-size="14.00">1.00E+00 kg</text>
</g>
<!-- market for carbon dioxide, liquid -->
<g id="node22" class="node">
<title>market for carbon dioxide, liquid</title>
<polygon fill="none" stroke="blue" points="345,-378 94,-378 94,-342 345,-342 345,-378"/>
<text text-anchor="middle" x="219.5" y="-356.3" font-family="Times,serif" font-size="14.00">market for carbon dioxide, liquid</text>
</g>
<!-- market for carbon dioxide, liquid&#45;&gt;CO2 capture -->
<g id="edge25" class="edge">
<title>market for carbon dioxide, liquid&#45;&gt;CO2 capture</title>
<path fill="none" stroke="black" stroke-width="1.1" d="M345.14,-359.66C378.97,-365.31 413.3,-377.1 439,-400 459.47,-418.24 435.66,-441.78 457,-459 523.55,-512.7 756.54,-474.61 840.47,-491 843.09,-491.51 845.75,-492.09 848.43,-492.71"/>
<polygon fill="black" stroke="black" stroke-width="1.1" points="847.61,-496.11 858.16,-495.16 849.32,-489.32 847.61,-496.11"/>
<text text-anchor="middle" x="648.73" y="-494.8" font-family="Times,serif" font-size="14.00">1.00E+00 kg</text>
</g>
<!-- market for light fuel oil -->
<g id="node23" class="node">
<title>market for light fuel oil</title>
<polygon fill="none" stroke="blue" points="311,-297 128,-297 128,-261 311,-261 311,-297"/>
<text text-anchor="middle" x="219.5" y="-275.3" font-family="Times,serif" font-size="14.00">market for light fuel oil</text>
</g>
<!-- market for light fuel oil&#45;&gt;Heating oil -->
<g id="edge26" class="edge">
<title>market for light fuel oil&#45;&gt;Heating oil</title>
<path fill="none" stroke="black" stroke-width="1.1" d="M311.21,-279.92C355.44,-285.17 406.05,-299.09 439,-333 465.3,-360.07 428.37,-391.4 457,-416 489.38,-443.82 798.34,-433.08 840.47,-440 844.95,-440.74 849.56,-441.64 854.17,-442.65"/>
<polygon fill="black" stroke="black" stroke-width="1.1" points="853.7,-446.13 864.23,-445 855.29,-439.31 853.7,-446.13"/>
<text text-anchor="middle" x="648.73" y="-443.8" font-family="Times,serif" font-size="14.00">1.00E+00 kWh</text>
</g>
<!-- Pre&#45;treatment&#45;&gt;Bacterial fermentation -->
<g id="edge27" class="edge">
<title>Pre&#45;treatment&#45;&gt;Bacterial fermentation</title>
<path fill="none" stroke="black" stroke-width="1.1" d="M1679.84,-571.69C1743.69,-565.65 1840.38,-552.2 1864.04,-525 1883.12,-503.07 1875.52,-292.33 1882.04,-264 1898.66,-191.86 1935.85,-112.56 1956.34,-72.07"/>
<polygon fill="black" stroke="black" stroke-width="1.1" points="1959.48,-73.6 1960.92,-63.1 1953.25,-70.41 1959.48,-73.6"/>
<text text-anchor="middle" x="1817.04" y="-561.8" font-family="Times,serif" font-size="14.00">1.00E+00 p</text>
</g>
<!-- MgCO3&#45;&gt;Bacterial fermentation -->
<g id="edge28" class="edge">
<title>MgCO3&#45;&gt;Bacterial fermentation</title>
<path fill="none" stroke="black" stroke-width="0.98" d="M1263.17,-162.26C1315.73,-151.31 1415.32,-139.86 1471.47,-193 1511.59,-230.98 1447.67,-279.87 1489.47,-316 1577.76,-392.31 1641.12,-352.27 1752.04,-316 1810.68,-296.83 1829.45,-285.08 1864.04,-234 1882.05,-207.4 1868.2,-192.99 1882.04,-164 1898.82,-128.88 1926.64,-93.74 1946.62,-70.85"/>
<polygon fill="black" stroke="black" stroke-width="0.98" points="1949.31,-73.09 1953.32,-63.29 1944.07,-68.45 1949.31,-73.09"/>
<text text-anchor="middle" x="1620.75" y="-362.8" font-family="Times,serif" font-size="14.00">2.73E&#45;01 kg</text>
</g>
<!-- NaOH -->
<g id="node26" class="node">
<title>NaOH</title>
<polygon fill="none" stroke="red" points="1257.47,-106 1197.47,-106 1197.47,-70 1257.47,-70 1257.47,-106"/>
<text text-anchor="middle" x="1227.47" y="-84.3" font-family="Times,serif" font-size="14.00">NaOH</text>
</g>
<!-- NaOH&#45;&gt;Bacterial fermentation -->
<g id="edge29" class="edge">
<title>NaOH&#45;&gt;Bacterial fermentation</title>
<path fill="none" stroke="black" stroke-width="0.95" d="M1257.49,-90.83C1336.86,-98.08 1564.12,-115.65 1752.04,-99 1802.41,-94.54 1814.96,-91.16 1864.04,-79 1878.66,-75.38 1894.2,-70.83 1908.76,-66.25"/>
<polygon fill="black" stroke="black" stroke-width="0.95" points="1910.21,-69.46 1918.66,-63.08 1908.07,-62.79 1910.21,-69.46"/>
<text text-anchor="middle" x="1620.75" y="-108.8" font-family="Times,serif" font-size="14.00">1.97E&#45;01 kg</text>
</g>
<!-- Nitrogen oxides -->
<g id="node27" class="node">
<title>Nitrogen oxides</title>
<ellipse fill="green" stroke="green" cx="1227.47" cy="-129" rx="85.29" ry="18"/>
<text text-anchor="middle" x="1227.47" y="-125.3" font-family="Times,serif" font-size="14.00" fill="white">Nitrogen oxides</text>
</g>
<!-- Nitrogen oxides&#45;&gt;Bacterial fermentation -->
<g id="edge32" class="edge">
<title>Nitrogen oxides&#45;&gt;Bacterial fermentation</title>
<path fill="none" stroke="black" stroke-width="0.64" d="M1287.2,-116.12C1342.03,-107.83 1422.53,-105.81 1471.47,-151 1506.25,-183.12 1453.27,-225.48 1489.47,-256 1578.69,-331.23 1639.45,-286.71 1752.04,-256 1807.78,-240.8 1821.72,-229.34 1864.04,-190 1874.34,-180.43 1873.85,-175.42 1882.04,-164 1905.17,-131.77 1932.52,-95.23 1950.63,-71.24"/>
<polygon fill="black" stroke="black" stroke-width="0.64" points="1953.62,-73.09 1956.86,-63 1948.03,-68.87 1953.62,-73.09"/>
<text text-anchor="middle" x="1620.75" y="-300.8" font-family="Times,serif" font-size="14.00">2.22E&#45;03 kg</text>
</g>
<!-- Ammonia -->
<g id="node28" class="node">
<title>Ammonia</title>
<ellipse fill="green" stroke="green" cx="1227.47" cy="-213" rx="53.89" ry="18"/>
<text text-anchor="middle" x="1227.47" y="-209.3" font-family="Times,serif" font-size="14.00" fill="white">Ammonia</text>
</g>
<!-- Ammonia&#45;&gt;Bacterial fermentation -->
<g id="edge33" class="edge">
<title>Ammonia&#45;&gt;Bacterial fermentation</title>
<path fill="none" stroke="black" stroke-width="0.54" d="M1272.95,-203.3C1327.57,-194.26 1419.35,-188.87 1471.47,-240 1515.62,-283.32 1442.99,-337.19 1489.47,-378 1577.16,-455 1642.28,-417.63 1752.04,-378 1812.9,-356.03 1832.3,-341.38 1864.04,-285 1890.71,-237.62 1861.19,-214.21 1882.04,-164 1896.88,-128.27 1924.8,-93.48 1945.32,-70.84"/>
<polygon fill="black" stroke="black" stroke-width="0.54" points="1948.02,-73.07 1952.24,-63.36 1942.88,-68.32 1948.02,-73.07"/>
<text text-anchor="middle" x="1620.75" y="-425.8" font-family="Times,serif" font-size="14.00">2.79E&#45;04 kg</text>
</g>
<!-- Sulfur dioxide -->
<g id="node29" class="node">
<title>Sulfur dioxide</title>
<ellipse fill="green" stroke="green" cx="1620.75" cy="-229" rx="76.09" ry="18"/>
<text text-anchor="middle" x="1620.75" y="-225.3" font-family="Times,serif" font-size="14.00" fill="white">Sulfur dioxide</text>
</g>
<!-- Sulfur dioxide&#45;&gt;Bacterial fermentation -->
<g id="edge34" class="edge">
<title>Sulfur dioxide&#45;&gt;Bacterial fermentation</title>
<path fill="none" stroke="black" stroke-width="0.64" d="M1665.31,-214.21C1715.04,-196.48 1798.03,-164.33 1864.04,-126 1892.24,-109.63 1921.53,-86.86 1942.25,-69.63"/>
<polygon fill="black" stroke="black" stroke-width="0.64" points="1944.62,-72.2 1950.02,-63.09 1940.11,-66.85 1944.62,-72.2"/>
<text text-anchor="middle" x="1817.04" y="-174.8" font-family="Times,serif" font-size="14.00">2.26E&#45;03 kg</text>
</g>
<!-- Carbon dioxide, fossil -->
<g id="node30" class="node">
<title>Carbon dioxide, fossil</title>
<ellipse fill="green" stroke="green" cx="1620.75" cy="-72" rx="111.28" ry="18"/>
<text text-anchor="middle" x="1620.75" y="-68.3" font-family="Times,serif" font-size="14.00" fill="white">Carbon dioxide, fossil</text>
</g>
<!-- Carbon dioxide, fossil&#45;&gt;Bacterial fermentation -->
<g id="edge35" class="edge">
<title>Carbon dioxide, fossil&#45;&gt;Bacterial fermentation</title>
<path fill="none" stroke="black" stroke-width="1.07" d="M1721.24,-64.3C1768.41,-60.65 1824.62,-56.3 1871.72,-52.65"/>
<polygon fill="black" stroke="black" stroke-width="1.07" points="1872.23,-56.12 1881.93,-51.86 1871.69,-49.14 1872.23,-56.12"/>
<text text-anchor="middle" x="1817.04" y="-63.8" font-family="Times,serif" font-size="14.00">7.22E&#45;01 kg</text>
</g>
<!-- Carbon dioxide, non&#45;fossil -->
<g id="node31" class="node">
<title>Carbon dioxide, non&#45;fossil</title>
<ellipse fill="green" stroke="green" cx="1620.75" cy="-18" rx="131.08" ry="18"/>
<text text-anchor="middle" x="1620.75" y="-14.3" font-family="Times,serif" font-size="14.00" fill="white">Carbon dioxide, non&#45;fossil</text>
</g>
<!-- Carbon dioxide, non&#45;fossil&#45;&gt;Bacterial fermentation -->
<g id="edge36" class="edge">
<title>Carbon dioxide, non&#45;fossil&#45;&gt;Bacterial fermentation</title>
<path fill="none" stroke="black" stroke-width="0.82" d="M1741.67,-25.04C1780.71,-27.56 1824.24,-30.63 1864.04,-34 1866.6,-34.22 1869.18,-34.44 1871.79,-34.67"/>
<polygon fill="black" stroke="black" stroke-width="0.82" points="1871.67,-38.18 1881.94,-35.6 1872.3,-31.2 1871.67,-38.18"/>
<text text-anchor="middle" x="1817.04" y="-37.8" font-family="Times,serif" font-size="14.00">3.61E&#45;02 kg</text>
</g>
<!-- tap water production, underground water with disinfection -->
<g id="node32" class="node">
<title>tap water production, underground water with disinfection</title>
<polygon fill="none" stroke="blue" points="439,-506 0,-506 0,-470 439,-470 439,-506"/>
<text text-anchor="middle" x="219.5" y="-484.3" font-family="Times,serif" font-size="14.00">tap water production, underground water with disinfection</text>
</g>
<!-- tap water production, underground water with disinfection&#45;&gt;Water -->
<g id="edge37" class="edge">
<title>tap water production, underground water with disinfection&#45;&gt;Water</title>
<path fill="none" stroke="black" stroke-width="1.1" d="M390.73,-506.09C407.95,-512.33 424.44,-520.46 439,-531 452.22,-540.57 443.43,-553.94 457,-563 528.37,-610.67 755.53,-596.68 840.47,-609 850.79,-610.5 861.93,-612.3 872.23,-614.05"/>
<polygon fill="black" stroke="black" stroke-width="1.1" points="871.75,-617.52 882.2,-615.77 872.94,-610.63 871.75,-617.52"/>
<text text-anchor="middle" x="648.73" y="-612.8" font-family="Times,serif" font-size="14.00">1.00E+00 kg</text>
</g>
<!-- sodium hydroxide to generic market for neutralising agent -->
<g id="node33" class="node">
<title>sodium hydroxide to generic market for neutralising agent</title>
<polygon fill="none" stroke="blue" points="438,-130 1,-130 1,-94 438,-94 438,-130"/>
<text text-anchor="middle" x="219.5" y="-108.3" font-family="Times,serif" font-size="14.00">sodium hydroxide to generic market for neutralising agent</text>
</g>
<!-- sodium hydroxide to generic market for neutralising agent&#45;&gt;NaOH -->
<g id="edge38" class="edge">
<title>sodium hydroxide to generic market for neutralising agent&#45;&gt;NaOH</title>
<path fill="none" stroke="black" stroke-width="1.1" d="M438.27,-98.73C444.58,-98.47 450.83,-98.22 457,-98 736.7,-87.91 1073.91,-87.64 1187.2,-87.87"/>
<polygon fill="black" stroke="black" stroke-width="1.1" points="1187.45,-91.37 1197.46,-87.9 1187.46,-84.37 1187.45,-91.37"/>
<text text-anchor="middle" x="648.73" y="-101.8" font-family="Times,serif" font-size="14.00">1.00E+00 kg</text>
</g>
<!-- enzymes production -->
<g id="node34" class="node">
<title>enzymes production</title>
<polygon fill="none" stroke="blue" points="300,-445 139,-445 139,-409 300,-409 300,-445"/>
<text text-anchor="middle" x="219.5" y="-423.3" font-family="Times,serif" font-size="14.00">enzymes production</text>
</g>
<!-- enzymes production&#45;&gt;Enzyme -->
<g id="edge39" class="edge">
<title>enzymes production&#45;&gt;Enzyme</title>
<path fill="none" stroke="black" stroke-width="1.1" d="M300.19,-420.62C345.51,-421.22 400.7,-429.61 439,-461 456.94,-475.71 438.58,-495.89 457,-510 524.92,-562.02 756.65,-526.85 840.47,-544 848.54,-545.65 856.98,-547.91 865.1,-550.38"/>
<polygon fill="black" stroke="black" stroke-width="1.1" points="864.21,-553.77 874.8,-553.46 866.33,-547.1 864.21,-553.77"/>
<text text-anchor="middle" x="648.73" y="-547.8" font-family="Times,serif" font-size="14.00">1.00E+00 kg</text>
</g>
</g>
</svg>
