<?xml version="1.0" encoding="UTF-8" standalone="no"?>
<!DOCTYPE svg PUBLIC "-//W3C//DTD SVG 1.1//EN"
 "http://www.w3.org/Graphics/SVG/1.1/DTD/svg11.dtd">
<!-- Generated by graphviz version 2.43.0 (0)
 -->
<!-- Title: %3 Pages: 1 -->
<svg width="2828pt" height="862pt"
 viewBox="0.00 0.00 2828.25 862.40" xmlns="http://www.w3.org/2000/svg" xmlns:xlink="http://www.w3.org/1999/xlink">
<g id="graph0" class="graph" transform="scale(1 1) rotate(0) translate(7.2 855.2)">
<title>%3</title>
<polygon fill="white" stroke="transparent" points="-7.2,7.2 -7.2,-855.2 2821.05,-855.2 2821.05,7.2 -7.2,7.2"/>
<!-- enzymes production -->
<g id="node1" class="node">
<title>enzymes production</title>
<polygon fill="none" stroke="blue" points="300,-395 139,-395 139,-359 300,-359 300,-395"/>
<text text-anchor="middle" x="219.5" y="-373.3" font-family="Times,serif" font-size="14.00">enzymes production</text>
</g>
<!-- Enzyme -->
<g id="node13" class="node">
<title>Enzyme</title>
<polygon fill="none" stroke="red" points="1002.5,-622 928.5,-622 928.5,-586 1002.5,-586 1002.5,-622"/>
<text text-anchor="middle" x="965.5" y="-600.3" font-family="Times,serif" font-size="14.00">Enzyme</text>
</g>
<!-- enzymes production&#45;&gt;Enzyme -->
<g id="edge1" class="edge">
<title>enzymes production&#45;&gt;Enzyme</title>
<path fill="none" stroke="black" stroke-width="1.1" d="M300.13,-372.58C346,-374.32 401.77,-384.37 439,-418 459.98,-436.95 435.09,-461.13 457,-479 532.53,-540.6 818.47,-454.4 894,-516 915.91,-533.87 893.98,-555.22 912,-577 914.29,-579.77 916.94,-582.29 919.8,-584.57"/>
<polygon fill="black" stroke="black" stroke-width="1.1" points="918.1,-587.64 928.33,-590.39 922.05,-581.86 918.1,-587.64"/>
<text text-anchor="middle" x="675.5" y="-519.8" font-family="Times,serif" font-size="14.00">1.00E+00 kg</text>
</g>
<!-- market for steam, in chemical industry -->
<g id="node2" class="node">
<title>market for steam, in chemical industry</title>
<polygon fill="none" stroke="blue" points="367,-598 72,-598 72,-562 367,-562 367,-598"/>
<text text-anchor="middle" x="219.5" y="-576.3" font-family="Times,serif" font-size="14.00">market for steam, in chemical industry</text>
</g>
<!-- Steam -->
<g id="node7" class="node">
<title>Steam</title>
<polygon fill="none" stroke="red" points="996.5,-781 934.5,-781 934.5,-745 996.5,-745 996.5,-781"/>
<text text-anchor="middle" x="965.5" y="-759.3" font-family="Times,serif" font-size="14.00">Steam</text>
</g>
<!-- market for steam, in chemical industry&#45;&gt;Steam -->
<g id="edge2" class="edge">
<title>market for steam, in chemical industry&#45;&gt;Steam</title>
<path fill="none" stroke="black" stroke-width="1.1" d="M245.59,-598.08C287.21,-627.02 374.19,-683.14 457,-709 624.63,-761.34 836.89,-765.01 924.2,-763.99"/>
<polygon fill="black" stroke="black" stroke-width="1.1" points="924.27,-767.49 934.21,-763.85 924.16,-760.49 924.27,-767.49"/>
<text text-anchor="middle" x="675.5" y="-767.8" font-family="Times,serif" font-size="14.00">1.00E+00 kg</text>
</g>
<!-- Pre&#45;treatment -->
<g id="node3" class="node">
<title>Pre&#45;treatment</title>
<polygon fill="none" stroke="red" points="1733.29,-615 1615.29,-615 1615.29,-579 1733.29,-579 1733.29,-615"/>
<text text-anchor="middle" x="1674.29" y="-593.3" font-family="Times,serif" font-size="14.00">Pre&#45;treatment</text>
</g>
<!-- Bacterial fermentation -->
<g id="node31" class="node">
<title>Bacterial fermentation</title>
<polygon fill="none" stroke="red" points="2114.58,-63 1935.58,-63 1935.58,-27 2114.58,-27 2114.58,-63"/>
<text text-anchor="middle" x="2025.08" y="-41.3" font-family="Times,serif" font-size="14.00">Bacterial fermentation</text>
</g>
<!-- Pre&#45;treatment&#45;&gt;Bacterial fermentation -->
<g id="edge3" class="edge">
<title>Pre&#45;treatment&#45;&gt;Bacterial fermentation</title>
<path fill="none" stroke="black" stroke-width="1.1" d="M1733.38,-583.48C1790.56,-566.88 1875.27,-532.71 1917.58,-469 1942.87,-430.9 1924.89,-308.47 1935.58,-264 1952.87,-192.02 1989.78,-112.65 2010.05,-72.11"/>
<polygon fill="black" stroke="black" stroke-width="1.1" points="2013.2,-73.64 2014.58,-63.13 2006.95,-70.48 2013.2,-73.64"/>
<text text-anchor="middle" x="1870.58" y="-547.8" font-family="Times,serif" font-size="14.00">1.00E+00 p</text>
</g>
<!-- MgCO3 -->
<g id="node4" class="node">
<title>MgCO3</title>
<polygon fill="none" stroke="red" points="1316.5,-226 1245.5,-226 1245.5,-190 1316.5,-190 1316.5,-226"/>
<text text-anchor="middle" x="1281" y="-204.3" font-family="Times,serif" font-size="14.00">MgCO3</text>
</g>
<!-- MgCO3&#45;&gt;Bacterial fermentation -->
<g id="edge4" class="edge">
<title>MgCO3&#45;&gt;Bacterial fermentation</title>
<path fill="none" stroke="black" stroke-width="0.98" d="M1316.79,-204.25C1365.63,-200.48 1456.26,-199.01 1525,-230 1535.03,-234.52 1532.77,-242.93 1543,-247 1651.44,-290.12 1691,-269.16 1805.58,-247 1858.25,-236.81 1878.52,-238.77 1917.58,-202 1931.18,-189.19 1925.95,-180.02 1935.58,-164 1955.77,-130.39 1983.26,-94.65 2002.21,-71.21"/>
<polygon fill="black" stroke="black" stroke-width="0.98" points="2005.17,-73.12 2008.78,-63.16 1999.75,-68.7 2005.17,-73.12"/>
<text text-anchor="middle" x="1674.29" y="-275.8" font-family="Times,serif" font-size="14.00">2.73E&#45;01 kg</text>
</g>
<!-- NaOH -->
<g id="node5" class="node">
<title>NaOH</title>
<polygon fill="none" stroke="red" points="1311,-139 1251,-139 1251,-103 1311,-103 1311,-139"/>
<text text-anchor="middle" x="1281" y="-117.3" font-family="Times,serif" font-size="14.00">NaOH</text>
</g>
<!-- NaOH&#45;&gt;Bacterial fermentation -->
<g id="edge5" class="edge">
<title>NaOH&#45;&gt;Bacterial fermentation</title>
<path fill="none" stroke="black" stroke-width="0.95" d="M1311.06,-122.74C1402.14,-127.45 1689.5,-136.49 1917.58,-80 1933,-76.18 1949.41,-71.24 1964.62,-66.28"/>
<polygon fill="black" stroke="black" stroke-width="0.95" points="1966.02,-69.5 1974.41,-63.03 1963.82,-62.86 1966.02,-69.5"/>
<text text-anchor="middle" x="1674.29" y="-128.8" font-family="Times,serif" font-size="14.00">1.97E&#45;01 kg</text>
</g>
<!-- Electricity -->
<g id="node6" class="node">
<title>Electricity</title>
<polygon fill="none" stroke="red" points="1011,-252 920,-252 920,-216 1011,-216 1011,-252"/>
<text text-anchor="middle" x="965.5" y="-230.3" font-family="Times,serif" font-size="14.00">Electricity</text>
</g>
<!-- Electricity&#45;&gt;Pre&#45;treatment -->
<g id="edge13" class="edge">
<title>Electricity&#45;&gt;Pre&#45;treatment</title>
<path fill="none" stroke="black" stroke-width="1" d="M1001.65,-252.12C1008.06,-256.63 1014.23,-261.95 1019,-268 1033.88,-286.88 1017.71,-304.66 1037,-319 1080.56,-351.39 1485.4,-304.87 1525,-342 1551.26,-366.63 1524.84,-471.91 1543,-503 1561.34,-534.4 1594.8,-558.2 1623.21,-574"/>
<polygon fill="black" stroke="black" stroke-width="1" points="1621.77,-577.2 1632.24,-578.84 1625.08,-571.03 1621.77,-577.2"/>
<text text-anchor="middle" x="1281" y="-345.8" font-family="Times,serif" font-size="14.00">3.30E&#45;01 kWh</text>
</g>
<!-- Purification -->
<g id="node30" class="node">
<title>Purification</title>
<polygon fill="none" stroke="red" points="2443.58,-86 2344.58,-86 2344.58,-50 2443.58,-50 2443.58,-86"/>
<text text-anchor="middle" x="2394.08" y="-64.3" font-family="Times,serif" font-size="14.00">Purification</text>
</g>
<!-- Electricity&#45;&gt;Purification -->
<g id="edge34" class="edge">
<title>Electricity&#45;&gt;Purification</title>
<path fill="none" stroke="black" stroke-width="1" d="M1009.07,-252.06C1012.63,-254.45 1016.01,-257.09 1019,-260 1031.25,-271.93 1022.61,-284.76 1037,-294 1128.41,-352.67 1440.98,-253.15 1525,-322 1549.51,-342.09 1517.92,-371.62 1543,-391 1635.35,-462.35 1693.81,-424.59 1805.58,-391 1862.71,-373.83 1881.13,-364.24 1917.58,-317 1932.77,-297.3 1921.3,-284.37 1935.58,-264 1999.98,-172.08 2029.66,-150.78 2132.58,-106 2167.78,-90.68 2268.98,-79.1 2334.39,-72.95"/>
<polygon fill="black" stroke="black" stroke-width="1" points="2334.93,-76.42 2344.56,-72.01 2334.28,-69.45 2334.93,-76.42"/>
<text text-anchor="middle" x="1870.58" y="-388.8" font-family="Times,serif" font-size="14.00">3.30E&#45;01 kg</text>
</g>
<!-- Electricity&#45;&gt;Bacterial fermentation -->
<g id="edge6" class="edge">
<title>Electricity&#45;&gt;Bacterial fermentation</title>
<path fill="none" stroke="black" stroke-width="1" d="M1002.94,-252.02C1008.33,-254.7 1013.81,-257.42 1019,-260 1027.01,-263.98 1028.36,-266.7 1037,-269 1089.48,-282.99 1480.26,-266.22 1525,-297 1541.06,-308.05 1526.63,-326.41 1543,-337 1641,-400.37 1692.58,-366.19 1805.58,-337 1860.66,-322.77 1884.84,-321.54 1917.58,-275 1946.33,-234.12 1916.11,-210.03 1935.58,-164 1950.74,-128.15 1978.86,-93.14 1999.34,-70.49"/>
<polygon fill="black" stroke="black" stroke-width="1" points="2002.03,-72.73 2006.23,-63 1996.88,-67.99 2002.03,-72.73"/>
<text text-anchor="middle" x="1674.29" y="-375.8" font-family="Times,serif" font-size="14.00">3.30E&#45;01 kWh</text>
</g>
<!-- Steam&#45;&gt;Pre&#45;treatment -->
<g id="edge14" class="edge">
<title>Steam&#45;&gt;Pre&#45;treatment</title>
<path fill="none" stroke="black" stroke-width="1.4" d="M996.58,-748.8C1004.59,-743.99 1012.75,-738.01 1019,-731 1031.7,-716.75 1021.17,-702.66 1037,-692 1082.02,-661.68 1472.4,-682.41 1525,-669 1565.04,-658.8 1607.08,-637.2 1636.13,-620.31"/>
<polygon fill="black" stroke="black" stroke-width="1.4" points="1638.26,-623.11 1645.09,-615.01 1634.7,-617.09 1638.26,-623.11"/>
<text text-anchor="middle" x="1281" y="-695.8" font-family="Times,serif" font-size="14.00">1.35E+01 kg</text>
</g>
<!-- Steam&#45;&gt;Purification -->
<g id="edge37" class="edge">
<title>Steam&#45;&gt;Purification</title>
<path fill="none" stroke="black" stroke-width="1.4" d="M996.72,-761.71C1142.28,-755.47 1765.66,-728.25 1805.58,-718 1859.1,-704.25 1886.79,-709.89 1917.58,-664 1954.66,-608.72 1897.83,-419.83 1935.58,-365 1985.1,-293.08 2061.65,-353.45 2114.58,-284 2145.67,-243.2 2096.52,-206.49 2132.58,-170 2194.05,-107.79 2249.25,-177.87 2326.58,-137 2345.81,-126.83 2362.75,-109.05 2374.72,-94.08"/>
<polygon fill="black" stroke="black" stroke-width="1.4" points="2377.52,-96.18 2380.84,-86.12 2371.97,-91.91 2377.52,-96.18"/>
<text text-anchor="middle" x="1870.58" y="-716.8" font-family="Times,serif" font-size="14.00">1.35E+01 kg</text>
</g>
<!-- Steam&#45;&gt;Bacterial fermentation -->
<g id="edge7" class="edge">
<title>Steam&#45;&gt;Bacterial fermentation</title>
<path fill="none" stroke="black" stroke-width="1.4" d="M996.71,-748.53C1008.94,-743.33 1023.37,-738.01 1037,-735 1249.12,-688.08 1309.82,-736.88 1525,-707 1533.12,-705.87 1534.98,-704.67 1543,-703 1626.02,-685.69 1861.67,-693.77 1917.58,-630 1939.08,-605.47 1929.81,-369.1 1935.58,-337 1953.5,-237.29 1994.03,-123.59 2013.39,-72.45"/>
<polygon fill="black" stroke="black" stroke-width="1.4" points="2016.68,-73.67 2016.97,-63.08 2010.14,-71.18 2016.68,-73.67"/>
<text text-anchor="middle" x="1674.29" y="-706.8" font-family="Times,serif" font-size="14.00">1.35E+01 kg</text>
</g>
<!-- Nitrogen oxides -->
<g id="node8" class="node">
<title>Nitrogen oxides</title>
<ellipse fill="green" stroke="green" cx="1281" cy="-165" rx="85.29" ry="18"/>
<text text-anchor="middle" x="1281" y="-161.3" font-family="Times,serif" font-size="14.00" fill="white">Nitrogen oxides</text>
</g>
<!-- Nitrogen oxides&#45;&gt;Bacterial fermentation -->
<g id="edge8" class="edge">
<title>Nitrogen oxides&#45;&gt;Bacterial fermentation</title>
<path fill="none" stroke="black" stroke-width="0.64" d="M1361.05,-158.81C1410.38,-158.11 1473.98,-163.11 1525,-187 1535.25,-191.8 1532.55,-200.67 1543,-205 1650.82,-249.66 1689.87,-220.23 1805.58,-205 1856.67,-198.28 1874.28,-202.94 1917.58,-175 1958.28,-148.73 1990.98,-101.86 2008.94,-72.15"/>
<polygon fill="black" stroke="black" stroke-width="0.64" points="2012.18,-73.55 2014.25,-63.16 2006.15,-69.99 2012.18,-73.55"/>
<text text-anchor="middle" x="1674.29" y="-231.8" font-family="Times,serif" font-size="14.00">2.22E&#45;03 kg</text>
</g>
<!-- Ammonia -->
<g id="node9" class="node">
<title>Ammonia</title>
<ellipse fill="green" stroke="green" cx="1281" cy="-250" rx="53.89" ry="18"/>
<text text-anchor="middle" x="1281" y="-246.3" font-family="Times,serif" font-size="14.00" fill="white">Ammonia</text>
</g>
<!-- Ammonia&#45;&gt;Bacterial fermentation -->
<g id="edge9" class="edge">
<title>Ammonia&#45;&gt;Bacterial fermentation</title>
<path fill="none" stroke="black" stroke-width="0.54" d="M1332.68,-244.52C1383.84,-241.23 1463.82,-242.34 1525,-272 1535.47,-277.07 1532.31,-286.4 1543,-291 1650.2,-337.11 1691.9,-317.41 1805.58,-291 1859.59,-278.45 1882.72,-279.13 1917.58,-236 1938.31,-210.34 1921.46,-193.81 1935.58,-164 1952.23,-128.82 1980.08,-93.69 2000.09,-70.82"/>
<polygon fill="black" stroke="black" stroke-width="0.54" points="2002.78,-73.06 2006.81,-63.26 1997.55,-68.41 2002.78,-73.06"/>
<text text-anchor="middle" x="1674.29" y="-321.8" font-family="Times,serif" font-size="14.00">2.79E&#45;04 kg</text>
</g>
<!-- Sulfur dioxide -->
<g id="node10" class="node">
<title>Sulfur dioxide</title>
<ellipse fill="green" stroke="green" cx="1674.29" cy="-178" rx="76.09" ry="18"/>
<text text-anchor="middle" x="1674.29" y="-174.3" font-family="Times,serif" font-size="14.00" fill="white">Sulfur dioxide</text>
</g>
<!-- Sulfur dioxide&#45;&gt;Bacterial fermentation -->
<g id="edge10" class="edge">
<title>Sulfur dioxide&#45;&gt;Bacterial fermentation</title>
<path fill="none" stroke="black" stroke-width="0.64" d="M1744.94,-171.25C1794.8,-164.49 1862.56,-151.29 1917.58,-126 1947.95,-112.04 1977.83,-88.18 1998.17,-69.96"/>
<polygon fill="black" stroke="black" stroke-width="0.64" points="2000.72,-72.37 2005.74,-63.04 1996,-67.2 2000.72,-72.37"/>
<text text-anchor="middle" x="1870.58" y="-159.8" font-family="Times,serif" font-size="14.00">2.26E&#45;03 kg</text>
</g>
<!-- Carbon dioxide, fossil -->
<g id="node11" class="node">
<title>Carbon dioxide, fossil</title>
<ellipse fill="green" stroke="green" cx="1674.29" cy="-72" rx="111.28" ry="18"/>
<text text-anchor="middle" x="1674.29" y="-68.3" font-family="Times,serif" font-size="14.00" fill="white">Carbon dioxide, fossil</text>
</g>
<!-- Carbon dioxide, fossil&#45;&gt;Bacterial fermentation -->
<g id="edge11" class="edge">
<title>Carbon dioxide, fossil&#45;&gt;Bacterial fermentation</title>
<path fill="none" stroke="black" stroke-width="1.07" d="M1774.77,-64.3C1821.95,-60.65 1878.16,-56.3 1925.25,-52.65"/>
<polygon fill="black" stroke="black" stroke-width="1.07" points="1925.76,-56.12 1935.46,-51.86 1925.22,-49.14 1925.76,-56.12"/>
<text text-anchor="middle" x="1870.58" y="-64.8" font-family="Times,serif" font-size="14.00">7.22E&#45;01 kg</text>
</g>
<!-- Carbon dioxide, non&#45;fossil -->
<g id="node12" class="node">
<title>Carbon dioxide, non&#45;fossil</title>
<ellipse fill="green" stroke="green" cx="1674.29" cy="-18" rx="131.08" ry="18"/>
<text text-anchor="middle" x="1674.29" y="-14.3" font-family="Times,serif" font-size="14.00" fill="white">Carbon dioxide, non&#45;fossil</text>
</g>
<!-- Carbon dioxide, non&#45;fossil&#45;&gt;Bacterial fermentation -->
<g id="edge12" class="edge">
<title>Carbon dioxide, non&#45;fossil&#45;&gt;Bacterial fermentation</title>
<path fill="none" stroke="black" stroke-width="0.82" d="M1793.02,-25.7C1832.61,-28.44 1877.02,-31.67 1917.58,-35 1920.13,-35.21 1922.71,-35.42 1925.32,-35.65"/>
<polygon fill="black" stroke="black" stroke-width="0.82" points="1925.2,-39.15 1935.47,-36.52 1925.81,-32.17 1925.2,-39.15"/>
<text text-anchor="middle" x="1870.58" y="-38.8" font-family="Times,serif" font-size="14.00">3.61E&#45;02 kg</text>
</g>
<!-- Enzyme&#45;&gt;Pre&#45;treatment -->
<g id="edge15" class="edge">
<title>Enzyme&#45;&gt;Pre&#45;treatment</title>
<path fill="none" stroke="black" stroke-width="0.71" d="M1002.66,-586.09C1008.19,-583.15 1013.79,-580.06 1019,-577 1027.29,-572.13 1027.8,-567.79 1037,-565 1140.79,-533.57 1417.17,-553.5 1525,-565 1551.47,-567.82 1580.16,-573.41 1605.18,-579.13"/>
<polygon fill="black" stroke="black" stroke-width="0.71" points="1604.41,-582.54 1614.94,-581.41 1606,-575.73 1604.41,-582.54"/>
<text text-anchor="middle" x="1281" y="-568.8" font-family="Times,serif" font-size="14.00">7.00E&#45;03 kg</text>
</g>
<!-- CO2 capture -->
<g id="node14" class="node">
<title>CO2 capture</title>
<polygon fill="none" stroke="red" points="1019,-568 912,-568 912,-532 1019,-532 1019,-568"/>
<text text-anchor="middle" x="965.5" y="-546.3" font-family="Times,serif" font-size="14.00">CO2 capture</text>
</g>
<!-- CO2 capture&#45;&gt;Pre&#45;treatment -->
<g id="edge16" class="edge">
<title>CO2 capture&#45;&gt;Pre&#45;treatment</title>
<path fill="none" stroke="black" stroke-width="0.89" d="M1019.25,-532.5C1025.19,-531.07 1031.19,-529.85 1037,-529 1251.62,-497.71 1313.1,-482.73 1525,-529 1564.45,-537.61 1605.95,-557.72 1634.98,-573.85"/>
<polygon fill="black" stroke="black" stroke-width="0.89" points="1633.53,-577.05 1643.95,-578.93 1636.98,-570.96 1633.53,-577.05"/>
<text text-anchor="middle" x="1281" y="-532.8" font-family="Times,serif" font-size="14.00">1.00E&#45;01 kWh</text>
</g>
<!-- Water -->
<g id="node15" class="node">
<title>Water</title>
<polygon fill="none" stroke="red" points="995,-676 936,-676 936,-640 995,-640 995,-676"/>
<text text-anchor="middle" x="965.5" y="-654.3" font-family="Times,serif" font-size="14.00">Water</text>
</g>
<!-- Water&#45;&gt;Pre&#45;treatment -->
<g id="edge17" class="edge">
<title>Water&#45;&gt;Pre&#45;treatment</title>
<path fill="none" stroke="black" stroke-width="1.6" d="M995.14,-646.55C1003.4,-642.42 1012.04,-637.21 1019,-631 1029.76,-621.39 1024.32,-610.88 1037,-604 1085.83,-577.52 1450.69,-588.33 1604.85,-594.18"/>
<polygon fill="black" stroke="black" stroke-width="1.6" points="1605.01,-597.69 1615.14,-594.57 1605.28,-590.69 1605.01,-597.69"/>
<text text-anchor="middle" x="1281" y="-607.8" font-family="Times,serif" font-size="14.00">5.86E+01 kg</text>
</g>
<!-- Water&#45;&gt;Purification -->
<g id="edge38" class="edge">
<title>Water&#45;&gt;Purification</title>
<path fill="none" stroke="black" stroke-width="1.6" d="M995.18,-658.58C1123.81,-660.9 1648.19,-667.49 1805.58,-624 1860.21,-608.9 1886.71,-610.54 1917.58,-563 1945.01,-520.74 1911.25,-381.12 1935.58,-337 1983.55,-249.97 2057.84,-284.59 2114.58,-203 2130.71,-179.79 2111.68,-161.03 2132.58,-142 2197.54,-82.84 2243.89,-133.7 2326.58,-104 2336.21,-100.54 2346.15,-95.84 2355.31,-90.99"/>
<polygon fill="black" stroke="black" stroke-width="1.6" points="2357.1,-94 2364.17,-86.12 2353.73,-87.87 2357.1,-94"/>
<text text-anchor="middle" x="1870.58" y="-622.8" font-family="Times,serif" font-size="14.00">5.86E+01 kg</text>
</g>
<!-- Heating oil -->
<g id="node16" class="node">
<title>Heating oil</title>
<polygon fill="none" stroke="red" points="1013,-514 918,-514 918,-478 1013,-478 1013,-514"/>
<text text-anchor="middle" x="965.5" y="-492.3" font-family="Times,serif" font-size="14.00">Heating oil</text>
</g>
<!-- Heating oil&#45;&gt;Pre&#45;treatment -->
<g id="edge18" class="edge">
<title>Heating oil&#45;&gt;Pre&#45;treatment</title>
<path fill="none" stroke="black" stroke-width="1.23" d="M1013.27,-483.85C1021.14,-482.25 1029.27,-480.87 1037,-480 1090.89,-473.96 1476.26,-456.25 1525,-480 1536.67,-485.69 1533.64,-494 1543,-503 1571.3,-530.22 1607.87,-555.92 1635.06,-573.55"/>
<polygon fill="black" stroke="black" stroke-width="1.23" points="1633.23,-576.53 1643.54,-578.98 1637,-570.64 1633.23,-576.53"/>
<text text-anchor="middle" x="1281" y="-483.8" font-family="Times,serif" font-size="14.00">3.39E+00 kg</text>
</g>
<!-- Methane, non&#45;fossil -->
<g id="node17" class="node">
<title>Methane, non&#45;fossil</title>
<ellipse fill="green" stroke="green" cx="675.5" cy="-367" rx="102.08" ry="18"/>
<text text-anchor="middle" x="675.5" y="-363.3" font-family="Times,serif" font-size="14.00" fill="white">Methane, non&#45;fossil</text>
</g>
<!-- Methane, non&#45;fossil&#45;&gt;Pre&#45;treatment -->
<g id="edge19" class="edge">
<title>Methane, non&#45;fossil&#45;&gt;Pre&#45;treatment</title>
<path fill="none" stroke="black" stroke-width="0.46" d="M770.13,-360.2C810.52,-361.24 856.9,-368.05 894,-389 905.61,-395.56 900.56,-406.16 912,-413 960.22,-441.85 981.13,-425.99 1037,-432 1091.02,-437.81 1480.33,-432.07 1525,-463 1541.03,-474.1 1530.68,-487.89 1543,-503 1566.94,-532.35 1602.15,-557.01 1629.93,-573.7"/>
<polygon fill="black" stroke="black" stroke-width="0.46" points="1628.27,-576.79 1638.66,-578.84 1631.82,-570.75 1628.27,-576.79"/>
<text text-anchor="middle" x="965.5" y="-434.8" font-family="Times,serif" font-size="14.00">4.10E&#45;05 kg</text>
</g>
<!-- Methane, fossil -->
<g id="node18" class="node">
<title>Methane, fossil</title>
<ellipse fill="green" stroke="green" cx="675.5" cy="-324" rx="81.79" ry="18"/>
<text text-anchor="middle" x="675.5" y="-320.3" font-family="Times,serif" font-size="14.00" fill="white">Methane, fossil</text>
</g>
<!-- Methane, fossil&#45;&gt;Pre&#45;treatment -->
<g id="edge20" class="edge">
<title>Methane, fossil&#45;&gt;Pre&#45;treatment</title>
<path fill="none" stroke="black" stroke-width="0.67" d="M756.25,-320.99C798.65,-322.08 850.79,-327.84 894,-346 903.6,-350.03 902.85,-356.04 912,-361 955.75,-384.73 974.46,-371.8 1019,-394 1027.83,-398.4 1027.7,-403.7 1037,-407 1088.18,-425.18 1482.93,-400.65 1525,-435 1549.22,-454.77 1525.29,-477.24 1543,-503 1564.03,-533.59 1598.41,-557.78 1626.57,-573.96"/>
<polygon fill="black" stroke="black" stroke-width="0.67" points="1625.04,-577.11 1635.48,-578.93 1628.45,-571 1625.04,-577.11"/>
<text text-anchor="middle" x="965.5" y="-397.8" font-family="Times,serif" font-size="14.00">3.72E&#45;03 kg</text>
</g>
<!-- Chromium VI -->
<g id="node19" class="node">
<title>Chromium VI</title>
<ellipse fill="green" stroke="green" cx="675.5" cy="-282" rx="72.29" ry="18"/>
<text text-anchor="middle" x="675.5" y="-278.3" font-family="Times,serif" font-size="14.00" fill="white">Chromium VI</text>
</g>
<!-- Chromium VI&#45;&gt;Pre&#45;treatment -->
<g id="edge21" class="edge">
<title>Chromium VI&#45;&gt;Pre&#45;treatment</title>
<path fill="none" stroke="black" stroke-width="0.29" d="M746.56,-285.62C789.44,-288.69 845.25,-294.22 894,-304 897.56,-304.71 1016.28,-339.6 1019,-342 1033.64,-354.88 1020.94,-370.95 1037,-382 1126.49,-443.57 1443.23,-338.5 1525,-410 1556.69,-437.71 1520.33,-467.52 1543,-503 1562.78,-533.97 1596.71,-557.95 1624.98,-573.95"/>
<polygon fill="black" stroke="black" stroke-width="0.29" points="1623.49,-577.12 1633.94,-578.86 1626.85,-570.98 1623.49,-577.12"/>
<text text-anchor="middle" x="965.5" y="-345.8" font-family="Times,serif" font-size="14.00">7.40E&#45;08 kg</text>
</g>
<!-- Arsenic ion -->
<g id="node20" class="node">
<title>Arsenic ion</title>
<ellipse fill="green" stroke="green" cx="675.5" cy="-240" rx="62.29" ry="18"/>
<text text-anchor="middle" x="675.5" y="-236.3" font-family="Times,serif" font-size="14.00" fill="white">Arsenic ion</text>
</g>
<!-- Arsenic ion&#45;&gt;Pre&#45;treatment -->
<g id="edge22" class="edge">
<title>Arsenic ion&#45;&gt;Pre&#45;treatment</title>
<path fill="none" stroke="black" stroke-width="0.33" d="M736.29,-244.11C780.13,-247.6 840.99,-253.41 894,-262 950.2,-271.1 977.9,-250.6 1019,-290 1041.26,-311.34 1013.08,-337.54 1037,-357 1121.27,-425.54 1444.67,-311.89 1525,-385 1564.23,-420.71 1515.33,-457.73 1543,-503 1562.1,-534.25 1595.87,-558.17 1624.25,-574.06"/>
<polygon fill="black" stroke="black" stroke-width="0.33" points="1622.79,-577.25 1633.25,-578.93 1626.13,-571.09 1622.79,-577.25"/>
<text text-anchor="middle" x="965.5" y="-293.8" font-family="Times,serif" font-size="14.00">4.77E&#45;07 kg</text>
</g>
<!-- PAH, polycyclic aromatic hydrocarbons -->
<g id="node21" class="node">
<title>PAH, polycyclic aromatic hydrocarbons</title>
<ellipse fill="green" stroke="green" cx="219.5" cy="-526" rx="191.97" ry="18"/>
<text text-anchor="middle" x="219.5" y="-522.3" font-family="Times,serif" font-size="14.00" fill="white">PAH, polycyclic aromatic hydrocarbons</text>
</g>
<!-- PAH, polycyclic aromatic hydrocarbons&#45;&gt;Pre&#45;treatment -->
<g id="edge23" class="edge">
<title>PAH, polycyclic aromatic hydrocarbons&#45;&gt;Pre&#45;treatment</title>
<path fill="none" stroke="black" stroke-width="0.33" d="M405.72,-530.34C417.94,-536.02 429.24,-543.44 439,-553 478.79,-591.96 415.21,-640.19 457,-677 532.89,-743.84 810.88,-684.11 912,-685 959.55,-685.42 973.75,-699.63 1019,-685 1028.39,-681.96 1027.77,-675.5 1037,-672 1240.79,-594.64 1309.06,-652.73 1525,-623 1551.17,-619.4 1579.79,-614.59 1604.85,-610.08"/>
<polygon fill="black" stroke="black" stroke-width="0.33" points="1605.77,-613.47 1614.99,-608.24 1604.52,-606.58 1605.77,-613.47"/>
<text text-anchor="middle" x="965.5" y="-694.8" font-family="Times,serif" font-size="14.00">4.21E&#45;07 kg</text>
</g>
<!-- market for light fuel oil -->
<g id="node22" class="node">
<title>market for light fuel oil</title>
<polygon fill="none" stroke="blue" points="311,-277 128,-277 128,-241 311,-241 311,-277"/>
<text text-anchor="middle" x="219.5" y="-255.3" font-family="Times,serif" font-size="14.00">market for light fuel oil</text>
</g>
<!-- market for light fuel oil&#45;&gt;Heating oil -->
<g id="edge24" class="edge">
<title>market for light fuel oil&#45;&gt;Heating oil</title>
<path fill="none" stroke="black" stroke-width="1.1" d="M311.13,-248.43C355.19,-248.45 405.69,-256.94 439,-289 472.17,-320.92 422.49,-360.53 457,-391 493.45,-423.17 855.03,-383.93 894,-413 913.27,-427.37 896.86,-445.33 912,-464 914.15,-466.65 916.59,-469.14 919.2,-471.47"/>
<polygon fill="black" stroke="black" stroke-width="1.1" points="917.44,-474.54 927.46,-477.95 921.76,-469.03 917.44,-474.54"/>
<text text-anchor="middle" x="675.5" y="-416.8" font-family="Times,serif" font-size="14.00">1.00E+00 kWh</text>
</g>
<!-- magnesium oxide production -->
<g id="node23" class="node">
<title>magnesium oxide production</title>
<polygon fill="none" stroke="blue" points="787.5,-179 563.5,-179 563.5,-143 787.5,-143 787.5,-179"/>
<text text-anchor="middle" x="675.5" y="-157.3" font-family="Times,serif" font-size="14.00">magnesium oxide production</text>
</g>
<!-- magnesium oxide production&#45;&gt;MgCO3 -->
<g id="edge25" class="edge">
<title>magnesium oxide production&#45;&gt;MgCO3</title>
<path fill="none" stroke="black" stroke-width="1.1" d="M787.54,-169.65C921.91,-180.11 1141.77,-197.24 1235.46,-204.53"/>
<polygon fill="black" stroke="black" stroke-width="1.1" points="1235.21,-208.02 1245.45,-205.31 1235.76,-201.04 1235.21,-208.02"/>
<text text-anchor="middle" x="965.5" y="-190.8" font-family="Times,serif" font-size="14.00">1.00E+00 kg</text>
</g>
<!-- market for carbon dioxide, liquid -->
<g id="node24" class="node">
<title>market for carbon dioxide, liquid</title>
<polygon fill="none" stroke="blue" points="345,-334 94,-334 94,-298 345,-298 345,-334"/>
<text text-anchor="middle" x="219.5" y="-312.3" font-family="Times,serif" font-size="14.00">market for carbon dioxide, liquid</text>
</g>
<!-- market for carbon dioxide, liquid&#45;&gt;CO2 capture -->
<g id="edge26" class="edge">
<title>market for carbon dioxide, liquid&#45;&gt;CO2 capture</title>
<path fill="none" stroke="black" stroke-width="1.1" d="M345.22,-310.5C379.35,-315.11 413.83,-326.33 439,-350 466.19,-375.56 428.69,-407.7 457,-432 530.84,-495.38 818.23,-398.95 894,-460 916.68,-478.27 893.53,-500.49 912,-523 912.6,-523.73 913.22,-524.44 913.86,-525.13"/>
<polygon fill="black" stroke="black" stroke-width="1.1" points="911.7,-527.89 921.5,-531.92 916.35,-522.66 911.7,-527.89"/>
<text text-anchor="middle" x="675.5" y="-463.8" font-family="Times,serif" font-size="14.00">1.00E+00 kg</text>
</g>
<!-- market for sodium chloride, powder -->
<g id="node25" class="node">
<title>market for sodium chloride, powder</title>
<polygon fill="none" stroke="blue" points="1417.5,-804 1144.5,-804 1144.5,-768 1417.5,-768 1417.5,-804"/>
<text text-anchor="middle" x="1281" y="-782.3" font-family="Times,serif" font-size="14.00">market for sodium chloride, powder</text>
</g>
<!-- NaCl -->
<g id="node33" class="node">
<title>NaCl</title>
<polygon fill="none" stroke="red" points="1897.58,-783 1843.58,-783 1843.58,-747 1897.58,-747 1897.58,-783"/>
<text text-anchor="middle" x="1870.58" y="-761.3" font-family="Times,serif" font-size="14.00">NaCl</text>
</g>
<!-- market for sodium chloride, powder&#45;&gt;NaCl -->
<g id="edge27" class="edge">
<title>market for sodium chloride, powder&#45;&gt;NaCl</title>
<path fill="none" stroke="black" stroke-width="1.1" d="M1417.54,-781.16C1552.96,-776.32 1752.31,-769.19 1833.34,-766.3"/>
<polygon fill="black" stroke="black" stroke-width="1.1" points="1833.66,-769.79 1843.52,-765.93 1833.41,-762.79 1833.66,-769.79"/>
<text text-anchor="middle" x="1674.29" y="-779.8" font-family="Times,serif" font-size="14.00">1.00E+00 kg</text>
</g>
<!-- tap water production, underground water with disinfection -->
<g id="node26" class="node">
<title>tap water production, underground water with disinfection</title>
<polygon fill="none" stroke="blue" points="439,-463 0,-463 0,-427 439,-427 439,-463"/>
<text text-anchor="middle" x="219.5" y="-441.3" font-family="Times,serif" font-size="14.00">tap water production, underground water with disinfection</text>
</g>
<!-- tap water production, underground water with disinfection&#45;&gt;Water -->
<g id="edge28" class="edge">
<title>tap water production, underground water with disinfection&#45;&gt;Water</title>
<path fill="none" stroke="black" stroke-width="1.1" d="M368.22,-463.01C393.66,-471.07 418.48,-482.58 439,-499 452.97,-510.17 443.01,-523.86 457,-535 600.43,-649.21 833.98,-659.73 925.74,-659.12"/>
<polygon fill="black" stroke="black" stroke-width="1.1" points="926,-662.61 935.96,-659 925.91,-655.61 926,-662.61"/>
<text text-anchor="middle" x="675.5" y="-661.8" font-family="Times,serif" font-size="14.00">1.00E+00 kg</text>
</g>
<!-- sodium hydroxide to generic market for neutralising agent -->
<g id="node27" class="node">
<title>sodium hydroxide to generic market for neutralising agent</title>
<polygon fill="none" stroke="blue" points="894,-138 457,-138 457,-102 894,-102 894,-138"/>
<text text-anchor="middle" x="675.5" y="-116.3" font-family="Times,serif" font-size="14.00">sodium hydroxide to generic market for neutralising agent</text>
</g>
<!-- sodium hydroxide to generic market for neutralising agent&#45;&gt;NaOH -->
<g id="edge29" class="edge">
<title>sodium hydroxide to generic market for neutralising agent&#45;&gt;NaOH</title>
<path fill="none" stroke="black" stroke-width="1.1" d="M894.38,-120.36C1021.87,-120.57 1171.06,-120.82 1240.6,-120.93"/>
<polygon fill="black" stroke="black" stroke-width="1.1" points="1240.66,-124.43 1250.66,-120.95 1240.67,-117.43 1240.66,-124.43"/>
<text text-anchor="middle" x="965.5" y="-124.8" font-family="Times,serif" font-size="14.00">1.00E+00 kg</text>
</g>
<!-- market for hydrochloric acid, without water, in 30% solution state -->
<g id="node28" class="node">
<title>market for hydrochloric acid, without water, in 30% solution state</title>
<polygon fill="none" stroke="blue" points="1525,-848 1037,-848 1037,-812 1525,-812 1525,-848"/>
<text text-anchor="middle" x="1281" y="-826.3" font-family="Times,serif" font-size="14.00">market for hydrochloric acid, without water, in 30% solution state</text>
</g>
<!-- HCl -->
<g id="node32" class="node">
<title>HCl</title>
<polygon fill="none" stroke="red" points="1897.58,-835 1843.58,-835 1843.58,-799 1897.58,-799 1897.58,-835"/>
<text text-anchor="middle" x="1870.58" y="-813.3" font-family="Times,serif" font-size="14.00">HCl</text>
</g>
<!-- market for hydrochloric acid, without water, in 30% solution state&#45;&gt;HCl -->
<g id="edge30" class="edge">
<title>market for hydrochloric acid, without water, in 30% solution state&#45;&gt;HCl</title>
<path fill="none" stroke="black" stroke-width="1.1" d="M1525.23,-824.62C1642.88,-822.02 1771.67,-819.17 1833.07,-817.81"/>
<polygon fill="black" stroke="black" stroke-width="1.1" points="1833.47,-821.3 1843.39,-817.58 1833.31,-814.3 1833.47,-821.3"/>
<text text-anchor="middle" x="1674.29" y="-826.8" font-family="Times,serif" font-size="14.00">1.00E+00 kg</text>
</g>
<!-- market for soybean meal -->
<g id="node29" class="node">
<title>market for soybean meal</title>
<polygon fill="none" stroke="blue" points="2326.58,-294 2132.58,-294 2132.58,-258 2326.58,-258 2326.58,-294"/>
<text text-anchor="middle" x="2229.58" y="-272.3" font-family="Times,serif" font-size="14.00">market for soybean meal</text>
</g>
<!-- Succinic acid production -->
<g id="node35" class="node">
<title>Succinic acid production</title>
<ellipse fill="none" stroke="black" cx="2689.72" cy="-95" rx="124.28" ry="18"/>
<text text-anchor="middle" x="2689.72" y="-91.3" font-family="Times,serif" font-size="14.00">Succinic acid production</text>
</g>
<!-- market for soybean meal&#45;&gt;Succinic acid production -->
<g id="edge31" class="edge">
<title>market for soybean meal&#45;&gt;Succinic acid production</title>
<path fill="none" stroke="black" d="M2313.84,-257.94C2318.17,-256.68 2322.44,-255.37 2326.58,-254 2445.81,-214.55 2579.52,-150.31 2646.16,-116.84"/>
<polygon fill="black" stroke="black" points="2647.75,-119.96 2655.11,-112.33 2644.6,-113.71 2647.75,-119.96"/>
<text text-anchor="middle" x="2394.08" y="-249.8" font-family="Times,serif" font-size="14.00">&#45;1.06E+01 kg</text>
</g>
<!-- Purification&#45;&gt;Succinic acid production -->
<g id="edge32" class="edge">
<title>Purification&#45;&gt;Succinic acid production</title>
<path fill="none" stroke="black" stroke-width="1.1" d="M2443.89,-72.49C2479.37,-75.75 2528.9,-80.31 2574.13,-84.46"/>
<polygon fill="black" stroke="black" stroke-width="1.1" points="2574.04,-87.97 2584.32,-85.4 2574.68,-81 2574.04,-87.97"/>
<text text-anchor="middle" x="2504.58" y="-85.8" font-family="Times,serif" font-size="14.00">1.00E+00 p</text>
</g>
<!-- Bacterial fermentation&#45;&gt;Purification -->
<g id="edge33" class="edge">
<title>Bacterial fermentation&#45;&gt;Purification</title>
<path fill="none" stroke="black" stroke-width="1.1" d="M2114.67,-46.37C2174.61,-47.9 2255.5,-51.14 2326.58,-58 2329.12,-58.25 2331.71,-58.52 2334.33,-58.82"/>
<polygon fill="black" stroke="black" stroke-width="1.1" points="2334.13,-62.32 2344.48,-60.09 2334.99,-55.38 2334.13,-62.32"/>
<text text-anchor="middle" x="2229.58" y="-61.8" font-family="Times,serif" font-size="14.00">1.00E+00 p</text>
</g>
<!-- HCl&#45;&gt;Purification -->
<g id="edge35" class="edge">
<title>HCl&#45;&gt;Purification</title>
<path fill="none" stroke="black" stroke-width="0.88" d="M1897.6,-806.04C1904.62,-802.28 1911.84,-797.58 1917.58,-792 2042.74,-670.21 2061.53,-618.39 2114.58,-452 2127.79,-410.54 2103.88,-289.72 2132.58,-257 2190.87,-190.53 2257.94,-268.72 2326.58,-213 2363.05,-183.39 2380.39,-129.35 2387.93,-96.26"/>
<polygon fill="black" stroke="black" stroke-width="0.88" points="2391.39,-96.82 2390.05,-86.31 2384.54,-95.36 2391.39,-96.82"/>
<text text-anchor="middle" x="2025.08" y="-774.8" font-family="Times,serif" font-size="14.00">7.90E&#45;02 kg</text>
</g>
<!-- NaCl&#45;&gt;Purification -->
<g id="edge36" class="edge">
<title>NaCl&#45;&gt;Purification</title>
<path fill="none" stroke="black" stroke-width="2.72" d="M1897.65,-753.22C1905.37,-748.39 1912.99,-742.03 1917.58,-734 1950.38,-676.59 1896.92,-490.64 1935.58,-437 1985.71,-367.43 2062,-432.74 2114.58,-365 2151.96,-316.83 2093.13,-275.49 2132.58,-229 2190.88,-160.28 2254.51,-224.12 2326.58,-170 2352.16,-150.78 2370.74,-118.63 2381.66,-95.56"/>
<polygon fill="black" stroke="black" stroke-width="2.72" points="2384.92,-96.84 2385.86,-86.29 2378.54,-93.95 2384.92,-96.84"/>
<text text-anchor="middle" x="2025.08" y="-440.8" font-family="Times,serif" font-size="14.00">1.50E+04 kg</text>
</g>
<!-- market group for electricity, high voltage -->
<g id="node34" class="node">
<title>market group for electricity, high voltage</title>
<polygon fill="none" stroke="blue" points="375,-221 64,-221 64,-185 375,-185 375,-221"/>
<text text-anchor="middle" x="219.5" y="-199.3" font-family="Times,serif" font-size="14.00">market group for electricity, high voltage</text>
</g>
<!-- market group for electricity, high voltage&#45;&gt;Electricity -->
<g id="edge39" class="edge">
<title>market group for electricity, high voltage&#45;&gt;Electricity</title>
<path fill="none" stroke="black" stroke-width="1.1" d="M375.06,-199.26C402.36,-198.74 430.51,-198.28 457,-198 554.11,-196.97 799.58,-175.29 894,-198 905.47,-200.76 917.18,-205.72 927.67,-211.09"/>
<polygon fill="black" stroke="black" stroke-width="1.1" points="926.08,-214.21 936.54,-215.87 929.4,-208.04 926.08,-214.21"/>
<text text-anchor="middle" x="675.5" y="-201.8" font-family="Times,serif" font-size="14.00">1.00E+00 kWh</text>
</g>
</g>
</svg>
