<?xml version="1.0" encoding="UTF-8" standalone="no"?>
<!DOCTYPE svg PUBLIC "-//W3C//DTD SVG 1.1//EN"
 "http://www.w3.org/Graphics/SVG/1.1/DTD/svg11.dtd">
<!-- Generated by graphviz version 2.43.0 (0)
 -->
<!-- Title: %3 Pages: 1 -->
<svg width="1630pt" height="587pt"
 viewBox="0.00 0.00 1629.86 587.40" xmlns="http://www.w3.org/2000/svg" xmlns:xlink="http://www.w3.org/1999/xlink">
<g id="graph0" class="graph" transform="scale(1 1) rotate(0) translate(7.2 580.2)">
<title>%3</title>
<polygon fill="white" stroke="transparent" points="-7.2,7.2 -7.2,-580.2 1622.66,-580.2 1622.66,7.2 -7.2,7.2"/>
<!-- magnesium oxide production -->
<g id="node1" class="node">
<title>magnesium oxide production</title>
<polygon fill="none" stroke="blue" points="356,-44 132,-44 132,-8 356,-8 356,-44"/>
<text text-anchor="middle" x="244" y="-22.3" font-family="Times,serif" font-size="14.00">magnesium oxide production</text>
</g>
<!-- MgCO3 -->
<g id="node19" class="node">
<title>MgCO3</title>
<ellipse fill="none" stroke="black" cx="772.54" cy="-18" rx="46.29" ry="18"/>
<text text-anchor="middle" x="772.54" y="-14.3" font-family="Times,serif" font-size="14.00">MgCO3</text>
</g>
<!-- magnesium oxide production&#45;&gt;MgCO3 -->
<g id="edge1" class="edge">
<title>magnesium oxide production&#45;&gt;MgCO3</title>
<path fill="none" stroke="black" stroke-width="0.98" d="M356.02,-24.31C466.23,-22.64 630.67,-20.14 715.88,-18.85"/>
<polygon fill="black" stroke="black" stroke-width="0.98" points="716.17,-22.34 726.11,-18.69 716.06,-15.34 716.17,-22.34"/>
<text text-anchor="middle" x="595.5" y="-25.8" font-family="Times,serif" font-size="14.00">2.73E&#45;01 kg</text>
</g>
<!-- Bacterial fermentation -->
<g id="node2" class="node">
<title>Bacterial fermentation</title>
<polygon fill="none" stroke="black" points="685,-278 506,-278 506,-242 685,-242 685,-278"/>
<text text-anchor="middle" x="595.5" y="-256.3" font-family="Times,serif" font-size="14.00">Bacterial fermentation</text>
</g>
<!-- Purification -->
<g id="node10" class="node">
<title>Purification</title>
<polygon fill="none" stroke="black" points="1171.09,-117 1072.09,-117 1072.09,-81 1171.09,-81 1171.09,-117"/>
<text text-anchor="middle" x="1121.59" y="-95.3" font-family="Times,serif" font-size="14.00">Purification</text>
</g>
<!-- Bacterial fermentation&#45;&gt;Purification -->
<g id="edge2" class="edge">
<title>Bacterial fermentation&#45;&gt;Purification</title>
<path fill="none" stroke="black" stroke-width="1.1" d="M651.26,-278.02C662.88,-282.99 674.73,-288.98 685,-296 694.6,-302.56 692.31,-310.4 703,-315 749.22,-334.88 1041.84,-313.86 1054.09,-303 1088.2,-272.75 1058.26,-245.45 1072.09,-202 1080.63,-175.17 1094.68,-146.31 1105.47,-125.99"/>
<polygon fill="black" stroke="black" stroke-width="1.1" points="1108.64,-127.47 1110.31,-117.01 1102.48,-124.15 1108.64,-127.47"/>
<text text-anchor="middle" x="772.54" y="-326.8" font-family="Times,serif" font-size="14.00">1.00E+00 p</text>
</g>
<!-- Electricity -->
<g id="node3" class="node">
<title>Electricity</title>
<polygon fill="none" stroke="black" points="818.04,-306 727.04,-306 727.04,-270 818.04,-270 818.04,-306"/>
<text text-anchor="middle" x="772.54" y="-284.3" font-family="Times,serif" font-size="14.00">Electricity</text>
</g>
<!-- Electricity&#45;&gt;Purification -->
<g id="edge3" class="edge">
<title>Electricity&#45;&gt;Purification</title>
<path fill="none" stroke="black" stroke-width="1" d="M818.08,-287C887.79,-284.56 1018.41,-276.25 1054.09,-248 1071.3,-234.37 1063.41,-222.16 1072.09,-202 1083.29,-175.98 1097.15,-146.82 1107.18,-126.18"/>
<polygon fill="black" stroke="black" stroke-width="1" points="1110.39,-127.59 1111.63,-117.07 1104.1,-124.52 1110.39,-127.59"/>
<text text-anchor="middle" x="957.09" y="-287.8" font-family="Times,serif" font-size="14.00">3.30E&#45;01 kg</text>
</g>
<!-- HCl -->
<g id="node4" class="node">
<title>HCl</title>
<polygon fill="none" stroke="black" points="799.54,-252 745.54,-252 745.54,-216 799.54,-216 799.54,-252"/>
<text text-anchor="middle" x="772.54" y="-230.3" font-family="Times,serif" font-size="14.00">HCl</text>
</g>
<!-- HCl&#45;&gt;Purification -->
<g id="edge4" class="edge">
<title>HCl&#45;&gt;Purification</title>
<path fill="none" stroke="black" stroke-width="0.88" d="M799.62,-233.02C860.83,-230.31 1011.68,-221.09 1054.09,-195 1079.96,-179.08 1098.33,-148.91 1109.11,-126.63"/>
<polygon fill="black" stroke="black" stroke-width="0.88" points="1112.39,-127.87 1113.4,-117.32 1106.04,-124.94 1112.39,-127.87"/>
<text text-anchor="middle" x="957.09" y="-232.8" font-family="Times,serif" font-size="14.00">7.90E&#45;02 kg</text>
</g>
<!-- NaCl -->
<g id="node5" class="node">
<title>NaCl</title>
<polygon fill="none" stroke="black" points="799.54,-198 745.54,-198 745.54,-162 799.54,-162 799.54,-198"/>
<text text-anchor="middle" x="772.54" y="-176.3" font-family="Times,serif" font-size="14.00">NaCl</text>
</g>
<!-- NaCl&#45;&gt;Purification -->
<g id="edge5" class="edge">
<title>NaCl&#45;&gt;Purification</title>
<path fill="none" stroke="black" stroke-width="2.72" d="M799.87,-179.37C850.52,-177.45 964.46,-169.65 1054.09,-138 1065.01,-134.14 1076.14,-128.44 1086.1,-122.58"/>
<polygon fill="black" stroke="black" stroke-width="2.72" points="1088.17,-125.41 1094.87,-117.2 1084.51,-119.44 1088.17,-125.41"/>
<text text-anchor="middle" x="957.09" y="-179.8" font-family="Times,serif" font-size="14.00">1.50E+04 kg</text>
</g>
<!-- Steam -->
<g id="node6" class="node">
<title>Steam</title>
<polygon fill="none" stroke="black" points="803.54,-144 741.54,-144 741.54,-108 803.54,-108 803.54,-144"/>
<text text-anchor="middle" x="772.54" y="-122.3" font-family="Times,serif" font-size="14.00">Steam</text>
</g>
<!-- Steam&#45;&gt;Purification -->
<g id="edge6" class="edge">
<title>Steam&#45;&gt;Purification</title>
<path fill="none" stroke="black" stroke-width="1.4" d="M803.73,-123.65C861.14,-119.18 986.97,-109.4 1061.63,-103.59"/>
<polygon fill="black" stroke="black" stroke-width="1.4" points="1062.12,-107.06 1071.81,-102.79 1061.57,-100.08 1062.12,-107.06"/>
<text text-anchor="middle" x="957.09" y="-122.8" font-family="Times,serif" font-size="14.00">1.35E+01 kg</text>
</g>
<!-- Water -->
<g id="node7" class="node">
<title>Water</title>
<polygon fill="none" stroke="black" points="802.04,-90 743.04,-90 743.04,-54 802.04,-54 802.04,-90"/>
<text text-anchor="middle" x="772.54" y="-68.3" font-family="Times,serif" font-size="14.00">Water</text>
</g>
<!-- Water&#45;&gt;Purification -->
<g id="edge7" class="edge">
<title>Water&#45;&gt;Purification</title>
<path fill="none" stroke="black" stroke-width="1.6" d="M802.33,-72.08C853.29,-72.52 962.6,-74.83 1054.09,-86 1056.73,-86.32 1059.43,-86.69 1062.15,-87.09"/>
<polygon fill="black" stroke="black" stroke-width="1.6" points="1061.62,-90.55 1072.05,-88.68 1062.73,-83.64 1061.62,-90.55"/>
<text text-anchor="middle" x="957.09" y="-89.8" font-family="Times,serif" font-size="14.00">5.86E+01 kg</text>
</g>
<!-- market for carbon dioxide, liquid -->
<g id="node8" class="node">
<title>market for carbon dioxide, liquid</title>
<polygon fill="none" stroke="blue" points="369.5,-368 118.5,-368 118.5,-332 369.5,-332 369.5,-368"/>
<text text-anchor="middle" x="244" y="-346.3" font-family="Times,serif" font-size="14.00">market for carbon dioxide, liquid</text>
</g>
<!-- CO2 capture -->
<g id="node20" class="node">
<title>CO2 capture</title>
<ellipse fill="none" stroke="black" cx="772.54" cy="-393" rx="69.59" ry="18"/>
<text text-anchor="middle" x="772.54" y="-389.3" font-family="Times,serif" font-size="14.00">CO2 capture</text>
</g>
<!-- market for carbon dioxide, liquid&#45;&gt;CO2 capture -->
<g id="edge8" class="edge">
<title>market for carbon dioxide, liquid&#45;&gt;CO2 capture</title>
<path fill="none" stroke="black" stroke-width="0.89" d="M369.77,-336.14C436.87,-328.68 506,-321 506,-321 585.43,-316.6 618.19,-277.8 685,-321 701.37,-331.59 689.31,-347.12 703,-361 707.89,-365.96 713.71,-370.24 719.84,-373.91"/>
<polygon fill="black" stroke="black" stroke-width="0.89" points="718.54,-377.18 729,-378.86 721.86,-371.03 718.54,-377.18"/>
<text text-anchor="middle" x="595.5" y="-324.8" font-family="Times,serif" font-size="14.00">1.00E&#45;01 kg</text>
</g>
<!-- market for soybean meal -->
<g id="node9" class="node">
<title>market for soybean meal</title>
<polygon fill="none" stroke="blue" points="1054.09,-373 860.09,-373 860.09,-337 1054.09,-337 1054.09,-373"/>
<text text-anchor="middle" x="957.09" y="-351.3" font-family="Times,serif" font-size="14.00">market for soybean meal</text>
</g>
<!-- Succinic acid production (bread) -->
<g id="node21" class="node">
<title>Succinic acid production (bread)</title>
<ellipse fill="none" stroke="black" cx="1454.27" cy="-126" rx="161.37" ry="18"/>
<text text-anchor="middle" x="1454.27" y="-122.3" font-family="Times,serif" font-size="14.00">Succinic acid production (bread)</text>
</g>
<!-- market for soybean meal&#45;&gt;Succinic acid production (bread) -->
<g id="edge9" class="edge">
<title>market for soybean meal&#45;&gt;Succinic acid production (bread)</title>
<path fill="none" stroke="black" d="M1023.16,-336.99C1033.61,-333.63 1044.22,-329.93 1054.09,-326 1190.21,-271.8 1342.94,-188.61 1413.54,-148.78"/>
<polygon fill="black" stroke="black" points="1415.57,-151.66 1422.55,-143.69 1412.12,-145.57 1415.57,-151.66"/>
<text text-anchor="middle" x="1121.59" y="-319.8" font-family="Times,serif" font-size="14.00">&#45;1.06E+01 kg</text>
</g>
<!-- Purification&#45;&gt;Succinic acid production (bread) -->
<g id="edge10" class="edge">
<title>Purification&#45;&gt;Succinic acid production (bread)</title>
<path fill="none" stroke="black" stroke-width="1.1" d="M1171.38,-102.98C1208.94,-106.05 1262.83,-110.45 1313.45,-114.58"/>
<polygon fill="black" stroke="black" stroke-width="1.1" points="1313.27,-118.08 1323.52,-115.41 1313.84,-111.1 1313.27,-118.08"/>
<text text-anchor="middle" x="1232.09" y="-114.8" font-family="Times,serif" font-size="14.00">1.00E+00 p</text>
</g>
<!-- tap water production, underground water with disinfection -->
<g id="node11" class="node">
<title>tap water production, underground water with disinfection</title>
<polygon fill="none" stroke="blue" points="463.5,-98 24.5,-98 24.5,-62 463.5,-62 463.5,-98"/>
<text text-anchor="middle" x="244" y="-76.3" font-family="Times,serif" font-size="14.00">tap water production, underground water with disinfection</text>
</g>
<!-- tap water production, underground water with disinfection&#45;&gt;Water -->
<g id="edge11" class="edge">
<title>tap water production, underground water with disinfection&#45;&gt;Water</title>
<path fill="none" stroke="black" stroke-width="1.71" d="M463.51,-66.13C534.19,-63.36 612.92,-62.09 685,-65 700.51,-65.63 717.55,-66.88 732.38,-68.16"/>
<polygon fill="black" stroke="black" stroke-width="1.71" points="732.46,-71.68 742.73,-69.08 733.08,-64.71 732.46,-71.68"/>
<text text-anchor="middle" x="595.5" y="-68.8" font-family="Times,serif" font-size="14.00">1.17E+02 kg</text>
</g>
<!-- enzymes production -->
<g id="node12" class="node">
<title>enzymes production</title>
<polygon fill="none" stroke="blue" points="324.5,-422 163.5,-422 163.5,-386 324.5,-386 324.5,-422"/>
<text text-anchor="middle" x="244" y="-400.3" font-family="Times,serif" font-size="14.00">enzymes production</text>
</g>
<!-- Enzyme -->
<g id="node22" class="node">
<title>Enzyme</title>
<ellipse fill="none" stroke="black" cx="772.54" cy="-447" rx="48.19" ry="18"/>
<text text-anchor="middle" x="772.54" y="-443.3" font-family="Times,serif" font-size="14.00">Enzyme</text>
</g>
<!-- enzymes production&#45;&gt;Enzyme -->
<g id="edge12" class="edge">
<title>enzymes production&#45;&gt;Enzyme</title>
<path fill="none" stroke="black" stroke-width="0.71" d="M324.65,-395.8C443.13,-384.32 655.14,-366.78 685,-385 699.93,-394.11 690.03,-408.26 703,-420 708.8,-425.25 715.74,-429.53 722.95,-433.01"/>
<polygon fill="black" stroke="black" stroke-width="0.71" points="721.59,-436.23 732.16,-437 724.37,-429.81 721.59,-436.23"/>
<text text-anchor="middle" x="595.5" y="-388.8" font-family="Times,serif" font-size="14.00">7.00E&#45;03 kg</text>
</g>
<!-- market group for electricity, high voltage -->
<g id="node13" class="node">
<title>market group for electricity, high voltage</title>
<polygon fill="none" stroke="blue" points="399.5,-314 88.5,-314 88.5,-278 399.5,-278 399.5,-314"/>
<text text-anchor="middle" x="244" y="-292.3" font-family="Times,serif" font-size="14.00">market group for electricity, high voltage</text>
</g>
<!-- market group for electricity, high voltage&#45;&gt;Electricity -->
<g id="edge13" class="edge">
<title>market group for electricity, high voltage&#45;&gt;Electricity</title>
<path fill="none" stroke="black" stroke-width="1.1" d="M399.63,-304.38C431.47,-299.45 462.9,-288.93 488,-269 506.82,-254.05 486.38,-231.88 506,-218 538.47,-195.03 651.88,-195.96 685,-218 702.25,-229.48 688.2,-246.51 703,-261 707.27,-265.18 712.27,-268.74 717.59,-271.76"/>
<polygon fill="black" stroke="black" stroke-width="1.1" points="716.26,-275.01 726.77,-276.35 719.39,-268.75 716.26,-275.01"/>
<text text-anchor="middle" x="595.5" y="-221.8" font-family="Times,serif" font-size="14.00">9.90E&#45;01 kWh</text>
</g>
<!-- market for steam, in chemical industry -->
<g id="node14" class="node">
<title>market for steam, in chemical industry</title>
<polygon fill="none" stroke="blue" points="391.5,-152 96.5,-152 96.5,-116 391.5,-116 391.5,-152"/>
<text text-anchor="middle" x="244" y="-130.3" font-family="Times,serif" font-size="14.00">market for steam, in chemical industry</text>
</g>
<!-- market for steam, in chemical industry&#45;&gt;Steam -->
<g id="edge14" class="edge">
<title>market for steam, in chemical industry&#45;&gt;Steam</title>
<path fill="none" stroke="black" stroke-width="1.55" d="M391.52,-120.31C423.41,-116.61 456.91,-112.17 488,-107 496.08,-105.66 497.85,-103.89 506,-103 585.08,-94.32 606.11,-92.7 685,-103 700.53,-105.03 717.24,-109.02 731.8,-113.12"/>
<polygon fill="black" stroke="black" stroke-width="1.55" points="730.91,-116.51 741.49,-115.95 732.87,-109.79 730.91,-116.51"/>
<text text-anchor="middle" x="595.5" y="-106.8" font-family="Times,serif" font-size="14.00">4.05E+01 kg</text>
</g>
<!-- market for sodium chloride, powder -->
<g id="node15" class="node">
<title>market for sodium chloride, powder</title>
<polygon fill="none" stroke="blue" points="380.5,-206 107.5,-206 107.5,-170 380.5,-170 380.5,-206"/>
<text text-anchor="middle" x="244" y="-184.3" font-family="Times,serif" font-size="14.00">market for sodium chloride, powder</text>
</g>
<!-- market for sodium chloride, powder&#45;&gt;NaCl -->
<g id="edge15" class="edge">
<title>market for sodium chloride, powder&#45;&gt;NaCl</title>
<path fill="none" stroke="black" stroke-width="2.72" d="M380.6,-189.63C416.94,-185.69 455.22,-177.3 488,-161 498.42,-155.82 495.31,-146.6 506,-142 579.08,-110.57 608.42,-120.45 685,-142 694.03,-144.54 694.61,-148.82 703,-153 713.43,-158.19 725.12,-163.11 735.85,-167.29"/>
<polygon fill="black" stroke="black" stroke-width="2.72" points="734.78,-170.63 745.37,-170.91 737.26,-164.08 734.78,-170.63"/>
<text text-anchor="middle" x="595.5" y="-145.8" font-family="Times,serif" font-size="14.00">1.50E+04 kg</text>
</g>
<!-- sodium hydroxide to generic market for neutralising agent -->
<g id="node16" class="node">
<title>sodium hydroxide to generic market for neutralising agent</title>
<polygon fill="none" stroke="blue" points="462.5,-476 25.5,-476 25.5,-440 462.5,-440 462.5,-476"/>
<text text-anchor="middle" x="244" y="-454.3" font-family="Times,serif" font-size="14.00">sodium hydroxide to generic market for neutralising agent</text>
</g>
<!-- NaOH -->
<g id="node23" class="node">
<title>NaOH</title>
<ellipse fill="none" stroke="black" cx="772.54" cy="-501" rx="38.99" ry="18"/>
<text text-anchor="middle" x="772.54" y="-497.3" font-family="Times,serif" font-size="14.00">NaOH</text>
</g>
<!-- sodium hydroxide to generic market for neutralising agent&#45;&gt;NaOH -->
<g id="edge16" class="edge">
<title>sodium hydroxide to generic market for neutralising agent&#45;&gt;NaOH</title>
<path fill="none" stroke="black" stroke-width="0.95" d="M462.7,-454.49C533.96,-456.37 613.23,-461.73 685,-474 700.76,-476.69 717.63,-481.5 732.26,-486.32"/>
<polygon fill="black" stroke="black" stroke-width="0.95" points="731.39,-489.72 741.99,-489.63 733.65,-483.09 731.39,-489.72"/>
<text text-anchor="middle" x="595.5" y="-477.8" font-family="Times,serif" font-size="14.00">1.97E&#45;01 kg</text>
</g>
<!-- market for light fuel oil -->
<g id="node17" class="node">
<title>market for light fuel oil</title>
<polygon fill="none" stroke="blue" points="335.5,-530 152.5,-530 152.5,-494 335.5,-494 335.5,-530"/>
<text text-anchor="middle" x="244" y="-508.3" font-family="Times,serif" font-size="14.00">market for light fuel oil</text>
</g>
<!-- Heating oil -->
<g id="node24" class="node">
<title>Heating oil</title>
<ellipse fill="none" stroke="black" cx="772.54" cy="-555" rx="61.99" ry="18"/>
<text text-anchor="middle" x="772.54" y="-551.3" font-family="Times,serif" font-size="14.00">Heating oil</text>
</g>
<!-- market for light fuel oil&#45;&gt;Heating oil -->
<g id="edge17" class="edge">
<title>market for light fuel oil&#45;&gt;Heating oil</title>
<path fill="none" stroke="black" stroke-width="1.23" d="M335.52,-519.39C439.78,-527.91 608.75,-541.71 702.8,-549.39"/>
<polygon fill="black" stroke="black" stroke-width="1.23" points="702.53,-552.88 712.78,-550.2 703.1,-545.9 702.53,-552.88"/>
<text text-anchor="middle" x="595.5" y="-550.8" font-family="Times,serif" font-size="14.00">3.39E+00 kWh</text>
</g>
<!-- market for hydrochloric acid, without water, in 30% solution state -->
<g id="node18" class="node">
<title>market for hydrochloric acid, without water, in 30% solution state</title>
<polygon fill="none" stroke="blue" points="488,-260 0,-260 0,-224 488,-224 488,-260"/>
<text text-anchor="middle" x="244" y="-238.3" font-family="Times,serif" font-size="14.00">market for hydrochloric acid, without water, in 30% solution state</text>
</g>
<!-- market for hydrochloric acid, without water, in 30% solution state&#45;&gt;HCl -->
<g id="edge18" class="edge">
<title>market for hydrochloric acid, without water, in 30% solution state&#45;&gt;HCl</title>
<path fill="none" stroke="black" stroke-width="0.88" d="M472.95,-223.96C478.13,-221.23 483.15,-218.25 488,-215 501.87,-205.69 491.63,-190.53 506,-182 540.2,-161.69 649.6,-163.87 685,-182 697.19,-188.24 692.19,-198.59 703,-207 712.6,-214.47 724.54,-220.12 735.74,-224.26"/>
<polygon fill="black" stroke="black" stroke-width="0.88" points="734.73,-227.62 745.32,-227.53 736.98,-220.99 734.73,-227.62"/>
<text text-anchor="middle" x="595.5" y="-185.8" font-family="Times,serif" font-size="14.00">7.90E&#45;02 kg</text>
</g>
</g>
</svg>
