<?xml version="1.0" encoding="UTF-8" standalone="no"?>
<!DOCTYPE svg PUBLIC "-//W3C//DTD SVG 1.1//EN"
 "http://www.w3.org/Graphics/SVG/1.1/DTD/svg11.dtd">
<!-- Generated by graphviz version 2.43.0 (0)
 -->
<!-- Title: %3 Pages: 1 -->
<svg width="1013pt" height="842pt"
 viewBox="0.00 0.00 1013.00 842.00" xmlns="http://www.w3.org/2000/svg" xmlns:xlink="http://www.w3.org/1999/xlink">
<g id="graph0" class="graph" transform="scale(1 1) rotate(0) translate(36 806)">
<title>%3</title>
<polygon fill="white" stroke="transparent" points="-36,36 -36,-806 977,-806 977,36 -36,36"/>
<text text-anchor="middle" x="470.5" y="-742" font-family="Comic Sans MS" font-size="30.00">System model for succinic acid production from bread &#45; EnergyEfficient</text>
<g id="clust1" class="cluster">
<title>cluster_fg</title>
<polygon fill="none" stroke="black" stroke-width="2" points="8,-8 8,-721 933,-721 933,-8 8,-8"/>
</g>
<!-- treatment of biowaste -->
<g id="node1" class="node">
<title>treatment of biowaste</title>
<polygon fill="darkolivegreen" stroke="black" points="221.5,-510 78.5,-510 78.5,-474 221.5,-474 221.5,-510"/>
<text text-anchor="middle" x="150" y="-488.3" font-family="Comic Sans MS" font-size="14.00" fill="white">treatment of biowaste</text>
</g>
<!-- Bacterial fermentation (bread) -->
<g id="node17" class="node">
<title>Bacterial fermentation (bread)</title>
<polygon fill="#0a86e5" stroke="black" points="586,-401 390,-401 390,-365 586,-365 586,-401"/>
<text text-anchor="middle" x="488" y="-379.3" font-family="Comic Sans MS" font-size="14.00" fill="white">Bacterial fermentation (bread)</text>
</g>
<!-- treatment of biowaste&#45;&gt;Bacterial fermentation (bread) -->
<g id="edge1" class="edge">
<title>treatment of biowaste&#45;&gt;Bacterial fermentation (bread)</title>
<path fill="none" stroke="black" d="M217.75,-473.51C217.75,-442.41 217.75,-383 217.75,-383 217.75,-383 379.67,-383 379.67,-383"/>
<polygon fill="white" stroke="black" points="379.67,-386.5 389.67,-383 379.67,-379.5 379.67,-386.5"/>
<text text-anchor="middle" x="241.45" y="-385.2" font-family="Times,serif" font-size="6.00">0.50 kg</text>
</g>
<!-- market for neutralising agent -->
<g id="node2" class="node">
<title>market for neutralising agent</title>
<polygon fill="darkolivegreen" stroke="black" points="882.5,-510 693.5,-510 693.5,-474 882.5,-474 882.5,-510"/>
<text text-anchor="middle" x="788" y="-488.3" font-family="Comic Sans MS" font-size="14.00" fill="white">market for neutralising agent</text>
</g>
<!-- market for neutralising agent&#45;&gt;Bacterial fermentation (bread) -->
<g id="edge2" class="edge">
<title>market for neutralising agent&#45;&gt;Bacterial fermentation (bread)</title>
<path fill="none" stroke="black" d="M736.5,-473.51C736.5,-442.41 736.5,-383 736.5,-383 736.5,-383 596.21,-383 596.21,-383"/>
<polygon fill="white" stroke="black" points="596.21,-379.5 586.21,-383 596.21,-386.5 596.21,-379.5"/>
<text text-anchor="middle" x="699.61" y="-385.2" font-family="Times,serif" font-size="6.00">0.11 kg</text>
</g>
<!-- market for magnesium oxide -->
<g id="node3" class="node">
<title>market for magnesium oxide</title>
<polygon fill="darkolivegreen" stroke="black" points="655.5,-510 468.5,-510 468.5,-474 655.5,-474 655.5,-510"/>
<text text-anchor="middle" x="562" y="-488.3" font-family="Comic Sans MS" font-size="14.00" fill="white">market for magnesium oxide</text>
</g>
<!-- market for magnesium oxide&#45;&gt;Bacterial fermentation (bread) -->
<g id="edge3" class="edge">
<title>market for magnesium oxide&#45;&gt;Bacterial fermentation (bread)</title>
<path fill="none" stroke="black" d="M527.25,-473.51C527.25,-473.51 527.25,-411.22 527.25,-411.22"/>
<polygon fill="white" stroke="black" points="530.75,-411.22 527.25,-401.22 523.75,-411.22 530.75,-411.22"/>
<text text-anchor="middle" x="515.25" y="-444.56" font-family="Times,serif" font-size="6.00">0.15 kg</text>
</g>
<!-- market group for electricity -->
<g id="node4" class="node">
<title>market group for electricity</title>
<polygon fill="darkolivegreen" stroke="black" points="506,-691 328,-691 328,-655 506,-655 506,-691"/>
<text text-anchor="middle" x="417" y="-669.3" font-family="Comic Sans MS" font-size="14.00" fill="white">market group for electricity</text>
</g>
<!-- Pre&#45;treatment (bread) -->
<g id="node13" class="node">
<title>Pre&#45;treatment (bread)</title>
<polygon fill="#0a86e5" stroke="black" points="523,-582 377,-582 377,-546 523,-546 523,-582"/>
<text text-anchor="middle" x="450" y="-560.3" font-family="Comic Sans MS" font-size="14.00" fill="white">Pre&#45;treatment (bread)</text>
</g>
<!-- market group for electricity&#45;&gt;Pre&#45;treatment (bread) -->
<g id="edge9" class="edge">
<title>market group for electricity&#45;&gt;Pre&#45;treatment (bread)</title>
<path fill="none" stroke="black" d="M420,-654.51C420,-654.51 420,-592.22 420,-592.22"/>
<polygon fill="white" stroke="black" points="423.5,-592.22 420,-582.22 416.5,-592.22 423.5,-592.22"/>
<text text-anchor="middle" x="405" y="-625.56" font-family="Times,serif" font-size="6.00">0.18 kWh</text>
</g>
<!-- Purification (bread) -->
<g id="node16" class="node">
<title>Purification (bread)</title>
<polygon fill="#0a86e5" stroke="black" points="831.5,-220 700.5,-220 700.5,-184 831.5,-184 831.5,-220"/>
<text text-anchor="middle" x="766" y="-198.3" font-family="Comic Sans MS" font-size="14.00" fill="white">Purification (bread)</text>
</g>
<!-- market group for electricity&#45;&gt;Purification (bread) -->
<g id="edge20" class="edge">
<title>market group for electricity&#45;&gt;Purification (bread)</title>
<path fill="none" stroke="black" d="M463,-654.99C463,-638.95 463,-618 463,-618 463,-618 892.82,-618 892.82,-618 892.82,-618 892.82,-202 892.82,-202 892.82,-202 841.64,-202 841.64,-202"/>
<polygon fill="white" stroke="black" points="841.64,-198.5 831.64,-202 841.64,-205.5 841.64,-198.5"/>
<text text-anchor="middle" x="877.82" y="-620.01" font-family="Times,serif" font-size="6.00">0.18 kWh</text>
</g>
<!-- market group for electricity&#45;&gt;Bacterial fermentation (bread) -->
<g id="edge4" class="edge">
<title>market group for electricity&#45;&gt;Bacterial fermentation (bread)</title>
<path fill="none" stroke="black" d="M352.5,-654.93C352.5,-616.06 352.5,-528 352.5,-528 352.5,-528 429.83,-528 429.83,-528 429.83,-528 429.83,-411.07 429.83,-411.07"/>
<polygon fill="white" stroke="black" points="433.33,-411.07 429.83,-401.07 426.33,-411.07 433.33,-411.07"/>
<text text-anchor="middle" x="371.17" y="-530.2" font-family="Times,serif" font-size="6.00">0.18 kWh</text>
</g>
<!-- market for carbon dioxide -->
<g id="node5" class="node">
<title>market for carbon dioxide</title>
<polygon fill="darkolivegreen" stroke="black" points="410.5,-510 239.5,-510 239.5,-474 410.5,-474 410.5,-510"/>
<text text-anchor="middle" x="325" y="-488.3" font-family="Comic Sans MS" font-size="14.00" fill="white">market for carbon dioxide</text>
</g>
<!-- market for carbon dioxide&#45;&gt;Bacterial fermentation (bread) -->
<g id="edge5" class="edge">
<title>market for carbon dioxide&#45;&gt;Bacterial fermentation (bread)</title>
<path fill="none" stroke="black" d="M400.25,-473.51C400.25,-473.51 400.25,-411.22 400.25,-411.22"/>
<polygon fill="white" stroke="black" points="403.75,-411.22 400.25,-401.22 396.75,-411.22 403.75,-411.22"/>
<text text-anchor="middle" x="385.25" y="-444.56" font-family="Times,serif" font-size="6.00">0.32 kWh</text>
</g>
<!-- market for steam -->
<g id="node6" class="node">
<title>market for steam</title>
<polygon fill="darkolivegreen" stroke="black" points="795.5,-691 676.5,-691 676.5,-655 795.5,-655 795.5,-691"/>
<text text-anchor="middle" x="736" y="-669.3" font-family="Comic Sans MS" font-size="14.00" fill="white">market for steam</text>
</g>
<!-- market for steam&#45;&gt;Pre&#45;treatment (bread) -->
<g id="edge11" class="edge">
<title>market for steam&#45;&gt;Pre&#45;treatment (bread)</title>
<path fill="none" stroke="black" d="M680.75,-654.51C680.75,-623.41 680.75,-564 680.75,-564 680.75,-564 533.01,-564 533.01,-564"/>
<polygon fill="white" stroke="black" points="533.01,-560.5 523.01,-564 533.01,-567.5 533.01,-560.5"/>
<text text-anchor="middle" x="640.14" y="-566.2" font-family="Times,serif" font-size="6.00">7.20 kg</text>
</g>
<!-- market for steam&#45;&gt;Purification (bread) -->
<g id="edge16" class="edge">
<title>market for steam&#45;&gt;Purification (bread)</title>
<path fill="none" stroke="black" d="M689.25,-654.67C689.25,-601.17 689.25,-449 689.25,-449 689.25,-449 818.5,-449 818.5,-449 818.5,-449 818.5,-230.16 818.5,-230.16"/>
<polygon fill="white" stroke="black" points="822,-230.16 818.5,-220.16 815,-230.16 822,-230.16"/>
<text text-anchor="middle" x="748.46" y="-451.2" font-family="Times,serif" font-size="6.00">7.33 kg</text>
</g>
<!-- market for steam&#45;&gt;Bacterial fermentation (bread) -->
<g id="edge7" class="edge">
<title>market for steam&#45;&gt;Bacterial fermentation (bread)</title>
<path fill="none" stroke="black" d="M685,-654.99C685,-592.98 685,-392 685,-392 685,-392 596.21,-392 596.21,-392"/>
<polygon fill="white" stroke="black" points="596.21,-388.5 586.21,-392 596.21,-395.5 596.21,-388.5"/>
<text text-anchor="middle" x="673" y="-481.3" font-family="Times,serif" font-size="6.00">7.33 kg</text>
</g>
<!-- market for enzymes -->
<g id="node7" class="node">
<title>market for enzymes</title>
<polygon fill="darkolivegreen" stroke="black" points="658,-691 524,-691 524,-655 658,-655 658,-691"/>
<text text-anchor="middle" x="591" y="-669.3" font-family="Comic Sans MS" font-size="14.00" fill="white">market for enzymes</text>
</g>
<!-- market for enzymes&#45;&gt;Pre&#45;treatment (bread) -->
<g id="edge8" class="edge">
<title>market for enzymes&#45;&gt;Pre&#45;treatment (bread)</title>
<path fill="none" stroke="black" d="M523.88,-673C518.16,-673 514.5,-673 514.5,-673 514.5,-673 514.5,-592.49 514.5,-592.49"/>
<polygon fill="white" stroke="black" points="518,-592.49 514.5,-582.49 511,-592.49 518,-592.49"/>
<text text-anchor="middle" x="496" y="-639.64" font-family="Times,serif" font-size="6.00">3.68e&#45;03 kg</text>
</g>
<!-- market for tap water -->
<g id="node8" class="node">
<title>market for tap water</title>
<polygon fill="darkolivegreen" stroke="black" points="310,-691 172,-691 172,-655 310,-655 310,-691"/>
<text text-anchor="middle" x="241" y="-669.3" font-family="Comic Sans MS" font-size="14.00" fill="white">market for tap water</text>
</g>
<!-- market for tap water&#45;&gt;Pre&#45;treatment (bread) -->
<g id="edge10" class="edge">
<title>market for tap water&#45;&gt;Pre&#45;treatment (bread)</title>
<path fill="none" stroke="black" d="M274.75,-654.51C274.75,-623.41 274.75,-564 274.75,-564 274.75,-564 366.95,-564 366.95,-564"/>
<polygon fill="white" stroke="black" points="366.95,-567.5 376.95,-564 366.95,-560.5 366.95,-567.5"/>
<text text-anchor="middle" x="263.59" y="-566.2" font-family="Times,serif" font-size="6.00">6.00 kg</text>
</g>
<!-- market for tap water&#45;&gt;Purification (bread) -->
<g id="edge18" class="edge">
<title>market for tap water&#45;&gt;Purification (bread)</title>
<path fill="none" stroke="black" d="M230.5,-654.76C230.5,-597.49 230.5,-425 230.5,-425 230.5,-425 805.5,-425 805.5,-425 805.5,-425 805.5,-230.25 805.5,-230.25"/>
<polygon fill="white" stroke="black" points="809,-230.25 805.5,-220.25 802,-230.25 809,-230.25"/>
<text text-anchor="middle" x="486.49" y="-427.2" font-family="Times,serif" font-size="6.00">56.00 kg</text>
</g>
<!-- market for soybean meal -->
<g id="node9" class="node">
<title>market for soybean meal</title>
<polygon fill="darkolivegreen" stroke="black" points="779.5,-329 614.5,-329 614.5,-293 779.5,-293 779.5,-329"/>
<text text-anchor="middle" x="697" y="-307.3" font-family="Comic Sans MS" font-size="14.00" fill="white">market for soybean meal</text>
</g>
<!-- market for soybean meal&#45;&gt;Purification (bread) -->
<g id="edge13" class="edge">
<title>market for soybean meal&#45;&gt;Purification (bread)</title>
<path fill="none" stroke="#8e0c0c" d="M740,-292.51C740,-292.51 740,-230.22 740,-230.22"/>
<polygon fill="white" stroke="#8e0c0c" points="743.5,-230.22 740,-220.22 736.5,-230.22 743.5,-230.22"/>
<text text-anchor="middle" x="727" y="-263.56" font-family="Times,serif" font-size="6.00">&#45;5.77 kg</text>
</g>
<!-- market for hydrochloric acid -->
<g id="node10" class="node">
<title>market for hydrochloric acid</title>
<polygon fill="darkolivegreen" stroke="black" points="596,-329 410,-329 410,-293 596,-293 596,-329"/>
<text text-anchor="middle" x="503" y="-307.3" font-family="Comic Sans MS" font-size="14.00" fill="white">market for hydrochloric acid</text>
</g>
<!-- market for hydrochloric acid&#45;&gt;Purification (bread) -->
<g id="edge14" class="edge">
<title>market for hydrochloric acid&#45;&gt;Purification (bread)</title>
<path fill="none" stroke="black" d="M503,-292.66C503,-263.79 503,-211 503,-211 503,-211 690.31,-211 690.31,-211"/>
<polygon fill="white" stroke="black" points="690.31,-214.5 700.31,-211 690.31,-207.5 690.31,-214.5"/>
<text text-anchor="middle" x="543.83" y="-213.2" font-family="Times,serif" font-size="6.00">0.04 kg</text>
</g>
<!-- market for sodium chloride -->
<g id="node11" class="node">
<title>market for sodium chloride</title>
<polygon fill="darkolivegreen" stroke="black" points="392,-329 214,-329 214,-293 392,-293 392,-329"/>
<text text-anchor="middle" x="303" y="-307.3" font-family="Comic Sans MS" font-size="14.00" fill="white">market for sodium chloride</text>
</g>
<!-- market for sodium chloride&#45;&gt;Purification (bread) -->
<g id="edge17" class="edge">
<title>market for sodium chloride&#45;&gt;Purification (bread)</title>
<path fill="none" stroke="black" d="M303,-292.51C303,-261.41 303,-202 303,-202 303,-202 690.16,-202 690.16,-202"/>
<polygon fill="white" stroke="black" points="690.16,-205.5 700.16,-202 690.16,-198.5 690.16,-205.5"/>
<text text-anchor="middle" x="439.32" y="-204.2" font-family="Times,serif" font-size="6.00">8.14 kg</text>
</g>
<!-- treatment of wastewater -->
<g id="node12" class="node">
<title>treatment of wastewater</title>
<polygon fill="darkolivegreen" stroke="black" points="195.5,-329 38.5,-329 38.5,-293 195.5,-293 195.5,-329"/>
<text text-anchor="middle" x="117" y="-307.3" font-family="Comic Sans MS" font-size="14.00" fill="white">treatment of wastewater</text>
</g>
<!-- treatment of wastewater&#45;&gt;Purification (bread) -->
<g id="edge19" class="edge">
<title>treatment of wastewater&#45;&gt;Purification (bread)</title>
<path fill="none" stroke="black" d="M117,-292.82C117,-259.72 117,-193 117,-193 117,-193 690.5,-193 690.5,-193"/>
<polygon fill="white" stroke="black" points="690.5,-196.5 700.5,-193 690.5,-189.5 690.5,-196.5"/>
<text text-anchor="middle" x="339.84" y="-195.2" font-family="Times,serif" font-size="6.00">62.00 kg</text>
</g>
<!-- Pre&#45;treatment (bread)&#45;&gt;Bacterial fermentation (bread) -->
<g id="edge6" class="edge">
<title>Pre&#45;treatment (bread)&#45;&gt;Bacterial fermentation (bread)</title>
<path fill="none" stroke="black" d="M449.17,-545.98C449.17,-545.98 449.17,-411.21 449.17,-411.21"/>
<polygon fill="black" stroke="black" points="452.67,-411.21 449.17,-401.21 445.67,-411.21 452.67,-411.21"/>
<text text-anchor="middle" x="437.17" y="-480.8" font-family="Times,serif" font-size="6.00">1.00 kg</text>
</g>
<!-- Bread waste -->
<g id="node14" class="node">
<title>Bread waste</title>
<ellipse fill="goldenrod" stroke="#000000" cx="96" cy="-673" rx="57.69" ry="18"/>
<text text-anchor="middle" x="96" y="-669.3" font-family="Comic Sans MS" font-size="14.00" fill="white">Bread waste</text>
</g>
<!-- Succinic acid production (bread) -->
<g id="node15" class="node">
<title>Succinic acid production (bread)</title>
<ellipse fill="#471a87" stroke="green" cx="766" cy="-56" rx="137.28" ry="18"/>
<text text-anchor="middle" x="766" y="-52.3" font-family="Comic Sans MS" font-size="14.00" fill="white">Succinic acid production (bread)</text>
</g>
<!-- Purification (bread)&#45;&gt;Succinic acid production (bread) -->
<g id="edge12" class="edge">
<title>Purification (bread)&#45;&gt;Succinic acid production (bread)</title>
<path fill="none" stroke="black" d="M766,-183.8C766,-183.8 766,-84.43 766,-84.43"/>
<polygon fill="black" stroke="black" points="769.5,-84.43 766,-74.43 762.5,-84.43 769.5,-84.43"/>
<text text-anchor="middle" x="754" y="-136.31" font-family="Times,serif" font-size="6.00">1.00 kg</text>
</g>
<!-- Bacterial fermentation (bread)&#45;&gt;Purification (bread) -->
<g id="edge15" class="edge">
<title>Bacterial fermentation (bread)&#45;&gt;Purification (bread)</title>
<path fill="none" stroke="black" d="M586.02,-374C675.04,-374 792.5,-374 792.5,-374 792.5,-374 792.5,-230.08 792.5,-230.08"/>
<polygon fill="black" stroke="black" points="796,-230.08 792.5,-220.08 789,-230.08 796,-230.08"/>
<text text-anchor="middle" x="749.22" y="-376.2" font-family="Times,serif" font-size="6.00">1.00 kg</text>
</g>
</g>
</svg>
