<?xml version="1.0" encoding="UTF-8" standalone="no"?>
<!DOCTYPE svg PUBLIC "-//W3C//DTD SVG 1.1//EN"
 "http://www.w3.org/Graphics/SVG/1.1/DTD/svg11.dtd">
<!-- Generated by graphviz version 2.43.0 (0)
 -->
<!-- Title: %3 Pages: 1 -->
<svg width="1013pt" height="842pt"
 viewBox="0.00 0.00 1013.00 842.00" xmlns="http://www.w3.org/2000/svg" xmlns:xlink="http://www.w3.org/1999/xlink">
<g id="graph0" class="graph" transform="scale(1 1) rotate(0) translate(36 806)">
<title>%3</title>
<polygon fill="white" stroke="transparent" points="-36,36 -36,-806 977,-806 977,36 -36,36"/>
<text text-anchor="middle" x="470.5" y="-742" font-family="Comic Sans MS" font-size="30.00">System model for succinic acid production from bread &#45; EnergyEfficient</text>
<g id="clust1" class="cluster">
<title>cluster_fg</title>
<polygon fill="none" stroke="black" stroke-width="2" points="8,-8 8,-721 933,-721 933,-8 8,-8"/>
</g>
<!-- market for soybean meal -->
<g id="node1" class="node">
<title>market for soybean meal</title>
<polygon fill="darkolivegreen" stroke="black" points="902.5,-329 737.5,-329 737.5,-293 902.5,-293 902.5,-329"/>
<text text-anchor="middle" x="820" y="-307.3" font-family="Comic Sans MS" font-size="14.00" fill="white">market for soybean meal</text>
</g>
<!-- Purification (bread) -->
<g id="node17" class="node">
<title>Purification (bread)</title>
<polygon fill="#0a86e5" stroke="black" points="240.5,-220 109.5,-220 109.5,-184 240.5,-184 240.5,-220"/>
<text text-anchor="middle" x="175" y="-198.3" font-family="Comic Sans MS" font-size="14.00" fill="white">Purification (bread)</text>
</g>
<!-- market for soybean meal&#45;&gt;Purification (bread) -->
<g id="edge1" class="edge">
<title>market for soybean meal&#45;&gt;Purification (bread)</title>
<path fill="none" stroke="#8e0c0c" d="M820,-292.78C820,-260.35 820,-196 820,-196 820,-196 250.7,-196 250.7,-196"/>
<polygon fill="white" stroke="#8e0c0c" points="250.7,-192.5 240.7,-196 250.7,-199.5 250.7,-192.5"/>
<text text-anchor="middle" x="570.74" y="-198.2" font-family="Times,serif" font-size="6.00">&#45;5.77 kg</text>
</g>
<!-- market for hydrochloric acid -->
<g id="node2" class="node">
<title>market for hydrochloric acid</title>
<polygon fill="darkolivegreen" stroke="black" points="719,-329 533,-329 533,-293 719,-293 719,-329"/>
<text text-anchor="middle" x="626" y="-307.3" font-family="Comic Sans MS" font-size="14.00" fill="white">market for hydrochloric acid</text>
</g>
<!-- market for hydrochloric acid&#45;&gt;Purification (bread) -->
<g id="edge2" class="edge">
<title>market for hydrochloric acid&#45;&gt;Purification (bread)</title>
<path fill="none" stroke="black" d="M626,-292.51C626,-261.41 626,-202 626,-202 626,-202 250.58,-202 250.58,-202"/>
<polygon fill="white" stroke="black" points="250.58,-198.5 240.58,-202 250.58,-205.5 250.58,-198.5"/>
<text text-anchor="middle" x="471.54" y="-204.2" font-family="Times,serif" font-size="6.00">0.04 kg</text>
</g>
<!-- market for steam -->
<g id="node3" class="node">
<title>market for steam</title>
<polygon fill="darkolivegreen" stroke="black" points="902.5,-691 783.5,-691 783.5,-655 902.5,-655 902.5,-691"/>
<text text-anchor="middle" x="843" y="-669.3" font-family="Comic Sans MS" font-size="14.00" fill="white">market for steam</text>
</g>
<!-- Bacterial fermentation (bread) -->
<g id="node13" class="node">
<title>Bacterial fermentation (bread)</title>
<polygon fill="#0a86e5" stroke="black" points="523,-401 327,-401 327,-365 523,-365 523,-401"/>
<text text-anchor="middle" x="425" y="-379.3" font-family="Comic Sans MS" font-size="14.00" fill="white">Bacterial fermentation (bread)</text>
</g>
<!-- market for steam&#45;&gt;Bacterial fermentation (bread) -->
<g id="edge15" class="edge">
<title>market for steam&#45;&gt;Bacterial fermentation (bread)</title>
<path fill="none" stroke="black" d="M873,-654.93C873,-590.66 873,-377 873,-377 873,-377 533.04,-377 533.04,-377"/>
<polygon fill="white" stroke="black" points="533.04,-373.5 523.04,-377 533.04,-380.5 533.04,-373.5"/>
<text text-anchor="middle" x="829.98" y="-379.2" font-family="Times,serif" font-size="6.00">7.33 kg</text>
</g>
<!-- Pre&#45;treatment (bread) -->
<g id="node14" class="node">
<title>Pre&#45;treatment (bread)</title>
<polygon fill="#0a86e5" stroke="black" points="521,-582 375,-582 375,-546 521,-546 521,-582"/>
<text text-anchor="middle" x="448" y="-560.3" font-family="Comic Sans MS" font-size="14.00" fill="white">Pre&#45;treatment (bread)</text>
</g>
<!-- market for steam&#45;&gt;Pre&#45;treatment (bread) -->
<g id="edge20" class="edge">
<title>market for steam&#45;&gt;Pre&#45;treatment (bread)</title>
<path fill="none" stroke="black" d="M813.5,-654.78C813.5,-622.35 813.5,-558 813.5,-558 813.5,-558 531.09,-558 531.09,-558"/>
<polygon fill="white" stroke="black" points="531.09,-554.5 521.09,-558 531.09,-561.5 531.09,-554.5"/>
<text text-anchor="middle" x="708.68" y="-560.2" font-family="Times,serif" font-size="6.00">7.20 kg</text>
</g>
<!-- market for steam&#45;&gt;Purification (bread) -->
<g id="edge4" class="edge">
<title>market for steam&#45;&gt;Purification (bread)</title>
<path fill="none" stroke="black" d="M902.53,-673C912.93,-673 920.5,-673 920.5,-673 920.5,-673 920.5,-190 920.5,-190 920.5,-190 250.5,-190 250.5,-190"/>
<polygon fill="white" stroke="black" points="250.5,-186.5 240.5,-190 250.5,-193.5 250.5,-186.5"/>
<text text-anchor="middle" x="823.99" y="-192.2" font-family="Times,serif" font-size="6.00">7.33 kg</text>
</g>
<!-- market for sodium chloride -->
<g id="node4" class="node">
<title>market for sodium chloride</title>
<polygon fill="darkolivegreen" stroke="black" points="495,-329 317,-329 317,-293 495,-293 495,-329"/>
<text text-anchor="middle" x="406" y="-307.3" font-family="Comic Sans MS" font-size="14.00" fill="white">market for sodium chloride</text>
</g>
<!-- market for sodium chloride&#45;&gt;Purification (bread) -->
<g id="edge5" class="edge">
<title>market for sodium chloride&#45;&gt;Purification (bread)</title>
<path fill="none" stroke="black" d="M406,-292.59C406,-262.96 406,-208 406,-208 406,-208 250.58,-208 250.58,-208"/>
<polygon fill="white" stroke="black" points="250.58,-204.5 240.58,-208 250.58,-211.5 250.58,-204.5"/>
<text text-anchor="middle" x="358.58" y="-210.2" font-family="Times,serif" font-size="6.00">8.14 kg</text>
</g>
<!-- market for tap water -->
<g id="node5" class="node">
<title>market for tap water</title>
<polygon fill="darkolivegreen" stroke="black" points="718,-691 580,-691 580,-655 718,-655 718,-691"/>
<text text-anchor="middle" x="649" y="-669.3" font-family="Comic Sans MS" font-size="14.00" fill="white">market for tap water</text>
</g>
<!-- market for tap water&#45;&gt;Pre&#45;treatment (bread) -->
<g id="edge19" class="edge">
<title>market for tap water&#45;&gt;Pre&#45;treatment (bread)</title>
<path fill="none" stroke="black" d="M609.25,-654.59C609.25,-624.96 609.25,-570 609.25,-570 609.25,-570 531.08,-570 531.08,-570"/>
<polygon fill="white" stroke="black" points="531.08,-566.5 521.08,-570 531.08,-573.5 531.08,-566.5"/>
<text text-anchor="middle" x="597.25" y="-575.41" font-family="Times,serif" font-size="6.00">6.00 kg</text>
</g>
<!-- market for tap water&#45;&gt;Purification (bread) -->
<g id="edge6" class="edge">
<title>market for tap water&#45;&gt;Purification (bread)</title>
<path fill="none" stroke="black" d="M647.5,-654.87C647.5,-599.61 647.5,-437 647.5,-437 647.5,-437 113.5,-437 113.5,-437 113.5,-437 113.5,-230.05 113.5,-230.05"/>
<polygon fill="white" stroke="black" points="117,-230.05 113.5,-220.05 110,-230.05 117,-230.05"/>
<text text-anchor="middle" x="371.96" y="-432.2" font-family="Times,serif" font-size="6.00">56.00 kg</text>
</g>
<!-- treatment of wastewater -->
<g id="node6" class="node">
<title>treatment of wastewater</title>
<polygon fill="darkolivegreen" stroke="black" points="278.5,-329 121.5,-329 121.5,-293 278.5,-293 278.5,-329"/>
<text text-anchor="middle" x="200" y="-307.3" font-family="Comic Sans MS" font-size="14.00" fill="white">treatment of wastewater</text>
</g>
<!-- treatment of wastewater&#45;&gt;Purification (bread) -->
<g id="edge7" class="edge">
<title>treatment of wastewater&#45;&gt;Purification (bread)</title>
<path fill="none" stroke="black" d="M181,-292.51C181,-292.51 181,-230.22 181,-230.22"/>
<polygon fill="white" stroke="black" points="184.5,-230.22 181,-220.22 177.5,-230.22 184.5,-230.22"/>
<text text-anchor="middle" x="167" y="-263.56" font-family="Times,serif" font-size="6.00">62.00 kg</text>
</g>
<!-- market group for electricity -->
<g id="node7" class="node">
<title>market group for electricity</title>
<polygon fill="darkolivegreen" stroke="black" points="350,-691 172,-691 172,-655 350,-655 350,-691"/>
<text text-anchor="middle" x="261" y="-669.3" font-family="Comic Sans MS" font-size="14.00" fill="white">market group for electricity</text>
</g>
<!-- market group for electricity&#45;&gt;Bacterial fermentation (bread) -->
<g id="edge12" class="edge">
<title>market group for electricity&#45;&gt;Bacterial fermentation (bread)</title>
<path fill="none" stroke="black" d="M283.17,-654.99C283.17,-592.98 283.17,-392 283.17,-392 283.17,-392 316.88,-392 316.88,-392"/>
<polygon fill="white" stroke="black" points="316.88,-395.5 326.88,-392 316.88,-388.5 316.88,-395.5"/>
<text text-anchor="middle" x="268.17" y="-508.84" font-family="Times,serif" font-size="6.00">0.18 kWh</text>
</g>
<!-- market group for electricity&#45;&gt;Pre&#45;treatment (bread) -->
<g id="edge18" class="edge">
<title>market group for electricity&#45;&gt;Pre&#45;treatment (bread)</title>
<path fill="none" stroke="black" d="M317.75,-654.51C317.75,-623.41 317.75,-564 317.75,-564 317.75,-564 364.88,-564 364.88,-564"/>
<polygon fill="white" stroke="black" points="364.88,-567.5 374.88,-564 364.88,-560.5 364.88,-567.5"/>
<text text-anchor="middle" x="302.75" y="-587.89" font-family="Times,serif" font-size="6.00">0.18 kWh</text>
</g>
<!-- market group for electricity&#45;&gt;Purification (bread) -->
<g id="edge8" class="edge">
<title>market group for electricity&#45;&gt;Purification (bread)</title>
<path fill="none" stroke="black" d="M280.83,-654.72C280.83,-569.35 280.83,-214 280.83,-214 280.83,-214 250.52,-214 250.52,-214"/>
<polygon fill="white" stroke="black" points="250.52,-210.5 240.52,-214 250.52,-217.5 250.52,-210.5"/>
<text text-anchor="middle" x="265.83" y="-421.41" font-family="Times,serif" font-size="6.00">0.18 kWh</text>
</g>
<!-- treatment of biowaste -->
<g id="node8" class="node">
<title>treatment of biowaste</title>
<polygon fill="darkolivegreen" stroke="black" points="428.5,-510 285.5,-510 285.5,-474 428.5,-474 428.5,-510"/>
<text text-anchor="middle" x="357" y="-488.3" font-family="Comic Sans MS" font-size="14.00" fill="white">treatment of biowaste</text>
</g>
<!-- treatment of biowaste&#45;&gt;Bacterial fermentation (bread) -->
<g id="edge9" class="edge">
<title>treatment of biowaste&#45;&gt;Bacterial fermentation (bread)</title>
<path fill="none" stroke="black" d="M377.75,-473.51C377.75,-473.51 377.75,-411.22 377.75,-411.22"/>
<polygon fill="white" stroke="black" points="381.25,-411.22 377.75,-401.22 374.25,-411.22 381.25,-411.22"/>
<text text-anchor="middle" x="365.75" y="-444.56" font-family="Times,serif" font-size="6.00">0.50 kg</text>
</g>
<!-- market for neutralising agent -->
<g id="node9" class="node">
<title>market for neutralising agent</title>
<polygon fill="darkolivegreen" stroke="black" points="267.5,-510 78.5,-510 78.5,-474 267.5,-474 267.5,-510"/>
<text text-anchor="middle" x="173" y="-488.3" font-family="Comic Sans MS" font-size="14.00" fill="white">market for neutralising agent</text>
</g>
<!-- market for neutralising agent&#45;&gt;Bacterial fermentation (bread) -->
<g id="edge10" class="edge">
<title>market for neutralising agent&#45;&gt;Bacterial fermentation (bread)</title>
<path fill="none" stroke="black" d="M194.5,-473.51C194.5,-442.41 194.5,-383 194.5,-383 194.5,-383 316.91,-383 316.91,-383"/>
<polygon fill="white" stroke="black" points="316.91,-386.5 326.91,-383 316.91,-379.5 316.91,-386.5"/>
<text text-anchor="middle" x="198.45" y="-385.2" font-family="Times,serif" font-size="6.00">0.11 kg</text>
</g>
<!-- market for magnesium oxide -->
<g id="node10" class="node">
<title>market for magnesium oxide</title>
<polygon fill="darkolivegreen" stroke="black" points="843.5,-510 656.5,-510 656.5,-474 843.5,-474 843.5,-510"/>
<text text-anchor="middle" x="750" y="-488.3" font-family="Comic Sans MS" font-size="14.00" fill="white">market for magnesium oxide</text>
</g>
<!-- market for magnesium oxide&#45;&gt;Bacterial fermentation (bread) -->
<g id="edge11" class="edge">
<title>market for magnesium oxide&#45;&gt;Bacterial fermentation (bread)</title>
<path fill="none" stroke="black" d="M687.75,-473.59C687.75,-443.96 687.75,-389 687.75,-389 687.75,-389 533.21,-389 533.21,-389"/>
<polygon fill="white" stroke="black" points="533.21,-385.5 523.21,-389 533.21,-392.5 533.21,-385.5"/>
<text text-anchor="middle" x="640.77" y="-391.2" font-family="Times,serif" font-size="6.00">0.15 kg</text>
</g>
<!-- market for carbon dioxide -->
<g id="node11" class="node">
<title>market for carbon dioxide</title>
<polygon fill="darkolivegreen" stroke="black" points="638.5,-510 467.5,-510 467.5,-474 638.5,-474 638.5,-510"/>
<text text-anchor="middle" x="553" y="-488.3" font-family="Comic Sans MS" font-size="14.00" fill="white">market for carbon dioxide</text>
</g>
<!-- market for carbon dioxide&#45;&gt;Bacterial fermentation (bread) -->
<g id="edge13" class="edge">
<title>market for carbon dioxide&#45;&gt;Bacterial fermentation (bread)</title>
<path fill="none" stroke="black" d="M495.25,-473.51C495.25,-473.51 495.25,-411.22 495.25,-411.22"/>
<polygon fill="white" stroke="black" points="498.75,-411.22 495.25,-401.22 491.75,-411.22 498.75,-411.22"/>
<text text-anchor="middle" x="480.25" y="-444.56" font-family="Times,serif" font-size="6.00">0.32 kWh</text>
</g>
<!-- market for enzymes -->
<g id="node12" class="node">
<title>market for enzymes</title>
<polygon fill="darkolivegreen" stroke="black" points="515,-691 381,-691 381,-655 515,-655 515,-691"/>
<text text-anchor="middle" x="448" y="-669.3" font-family="Comic Sans MS" font-size="14.00" fill="white">market for enzymes</text>
</g>
<!-- market for enzymes&#45;&gt;Pre&#45;treatment (bread) -->
<g id="edge17" class="edge">
<title>market for enzymes&#45;&gt;Pre&#45;treatment (bread)</title>
<path fill="none" stroke="black" d="M448,-654.51C448,-654.51 448,-592.22 448,-592.22"/>
<polygon fill="white" stroke="black" points="451.5,-592.22 448,-582.22 444.5,-592.22 451.5,-592.22"/>
<text text-anchor="middle" x="429.5" y="-625.56" font-family="Times,serif" font-size="6.00">3.68e&#45;03 kg</text>
</g>
<!-- Bacterial fermentation (bread)&#45;&gt;Purification (bread) -->
<g id="edge3" class="edge">
<title>Bacterial fermentation (bread)&#45;&gt;Purification (bread)</title>
<path fill="none" stroke="black" d="M326.86,-374C236.87,-374 117.5,-374 117.5,-374 117.5,-374 117.5,-230.08 117.5,-230.08"/>
<polygon fill="black" stroke="black" points="121,-230.08 117.5,-220.08 114,-230.08 121,-230.08"/>
<text text-anchor="middle" x="138.22" y="-376.2" font-family="Times,serif" font-size="6.00">1.00 kg</text>
</g>
<!-- Pre&#45;treatment (bread)&#45;&gt;Bacterial fermentation (bread) -->
<g id="edge14" class="edge">
<title>Pre&#45;treatment (bread)&#45;&gt;Bacterial fermentation (bread)</title>
<path fill="none" stroke="black" d="M448,-545.98C448,-545.98 448,-411.21 448,-411.21"/>
<polygon fill="black" stroke="black" points="451.5,-411.21 448,-401.21 444.5,-411.21 451.5,-411.21"/>
<text text-anchor="middle" x="454" y="-473.8" font-family="Times,serif" font-size="6.00">1.00 kg</text>
</g>
<!-- Bread waste -->
<g id="node15" class="node">
<title>Bread waste</title>
<ellipse fill="goldenrod" stroke="#000000" cx="96" cy="-673" rx="57.69" ry="18"/>
<text text-anchor="middle" x="96" y="-669.3" font-family="Comic Sans MS" font-size="14.00" fill="white">Bread waste</text>
</g>
<!-- Succinic acid production (bread) -->
<g id="node16" class="node">
<title>Succinic acid production (bread)</title>
<ellipse fill="#471a87" stroke="green" cx="175" cy="-56" rx="137.28" ry="18"/>
<text text-anchor="middle" x="175" y="-52.3" font-family="Comic Sans MS" font-size="14.00" fill="white">Succinic acid production (bread)</text>
</g>
<!-- Purification (bread)&#45;&gt;Succinic acid production (bread) -->
<g id="edge16" class="edge">
<title>Purification (bread)&#45;&gt;Succinic acid production (bread)</title>
<path fill="none" stroke="black" d="M175,-183.8C175,-183.8 175,-84.43 175,-84.43"/>
<polygon fill="black" stroke="black" points="178.5,-84.43 175,-74.43 171.5,-84.43 178.5,-84.43"/>
<text text-anchor="middle" x="163" y="-136.31" font-family="Times,serif" font-size="6.00">1.00 kg</text>
</g>
</g>
</svg>
