<?xml version="1.0" encoding="UTF-8" standalone="no"?>
<!DOCTYPE svg PUBLIC "-//W3C//DTD SVG 1.1//EN"
 "http://www.w3.org/Graphics/SVG/1.1/DTD/svg11.dtd">
<!-- Generated by graphviz version 2.43.0 (0)
 -->
<!-- Title: %3 Pages: 1 -->
<svg width="1330pt" height="807pt"
 viewBox="0.00 0.00 1330.00 807.00" xmlns="http://www.w3.org/2000/svg" xmlns:xlink="http://www.w3.org/1999/xlink">
<g id="graph0" class="graph" transform="scale(1 1) rotate(0) translate(36 771)">
<title>%3</title>
<polygon fill="white" stroke="transparent" points="-36,36 -36,-771 1294,-771 1294,36 -36,36"/>
<text text-anchor="middle" x="629" y="-707" font-family="Comic Sans MS" font-size="30.00">System model for succinic acid production from corn &#45; </text>
<g id="clust1" class="cluster">
<title>cluster_fg</title>
<polygon fill="none" stroke="black" stroke-width="2" points="8,-8 8,-686 1250,-686 1250,-8 8,-8"/>
</g>
<!-- market for ammonium sulfate -->
<g id="node1" class="node">
<title>market for ammonium sulfate</title>
<polygon fill="darkolivegreen" stroke="black" points="846.5,-329 653.5,-329 653.5,-293 846.5,-293 846.5,-329"/>
<text text-anchor="middle" x="750" y="-307.3" font-family="Comic Sans MS" font-size="14.00" fill="white">market for ammonium sulfate</text>
</g>
<!-- Purification (corn) -->
<g id="node12" class="node">
<title>Purification (corn)</title>
<polygon fill="#0a86e5" stroke="black" points="517.5,-220 394.5,-220 394.5,-184 517.5,-184 517.5,-220"/>
<text text-anchor="middle" x="456" y="-198.3" font-family="Comic Sans MS" font-size="14.00" fill="white">Purification (corn)</text>
</g>
<!-- market for ammonium sulfate&#45;&gt;Purification (corn) -->
<g id="edge2" class="edge">
<title>market for ammonium sulfate&#45;&gt;Purification (corn)</title>
<path fill="none" stroke="#8e0c0c" d="M750,-292.59C750,-262.96 750,-208 750,-208 750,-208 527.63,-208 527.63,-208"/>
<polygon fill="white" stroke="#8e0c0c" points="527.63,-204.5 517.63,-208 527.63,-211.5 527.63,-204.5"/>
<text text-anchor="middle" x="668.11" y="-210.2" font-family="Times,serif" font-size="6.00">&#45;2.72 kg</text>
</g>
<!-- treatment of wastewater -->
<g id="node2" class="node">
<title>treatment of wastewater</title>
<polygon fill="darkolivegreen" stroke="black" points="1219.5,-656 1062.5,-656 1062.5,-620 1219.5,-620 1219.5,-656"/>
<text text-anchor="middle" x="1141" y="-634.3" font-family="Comic Sans MS" font-size="14.00" fill="white">treatment of wastewater</text>
</g>
<!-- treatment of wastewater&#45;&gt;Purification (corn) -->
<g id="edge3" class="edge">
<title>treatment of wastewater&#45;&gt;Purification (corn)</title>
<path fill="none" stroke="black" d="M1167.17,-619.85C1167.17,-536.68 1167.17,-196 1167.17,-196 1167.17,-196 527.56,-196 527.56,-196"/>
<polygon fill="white" stroke="black" points="527.56,-192.5 517.56,-196 527.56,-199.5 527.56,-192.5"/>
<text text-anchor="middle" x="1046.79" y="-198.2" font-family="Times,serif" font-size="6.00">0.01 m³</text>
</g>
<!-- Pre&#45;treatment (corn) -->
<g id="node14" class="node">
<title>Pre&#45;treatment (corn)</title>
<polygon fill="#0a86e5" stroke="black" points="525.5,-547 386.5,-547 386.5,-511 525.5,-511 525.5,-547"/>
<text text-anchor="middle" x="456" y="-525.3" font-family="Comic Sans MS" font-size="14.00" fill="white">Pre&#45;treatment (corn)</text>
</g>
<!-- treatment of wastewater&#45;&gt;Pre&#45;treatment (corn) -->
<g id="edge11" class="edge">
<title>treatment of wastewater&#45;&gt;Pre&#45;treatment (corn)</title>
<path fill="none" stroke="black" d="M1114.83,-619.82C1114.83,-586.72 1114.83,-520 1114.83,-520 1114.83,-520 535.57,-520 535.57,-520"/>
<polygon fill="white" stroke="black" points="535.57,-516.5 525.57,-520 535.57,-523.5 535.57,-516.5"/>
<text text-anchor="middle" x="862.61" y="-522.2" font-family="Times,serif" font-size="6.00">0.01 m³</text>
</g>
<!-- market for ammonia -->
<g id="node3" class="node">
<title>market for ammonia</title>
<polygon fill="darkolivegreen" stroke="black" points="614.5,-329 475.5,-329 475.5,-293 614.5,-293 614.5,-329"/>
<text text-anchor="middle" x="545" y="-307.3" font-family="Comic Sans MS" font-size="14.00" fill="white">market for ammonia</text>
</g>
<!-- market for ammonia&#45;&gt;Purification (corn) -->
<g id="edge4" class="edge">
<title>market for ammonia&#45;&gt;Purification (corn)</title>
<path fill="none" stroke="black" d="M496.5,-292.51C496.5,-292.51 496.5,-230.22 496.5,-230.22"/>
<polygon fill="white" stroke="black" points="500,-230.22 496.5,-220.22 493,-230.22 500,-230.22"/>
<text text-anchor="middle" x="484.5" y="-263.56" font-family="Times,serif" font-size="6.00">0.41 kg</text>
</g>
<!-- market group for electricity -->
<g id="node4" class="node">
<title>market group for electricity</title>
<polygon fill="darkolivegreen" stroke="black" points="216,-656 38,-656 38,-620 216,-620 216,-656"/>
<text text-anchor="middle" x="127" y="-634.3" font-family="Comic Sans MS" font-size="14.00" fill="white">market group for electricity</text>
</g>
<!-- market group for electricity&#45;&gt;Purification (corn) -->
<g id="edge5" class="edge">
<title>market group for electricity&#45;&gt;Purification (corn)</title>
<path fill="none" stroke="black" d="M82.5,-619.82C82.5,-537.3 82.5,-202 82.5,-202 82.5,-202 384.32,-202 384.32,-202"/>
<polygon fill="white" stroke="black" points="384.32,-205.5 394.32,-202 384.32,-198.5 384.32,-205.5"/>
<text text-anchor="middle" x="67.5" y="-262.2" font-family="Times,serif" font-size="6.00">0.90 kWh</text>
</g>
<!-- Bacterial fermentation (corn) -->
<g id="node13" class="node">
<title>Bacterial fermentation (corn)</title>
<polygon fill="#0a86e5" stroke="black" points="550,-401 362,-401 362,-365 550,-365 550,-401"/>
<text text-anchor="middle" x="456" y="-379.3" font-family="Comic Sans MS" font-size="14.00" fill="white">Bacterial fermentation (corn)</text>
</g>
<!-- market group for electricity&#45;&gt;Bacterial fermentation (corn) -->
<g id="edge9" class="edge">
<title>market group for electricity&#45;&gt;Bacterial fermentation (corn)</title>
<path fill="none" stroke="black" d="M127,-619.66C127,-561.19 127,-383 127,-383 127,-383 351.72,-383 351.72,-383"/>
<polygon fill="white" stroke="black" points="351.72,-386.5 361.72,-383 351.72,-379.5 351.72,-386.5"/>
<text text-anchor="middle" x="112" y="-391.17" font-family="Times,serif" font-size="6.00">0.90 kWh</text>
</g>
<!-- market group for electricity&#45;&gt;Pre&#45;treatment (corn) -->
<g id="edge14" class="edge">
<title>market group for electricity&#45;&gt;Pre&#45;treatment (corn)</title>
<path fill="none" stroke="black" d="M171.5,-619.51C171.5,-588.41 171.5,-529 171.5,-529 171.5,-529 376.4,-529 376.4,-529"/>
<polygon fill="white" stroke="black" points="376.4,-532.5 386.4,-529 376.4,-525.5 376.4,-532.5"/>
<text text-anchor="middle" x="213.7" y="-531.2" font-family="Times,serif" font-size="6.00">0.90 kWh</text>
</g>
<!-- market for water -->
<g id="node5" class="node">
<title>market for water</title>
<polygon fill="darkolivegreen" stroke="black" points="436.5,-329 321.5,-329 321.5,-293 436.5,-293 436.5,-329"/>
<text text-anchor="middle" x="379" y="-307.3" font-family="Comic Sans MS" font-size="14.00" fill="white">market for water</text>
</g>
<!-- market for water&#45;&gt;Purification (corn) -->
<g id="edge7" class="edge">
<title>market for water&#45;&gt;Purification (corn)</title>
<path fill="none" stroke="black" d="M415.5,-292.51C415.5,-292.51 415.5,-230.22 415.5,-230.22"/>
<polygon fill="white" stroke="black" points="419,-230.22 415.5,-220.22 412,-230.22 419,-230.22"/>
<text text-anchor="middle" x="401.5" y="-263.56" font-family="Times,serif" font-size="6.00">25.30 kg</text>
</g>
<!-- treatment of biowaste -->
<g id="node6" class="node">
<title>treatment of biowaste</title>
<polygon fill="darkolivegreen" stroke="black" points="377.5,-656 234.5,-656 234.5,-620 377.5,-620 377.5,-656"/>
<text text-anchor="middle" x="306" y="-634.3" font-family="Comic Sans MS" font-size="14.00" fill="white">treatment of biowaste</text>
</g>
<!-- treatment of biowaste&#45;&gt;Bacterial fermentation (corn) -->
<g id="edge8" class="edge">
<title>treatment of biowaste&#45;&gt;Bacterial fermentation (corn)</title>
<path fill="none" stroke="black" d="M369.75,-619.66C369.75,-619.66 369.75,-411.17 369.75,-411.17"/>
<polygon fill="white" stroke="black" points="373.25,-411.17 369.75,-401.17 366.25,-411.17 373.25,-411.17"/>
<text text-anchor="middle" x="357.75" y="-517.62" font-family="Times,serif" font-size="6.00">0.82 kg</text>
</g>
<!-- treatment of biowaste&#45;&gt;Pre&#45;treatment (corn) -->
<g id="edge13" class="edge">
<title>treatment of biowaste&#45;&gt;Pre&#45;treatment (corn)</title>
<path fill="none" stroke="black" d="M377.55,-638C385.75,-638 391.25,-638 391.25,-638 391.25,-638 391.25,-557.49 391.25,-557.49"/>
<polygon fill="white" stroke="black" points="394.75,-557.49 391.25,-547.49 387.75,-557.49 394.75,-557.49"/>
<text text-anchor="middle" x="379.25" y="-606.79" font-family="Times,serif" font-size="6.00">0.40 kg</text>
</g>
<!-- steam production -->
<g id="node7" class="node">
<title>steam production</title>
<polygon fill="darkolivegreen" stroke="black" points="516,-656 396,-656 396,-620 516,-620 516,-656"/>
<text text-anchor="middle" x="456" y="-634.3" font-family="Comic Sans MS" font-size="14.00" fill="white">steam production</text>
</g>
<!-- steam production&#45;&gt;Pre&#45;treatment (corn) -->
<g id="edge12" class="edge">
<title>steam production&#45;&gt;Pre&#45;treatment (corn)</title>
<path fill="none" stroke="black" d="M456,-619.51C456,-619.51 456,-557.22 456,-557.22"/>
<polygon fill="white" stroke="black" points="459.5,-557.22 456,-547.22 452.5,-557.22 459.5,-557.22"/>
<text text-anchor="middle" x="444" y="-590.56" font-family="Times,serif" font-size="6.00">0.02 kg</text>
</g>
<!-- market for tap water -->
<g id="node8" class="node">
<title>market for tap water</title>
<polygon fill="darkolivegreen" stroke="black" points="1044,-656 906,-656 906,-620 1044,-620 1044,-656"/>
<text text-anchor="middle" x="975" y="-634.3" font-family="Comic Sans MS" font-size="14.00" fill="white">market for tap water</text>
</g>
<!-- market for tap water&#45;&gt;Pre&#45;treatment (corn) -->
<g id="edge15" class="edge">
<title>market for tap water&#45;&gt;Pre&#45;treatment (corn)</title>
<path fill="none" stroke="black" d="M975,-619.51C975,-588.41 975,-529 975,-529 975,-529 535.73,-529 535.73,-529"/>
<polygon fill="white" stroke="black" points="535.73,-525.5 525.73,-529 535.73,-532.5 535.73,-525.5"/>
<text text-anchor="middle" x="786.62" y="-531.2" font-family="Times,serif" font-size="6.00">12.90 kg</text>
</g>
<!-- market for sweet sorghum grain -->
<g id="node9" class="node">
<title>market for sweet sorghum grain</title>
<polygon fill="darkolivegreen" stroke="black" points="887.5,-656 680.5,-656 680.5,-620 887.5,-620 887.5,-656"/>
<text text-anchor="middle" x="784" y="-634.3" font-family="Comic Sans MS" font-size="14.00" fill="white">market for sweet sorghum grain</text>
</g>
<!-- market for sweet sorghum grain&#45;&gt;Pre&#45;treatment (corn) -->
<g id="edge16" class="edge">
<title>market for sweet sorghum grain&#45;&gt;Pre&#45;treatment (corn)</title>
<path fill="none" stroke="black" d="M763.5,-619.66C763.5,-590.79 763.5,-538 763.5,-538 763.5,-538 535.78,-538 535.78,-538"/>
<polygon fill="white" stroke="black" points="535.78,-534.5 525.78,-538 535.78,-541.5 535.78,-534.5"/>
<text text-anchor="middle" x="678.47" y="-540.2" font-family="Times,serif" font-size="6.00">1.66 kg</text>
</g>
<!-- market for glucose -->
<g id="node10" class="node">
<title>market for glucose</title>
<polygon fill="darkolivegreen" stroke="black" points="662,-656 534,-656 534,-620 662,-620 662,-656"/>
<text text-anchor="middle" x="598" y="-634.3" font-family="Comic Sans MS" font-size="14.00" fill="white">market for glucose</text>
</g>
<!-- market for glucose&#45;&gt;Pre&#45;treatment (corn) -->
<g id="edge17" class="edge">
<title>market for glucose&#45;&gt;Pre&#45;treatment (corn)</title>
<path fill="none" stroke="black" d="M533.85,-638C526.04,-638 520.75,-638 520.75,-638 520.75,-638 520.75,-557.49 520.75,-557.49"/>
<polygon fill="white" stroke="black" points="524.25,-557.49 520.75,-547.49 517.25,-557.49 524.25,-557.49"/>
<text text-anchor="middle" x="508.75" y="-606.5" font-family="Times,serif" font-size="6.00">2.00 kg</text>
</g>
<!-- Succinic acid production (corn) -->
<g id="node11" class="node">
<title>Succinic acid production (corn)</title>
<ellipse fill="#471a87" stroke="green" cx="456" cy="-56" rx="131.88" ry="18"/>
<text text-anchor="middle" x="456" y="-52.3" font-family="Comic Sans MS" font-size="14.00" fill="white">Succinic acid production (corn)</text>
</g>
<!-- Purification (corn)&#45;&gt;Succinic acid production (corn) -->
<g id="edge1" class="edge">
<title>Purification (corn)&#45;&gt;Succinic acid production (corn)</title>
<path fill="none" stroke="black" d="M456,-183.8C456,-183.8 456,-84.43 456,-84.43"/>
<polygon fill="black" stroke="black" points="459.5,-84.43 456,-74.43 452.5,-84.43 459.5,-84.43"/>
<text text-anchor="middle" x="444" y="-136.31" font-family="Times,serif" font-size="6.00">1.00 kg</text>
</g>
<!-- Bacterial fermentation (corn)&#45;&gt;Purification (corn) -->
<g id="edge6" class="edge">
<title>Bacterial fermentation (corn)&#45;&gt;Purification (corn)</title>
<path fill="none" stroke="black" d="M456,-364.98C456,-364.98 456,-230.21 456,-230.21"/>
<polygon fill="black" stroke="black" points="459.5,-230.21 456,-220.21 452.5,-230.21 459.5,-230.21"/>
<text text-anchor="middle" x="462" y="-292.8" font-family="Times,serif" font-size="6.00">1.00 kg</text>
</g>
<!-- Pre&#45;treatment (corn)&#45;&gt;Bacterial fermentation (corn) -->
<g id="edge10" class="edge">
<title>Pre&#45;treatment (corn)&#45;&gt;Bacterial fermentation (corn)</title>
<path fill="none" stroke="black" d="M456,-510.8C456,-510.8 456,-411.43 456,-411.43"/>
<polygon fill="black" stroke="black" points="459.5,-411.43 456,-401.43 452.5,-411.43 459.5,-411.43"/>
<text text-anchor="middle" x="444" y="-463.31" font-family="Times,serif" font-size="6.00">1.00 kg</text>
</g>
</g>
</svg>
