<?xml version="1.0" encoding="UTF-8" standalone="no"?>
<!DOCTYPE svg PUBLIC "-//W3C//DTD SVG 1.1//EN"
 "http://www.w3.org/Graphics/SVG/1.1/DTD/svg11.dtd">
<!-- Generated by graphviz version 2.43.0 (0)
 -->
<!-- Title: %3 Pages: 1 -->
<svg width="1330pt" height="807pt"
 viewBox="0.00 0.00 1330.00 807.00" xmlns="http://www.w3.org/2000/svg" xmlns:xlink="http://www.w3.org/1999/xlink">
<g id="graph0" class="graph" transform="scale(1 1) rotate(0) translate(36 771)">
<title>%3</title>
<polygon fill="white" stroke="transparent" points="-36,36 -36,-771 1294,-771 1294,36 -36,36"/>
<text text-anchor="middle" x="629" y="-707" font-family="Comic Sans MS" font-size="30.00">System model for succinic acid production from corn &#45; WaterEfficient</text>
<g id="clust1" class="cluster">
<title>cluster_fg</title>
<polygon fill="none" stroke="black" stroke-width="2" points="8,-8 8,-686 1250,-686 1250,-8 8,-8"/>
</g>
<!-- treatment of wastewater -->
<g id="node1" class="node">
<title>treatment of wastewater</title>
<polygon fill="darkolivegreen" stroke="black" points="1219.5,-656 1062.5,-656 1062.5,-620 1219.5,-620 1219.5,-656"/>
<text text-anchor="middle" x="1141" y="-634.3" font-family="Comic Sans MS" font-size="14.00" fill="white">treatment of wastewater</text>
</g>
<!-- Purification (corn) -->
<g id="node12" class="node">
<title>Purification (corn)</title>
<polygon fill="#0a86e5" stroke="black" points="840.5,-220 717.5,-220 717.5,-184 840.5,-184 840.5,-220"/>
<text text-anchor="middle" x="779" y="-198.3" font-family="Comic Sans MS" font-size="14.00" fill="white">Purification (corn)</text>
</g>
<!-- treatment of wastewater&#45;&gt;Purification (corn) -->
<g id="edge10" class="edge">
<title>treatment of wastewater&#45;&gt;Purification (corn)</title>
<path fill="none" stroke="black" d="M1167.17,-619.85C1167.17,-536.68 1167.17,-196 1167.17,-196 1167.17,-196 850.51,-196 850.51,-196"/>
<polygon fill="white" stroke="black" points="850.51,-192.5 840.51,-196 850.51,-199.5 850.51,-192.5"/>
<text text-anchor="middle" x="1148.17" y="-251.79" font-family="Times,serif" font-size="6.00">2.75e&#45;03 m³</text>
</g>
<!-- Pre&#45;treatment (corn) -->
<g id="node14" class="node">
<title>Pre&#45;treatment (corn)</title>
<polygon fill="#0a86e5" stroke="black" points="848.5,-547 709.5,-547 709.5,-511 848.5,-511 848.5,-547"/>
<text text-anchor="middle" x="779" y="-525.3" font-family="Comic Sans MS" font-size="14.00" fill="white">Pre&#45;treatment (corn)</text>
</g>
<!-- treatment of wastewater&#45;&gt;Pre&#45;treatment (corn) -->
<g id="edge1" class="edge">
<title>treatment of wastewater&#45;&gt;Pre&#45;treatment (corn)</title>
<path fill="none" stroke="black" d="M1114.83,-619.78C1114.83,-587.35 1114.83,-523 1114.83,-523 1114.83,-523 858.58,-523 858.58,-523"/>
<polygon fill="white" stroke="black" points="858.58,-519.5 848.58,-523 858.58,-526.5 858.58,-519.5"/>
<text text-anchor="middle" x="1016.1" y="-525.2" font-family="Times,serif" font-size="6.00">3.25e&#45;03 m³</text>
</g>
<!-- steam production -->
<g id="node2" class="node">
<title>steam production</title>
<polygon fill="darkolivegreen" stroke="black" points="466,-656 346,-656 346,-620 466,-620 466,-656"/>
<text text-anchor="middle" x="406" y="-634.3" font-family="Comic Sans MS" font-size="14.00" fill="white">steam production</text>
</g>
<!-- steam production&#45;&gt;Pre&#45;treatment (corn) -->
<g id="edge2" class="edge">
<title>steam production&#45;&gt;Pre&#45;treatment (corn)</title>
<path fill="none" stroke="black" d="M456.25,-619.54C456.25,-589.17 456.25,-532 456.25,-532 456.25,-532 699.37,-532 699.37,-532"/>
<polygon fill="white" stroke="black" points="699.37,-535.5 709.37,-532 699.37,-528.5 699.37,-535.5"/>
<text text-anchor="middle" x="522.04" y="-534.2" font-family="Times,serif" font-size="6.00">0.02 kg</text>
</g>
<!-- treatment of biowaste -->
<g id="node3" class="node">
<title>treatment of biowaste</title>
<polygon fill="darkolivegreen" stroke="black" points="181.5,-656 38.5,-656 38.5,-620 181.5,-620 181.5,-656"/>
<text text-anchor="middle" x="110" y="-634.3" font-family="Comic Sans MS" font-size="14.00" fill="white">treatment of biowaste</text>
</g>
<!-- Bacterial fermentation (corn) -->
<g id="node13" class="node">
<title>Bacterial fermentation (corn)</title>
<polygon fill="#0a86e5" stroke="black" points="873,-401 685,-401 685,-365 873,-365 873,-401"/>
<text text-anchor="middle" x="779" y="-379.3" font-family="Comic Sans MS" font-size="14.00" fill="white">Bacterial fermentation (corn)</text>
</g>
<!-- treatment of biowaste&#45;&gt;Bacterial fermentation (corn) -->
<g id="edge15" class="edge">
<title>treatment of biowaste&#45;&gt;Bacterial fermentation (corn)</title>
<path fill="none" stroke="black" d="M86.17,-619.66C86.17,-561.19 86.17,-383 86.17,-383 86.17,-383 674.84,-383 674.84,-383"/>
<polygon fill="white" stroke="black" points="674.84,-386.5 684.84,-383 674.84,-379.5 674.84,-386.5"/>
<text text-anchor="middle" x="250.17" y="-385.2" font-family="Times,serif" font-size="6.00">0.82 kg</text>
</g>
<!-- treatment of biowaste&#45;&gt;Pre&#45;treatment (corn) -->
<g id="edge3" class="edge">
<title>treatment of biowaste&#45;&gt;Pre&#45;treatment (corn)</title>
<path fill="none" stroke="black" d="M133.83,-619.77C133.83,-586.2 133.83,-518 133.83,-518 133.83,-518 699.34,-518 699.34,-518"/>
<polygon fill="white" stroke="black" points="699.34,-521.5 709.34,-518 699.34,-514.5 699.34,-521.5"/>
<text text-anchor="middle" x="353.7" y="-520.2" font-family="Times,serif" font-size="6.00">0.40 kg</text>
</g>
<!-- market group for electricity -->
<g id="node4" class="node">
<title>market group for electricity</title>
<polygon fill="darkolivegreen" stroke="black" points="1044,-656 866,-656 866,-620 1044,-620 1044,-656"/>
<text text-anchor="middle" x="955" y="-634.3" font-family="Comic Sans MS" font-size="14.00" fill="white">market group for electricity</text>
</g>
<!-- market group for electricity&#45;&gt;Purification (corn) -->
<g id="edge12" class="edge">
<title>market group for electricity&#45;&gt;Purification (corn)</title>
<path fill="none" stroke="black" d="M891.97,-619.8C891.97,-537.95 891.97,-208 891.97,-208 891.97,-208 850.77,-208 850.77,-208"/>
<polygon fill="white" stroke="black" points="850.77,-204.5 840.77,-208 850.77,-211.5 850.77,-204.5"/>
<text text-anchor="middle" x="906.97" y="-395.5" font-family="Times,serif" font-size="6.00">0.90 kWh</text>
</g>
<!-- market group for electricity&#45;&gt;Bacterial fermentation (corn) -->
<g id="edge16" class="edge">
<title>market group for electricity&#45;&gt;Bacterial fermentation (corn)</title>
<path fill="none" stroke="black" d="M870.67,-619.66C870.67,-619.66 870.67,-411.17 870.67,-411.17"/>
<polygon fill="white" stroke="black" points="874.17,-411.17 870.67,-401.17 867.17,-411.17 874.17,-411.17"/>
<text text-anchor="middle" x="885.67" y="-517.62" font-family="Times,serif" font-size="6.00">0.90 kWh</text>
</g>
<!-- market group for electricity&#45;&gt;Pre&#45;treatment (corn) -->
<g id="edge4" class="edge">
<title>market group for electricity&#45;&gt;Pre&#45;treatment (corn)</title>
<path fill="none" stroke="black" d="M868.33,-619.59C868.33,-589.96 868.33,-535 868.33,-535 868.33,-535 858.51,-535 858.51,-535"/>
<polygon fill="white" stroke="black" points="858.51,-531.5 848.51,-535 858.51,-538.5 858.51,-531.5"/>
<text text-anchor="middle" x="853.33" y="-574.58" font-family="Times,serif" font-size="6.00">0.90 kWh</text>
</g>
<!-- market for tap water -->
<g id="node5" class="node">
<title>market for tap water</title>
<polygon fill="darkolivegreen" stroke="black" points="848,-656 710,-656 710,-620 848,-620 848,-656"/>
<text text-anchor="middle" x="779" y="-634.3" font-family="Comic Sans MS" font-size="14.00" fill="white">market for tap water</text>
</g>
<!-- market for tap water&#45;&gt;Pre&#45;treatment (corn) -->
<g id="edge5" class="edge">
<title>market for tap water&#45;&gt;Pre&#45;treatment (corn)</title>
<path fill="none" stroke="black" d="M779,-619.51C779,-619.51 779,-557.22 779,-557.22"/>
<polygon fill="white" stroke="black" points="782.5,-557.22 779,-547.22 775.5,-557.22 782.5,-557.22"/>
<text text-anchor="middle" x="767" y="-590.56" font-family="Times,serif" font-size="6.00">3.23 kg</text>
</g>
<!-- market for sweet sorghum grain -->
<g id="node6" class="node">
<title>market for sweet sorghum grain</title>
<polygon fill="darkolivegreen" stroke="black" points="691.5,-656 484.5,-656 484.5,-620 691.5,-620 691.5,-656"/>
<text text-anchor="middle" x="588" y="-634.3" font-family="Comic Sans MS" font-size="14.00" fill="white">market for sweet sorghum grain</text>
</g>
<!-- market for sweet sorghum grain&#45;&gt;Pre&#45;treatment (corn) -->
<g id="edge6" class="edge">
<title>market for sweet sorghum grain&#45;&gt;Pre&#45;treatment (corn)</title>
<path fill="none" stroke="black" d="M644.5,-619.84C644.5,-591.26 644.5,-539 644.5,-539 644.5,-539 699.39,-539 699.39,-539"/>
<polygon fill="white" stroke="black" points="699.39,-542.5 709.39,-539 699.39,-535.5 699.39,-542.5"/>
<text text-anchor="middle" x="632.5" y="-554.18" font-family="Times,serif" font-size="6.00">1.66 kg</text>
</g>
<!-- market for glucose -->
<g id="node7" class="node">
<title>market for glucose</title>
<polygon fill="darkolivegreen" stroke="black" points="328,-656 200,-656 200,-620 328,-620 328,-656"/>
<text text-anchor="middle" x="264" y="-634.3" font-family="Comic Sans MS" font-size="14.00" fill="white">market for glucose</text>
</g>
<!-- market for glucose&#45;&gt;Pre&#45;treatment (corn) -->
<g id="edge7" class="edge">
<title>market for glucose&#45;&gt;Pre&#45;treatment (corn)</title>
<path fill="none" stroke="black" d="M320.75,-619.84C320.75,-587.9 320.75,-525 320.75,-525 320.75,-525 699.4,-525 699.4,-525"/>
<polygon fill="white" stroke="black" points="699.4,-528.5 709.4,-525 699.4,-521.5 699.4,-528.5"/>
<text text-anchor="middle" x="450.65" y="-527.2" font-family="Times,serif" font-size="6.00">2.00 kg</text>
</g>
<!-- treatment of inert waste -->
<g id="node8" class="node">
<title>treatment of inert waste</title>
<polygon fill="darkolivegreen" stroke="black" points="760,-329 604,-329 604,-293 760,-293 760,-329"/>
<text text-anchor="middle" x="682" y="-307.3" font-family="Comic Sans MS" font-size="14.00" fill="white">treatment of inert waste</text>
</g>
<!-- treatment of inert waste&#45;&gt;Purification (corn) -->
<g id="edge9" class="edge">
<title>treatment of inert waste&#45;&gt;Purification (corn)</title>
<path fill="none" stroke="black" d="M738.75,-292.51C738.75,-292.51 738.75,-230.22 738.75,-230.22"/>
<polygon fill="white" stroke="black" points="742.25,-230.22 738.75,-220.22 735.25,-230.22 742.25,-230.22"/>
<text text-anchor="middle" x="726.75" y="-263.56" font-family="Times,serif" font-size="6.00">2.72 kg</text>
</g>
<!-- market for ammonia -->
<g id="node9" class="node">
<title>market for ammonia</title>
<polygon fill="darkolivegreen" stroke="black" points="585.5,-329 446.5,-329 446.5,-293 585.5,-293 585.5,-329"/>
<text text-anchor="middle" x="516" y="-307.3" font-family="Comic Sans MS" font-size="14.00" fill="white">market for ammonia</text>
</g>
<!-- market for ammonia&#45;&gt;Purification (corn) -->
<g id="edge11" class="edge">
<title>market for ammonia&#45;&gt;Purification (corn)</title>
<path fill="none" stroke="black" d="M516,-292.59C516,-262.96 516,-208 516,-208 516,-208 707.34,-208 707.34,-208"/>
<polygon fill="white" stroke="black" points="707.34,-211.5 717.34,-208 707.34,-204.5 707.34,-211.5"/>
<text text-anchor="middle" x="557.38" y="-210.2" font-family="Times,serif" font-size="6.00">0.41 kg</text>
</g>
<!-- market for water -->
<g id="node10" class="node">
<title>market for water</title>
<polygon fill="darkolivegreen" stroke="black" points="428.5,-329 313.5,-329 313.5,-293 428.5,-293 428.5,-329"/>
<text text-anchor="middle" x="371" y="-307.3" font-family="Comic Sans MS" font-size="14.00" fill="white">market for water</text>
</g>
<!-- market for water&#45;&gt;Purification (corn) -->
<g id="edge14" class="edge">
<title>market for water&#45;&gt;Purification (corn)</title>
<path fill="none" stroke="black" d="M371,-292.78C371,-260.35 371,-196 371,-196 371,-196 707.48,-196 707.48,-196"/>
<polygon fill="white" stroke="black" points="707.48,-199.5 717.48,-196 707.48,-192.5 707.48,-199.5"/>
<text text-anchor="middle" x="478.85" y="-198.2" font-family="Times,serif" font-size="6.00">6.33 kg</text>
</g>
<!-- Succinic acid production (corn) -->
<g id="node11" class="node">
<title>Succinic acid production (corn)</title>
<ellipse fill="#471a87" stroke="green" cx="779" cy="-56" rx="131.88" ry="18"/>
<text text-anchor="middle" x="779" y="-52.3" font-family="Comic Sans MS" font-size="14.00" fill="white">Succinic acid production (corn)</text>
</g>
<!-- Purification (corn)&#45;&gt;Succinic acid production (corn) -->
<g id="edge8" class="edge">
<title>Purification (corn)&#45;&gt;Succinic acid production (corn)</title>
<path fill="none" stroke="black" d="M779,-183.8C779,-183.8 779,-84.43 779,-84.43"/>
<polygon fill="black" stroke="black" points="782.5,-84.43 779,-74.43 775.5,-84.43 782.5,-84.43"/>
<text text-anchor="middle" x="767" y="-136.31" font-family="Times,serif" font-size="6.00">1.00 kg</text>
</g>
<!-- Bacterial fermentation (corn)&#45;&gt;Purification (corn) -->
<g id="edge13" class="edge">
<title>Bacterial fermentation (corn)&#45;&gt;Purification (corn)</title>
<path fill="none" stroke="black" d="M800.25,-364.98C800.25,-364.98 800.25,-230.21 800.25,-230.21"/>
<polygon fill="black" stroke="black" points="803.75,-230.21 800.25,-220.21 796.75,-230.21 803.75,-230.21"/>
<text text-anchor="middle" x="788.25" y="-299.8" font-family="Times,serif" font-size="6.00">1.00 kg</text>
</g>
<!-- Pre&#45;treatment (corn)&#45;&gt;Bacterial fermentation (corn) -->
<g id="edge17" class="edge">
<title>Pre&#45;treatment (corn)&#45;&gt;Bacterial fermentation (corn)</title>
<path fill="none" stroke="black" d="M779,-510.8C779,-510.8 779,-411.43 779,-411.43"/>
<polygon fill="black" stroke="black" points="782.5,-411.43 779,-401.43 775.5,-411.43 782.5,-411.43"/>
<text text-anchor="middle" x="767" y="-463.31" font-family="Times,serif" font-size="6.00">1.00 kg</text>
</g>
</g>
</svg>
