<?xml version="1.0" encoding="UTF-8" standalone="no"?>
<!DOCTYPE svg PUBLIC "-//W3C//DTD SVG 1.1//EN"
 "http://www.w3.org/Graphics/SVG/1.1/DTD/svg11.dtd">
<!-- Generated by graphviz version 2.43.0 (0)
 -->
<!-- Title: %3 Pages: 1 -->
<svg width="2024pt" height="945pt"
 viewBox="0.00 0.00 2024.04 945.40" xmlns="http://www.w3.org/2000/svg" xmlns:xlink="http://www.w3.org/1999/xlink">
<g id="graph0" class="graph" transform="scale(1 1) rotate(0) translate(7.2 938.2)">
<title>%3</title>
<polygon fill="white" stroke="transparent" points="-7.2,7.2 -7.2,-938.2 2016.84,-938.2 2016.84,7.2 -7.2,7.2"/>
<!-- glucose production -->
<g id="node1" class="node">
<title>glucose production</title>
<ellipse fill="none" stroke="black" cx="272.33" cy="-897.36" rx="98.58" ry="18"/>
<text text-anchor="middle" x="272.33" y="-893.66" font-family="Times,serif" font-size="14.00">glucose production</text>
</g>
<!-- Dextrose -->
<g id="node2" class="node">
<title>Dextrose</title>
<ellipse fill="none" stroke="black" cx="1122.46" cy="-897.36" rx="52.79" ry="18"/>
<text text-anchor="middle" x="1122.46" y="-893.66" font-family="Times,serif" font-size="14.00">Dextrose</text>
</g>
<!-- glucose production&#45;&gt;Dextrose -->
<g id="edge1" class="edge">
<title>glucose production&#45;&gt;Dextrose</title>
<path fill="none" stroke="black" stroke-width="0.75" d="M371.45,-897.36C547.74,-897.36 913.27,-897.36 1059.26,-897.36"/>
<polygon fill="black" stroke="black" stroke-width="0.75" points="1059.39,-900.86 1069.39,-897.36 1059.39,-893.86 1059.39,-900.86"/>
<text text-anchor="middle" x="596.65" y="-901.16" font-family="Times,serif" font-size="14.00">0.01 kg</text>
</g>
<!-- Succinic acid production (corn) -->
<g id="node12" class="node">
<title>Succinic acid production (corn)</title>
<ellipse fill="none" stroke="black" cx="1854.95" cy="-465.36" rx="154.87" ry="18"/>
<text text-anchor="middle" x="1854.95" y="-461.66" font-family="Times,serif" font-size="14.00">Succinic acid production (corn)</text>
</g>
<!-- Dextrose&#45;&gt;Succinic acid production (corn) -->
<g id="edge8" class="edge">
<title>Dextrose&#45;&gt;Succinic acid production (corn)</title>
<path fill="none" stroke="black" stroke-width="0.75" d="M1165.85,-907.57C1270.27,-929.93 1541.58,-970.63 1682.27,-829.36 1782.19,-729.03 1831.5,-559.44 1847.71,-493.12"/>
<polygon fill="black" stroke="black" stroke-width="0.75" points="1851.12,-493.93 1850.03,-483.39 1844.31,-492.3 1851.12,-493.93"/>
<text text-anchor="middle" x="1648.27" y="-877.16" font-family="Times,serif" font-size="14.00">0.01 kg</text>
</g>
<!-- market for water, ultrapure -->
<g id="node3" class="node">
<title>market for water, ultrapure</title>
<ellipse fill="none" stroke="black" cx="272.33" cy="-843.36" rx="138.38" ry="18"/>
<text text-anchor="middle" x="272.33" y="-839.66" font-family="Times,serif" font-size="14.00">market for water, ultrapure</text>
</g>
<!-- Ultrapure water -->
<g id="node4" class="node">
<title>Ultrapure water</title>
<ellipse fill="none" stroke="black" cx="1122.46" cy="-843.36" rx="86.38" ry="18"/>
<text text-anchor="middle" x="1122.46" y="-839.66" font-family="Times,serif" font-size="14.00">Ultrapure water</text>
</g>
<!-- market for water, ultrapure&#45;&gt;Ultrapure water -->
<g id="edge2" class="edge">
<title>market for water, ultrapure&#45;&gt;Ultrapure water</title>
<path fill="none" stroke="black" stroke-width="1.48" d="M411.01,-843.36C583.78,-843.36 875.59,-843.36 1025.8,-843.36"/>
<polygon fill="black" stroke="black" stroke-width="1.48" points="1025.92,-846.86 1035.92,-843.36 1025.92,-839.86 1025.92,-846.86"/>
<text text-anchor="middle" x="596.65" y="-847.16" font-family="Times,serif" font-size="14.00">25.30 kg</text>
</g>
<!-- Ultrapure water&#45;&gt;Succinic acid production (corn) -->
<g id="edge10" class="edge">
<title>Ultrapure water&#45;&gt;Succinic acid production (corn)</title>
<path fill="none" stroke="black" stroke-width="1.48" d="M1206.08,-848.18C1301.62,-851.57 1462.87,-850.56 1596.27,-816.36 1637.28,-805.85 1651.43,-804.38 1682.27,-775.36 1770.82,-692.04 1824.97,-552.61 1845.06,-493.36"/>
<polygon fill="black" stroke="black" stroke-width="1.48" points="1848.48,-494.18 1848.31,-483.59 1841.83,-491.97 1848.48,-494.18"/>
<text text-anchor="middle" x="1648.27" y="-814.16" font-family="Times,serif" font-size="14.00">25.30 kg</text>
</g>
<!-- market for sweet sorghum grain -->
<g id="node5" class="node">
<title>market for sweet sorghum grain</title>
<ellipse fill="none" stroke="black" cx="272.33" cy="-789.36" rx="161.37" ry="18"/>
<text text-anchor="middle" x="272.33" y="-785.66" font-family="Times,serif" font-size="14.00">market for sweet sorghum grain</text>
</g>
<!-- Sorghum grains -->
<g id="node6" class="node">
<title>Sorghum grains</title>
<ellipse fill="none" stroke="black" cx="1122.46" cy="-789.36" rx="85.29" ry="18"/>
<text text-anchor="middle" x="1122.46" y="-785.66" font-family="Times,serif" font-size="14.00">Sorghum grains</text>
</g>
<!-- market for sweet sorghum grain&#45;&gt;Sorghum grains -->
<g id="edge3" class="edge">
<title>market for sweet sorghum grain&#45;&gt;Sorghum grains</title>
<path fill="none" stroke="black" stroke-width="1.15" d="M433.85,-789.36C609.02,-789.36 883.57,-789.36 1027.01,-789.36"/>
<polygon fill="black" stroke="black" stroke-width="1.15" points="1027.11,-792.86 1037.11,-789.36 1027.11,-785.86 1027.11,-792.86"/>
<text text-anchor="middle" x="596.65" y="-793.16" font-family="Times,serif" font-size="14.00">1.66 kg</text>
</g>
<!-- Sorghum grains&#45;&gt;Succinic acid production (corn) -->
<g id="edge7" class="edge">
<title>Sorghum grains&#45;&gt;Succinic acid production (corn)</title>
<path fill="none" stroke="black" stroke-width="1.15" d="M1204.8,-794.13C1300.18,-797.58 1462.27,-796.72 1596.27,-762.36 1637.28,-751.85 1650.22,-749.04 1682.27,-721.36 1760.07,-654.16 1817.79,-543.64 1841.75,-492.68"/>
<polygon fill="black" stroke="black" stroke-width="1.15" points="1844.93,-494.14 1845.96,-483.59 1838.58,-491.19 1844.93,-494.14"/>
<text text-anchor="middle" x="1648.27" y="-760.16" font-family="Times,serif" font-size="14.00">1.66 kg</text>
</g>
<!-- market group for heat, district or industrial, natural gas -->
<g id="node7" class="node">
<title>market group for heat, district or industrial, natural gas</title>
<ellipse fill="none" stroke="black" cx="272.33" cy="-735.36" rx="272.15" ry="18"/>
<text text-anchor="middle" x="272.33" y="-731.66" font-family="Times,serif" font-size="14.00">market group for heat, district or industrial, natural gas</text>
</g>
<!-- Natural gas for steam -->
<g id="node8" class="node">
<title>Natural gas for steam</title>
<ellipse fill="none" stroke="black" cx="1122.46" cy="-735.36" rx="112.38" ry="18"/>
<text text-anchor="middle" x="1122.46" y="-731.66" font-family="Times,serif" font-size="14.00">Natural gas for steam</text>
</g>
<!-- market group for heat, district or industrial, natural gas&#45;&gt;Natural gas for steam -->
<g id="edge4" class="edge">
<title>market group for heat, district or industrial, natural gas&#45;&gt;Natural gas for steam</title>
<path fill="none" stroke="black" stroke-width="1.41" d="M544.89,-735.36C697.92,-735.36 881.52,-735.36 999.76,-735.36"/>
<polygon fill="black" stroke="black" stroke-width="1.41" points="999.93,-738.86 1009.93,-735.36 999.93,-731.86 999.93,-738.86"/>
<text text-anchor="middle" x="596.65" y="-739.16" font-family="Times,serif" font-size="14.00">14.77 mj</text>
</g>
<!-- Natural gas for steam&#45;&gt;Succinic acid production (corn) -->
<g id="edge12" class="edge">
<title>Natural gas for steam&#45;&gt;Succinic acid production (corn)</title>
<path fill="none" stroke="black" stroke-width="1.41" d="M1228.67,-741.39C1325.77,-744.15 1473.12,-741.17 1596.27,-708.36 1713.91,-677.03 1803.71,-548.83 1838.37,-492.32"/>
<polygon fill="black" stroke="black" stroke-width="1.41" points="1841.48,-493.95 1843.64,-483.58 1835.48,-490.34 1841.48,-493.95"/>
<text text-anchor="middle" x="1648.27" y="-706.16" font-family="Times,serif" font-size="14.00">14.77 mj</text>
</g>
<!-- market for ammonia, anhydrous, liquid -->
<g id="node9" class="node">
<title>market for ammonia, anhydrous, liquid</title>
<ellipse fill="none" stroke="black" cx="272.33" cy="-681.36" rx="192.27" ry="18"/>
<text text-anchor="middle" x="272.33" y="-677.66" font-family="Times,serif" font-size="14.00">market for ammonia, anhydrous, liquid</text>
</g>
<!-- Ammonia liquid -->
<g id="node10" class="node">
<title>Ammonia liquid</title>
<ellipse fill="none" stroke="black" cx="1122.46" cy="-681.36" rx="83.39" ry="18"/>
<text text-anchor="middle" x="1122.46" y="-677.66" font-family="Times,serif" font-size="14.00">Ammonia liquid</text>
</g>
<!-- market for ammonia, anhydrous, liquid&#45;&gt;Ammonia liquid -->
<g id="edge5" class="edge">
<title>market for ammonia, anhydrous, liquid&#45;&gt;Ammonia liquid</title>
<path fill="none" stroke="black" stroke-width="1.01" d="M464.72,-681.36C640.66,-681.36 894,-681.36 1028.82,-681.36"/>
<polygon fill="black" stroke="black" stroke-width="1.01" points="1029.11,-684.86 1039.11,-681.36 1029.11,-677.86 1029.11,-684.86"/>
<text text-anchor="middle" x="596.65" y="-685.16" font-family="Times,serif" font-size="14.00">0.41 kg</text>
</g>
<!-- Ammonia liquid&#45;&gt;Succinic acid production (corn) -->
<g id="edge13" class="edge">
<title>Ammonia liquid&#45;&gt;Succinic acid production (corn)</title>
<path fill="none" stroke="black" stroke-width="1.01" d="M1203.11,-686.07C1298.25,-689.58 1461.47,-688.92 1596.27,-654.36 1698.68,-628.11 1791.41,-536.22 1832.12,-490.95"/>
<polygon fill="black" stroke="black" stroke-width="1.01" points="1834.87,-493.13 1838.88,-483.33 1829.63,-488.49 1834.87,-493.13"/>
<text text-anchor="middle" x="1648.27" y="-650.16" font-family="Times,serif" font-size="14.00">0.41 kg</text>
</g>
<!-- market for ammonium sulfate -->
<g id="node11" class="node">
<title>market for ammonium sulfate</title>
<ellipse fill="none" stroke="black" cx="1122.46" cy="-627.36" rx="149.47" ry="18"/>
<text text-anchor="middle" x="1122.46" y="-623.66" font-family="Times,serif" font-size="14.00">market for ammonium sulfate</text>
</g>
<!-- market for ammonium sulfate&#45;&gt;Succinic acid production (corn) -->
<g id="edge6" class="edge">
<title>market for ammonium sulfate&#45;&gt;Succinic acid production (corn)</title>
<path fill="none" stroke="black" d="M1264.42,-633.08C1359.53,-633.61 1487.12,-627.79 1596.27,-600.36 1637.15,-590.09 1644.69,-579.47 1682.27,-560.36 1728.4,-536.91 1780.24,-507.83 1814.77,-488.07"/>
<polygon fill="black" stroke="black" points="1816.67,-491.02 1823.6,-483.01 1813.18,-484.95 1816.67,-491.02"/>
<text text-anchor="middle" x="1648.27" y="-598.16" font-family="Times,serif" font-size="14.00">&#45;2.72 kg</text>
</g>
<!-- process water -->
<g id="node13" class="node">
<title>process water</title>
<ellipse fill="none" stroke="black" cx="1122.46" cy="-573.36" rx="76.09" ry="18"/>
<text text-anchor="middle" x="1122.46" y="-569.66" font-family="Times,serif" font-size="14.00">process water</text>
</g>
<!-- process water&#45;&gt;Succinic acid production (corn) -->
<g id="edge9" class="edge">
<title>process water&#45;&gt;Succinic acid production (corn)</title>
<path fill="none" stroke="black" stroke-width="1.13" d="M1198.66,-574.77C1292.51,-575.22 1457.56,-571.72 1596.27,-546.36 1668.86,-533.09 1749.57,-505.53 1800.99,-486.26"/>
<polygon fill="black" stroke="black" stroke-width="1.13" points="1802.44,-489.46 1810.56,-482.65 1799.97,-482.91 1802.44,-489.46"/>
<text text-anchor="middle" x="1648.27" y="-545.16" font-family="Times,serif" font-size="14.00">1.29 m³</text>
</g>
<!-- Electricity -->
<g id="node14" class="node">
<title>Electricity</title>
<ellipse fill="none" stroke="black" cx="1122.46" cy="-519.36" rx="59.29" ry="18"/>
<text text-anchor="middle" x="1122.46" y="-515.66" font-family="Times,serif" font-size="14.00">Electricity</text>
</g>
<!-- Electricity&#45;&gt;Succinic acid production (corn) -->
<g id="edge11" class="edge">
<title>Electricity&#45;&gt;Succinic acid production (corn)</title>
<path fill="none" stroke="black" stroke-width="1.2" d="M1181,-516.74C1270.06,-512.53 1446.64,-503.59 1596.27,-492.36 1634.55,-489.49 1644.08,-488.25 1682.27,-484.36 1698.85,-482.67 1716.33,-480.82 1733.53,-478.96"/>
<polygon fill="black" stroke="black" stroke-width="1.2" points="1734.05,-482.42 1743.62,-477.86 1733.3,-475.46 1734.05,-482.42"/>
<text text-anchor="middle" x="1648.27" y="-495.16" font-family="Times,serif" font-size="14.00">2.67 kWh</text>
</g>
<!-- VOC, volatile organic compounds -->
<g id="node15" class="node">
<title>VOC, volatile organic compounds</title>
<ellipse fill="none" stroke="black" cx="1122.46" cy="-465.36" rx="164.37" ry="18"/>
<text text-anchor="middle" x="1122.46" y="-461.66" font-family="Times,serif" font-size="14.00">VOC, volatile organic compounds</text>
</g>
<!-- VOC, volatile organic compounds&#45;&gt;Succinic acid production (corn) -->
<g id="edge14" class="edge">
<title>VOC, volatile organic compounds&#45;&gt;Succinic acid production (corn)</title>
<path fill="none" stroke="black" stroke-width="0.64" d="M1297.18,-465.36C1419.66,-465.36 1582.22,-465.36 1700.05,-465.36"/>
<polygon fill="black" stroke="black" stroke-width="0.64" points="1296.94,-461.86 1286.94,-465.36 1296.94,-468.86 1296.94,-461.86"/>
<text text-anchor="middle" x="1648.27" y="-469.16" font-family="Times,serif" font-size="14.00">0.00 kg</text>
</g>
<!-- Carbon monoxide, fossil -->
<g id="node16" class="node">
<title>Carbon monoxide, fossil</title>
<ellipse fill="none" stroke="black" cx="1122.46" cy="-411.36" rx="122.38" ry="18"/>
<text text-anchor="middle" x="1122.46" y="-407.66" font-family="Times,serif" font-size="14.00">Carbon monoxide, fossil</text>
</g>
<!-- Carbon monoxide, fossil&#45;&gt;Succinic acid production (corn) -->
<g id="edge15" class="edge">
<title>Carbon monoxide, fossil&#45;&gt;Succinic acid production (corn)</title>
<path fill="none" stroke="black" stroke-width="0.76" d="M1249.41,-417.33C1344.71,-422.14 1478.8,-429.55 1596.27,-438.36 1634.55,-441.24 1644.08,-442.47 1682.27,-446.36 1702.11,-448.38 1723.22,-450.64 1743.62,-452.86"/>
<polygon fill="black" stroke="black" stroke-width="0.76" points="1249.31,-413.82 1239.15,-416.81 1248.96,-420.81 1249.31,-413.82"/>
<text text-anchor="middle" x="1648.27" y="-450.16" font-family="Times,serif" font-size="14.00">0.01 kg</text>
</g>
<!-- Particulate Matter, &gt; 10 um -->
<g id="node17" class="node">
<title>Particulate Matter, &gt; 10 um</title>
<ellipse fill="none" stroke="black" cx="1122.46" cy="-357.36" rx="141.88" ry="18"/>
<text text-anchor="middle" x="1122.46" y="-353.66" font-family="Times,serif" font-size="14.00">Particulate Matter, &gt; 10 um</text>
</g>
<!-- Particulate Matter, &gt; 10 um&#45;&gt;Succinic acid production (corn) -->
<g id="edge16" class="edge">
<title>Particulate Matter, &gt; 10 um&#45;&gt;Succinic acid production (corn)</title>
<path fill="none" stroke="black" stroke-width="0.69" d="M1274.02,-356.5C1367.47,-358.3 1489.65,-364.87 1596.27,-384.36 1673.54,-398.49 1760.01,-428.81 1810.56,-448.08"/>
<polygon fill="black" stroke="black" stroke-width="0.69" points="1273.98,-353 1263.92,-356.32 1273.86,-360 1273.98,-353"/>
<text text-anchor="middle" x="1648.27" y="-407.16" font-family="Times,serif" font-size="14.00">0.01 kg</text>
</g>
<!-- Ammonia -->
<g id="node18" class="node">
<title>Ammonia</title>
<ellipse fill="none" stroke="black" cx="1122.46" cy="-303.36" rx="53.89" ry="18"/>
<text text-anchor="middle" x="1122.46" y="-299.66" font-family="Times,serif" font-size="14.00">Ammonia</text>
</g>
<!-- Ammonia&#45;&gt;Succinic acid production (corn) -->
<g id="edge17" class="edge">
<title>Ammonia&#45;&gt;Succinic acid production (corn)</title>
<path fill="none" stroke="black" stroke-width="0.6" d="M1185.69,-299.56C1277.18,-295.6 1452.69,-294.28 1596.27,-330.36 1637.15,-340.64 1644.69,-351.26 1682.27,-370.36 1732.52,-395.91 1789.55,-428.13 1823.6,-447.72"/>
<polygon fill="black" stroke="black" stroke-width="0.6" points="1185.32,-296.07 1175.49,-300.02 1185.64,-303.06 1185.32,-296.07"/>
<text text-anchor="middle" x="1648.27" y="-374.16" font-family="Times,serif" font-size="14.00">0.00 kg</text>
</g>
<!-- Lead -->
<g id="node19" class="node">
<title>Lead</title>
<ellipse fill="none" stroke="black" cx="1122.46" cy="-249.36" rx="33.29" ry="18"/>
<text text-anchor="middle" x="1122.46" y="-245.66" font-family="Times,serif" font-size="14.00">Lead</text>
</g>
<!-- Lead&#45;&gt;Succinic acid production (corn) -->
<g id="edge18" class="edge">
<title>Lead&#45;&gt;Succinic acid production (corn)</title>
<path fill="none" stroke="black" stroke-width="0.52" d="M1165.47,-246.41C1249.05,-241.69 1441.41,-236.66 1596.27,-276.36 1704.83,-304.19 1802.51,-405.78 1838.88,-447.4"/>
<polygon fill="black" stroke="black" stroke-width="0.52" points="1165.14,-242.92 1155.36,-247.01 1165.55,-249.91 1165.14,-242.92"/>
<text text-anchor="middle" x="1648.27" y="-314.16" font-family="Times,serif" font-size="14.00">0.00 kg</text>
</g>
<!-- Sulfuric acid -->
<g id="node20" class="node">
<title>Sulfuric acid</title>
<ellipse fill="none" stroke="black" cx="1122.46" cy="-195.36" rx="69.59" ry="18"/>
<text text-anchor="middle" x="1122.46" y="-191.66" font-family="Times,serif" font-size="14.00">Sulfuric acid</text>
</g>
<!-- Sulfuric acid&#45;&gt;Succinic acid production (corn) -->
<g id="edge19" class="edge">
<title>Sulfuric acid&#45;&gt;Succinic acid production (corn)</title>
<path fill="none" stroke="black" stroke-width="0.49" d="M1199.86,-190.37C1294.59,-186.28 1460.21,-186.12 1596.27,-222.36 1720.45,-255.45 1813.62,-396.47 1843.64,-447.14"/>
<polygon fill="black" stroke="black" stroke-width="0.49" points="1199.62,-186.87 1189.79,-190.83 1199.94,-193.86 1199.62,-186.87"/>
<text text-anchor="middle" x="1648.27" y="-267.16" font-family="Times,serif" font-size="14.00">0.00 kg</text>
</g>
<!-- treatment of sewage sludge, 75% water, WWT, WW from particle board production, sanitary landfill -->
<g id="node21" class="node">
<title>treatment of sewage sludge, 75% water, WWT, WW from particle board production, sanitary landfill</title>
<ellipse fill="none" stroke="black" cx="1122.46" cy="-141.36" rx="473.62" ry="18"/>
<text text-anchor="middle" x="1122.46" y="-137.66" font-family="Times,serif" font-size="14.00">treatment of sewage sludge, 75% water, WWT, WW from particle board production, sanitary landfill</text>
</g>
<!-- treatment of sewage sludge, 75% water, WWT, WW from particle board production, sanitary landfill&#45;&gt;Succinic acid production (corn) -->
<g id="edge20" class="edge">
<title>treatment of sewage sludge, 75% water, WWT, WW from particle board production, sanitary landfill&#45;&gt;Succinic acid production (corn)</title>
<path fill="none" stroke="black" stroke-width="0.74" d="M1513.32,-151.55C1541.59,-155.97 1569.49,-161.5 1596.27,-168.36 1637.28,-178.88 1650.22,-181.68 1682.27,-209.36 1760.07,-276.57 1817.79,-387.08 1841.75,-438.05"/>
<polygon fill="black" stroke="black" stroke-width="0.74" points="1838.58,-439.53 1845.96,-447.14 1844.93,-436.59 1838.58,-439.53"/>
<text text-anchor="middle" x="1648.27" y="-213.16" font-family="Times,serif" font-size="14.00">0.01 m³</text>
</g>
<!-- treatment of inert waste, sanitary landfill -->
<g id="node22" class="node">
<title>treatment of inert waste, sanitary landfill</title>
<ellipse fill="none" stroke="black" cx="1122.46" cy="-87.36" rx="203.36" ry="18"/>
<text text-anchor="middle" x="1122.46" y="-83.66" font-family="Times,serif" font-size="14.00">treatment of inert waste, sanitary landfill</text>
</g>
<!-- treatment of inert waste, sanitary landfill&#45;&gt;Succinic acid production (corn) -->
<g id="edge21" class="edge">
<title>treatment of inert waste, sanitary landfill&#45;&gt;Succinic acid production (corn)</title>
<path fill="none" stroke="black" stroke-width="1.08" d="M1315.26,-81.6C1402.24,-83.22 1505.67,-91.14 1596.27,-114.36 1637.28,-124.88 1651.43,-126.35 1682.27,-155.36 1770.82,-238.68 1824.97,-378.11 1845.06,-437.36"/>
<polygon fill="black" stroke="black" stroke-width="1.08" points="1841.83,-438.75 1848.31,-447.14 1848.48,-436.54 1841.83,-438.75"/>
<text text-anchor="middle" x="1648.27" y="-159.16" font-family="Times,serif" font-size="14.00">0.82 kg</text>
</g>
<!-- treatment of biowaste by anaerobic digestion -->
<g id="node23" class="node">
<title>treatment of biowaste by anaerobic digestion</title>
<ellipse fill="none" stroke="black" cx="1122.46" cy="-33.36" rx="221.76" ry="18"/>
<text text-anchor="middle" x="1122.46" y="-29.66" font-family="Times,serif" font-size="14.00">treatment of biowaste by anaerobic digestion</text>
</g>
<!-- treatment of biowaste by anaerobic digestion&#45;&gt;Succinic acid production (corn) -->
<g id="edge22" class="edge">
<title>treatment of biowaste by anaerobic digestion&#45;&gt;Succinic acid production (corn)</title>
<path fill="none" stroke="black" stroke-width="1.01" d="M1200.11,-16.41C1320.94,5.33 1555.03,26.4 1682.27,-101.36 1782.19,-201.7 1831.5,-371.29 1847.71,-437.61"/>
<polygon fill="black" stroke="black" stroke-width="1.01" points="1844.31,-438.42 1850.03,-447.34 1851.12,-436.8 1844.31,-438.42"/>
<text text-anchor="middle" x="1648.27" y="-105.16" font-family="Times,serif" font-size="14.00">0.40 kg</text>
</g>
<!-- market group for electricity, medium voltage -->
<g id="node24" class="node">
<title>market group for electricity, medium voltage</title>
<ellipse fill="none" stroke="black" cx="272.33" cy="-519.36" rx="219.06" ry="18"/>
<text text-anchor="middle" x="272.33" y="-515.66" font-family="Times,serif" font-size="14.00">market group for electricity, medium voltage</text>
</g>
<!-- market group for electricity, medium voltage&#45;&gt;Electricity -->
<g id="edge23" class="edge">
<title>market group for electricity, medium voltage&#45;&gt;Electricity</title>
<path fill="none" stroke="black" stroke-width="1.2" d="M491.47,-519.36C676.98,-519.36 931.94,-519.36 1052.7,-519.36"/>
<polygon fill="black" stroke="black" stroke-width="1.2" points="1052.91,-522.86 1062.91,-519.36 1052.91,-515.86 1052.91,-522.86"/>
<text text-anchor="middle" x="596.65" y="-523.16" font-family="Times,serif" font-size="14.00">2.67 kWh</text>
</g>
<!-- market group for tap water -->
<g id="node25" class="node">
<title>market group for tap water</title>
<ellipse fill="none" stroke="black" cx="272.33" cy="-573.36" rx="137.58" ry="18"/>
<text text-anchor="middle" x="272.33" y="-569.66" font-family="Times,serif" font-size="14.00">market group for tap water</text>
</g>
<!-- market group for tap water&#45;&gt;process water -->
<g id="edge24" class="edge">
<title>market group for tap water&#45;&gt;process water</title>
<path fill="none" stroke="black" stroke-width="1.13" d="M410.54,-573.36C587.26,-573.36 889.12,-573.36 1036.06,-573.36"/>
<polygon fill="black" stroke="black" stroke-width="1.13" points="1036.37,-576.86 1046.37,-573.36 1036.36,-569.86 1036.37,-576.86"/>
<text text-anchor="middle" x="596.65" y="-577.16" font-family="Times,serif" font-size="14.00">1.29 m³</text>
</g>
</g>
</svg>
