<?xml version="1.0" encoding="UTF-8" standalone="no"?>
<!DOCTYPE svg PUBLIC "-//W3C//DTD SVG 1.1//EN"
 "http://www.w3.org/Graphics/SVG/1.1/DTD/svg11.dtd">
<!-- Generated by graphviz version 2.43.0 (0)
 -->
<!-- Title: %3 Pages: 1 -->
<svg width="3108pt" height="954pt"
 viewBox="0.00 0.00 3107.67 954.40" xmlns="http://www.w3.org/2000/svg" xmlns:xlink="http://www.w3.org/1999/xlink">
<g id="graph0" class="graph" transform="scale(1 1) rotate(0) translate(7.2 947.2)">
<title>%3</title>
<polygon fill="white" stroke="transparent" points="-7.2,7.2 -7.2,-947.2 3100.47,-947.2 3100.47,7.2 -7.2,7.2"/>
<!-- Water -->
<g id="node1" class="node">
<title>Water</title>
<ellipse fill="none" stroke="black" cx="962.67" cy="-825" rx="38.19" ry="18"/>
<text text-anchor="middle" x="962.67" y="-821.3" font-family="Times,serif" font-size="14.00">Water</text>
</g>
<!-- Purification -->
<g id="node2" class="node">
<title>Purification</title>
<ellipse fill="none" stroke="black" cx="2541.81" cy="-624" rx="64.19" ry="18"/>
<text text-anchor="middle" x="2541.81" y="-620.3" font-family="Times,serif" font-size="14.00">Purification</text>
</g>
<!-- Water&#45;&gt;Purification -->
<g id="edge1" class="edge">
<title>Water&#45;&gt;Purification</title>
<path fill="none" stroke="black" stroke-width="1.6" d="M1001.08,-826.86C1161.4,-834.52 1791.16,-861.58 1985.04,-824 2187.55,-784.74 2218.49,-711.42 2415.72,-651 2435.44,-644.96 2457.3,-639.75 2477.16,-635.56"/>
<polygon fill="black" stroke="black" stroke-width="1.6" points="2477.95,-638.97 2487.04,-633.53 2476.54,-632.12 2477.95,-638.97"/>
<text text-anchor="middle" x="2034.54" y="-823.8" font-family="Times,serif" font-size="14.00">58.60 kg</text>
</g>
<!-- Pre&#45;treatment -->
<g id="node13" class="node">
<title>Pre&#45;treatment</title>
<ellipse fill="none" stroke="black" cx="1667.87" cy="-533" rx="76.89" ry="18"/>
<text text-anchor="middle" x="1667.87" y="-529.3" font-family="Times,serif" font-size="14.00">Pre&#45;treatment</text>
</g>
<!-- Water&#45;&gt;Pre&#45;treatment -->
<g id="edge10" class="edge">
<title>Water&#45;&gt;Pre&#45;treatment</title>
<path fill="none" stroke="black" stroke-width="1.6" d="M997.64,-832.57C1055.57,-843.36 1174.24,-855.97 1246.7,-798 1266.78,-781.93 1246.6,-761.28 1264.7,-743 1287.15,-720.33 1312.68,-744.84 1332.7,-720 1355.15,-692.14 1325.06,-584.96 1350.7,-560 1417.39,-495.08 1533.75,-504.08 1605.18,-517.72"/>
<polygon fill="black" stroke="black" stroke-width="1.6" points="1604.89,-521.23 1615.38,-519.76 1606.26,-514.37 1604.89,-521.23"/>
<text text-anchor="middle" x="1298.7" y="-746.8" font-family="Times,serif" font-size="14.00">58.60 kg</text>
</g>
<!-- Succinic acid production (bread) -->
<g id="node29" class="node">
<title>Succinic acid production (bread)</title>
<ellipse fill="none" stroke="black" cx="2932.09" cy="-651" rx="161.37" ry="18"/>
<text text-anchor="middle" x="2932.09" y="-647.3" font-family="Times,serif" font-size="14.00">Succinic acid production (bread)</text>
</g>
<!-- Purification&#45;&gt;Succinic acid production (bread) -->
<g id="edge28" class="edge">
<title>Purification&#45;&gt;Succinic acid production (bread)</title>
<path fill="none" stroke="black" stroke-width="1.1" d="M2604.33,-628.28C2652.64,-631.64 2721.94,-636.46 2784.3,-640.79"/>
<polygon fill="black" stroke="black" stroke-width="1.1" points="2784.42,-644.31 2794.64,-641.51 2784.91,-637.33 2784.42,-644.31"/>
<text text-anchor="middle" x="2719.4" y="-641.8" font-family="Times,serif" font-size="14.00">1.00 p</text>
</g>
<!-- NaCl -->
<g id="node3" class="node">
<title>NaCl</title>
<ellipse fill="none" stroke="black" cx="2200.38" cy="-922" rx="33.6" ry="18"/>
<text text-anchor="middle" x="2200.38" y="-918.3" font-family="Times,serif" font-size="14.00">NaCl</text>
</g>
<!-- NaCl&#45;&gt;Purification -->
<g id="edge2" class="edge">
<title>NaCl&#45;&gt;Purification</title>
<path fill="none" stroke="black" stroke-width="1.41" d="M2232.64,-927.42C2276.59,-933.05 2355.94,-935.56 2397.72,-890 2433.72,-850.75 2380.73,-691.16 2415.72,-651 2428.83,-635.95 2448.14,-628.14 2467.69,-624.34"/>
<polygon fill="black" stroke="black" stroke-width="1.41" points="2468.27,-627.79 2477.58,-622.74 2467.15,-620.88 2468.27,-627.79"/>
<text text-anchor="middle" x="2366.22" y="-926.8" font-family="Times,serif" font-size="14.00">15.00 kg</text>
</g>
<!-- Steam -->
<g id="node4" class="node">
<title>Steam</title>
<ellipse fill="none" stroke="black" cx="962.67" cy="-879" rx="40.09" ry="18"/>
<text text-anchor="middle" x="962.67" y="-875.3" font-family="Times,serif" font-size="14.00">Steam</text>
</g>
<!-- Steam&#45;&gt;Purification -->
<g id="edge3" class="edge">
<title>Steam&#45;&gt;Purification</title>
<path fill="none" stroke="black" stroke-width="1.4" d="M1003.2,-879.37C1174.92,-880.68 1856.96,-882.97 2066.04,-839 2180.76,-814.87 2215.67,-816.42 2316.72,-757 2359.01,-732.13 2367.06,-720.3 2397.72,-682 2407.68,-669.56 2402.84,-660.37 2415.72,-651 2431.03,-639.87 2450,-633.16 2468.5,-629.16"/>
<polygon fill="black" stroke="black" stroke-width="1.4" points="2469.25,-632.58 2478.41,-627.25 2467.93,-625.7 2469.25,-632.58"/>
<text text-anchor="middle" x="2034.54" y="-851.8" font-family="Times,serif" font-size="14.00">13.50 kg</text>
</g>
<!-- Bacterial fermentation -->
<g id="node5" class="node">
<title>Bacterial fermentation</title>
<ellipse fill="none" stroke="black" cx="2200.38" cy="-342" rx="116.18" ry="18"/>
<text text-anchor="middle" x="2200.38" y="-338.3" font-family="Times,serif" font-size="14.00">Bacterial fermentation</text>
</g>
<!-- Steam&#45;&gt;Bacterial fermentation -->
<g id="edge30" class="edge">
<title>Steam&#45;&gt;Bacterial fermentation</title>
<path fill="none" stroke="black" stroke-width="1.4" d="M1002.83,-877.11C1057.68,-874.05 1160.34,-866.79 1246.7,-852 1580.03,-794.89 1666.95,-782.84 1985.04,-668 2022.62,-654.43 2037.99,-657.45 2066.04,-629 2141.25,-552.75 2179.24,-426.21 2193.08,-370.18"/>
<polygon fill="black" stroke="black" stroke-width="1.4" points="2196.53,-370.8 2195.46,-360.26 2189.72,-369.17 2196.53,-370.8"/>
<text text-anchor="middle" x="1667.87" y="-835.8" font-family="Times,serif" font-size="14.00">13.50 kg</text>
</g>
<!-- Steam&#45;&gt;Pre&#45;treatment -->
<g id="edge11" class="edge">
<title>Steam&#45;&gt;Pre&#45;treatment</title>
<path fill="none" stroke="black" stroke-width="1.4" d="M999,-887.27C1057.91,-898.79 1176.63,-912.08 1246.7,-852 1271.41,-830.81 1242.59,-804.9 1264.7,-781 1286.36,-757.58 1312.95,-783.05 1332.7,-758 1360.05,-723.31 1319.37,-591.16 1350.7,-560 1416.88,-494.18 1533.93,-503.66 1605.55,-517.59"/>
<polygon fill="black" stroke="black" stroke-width="1.4" points="1605.27,-521.11 1615.77,-519.67 1606.67,-514.25 1605.27,-521.11"/>
<text text-anchor="middle" x="1298.7" y="-784.8" font-family="Times,serif" font-size="14.00">13.50 kg</text>
</g>
<!-- Bacterial fermentation&#45;&gt;Purification -->
<g id="edge4" class="edge">
<title>Bacterial fermentation&#45;&gt;Purification</title>
<path fill="none" stroke="black" stroke-width="1.1" d="M2308.55,-348.77C2339.5,-354.81 2371.87,-365.47 2397.72,-384 2473.15,-438.07 2515.76,-545.37 2532.47,-596.14"/>
<polygon fill="black" stroke="black" stroke-width="1.1" points="2529.18,-597.33 2535.56,-605.79 2535.84,-595.2 2529.18,-597.33"/>
<text text-anchor="middle" x="2366.22" y="-387.8" font-family="Times,serif" font-size="14.00">1.00 p</text>
</g>
<!-- Electricity (bread) -->
<g id="node6" class="node">
<title>Electricity (bread)</title>
<ellipse fill="none" stroke="black" cx="962.67" cy="-339" rx="95.58" ry="18"/>
<text text-anchor="middle" x="962.67" y="-335.3" font-family="Times,serif" font-size="14.00">Electricity (bread)</text>
</g>
<!-- Electricity (bread)&#45;&gt;Purification -->
<g id="edge5" class="edge">
<title>Electricity (bread)&#45;&gt;Purification</title>
<path fill="none" stroke="black" stroke-width="1" d="M1050.84,-346.04C1106.87,-350.88 1181.18,-357.88 1246.7,-366 1612.27,-411.29 1705.94,-413.39 2066.04,-491 2222.15,-524.64 2402.87,-579.88 2489.42,-607.38"/>
<polygon fill="black" stroke="black" stroke-width="1" points="2488.41,-610.73 2499,-610.43 2490.54,-604.06 2488.41,-610.73"/>
<text text-anchor="middle" x="2034.54" y="-494.8" font-family="Times,serif" font-size="14.00">0.33 kg</text>
</g>
<!-- Electricity (bread)&#45;&gt;Bacterial fermentation -->
<g id="edge33" class="edge">
<title>Electricity (bread)&#45;&gt;Bacterial fermentation</title>
<path fill="none" stroke="black" stroke-width="1" d="M1058.33,-339.23C1278.6,-339.76 1825.6,-341.09 2073.59,-341.69"/>
<polygon fill="black" stroke="black" stroke-width="1" points="2073.72,-345.19 2083.72,-341.72 2073.73,-338.19 2073.72,-345.19"/>
<text text-anchor="middle" x="1667.87" y="-345.8" font-family="Times,serif" font-size="14.00">0.33 kWh</text>
</g>
<!-- Electricity (bread)&#45;&gt;Pre&#45;treatment -->
<g id="edge13" class="edge">
<title>Electricity (bread)&#45;&gt;Pre&#45;treatment</title>
<path fill="none" stroke="black" stroke-width="1" d="M1057.61,-336.56C1113.92,-337.85 1186.12,-344.47 1246.7,-366 1255.76,-369.22 1256.2,-373.5 1264.7,-378 1273.81,-382.83 1341.1,-409.22 1350.7,-413 1444.06,-449.71 1553.63,-490.87 1616.2,-514.19"/>
<polygon fill="black" stroke="black" stroke-width="1" points="1615.23,-517.57 1625.82,-517.78 1617.67,-511.01 1615.23,-517.57"/>
<text text-anchor="middle" x="1298.7" y="-409.8" font-family="Times,serif" font-size="14.00">0.33 kWh</text>
</g>
<!-- HCL -->
<g id="node7" class="node">
<title>HCL</title>
<ellipse fill="none" stroke="black" cx="2200.38" cy="-153" rx="31.4" ry="18"/>
<text text-anchor="middle" x="2200.38" y="-149.3" font-family="Times,serif" font-size="14.00">HCL</text>
</g>
<!-- HCL&#45;&gt;Purification -->
<g id="edge6" class="edge">
<title>HCL&#45;&gt;Purification</title>
<path fill="none" stroke="black" stroke-width="0.88" d="M2220.23,-167.02C2257.83,-195.74 2343.22,-264.72 2397.72,-338 2461.85,-424.21 2510.79,-543.52 2530.86,-596.62"/>
<polygon fill="black" stroke="black" stroke-width="0.88" points="2527.6,-597.89 2534.38,-606.03 2534.16,-595.44 2527.6,-597.89"/>
<text text-anchor="middle" x="2366.22" y="-341.8" font-family="Times,serif" font-size="14.00">0.08 kg</text>
</g>
<!-- enzymes production -->
<g id="node8" class="node">
<title>enzymes production</title>
<ellipse fill="none" stroke="black" cx="285.32" cy="-663" rx="104.78" ry="18"/>
<text text-anchor="middle" x="285.32" y="-659.3" font-family="Times,serif" font-size="14.00">enzymes production</text>
</g>
<!-- Enzyme -->
<g id="node9" class="node">
<title>Enzyme</title>
<ellipse fill="none" stroke="black" cx="962.67" cy="-663" rx="48.19" ry="18"/>
<text text-anchor="middle" x="962.67" y="-659.3" font-family="Times,serif" font-size="14.00">Enzyme</text>
</g>
<!-- enzymes production&#45;&gt;Enzyme -->
<g id="edge7" class="edge">
<title>enzymes production&#45;&gt;Enzyme</title>
<path fill="none" stroke="black" stroke-width="0.71" d="M390,-663C534.14,-663 790.19,-663 904.18,-663"/>
<polygon fill="black" stroke="black" stroke-width="0.71" points="904.43,-666.5 914.43,-663 904.43,-659.5 904.43,-666.5"/>
<text text-anchor="middle" x="624.65" y="-666.8" font-family="Times,serif" font-size="14.00">0.01 kg</text>
</g>
<!-- Enzyme&#45;&gt;Pre&#45;treatment -->
<g id="edge15" class="edge">
<title>Enzyme&#45;&gt;Pre&#45;treatment</title>
<path fill="none" stroke="black" stroke-width="0.71" d="M1011.02,-662.94C1067.85,-661.86 1165.65,-656.76 1246.7,-636 1251.74,-634.71 1328.97,-602.63 1332.7,-599 1346.37,-585.68 1335.07,-570.96 1350.7,-560 1423.09,-509.21 1528.99,-511.5 1597.93,-520.27"/>
<polygon fill="black" stroke="black" stroke-width="0.71" points="1597.87,-523.79 1608.25,-521.66 1598.81,-516.86 1597.87,-523.79"/>
<text text-anchor="middle" x="1298.7" y="-631.8" font-family="Times,serif" font-size="14.00">0.01 kg</text>
</g>
<!-- market for hydrochloric acid, without water, in 30% solution state -->
<g id="node10" class="node">
<title>market for hydrochloric acid, without water, in 30% solution state</title>
<ellipse fill="none" stroke="black" cx="1667.87" cy="-18" rx="317.34" ry="18"/>
<text text-anchor="middle" x="1667.87" y="-14.3" font-family="Times,serif" font-size="14.00">market for hydrochloric acid, without water, in 30% solution state</text>
</g>
<!-- market for hydrochloric acid, without water, in 30% solution state&#45;&gt;HCL -->
<g id="edge8" class="edge">
<title>market for hydrochloric acid, without water, in 30% solution state&#45;&gt;HCL</title>
<path fill="none" stroke="black" stroke-width="0.88" d="M1805.09,-1.75C1884.05,2.35 1983.8,-1.81 2066.04,-35 2114.83,-54.69 2157.68,-100.36 2180.93,-128.76"/>
<polygon fill="black" stroke="black" stroke-width="0.88" points="2178.24,-131 2187.23,-136.62 2183.71,-126.63 2178.24,-131"/>
<text text-anchor="middle" x="2034.54" y="-38.8" font-family="Times,serif" font-size="14.00">0.08 kg</text>
</g>
<!-- market for light fuel oil -->
<g id="node11" class="node">
<title>market for light fuel oil</title>
<ellipse fill="none" stroke="black" cx="285.32" cy="-609" rx="118.88" ry="18"/>
<text text-anchor="middle" x="285.32" y="-605.3" font-family="Times,serif" font-size="14.00">market for light fuel oil</text>
</g>
<!-- Heating oil -->
<g id="node12" class="node">
<title>Heating oil</title>
<ellipse fill="none" stroke="black" cx="962.67" cy="-609" rx="61.99" ry="18"/>
<text text-anchor="middle" x="962.67" y="-605.3" font-family="Times,serif" font-size="14.00">Heating oil</text>
</g>
<!-- market for light fuel oil&#45;&gt;Heating oil -->
<g id="edge9" class="edge">
<title>market for light fuel oil&#45;&gt;Heating oil</title>
<path fill="none" stroke="black" stroke-width="1.23" d="M404.35,-609C544.74,-609 774.6,-609 890.34,-609"/>
<polygon fill="black" stroke="black" stroke-width="1.23" points="890.5,-612.5 900.5,-609 890.5,-605.5 890.5,-612.5"/>
<text text-anchor="middle" x="624.65" y="-612.8" font-family="Times,serif" font-size="14.00">3.39 kWh</text>
</g>
<!-- Heating oil&#45;&gt;Pre&#45;treatment -->
<g id="edge12" class="edge">
<title>Heating oil&#45;&gt;Pre&#45;treatment</title>
<path fill="none" stroke="black" stroke-width="1.23" d="M1022.97,-605.08C1080.38,-600.87 1169.78,-593.24 1246.7,-582 1285.25,-576.37 1294.79,-574 1332.7,-565 1340.78,-563.08 1342.53,-561.47 1350.7,-560 1428.16,-546.06 1517.62,-539.27 1581.57,-535.99"/>
<polygon fill="black" stroke="black" stroke-width="1.23" points="1581.8,-539.48 1591.61,-535.49 1581.45,-532.49 1581.8,-539.48"/>
<text text-anchor="middle" x="1298.7" y="-583.8" font-family="Times,serif" font-size="14.00">3.39 kg</text>
</g>
<!-- Pre&#45;treatment&#45;&gt;Bacterial fermentation -->
<g id="edge31" class="edge">
<title>Pre&#45;treatment&#45;&gt;Bacterial fermentation</title>
<path fill="none" stroke="black" stroke-width="1.1" d="M1697.75,-516.16C1754.36,-483.9 1884.75,-413.29 2003.04,-376 2032.83,-366.61 2066.04,-359.61 2096.53,-354.49"/>
<polygon fill="black" stroke="black" stroke-width="1.1" points="2097.46,-357.89 2106.77,-352.83 2096.33,-350.98 2097.46,-357.89"/>
<text text-anchor="middle" x="2034.54" y="-379.8" font-family="Times,serif" font-size="14.00">1.00 p</text>
</g>
<!-- CO2 capture -->
<g id="node14" class="node">
<title>CO2 capture</title>
<ellipse fill="none" stroke="black" cx="962.67" cy="-555" rx="69.59" ry="18"/>
<text text-anchor="middle" x="962.67" y="-551.3" font-family="Times,serif" font-size="14.00">CO2 capture</text>
</g>
<!-- CO2 capture&#45;&gt;Pre&#45;treatment -->
<g id="edge14" class="edge">
<title>CO2 capture&#45;&gt;Pre&#45;treatment</title>
<path fill="none" stroke="black" stroke-width="0.89" d="M1031.74,-552.87C1160.61,-548.84 1439.97,-540.1 1581.3,-535.68"/>
<polygon fill="black" stroke="black" stroke-width="0.89" points="1581.76,-539.16 1591.64,-535.35 1581.54,-532.17 1581.76,-539.16"/>
<text text-anchor="middle" x="1298.7" y="-549.8" font-family="Times,serif" font-size="14.00">0.10 kWh</text>
</g>
<!-- Methane, fossil -->
<g id="node15" class="node">
<title>Methane, fossil</title>
<ellipse fill="none" stroke="black" cx="962.67" cy="-447" rx="81.79" ry="18"/>
<text text-anchor="middle" x="962.67" y="-443.3" font-family="Times,serif" font-size="14.00">Methane, fossil</text>
</g>
<!-- Methane, fossil&#45;&gt;Pre&#45;treatment -->
<g id="edge16" class="edge">
<title>Methane, fossil&#45;&gt;Pre&#45;treatment</title>
<path fill="none" stroke="black" stroke-width="0.67" d="M1049.71,-454.21C1105.86,-459.16 1180.71,-466.22 1246.7,-474 1373.44,-488.94 1521.08,-510.68 1603.28,-523.17"/>
<polygon fill="black" stroke="black" stroke-width="0.67" points="1049.72,-450.7 1039.45,-453.31 1049.11,-457.67 1049.72,-450.7"/>
<text text-anchor="middle" x="1298.7" y="-488.8" font-family="Times,serif" font-size="14.00">0.00 kg</text>
</g>
<!-- Methane, non&#45;fossil -->
<g id="node16" class="node">
<title>Methane, non&#45;fossil</title>
<ellipse fill="none" stroke="black" cx="962.67" cy="-393" rx="102.08" ry="18"/>
<text text-anchor="middle" x="962.67" y="-389.3" font-family="Times,serif" font-size="14.00">Methane, non&#45;fossil</text>
</g>
<!-- Methane, non&#45;fossil&#45;&gt;Pre&#45;treatment -->
<g id="edge17" class="edge">
<title>Methane, non&#45;fossil&#45;&gt;Pre&#45;treatment</title>
<path fill="none" stroke="black" stroke-width="0.46" d="M1070.64,-398.96C1123.85,-403 1188.98,-409.56 1246.7,-420 1385.89,-445.17 1546.26,-493.98 1622.35,-518.37"/>
<polygon fill="black" stroke="black" stroke-width="0.46" points="1070.74,-395.45 1060.51,-398.21 1070.22,-402.44 1070.74,-395.45"/>
<text text-anchor="middle" x="1298.7" y="-440.8" font-family="Times,serif" font-size="14.00">0.00 kg</text>
</g>
<!-- Arsenic ion -->
<g id="node17" class="node">
<title>Arsenic ion</title>
<ellipse fill="none" stroke="black" cx="962.67" cy="-771" rx="62.29" ry="18"/>
<text text-anchor="middle" x="962.67" y="-767.3" font-family="Times,serif" font-size="14.00">Arsenic ion</text>
</g>
<!-- Arsenic ion&#45;&gt;Pre&#45;treatment -->
<g id="edge18" class="edge">
<title>Arsenic ion&#45;&gt;Pre&#45;treatment</title>
<path fill="none" stroke="black" stroke-width="0.33" d="M1025.94,-781.72C1087.72,-788.8 1182.24,-789.7 1246.7,-744 1262.27,-732.96 1250.5,-717.76 1264.7,-705 1288.42,-683.67 1312.25,-706.49 1332.7,-682 1367.82,-639.92 1310.77,-597.55 1350.7,-560 1421.53,-493.38 1544.98,-505.79 1614.83,-519.92"/>
<polygon fill="black" stroke="black" stroke-width="0.33" points="1026.3,-778.23 1015.94,-780.48 1025.44,-785.18 1026.3,-778.23"/>
<text text-anchor="middle" x="1298.7" y="-708.8" font-family="Times,serif" font-size="14.00">0.00 kg</text>
</g>
<!-- PAH, polycyclic aromatic hydrocarbons -->
<g id="node18" class="node">
<title>PAH, polycyclic aromatic hydrocarbons</title>
<ellipse fill="none" stroke="black" cx="962.67" cy="-717" rx="191.97" ry="18"/>
<text text-anchor="middle" x="962.67" y="-713.3" font-family="Times,serif" font-size="14.00">PAH, polycyclic aromatic hydrocarbons</text>
</g>
<!-- PAH, polycyclic aromatic hydrocarbons&#45;&gt;Pre&#45;treatment -->
<g id="edge19" class="edge">
<title>PAH, polycyclic aromatic hydrocarbons&#45;&gt;Pre&#45;treatment</title>
<path fill="none" stroke="black" stroke-width="0.33" d="M1160.71,-718.94C1190.74,-713.46 1220.44,-704.38 1246.7,-690 1258.08,-683.77 1254.11,-674.5 1264.7,-667 1290.73,-648.55 1311.47,-667.82 1332.7,-644 1358.1,-615.49 1322.06,-585.25 1350.7,-560 1423.02,-496.25 1544.21,-507.04 1613.66,-520.25"/>
<polygon fill="black" stroke="black" stroke-width="0.33" points="1159.79,-715.55 1150.51,-720.67 1160.96,-722.45 1159.79,-715.55"/>
<text text-anchor="middle" x="1298.7" y="-670.8" font-family="Times,serif" font-size="14.00">0.00 kg</text>
</g>
<!-- Chromium VI -->
<g id="node19" class="node">
<title>Chromium VI</title>
<ellipse fill="none" stroke="black" cx="962.67" cy="-501" rx="72.29" ry="18"/>
<text text-anchor="middle" x="962.67" y="-497.3" font-family="Times,serif" font-size="14.00">Chromium VI</text>
</g>
<!-- Chromium VI&#45;&gt;Pre&#45;treatment -->
<g id="edge20" class="edge">
<title>Chromium VI&#45;&gt;Pre&#45;treatment</title>
<path fill="none" stroke="black" stroke-width="0.29" d="M1044.04,-504.66C1181.39,-510.91 1459.35,-523.56 1592.5,-529.62"/>
<polygon fill="black" stroke="black" stroke-width="0.29" points="1044.14,-501.16 1033.99,-504.2 1043.82,-508.15 1044.14,-501.16"/>
<text text-anchor="middle" x="1298.7" y="-520.8" font-family="Times,serif" font-size="14.00">0.00 kg</text>
</g>
<!-- market for carbon dioxide, liquid -->
<g id="node20" class="node">
<title>market for carbon dioxide, liquid</title>
<ellipse fill="none" stroke="black" cx="285.32" cy="-555" rx="163.27" ry="18"/>
<text text-anchor="middle" x="285.32" y="-551.3" font-family="Times,serif" font-size="14.00">market for carbon dioxide, liquid</text>
</g>
<!-- market for carbon dioxide, liquid&#45;&gt;CO2 capture -->
<g id="edge21" class="edge">
<title>market for carbon dioxide, liquid&#45;&gt;CO2 capture</title>
<path fill="none" stroke="black" stroke-width="0.89" d="M448.52,-555C585.81,-555 776.69,-555 882.71,-555"/>
<polygon fill="black" stroke="black" stroke-width="0.89" points="883.01,-558.5 893.01,-555 883.01,-551.5 883.01,-558.5"/>
<text text-anchor="middle" x="624.65" y="-558.8" font-family="Times,serif" font-size="14.00">0.10 kg</text>
</g>
<!-- tap water production, underground water with disinfection -->
<g id="node21" class="node">
<title>tap water production, underground water with disinfection</title>
<ellipse fill="none" stroke="black" cx="285.32" cy="-825" rx="285.15" ry="18"/>
<text text-anchor="middle" x="285.32" y="-821.3" font-family="Times,serif" font-size="14.00">tap water production, underground water with disinfection</text>
</g>
<!-- tap water production, underground water with disinfection&#45;&gt;Water -->
<g id="edge22" class="edge">
<title>tap water production, underground water with disinfection&#45;&gt;Water</title>
<path fill="none" stroke="black" stroke-width="1.71" d="M570.78,-825C701.17,-825 842.42,-825 914.11,-825"/>
<polygon fill="black" stroke="black" stroke-width="1.71" points="914.17,-828.5 924.17,-825 914.17,-821.5 914.17,-828.5"/>
<text text-anchor="middle" x="624.65" y="-828.8" font-family="Times,serif" font-size="14.00">117.00 kg</text>
</g>
<!-- market group for electricity, high voltage -->
<g id="node22" class="node">
<title>market group for electricity, high voltage</title>
<ellipse fill="none" stroke="black" cx="285.32" cy="-339" rx="202.26" ry="18"/>
<text text-anchor="middle" x="285.32" y="-335.3" font-family="Times,serif" font-size="14.00">market group for electricity, high voltage</text>
</g>
<!-- market group for electricity, high voltage&#45;&gt;Electricity (bread) -->
<g id="edge23" class="edge">
<title>market group for electricity, high voltage&#45;&gt;Electricity (bread)</title>
<path fill="none" stroke="black" stroke-width="1.1" d="M487.58,-339C608.85,-339 758.35,-339 856.65,-339"/>
<polygon fill="black" stroke="black" stroke-width="1.1" points="856.89,-342.5 866.89,-339 856.89,-335.5 856.89,-342.5"/>
<text text-anchor="middle" x="624.65" y="-342.8" font-family="Times,serif" font-size="14.00">0.99 kWh</text>
</g>
<!-- market for sodium chloride, powder -->
<g id="node23" class="node">
<title>market for sodium chloride, powder</title>
<ellipse fill="none" stroke="black" cx="1667.87" cy="-922" rx="177.37" ry="18"/>
<text text-anchor="middle" x="1667.87" y="-918.3" font-family="Times,serif" font-size="14.00">market for sodium chloride, powder</text>
</g>
<!-- market for sodium chloride, powder&#45;&gt;NaCl -->
<g id="edge24" class="edge">
<title>market for sodium chloride, powder&#45;&gt;NaCl</title>
<path fill="none" stroke="black" stroke-width="1.41" d="M1845.52,-922C1955.68,-922 2088.86,-922 2156.08,-922"/>
<polygon fill="black" stroke="black" stroke-width="1.41" points="2156.29,-925.5 2166.29,-922 2156.29,-918.5 2156.29,-925.5"/>
<text text-anchor="middle" x="2034.54" y="-925.8" font-family="Times,serif" font-size="14.00">15.00 kg</text>
</g>
<!-- magnesium oxide production -->
<g id="node24" class="node">
<title>magnesium oxide production</title>
<ellipse fill="none" stroke="black" cx="962.67" cy="-285" rx="145.67" ry="18"/>
<text text-anchor="middle" x="962.67" y="-281.3" font-family="Times,serif" font-size="14.00">magnesium oxide production</text>
</g>
<!-- MgCO3 -->
<g id="node25" class="node">
<title>MgCO3</title>
<ellipse fill="none" stroke="black" cx="1667.87" cy="-288" rx="46.29" ry="18"/>
<text text-anchor="middle" x="1667.87" y="-284.3" font-family="Times,serif" font-size="14.00">MgCO3</text>
</g>
<!-- magnesium oxide production&#45;&gt;MgCO3 -->
<g id="edge25" class="edge">
<title>magnesium oxide production&#45;&gt;MgCO3</title>
<path fill="none" stroke="black" stroke-width="0.98" d="M1108.52,-285.62C1264.16,-286.28 1503.63,-287.3 1611.19,-287.76"/>
<polygon fill="black" stroke="black" stroke-width="0.98" points="1611.48,-291.26 1621.49,-287.81 1611.51,-284.26 1611.48,-291.26"/>
<text text-anchor="middle" x="1298.7" y="-290.8" font-family="Times,serif" font-size="14.00">0.27 kg</text>
</g>
<!-- MgCO3&#45;&gt;Bacterial fermentation -->
<g id="edge34" class="edge">
<title>MgCO3&#45;&gt;Bacterial fermentation</title>
<path fill="none" stroke="black" stroke-width="0.98" d="M1714.06,-288.62C1788,-290.14 1939.28,-295.33 2066.04,-313 2086.42,-315.84 2108.31,-320.09 2128.35,-324.47"/>
<polygon fill="black" stroke="black" stroke-width="0.98" points="2127.81,-327.93 2138.33,-326.69 2129.33,-321.1 2127.81,-327.93"/>
<text text-anchor="middle" x="2034.54" y="-316.8" font-family="Times,serif" font-size="14.00">0.27 kg</text>
</g>
<!-- market for steam, in chemical industry -->
<g id="node26" class="node">
<title>market for steam, in chemical industry</title>
<ellipse fill="none" stroke="black" cx="285.32" cy="-879" rx="191.97" ry="18"/>
<text text-anchor="middle" x="285.32" y="-875.3" font-family="Times,serif" font-size="14.00">market for steam, in chemical industry</text>
</g>
<!-- market for steam, in chemical industry&#45;&gt;Steam -->
<g id="edge26" class="edge">
<title>market for steam, in chemical industry&#45;&gt;Steam</title>
<path fill="none" stroke="black" stroke-width="1.55" d="M477.14,-879C625.72,-879 821.41,-879 911.88,-879"/>
<polygon fill="black" stroke="black" stroke-width="1.55" points="912.12,-882.5 922.12,-879 912.12,-875.5 912.12,-882.5"/>
<text text-anchor="middle" x="624.65" y="-882.8" font-family="Times,serif" font-size="14.00">40.50 kg</text>
</g>
<!-- sodium hydroxide to generic market for neutralising agent -->
<g id="node27" class="node">
<title>sodium hydroxide to generic market for neutralising agent</title>
<ellipse fill="none" stroke="black" cx="962.67" cy="-180" rx="284.05" ry="18"/>
<text text-anchor="middle" x="962.67" y="-176.3" font-family="Times,serif" font-size="14.00">sodium hydroxide to generic market for neutralising agent</text>
</g>
<!-- NaOH -->
<g id="node28" class="node">
<title>NaOH</title>
<ellipse fill="none" stroke="black" cx="1667.87" cy="-180" rx="38.99" ry="18"/>
<text text-anchor="middle" x="1667.87" y="-176.3" font-family="Times,serif" font-size="14.00">NaOH</text>
</g>
<!-- sodium hydroxide to generic market for neutralising agent&#45;&gt;NaOH -->
<g id="edge27" class="edge">
<title>sodium hydroxide to generic market for neutralising agent&#45;&gt;NaOH</title>
<path fill="none" stroke="black" stroke-width="0.95" d="M1246.9,-180C1386.83,-180 1541.78,-180 1618.43,-180"/>
<polygon fill="black" stroke="black" stroke-width="0.95" points="1618.72,-183.5 1628.72,-180 1618.72,-176.5 1618.72,-183.5"/>
<text text-anchor="middle" x="1298.7" y="-183.8" font-family="Times,serif" font-size="14.00">0.20 kg</text>
</g>
<!-- NaOH&#45;&gt;Bacterial fermentation -->
<g id="edge35" class="edge">
<title>NaOH&#45;&gt;Bacterial fermentation</title>
<path fill="none" stroke="black" stroke-width="0.95" d="M1707.15,-178.74C1767.44,-177.75 1887.67,-179.85 1985.04,-207 2023.72,-217.78 2031.58,-226.4 2066.04,-247 2102.58,-268.85 2142.01,-297.65 2168.44,-317.79"/>
<polygon fill="black" stroke="black" stroke-width="0.95" points="2166.48,-320.7 2176.55,-324.01 2170.74,-315.15 2166.48,-320.7"/>
<text text-anchor="middle" x="2034.54" y="-250.8" font-family="Times,serif" font-size="14.00">0.20 kg</text>
</g>
<!-- market for soybean meal -->
<g id="node30" class="node">
<title>market for soybean meal</title>
<ellipse fill="none" stroke="black" cx="2541.81" cy="-678" rx="126.18" ry="18"/>
<text text-anchor="middle" x="2541.81" y="-674.3" font-family="Times,serif" font-size="14.00">market for soybean meal</text>
</g>
<!-- market for soybean meal&#45;&gt;Succinic acid production (bread) -->
<g id="edge29" class="edge">
<title>market for soybean meal&#45;&gt;Succinic acid production (bread)</title>
<path fill="none" stroke="black" d="M2655.38,-670.17C2695.7,-667.37 2741.76,-664.17 2784.54,-661.19"/>
<polygon fill="black" stroke="black" points="2785.03,-664.67 2794.76,-660.48 2784.54,-657.68 2785.03,-664.67"/>
<text text-anchor="middle" x="2719.4" y="-670.8" font-family="Times,serif" font-size="14.00">&#45;10.60 kg</text>
</g>
<!-- Carbon dioxide, fossil -->
<g id="node31" class="node">
<title>Carbon dioxide, fossil</title>
<ellipse fill="none" stroke="black" cx="1667.87" cy="-234" rx="111.28" ry="18"/>
<text text-anchor="middle" x="1667.87" y="-230.3" font-family="Times,serif" font-size="14.00">Carbon dioxide, fossil</text>
</g>
<!-- Carbon dioxide, fossil&#45;&gt;Bacterial fermentation -->
<g id="edge32" class="edge">
<title>Carbon dioxide, fossil&#45;&gt;Bacterial fermentation</title>
<path fill="none" stroke="black" stroke-width="1.07" d="M1787.92,-237.51C1847.58,-240.95 1920.65,-247.71 1985.04,-261 2022.21,-268.67 2030.44,-274.87 2066.04,-288 2097.68,-299.67 2133.03,-314.04 2159.38,-325.03"/>
<polygon fill="black" stroke="black" stroke-width="1.07" points="1787.88,-234 1777.7,-236.95 1787.5,-240.99 1787.88,-234"/>
<text text-anchor="middle" x="2034.54" y="-291.8" font-family="Times,serif" font-size="14.00">0.72 kg</text>
</g>
<!-- Carbon dioxide, non&#45;fossil -->
<g id="node32" class="node">
<title>Carbon dioxide, non&#45;fossil</title>
<ellipse fill="none" stroke="black" cx="1667.87" cy="-126" rx="131.08" ry="18"/>
<text text-anchor="middle" x="1667.87" y="-122.3" font-family="Times,serif" font-size="14.00">Carbon dioxide, non&#45;fossil</text>
</g>
<!-- Carbon dioxide, non&#45;fossil&#45;&gt;Bacterial fermentation -->
<g id="edge36" class="edge">
<title>Carbon dioxide, non&#45;fossil&#45;&gt;Bacterial fermentation</title>
<path fill="none" stroke="black" stroke-width="0.82" d="M1809.6,-126.51C1865.12,-129.68 1928.92,-137.05 1985.04,-153 2023.85,-164.03 2034,-169.48 2066.04,-194 2117.41,-233.29 2164.88,-294.15 2186.74,-324.1"/>
<polygon fill="black" stroke="black" stroke-width="0.82" points="1809.51,-123 1799.33,-125.97 1809.14,-129.99 1809.51,-123"/>
<text text-anchor="middle" x="2034.54" y="-197.8" font-family="Times,serif" font-size="14.00">0.04 kg</text>
</g>
<!-- Sulfur dioxide -->
<g id="node33" class="node">
<title>Sulfur dioxide</title>
<ellipse fill="none" stroke="black" cx="1667.87" cy="-72" rx="76.09" ry="18"/>
<text text-anchor="middle" x="1667.87" y="-68.3" font-family="Times,serif" font-size="14.00">Sulfur dioxide</text>
</g>
<!-- Sulfur dioxide&#45;&gt;Bacterial fermentation -->
<g id="edge37" class="edge">
<title>Sulfur dioxide&#45;&gt;Bacterial fermentation</title>
<path fill="none" stroke="black" stroke-width="0.64" d="M1742.06,-61.07C1832,-52.21 1982.87,-52.94 2066.04,-140 2079.51,-154.1 2074.34,-163.09 2084.04,-180 2115.65,-235.1 2161.41,-294.69 2184.64,-323.84"/>
<polygon fill="black" stroke="black" stroke-width="0.64" points="1741.52,-57.61 1731.94,-62.14 1742.26,-64.57 1741.52,-57.61"/>
<text text-anchor="middle" x="2034.54" y="-143.8" font-family="Times,serif" font-size="14.00">0.00 kg</text>
</g>
<!-- Nitrogen oxides -->
<g id="node34" class="node">
<title>Nitrogen oxides</title>
<ellipse fill="none" stroke="black" cx="1667.87" cy="-641" rx="85.29" ry="18"/>
<text text-anchor="middle" x="1667.87" y="-637.3" font-family="Times,serif" font-size="14.00">Nitrogen oxides</text>
</g>
<!-- Nitrogen oxides&#45;&gt;Bacterial fermentation -->
<g id="edge38" class="edge">
<title>Nitrogen oxides&#45;&gt;Bacterial fermentation</title>
<path fill="none" stroke="black" stroke-width="0.64" d="M1752.26,-650.62C1842.18,-656.01 1983.5,-649.18 2066.04,-568 2131.16,-503.95 2176.07,-401.6 2192.48,-360.23"/>
<polygon fill="black" stroke="black" stroke-width="0.64" points="1752.31,-647.12 1742.1,-649.95 1751.85,-654.1 1752.31,-647.12"/>
<text text-anchor="middle" x="2034.54" y="-613.8" font-family="Times,serif" font-size="14.00">0.00 kg</text>
</g>
<!-- Ammonia -->
<g id="node35" class="node">
<title>Ammonia</title>
<ellipse fill="none" stroke="black" cx="1667.87" cy="-587" rx="53.89" ry="18"/>
<text text-anchor="middle" x="1667.87" y="-583.3" font-family="Times,serif" font-size="14.00">Ammonia</text>
</g>
<!-- Ammonia&#45;&gt;Bacterial fermentation -->
<g id="edge39" class="edge">
<title>Ammonia&#45;&gt;Bacterial fermentation</title>
<path fill="none" stroke="black" stroke-width="0.54" d="M1729.23,-593.86C1795.31,-598.71 1902.82,-598.66 1985.04,-560 2082.79,-514.04 2160.57,-403.39 2188.37,-359.95"/>
<polygon fill="black" stroke="black" stroke-width="0.54" points="1729.23,-590.35 1718.99,-593.04 1728.68,-597.33 1729.23,-590.35"/>
<text text-anchor="middle" x="2034.54" y="-552.8" font-family="Times,serif" font-size="14.00">0.00 kg</text>
</g>
</g>
</svg>
