<?xml version="1.0" encoding="UTF-8" standalone="no"?>
<!DOCTYPE svg PUBLIC "-//W3C//DTD SVG 1.1//EN"
 "http://www.w3.org/Graphics/SVG/1.1/DTD/svg11.dtd">
<!-- Generated by graphviz version 2.43.0 (0)
 -->
<!-- Title: %3 Pages: 1 -->
<svg width="1013pt" height="842pt"
 viewBox="0.00 0.00 1013.00 842.00" xmlns="http://www.w3.org/2000/svg" xmlns:xlink="http://www.w3.org/1999/xlink">
<g id="graph0" class="graph" transform="scale(1 1) rotate(0) translate(36 806)">
<title>%3</title>
<polygon fill="white" stroke="transparent" points="-36,36 -36,-806 977,-806 977,36 -36,36"/>
<text text-anchor="middle" x="470.5" y="-742" font-family="Comic Sans MS" font-size="30.00">System model for succinic acid production from bread &#45; </text>
<g id="clust1" class="cluster">
<title>cluster_fg</title>
<polygon fill="none" stroke="black" stroke-width="2" points="8,-8 8,-721 933,-721 933,-8 8,-8"/>
</g>
<!-- market for enzymes -->
<g id="node1" class="node">
<title>market for enzymes</title>
<polygon fill="darkolivegreen" stroke="black" points="551,-691 417,-691 417,-655 551,-655 551,-691"/>
<text text-anchor="middle" x="484" y="-669.3" font-family="Comic Sans MS" font-size="14.00" fill="white">market for enzymes</text>
</g>
<!-- Pre&#45;treatment (bread) -->
<g id="node16" class="node">
<title>Pre&#45;treatment (bread)</title>
<polygon fill="#0a86e5" stroke="black" points="843,-582 697,-582 697,-546 843,-546 843,-582"/>
<text text-anchor="middle" x="770" y="-560.3" font-family="Comic Sans MS" font-size="14.00" fill="white">Pre&#45;treatment (bread)</text>
</g>
<!-- market for enzymes&#45;&gt;Pre&#45;treatment (bread) -->
<g id="edge1" class="edge">
<title>market for enzymes&#45;&gt;Pre&#45;treatment (bread)</title>
<path fill="none" stroke="black" d="M484,-654.59C484,-624.96 484,-570 484,-570 484,-570 686.72,-570 686.72,-570"/>
<polygon fill="white" stroke="black" points="686.72,-573.5 696.72,-570 686.72,-566.5 686.72,-573.5"/>
<text text-anchor="middle" x="524.57" y="-572.2" font-family="Times,serif" font-size="6.00">3.68e&#45;03 kg</text>
</g>
<!-- market group for electricity -->
<g id="node2" class="node">
<title>market group for electricity</title>
<polygon fill="darkolivegreen" stroke="black" points="903,-691 725,-691 725,-655 903,-655 903,-691"/>
<text text-anchor="middle" x="814" y="-669.3" font-family="Comic Sans MS" font-size="14.00" fill="white">market group for electricity</text>
</g>
<!-- Purification (bread) -->
<g id="node15" class="node">
<title>Purification (bread)</title>
<polygon fill="#0a86e5" stroke="black" points="831.5,-220 700.5,-220 700.5,-184 831.5,-184 831.5,-220"/>
<text text-anchor="middle" x="766" y="-198.3" font-family="Comic Sans MS" font-size="14.00" fill="white">Purification (bread)</text>
</g>
<!-- market group for electricity&#45;&gt;Purification (bread) -->
<g id="edge20" class="edge">
<title>market group for electricity&#45;&gt;Purification (bread)</title>
<path fill="none" stroke="black" d="M883,-654.82C883,-568.27 883,-202 883,-202 883,-202 841.68,-202 841.68,-202"/>
<polygon fill="white" stroke="black" points="841.68,-198.5 831.68,-202 841.68,-205.5 841.68,-198.5"/>
<text text-anchor="middle" x="868" y="-409.95" font-family="Times,serif" font-size="6.00">0.18 kWh</text>
</g>
<!-- market group for electricity&#45;&gt;Pre&#45;treatment (bread) -->
<g id="edge2" class="edge">
<title>market group for electricity&#45;&gt;Pre&#45;treatment (bread)</title>
<path fill="none" stroke="black" d="M784,-654.51C784,-654.51 784,-592.22 784,-592.22"/>
<polygon fill="white" stroke="black" points="787.5,-592.22 784,-582.22 780.5,-592.22 787.5,-592.22"/>
<text text-anchor="middle" x="769" y="-625.56" font-family="Times,serif" font-size="6.00">0.18 kWh</text>
</g>
<!-- Bacterial fermentation (bread) -->
<g id="node17" class="node">
<title>Bacterial fermentation (bread)</title>
<polygon fill="#0a86e5" stroke="black" points="843,-401 647,-401 647,-365 843,-365 843,-401"/>
<text text-anchor="middle" x="745" y="-379.3" font-family="Comic Sans MS" font-size="14.00" fill="white">Bacterial fermentation (bread)</text>
</g>
<!-- market group for electricity&#45;&gt;Bacterial fermentation (bread) -->
<g id="edge9" class="edge">
<title>market group for electricity&#45;&gt;Bacterial fermentation (bread)</title>
<path fill="none" stroke="black" d="M863,-654.86C863,-591.37 863,-383 863,-383 863,-383 853.25,-383 853.25,-383"/>
<polygon fill="white" stroke="black" points="853.25,-379.5 843.25,-383 853.25,-386.5 853.25,-379.5"/>
<text text-anchor="middle" x="848" y="-516.25" font-family="Times,serif" font-size="6.00">0.18 kWh</text>
</g>
<!-- market for tap water -->
<g id="node3" class="node">
<title>market for tap water</title>
<polygon fill="darkolivegreen" stroke="black" points="707,-691 569,-691 569,-655 707,-655 707,-691"/>
<text text-anchor="middle" x="638" y="-669.3" font-family="Comic Sans MS" font-size="14.00" fill="white">market for tap water</text>
</g>
<!-- market for tap water&#45;&gt;Purification (bread) -->
<g id="edge18" class="edge">
<title>market for tap water&#45;&gt;Purification (bread)</title>
<path fill="none" stroke="black" d="M604.75,-654.72C604.75,-569.35 604.75,-214 604.75,-214 604.75,-214 690.41,-214 690.41,-214"/>
<polygon fill="white" stroke="black" points="690.41,-217.5 700.41,-214 690.41,-210.5 690.41,-217.5"/>
<text text-anchor="middle" x="590.75" y="-393.73" font-family="Times,serif" font-size="6.00">56.00 kg</text>
</g>
<!-- market for tap water&#45;&gt;Pre&#45;treatment (bread) -->
<g id="edge3" class="edge">
<title>market for tap water&#45;&gt;Pre&#45;treatment (bread)</title>
<path fill="none" stroke="black" d="M702,-654.51C702,-654.51 702,-592.22 702,-592.22"/>
<polygon fill="white" stroke="black" points="705.5,-592.22 702,-582.22 698.5,-592.22 705.5,-592.22"/>
<text text-anchor="middle" x="690" y="-625.56" font-family="Times,serif" font-size="6.00">6.00 kg</text>
</g>
<!-- market for steam -->
<g id="node4" class="node">
<title>market for steam</title>
<polygon fill="darkolivegreen" stroke="black" points="398.5,-691 279.5,-691 279.5,-655 398.5,-655 398.5,-691"/>
<text text-anchor="middle" x="339" y="-669.3" font-family="Comic Sans MS" font-size="14.00" fill="white">market for steam</text>
</g>
<!-- market for steam&#45;&gt;Purification (bread) -->
<g id="edge16" class="edge">
<title>market for steam&#45;&gt;Purification (bread)</title>
<path fill="none" stroke="black" d="M398.86,-673C401.76,-673 403.5,-673 403.5,-673 403.5,-673 403.5,-202 403.5,-202 403.5,-202 690.35,-202 690.35,-202"/>
<polygon fill="white" stroke="black" points="690.35,-205.5 700.35,-202 690.35,-198.5 690.35,-205.5"/>
<text text-anchor="middle" x="397.5" y="-291.59" font-family="Times,serif" font-size="6.00">7.33 kg</text>
</g>
<!-- market for steam&#45;&gt;Pre&#45;treatment (bread) -->
<g id="edge4" class="edge">
<title>market for steam&#45;&gt;Pre&#45;treatment (bread)</title>
<path fill="none" stroke="black" d="M384.83,-654.78C384.83,-622.35 384.83,-558 384.83,-558 384.83,-558 686.65,-558 686.65,-558"/>
<polygon fill="white" stroke="black" points="686.65,-561.5 696.65,-558 686.65,-554.5 686.65,-561.5"/>
<text text-anchor="middle" x="475.35" y="-560.2" font-family="Times,serif" font-size="6.00">7.20 kg</text>
</g>
<!-- market for steam&#45;&gt;Bacterial fermentation (bread) -->
<g id="edge12" class="edge">
<title>market for steam&#45;&gt;Bacterial fermentation (bread)</title>
<path fill="none" stroke="black" d="M377.67,-654.61C377.67,-591.27 377.67,-386 377.67,-386 377.67,-386 636.56,-386 636.56,-386"/>
<polygon fill="white" stroke="black" points="636.56,-389.5 646.56,-386 636.56,-382.5 636.56,-389.5"/>
<text text-anchor="middle" x="365.67" y="-393.06" font-family="Times,serif" font-size="6.00">7.33 kg</text>
</g>
<!-- treatment of biowaste -->
<g id="node5" class="node">
<title>treatment of biowaste</title>
<polygon fill="darkolivegreen" stroke="black" points="181.5,-510 38.5,-510 38.5,-474 181.5,-474 181.5,-510"/>
<text text-anchor="middle" x="110" y="-488.3" font-family="Comic Sans MS" font-size="14.00" fill="white">treatment of biowaste</text>
</g>
<!-- treatment of biowaste&#45;&gt;Bacterial fermentation (bread) -->
<g id="edge6" class="edge">
<title>treatment of biowaste&#45;&gt;Bacterial fermentation (bread)</title>
<path fill="none" stroke="black" d="M110,-473.77C110,-440.2 110,-372 110,-372 110,-372 636.83,-372 636.83,-372"/>
<polygon fill="white" stroke="black" points="636.83,-375.5 646.83,-372 636.83,-368.5 636.83,-375.5"/>
<text text-anchor="middle" x="310.53" y="-374.2" font-family="Times,serif" font-size="6.00">0.50 kg</text>
</g>
<!-- market for neutralising agent -->
<g id="node6" class="node">
<title>market for neutralising agent</title>
<polygon fill="darkolivegreen" stroke="black" points="802.5,-510 613.5,-510 613.5,-474 802.5,-474 802.5,-510"/>
<text text-anchor="middle" x="708" y="-488.3" font-family="Comic Sans MS" font-size="14.00" fill="white">market for neutralising agent</text>
</g>
<!-- market for neutralising agent&#45;&gt;Bacterial fermentation (bread) -->
<g id="edge7" class="edge">
<title>market for neutralising agent&#45;&gt;Bacterial fermentation (bread)</title>
<path fill="none" stroke="black" d="M724.75,-473.51C724.75,-473.51 724.75,-411.22 724.75,-411.22"/>
<polygon fill="white" stroke="black" points="728.25,-411.22 724.75,-401.22 721.25,-411.22 728.25,-411.22"/>
<text text-anchor="middle" x="712.75" y="-444.56" font-family="Times,serif" font-size="6.00">0.11 kg</text>
</g>
<!-- market for magnesium oxide -->
<g id="node7" class="node">
<title>market for magnesium oxide</title>
<polygon fill="darkolivegreen" stroke="black" points="595.5,-510 408.5,-510 408.5,-474 595.5,-474 595.5,-510"/>
<text text-anchor="middle" x="502" y="-488.3" font-family="Comic Sans MS" font-size="14.00" fill="white">market for magnesium oxide</text>
</g>
<!-- market for magnesium oxide&#45;&gt;Bacterial fermentation (bread) -->
<g id="edge8" class="edge">
<title>market for magnesium oxide&#45;&gt;Bacterial fermentation (bread)</title>
<path fill="none" stroke="black" d="M502.75,-473.84C502.75,-445.26 502.75,-393 502.75,-393 502.75,-393 636.82,-393 636.82,-393"/>
<polygon fill="white" stroke="black" points="636.82,-396.5 646.82,-393 636.82,-389.5 636.82,-396.5"/>
<text text-anchor="middle" x="517.36" y="-395.2" font-family="Times,serif" font-size="6.00">0.15 kg</text>
</g>
<!-- market for carbon dioxide -->
<g id="node8" class="node">
<title>market for carbon dioxide</title>
<polygon fill="darkolivegreen" stroke="black" points="370.5,-510 199.5,-510 199.5,-474 370.5,-474 370.5,-510"/>
<text text-anchor="middle" x="285" y="-488.3" font-family="Comic Sans MS" font-size="14.00" fill="white">market for carbon dioxide</text>
</g>
<!-- market for carbon dioxide&#45;&gt;Bacterial fermentation (bread) -->
<g id="edge10" class="edge">
<title>market for carbon dioxide&#45;&gt;Bacterial fermentation (bread)</title>
<path fill="none" stroke="black" d="M292.25,-473.84C292.25,-441.9 292.25,-379 292.25,-379 292.25,-379 636.76,-379 636.76,-379"/>
<polygon fill="white" stroke="black" points="636.76,-382.5 646.76,-379 636.76,-375.5 636.76,-382.5"/>
<text text-anchor="middle" x="402.08" y="-381.2" font-family="Times,serif" font-size="6.00">0.32 kWh</text>
</g>
<!-- market for soybean meal -->
<g id="node9" class="node">
<title>market for soybean meal</title>
<polygon fill="darkolivegreen" stroke="black" points="779.5,-329 614.5,-329 614.5,-293 779.5,-293 779.5,-329"/>
<text text-anchor="middle" x="697" y="-307.3" font-family="Comic Sans MS" font-size="14.00" fill="white">market for soybean meal</text>
</g>
<!-- market for soybean meal&#45;&gt;Purification (bread) -->
<g id="edge13" class="edge">
<title>market for soybean meal&#45;&gt;Purification (bread)</title>
<path fill="none" stroke="#8e0c0c" d="M740,-292.51C740,-292.51 740,-230.22 740,-230.22"/>
<polygon fill="white" stroke="#8e0c0c" points="743.5,-230.22 740,-220.22 736.5,-230.22 743.5,-230.22"/>
<text text-anchor="middle" x="727" y="-263.56" font-family="Times,serif" font-size="6.00">&#45;5.77 kg</text>
</g>
<!-- market for hydrochloric acid -->
<g id="node10" class="node">
<title>market for hydrochloric acid</title>
<polygon fill="darkolivegreen" stroke="black" points="596,-329 410,-329 410,-293 596,-293 596,-329"/>
<text text-anchor="middle" x="503" y="-307.3" font-family="Comic Sans MS" font-size="14.00" fill="white">market for hydrochloric acid</text>
</g>
<!-- market for hydrochloric acid&#45;&gt;Purification (bread) -->
<g id="edge14" class="edge">
<title>market for hydrochloric acid&#45;&gt;Purification (bread)</title>
<path fill="none" stroke="black" d="M503,-292.59C503,-262.96 503,-208 503,-208 503,-208 690.31,-208 690.31,-208"/>
<polygon fill="white" stroke="black" points="690.31,-211.5 700.31,-208 690.31,-204.5 690.31,-211.5"/>
<text text-anchor="middle" x="542.36" y="-210.2" font-family="Times,serif" font-size="6.00">0.04 kg</text>
</g>
<!-- market for sodium chloride -->
<g id="node11" class="node">
<title>market for sodium chloride</title>
<polygon fill="darkolivegreen" stroke="black" points="392,-329 214,-329 214,-293 392,-293 392,-329"/>
<text text-anchor="middle" x="303" y="-307.3" font-family="Comic Sans MS" font-size="14.00" fill="white">market for sodium chloride</text>
</g>
<!-- market for sodium chloride&#45;&gt;Purification (bread) -->
<g id="edge17" class="edge">
<title>market for sodium chloride&#45;&gt;Purification (bread)</title>
<path fill="none" stroke="black" d="M303,-292.78C303,-260.35 303,-196 303,-196 303,-196 690.16,-196 690.16,-196"/>
<polygon fill="white" stroke="black" points="690.16,-199.5 700.16,-196 690.16,-192.5 690.16,-199.5"/>
<text text-anchor="middle" x="436.19" y="-198.2" font-family="Times,serif" font-size="6.00">8.14 kg</text>
</g>
<!-- treatment of wastewater -->
<g id="node12" class="node">
<title>treatment of wastewater</title>
<polygon fill="darkolivegreen" stroke="black" points="195.5,-329 38.5,-329 38.5,-293 195.5,-293 195.5,-329"/>
<text text-anchor="middle" x="117" y="-307.3" font-family="Comic Sans MS" font-size="14.00" fill="white">treatment of wastewater</text>
</g>
<!-- treatment of wastewater&#45;&gt;Purification (bread) -->
<g id="edge19" class="edge">
<title>treatment of wastewater&#45;&gt;Purification (bread)</title>
<path fill="none" stroke="black" d="M117,-292.89C117,-259.13 117,-190 117,-190 117,-190 690.5,-190 690.5,-190"/>
<polygon fill="white" stroke="black" points="690.5,-193.5 700.5,-190 690.5,-186.5 690.5,-193.5"/>
<text text-anchor="middle" x="338.31" y="-192.2" font-family="Times,serif" font-size="6.00">62.00 kg</text>
</g>
<!-- Bread waste -->
<g id="node13" class="node">
<title>Bread waste</title>
<ellipse fill="goldenrod" stroke="#000000" cx="150" cy="-673" rx="57.69" ry="18"/>
<text text-anchor="middle" x="150" y="-669.3" font-family="Comic Sans MS" font-size="14.00" fill="white">Bread waste</text>
</g>
<!-- Succinic acid production (bread) -->
<g id="node14" class="node">
<title>Succinic acid production (bread)</title>
<ellipse fill="#471a87" stroke="green" cx="766" cy="-56" rx="137.28" ry="18"/>
<text text-anchor="middle" x="766" y="-52.3" font-family="Comic Sans MS" font-size="14.00" fill="white">Succinic acid production (bread)</text>
</g>
<!-- Purification (bread)&#45;&gt;Succinic acid production (bread) -->
<g id="edge5" class="edge">
<title>Purification (bread)&#45;&gt;Succinic acid production (bread)</title>
<path fill="none" stroke="black" d="M766,-183.8C766,-183.8 766,-84.43 766,-84.43"/>
<polygon fill="black" stroke="black" points="769.5,-84.43 766,-74.43 762.5,-84.43 769.5,-84.43"/>
<text text-anchor="middle" x="754" y="-136.31" font-family="Times,serif" font-size="6.00">1.00 kg</text>
</g>
<!-- Pre&#45;treatment (bread)&#45;&gt;Bacterial fermentation (bread) -->
<g id="edge11" class="edge">
<title>Pre&#45;treatment (bread)&#45;&gt;Bacterial fermentation (bread)</title>
<path fill="none" stroke="black" d="M822.75,-545.98C822.75,-545.98 822.75,-411.21 822.75,-411.21"/>
<polygon fill="black" stroke="black" points="826.25,-411.21 822.75,-401.21 819.25,-411.21 826.25,-411.21"/>
<text text-anchor="middle" x="834.75" y="-480.8" font-family="Times,serif" font-size="6.00">1.00 kg</text>
</g>
<!-- Bacterial fermentation (bread)&#45;&gt;Purification (bread) -->
<g id="edge15" class="edge">
<title>Bacterial fermentation (bread)&#45;&gt;Purification (bread)</title>
<path fill="none" stroke="black" d="M805.5,-364.98C805.5,-364.98 805.5,-230.21 805.5,-230.21"/>
<polygon fill="black" stroke="black" points="809,-230.21 805.5,-220.21 802,-230.21 809,-230.21"/>
<text text-anchor="middle" x="793.5" y="-299.8" font-family="Times,serif" font-size="6.00">1.00 kg</text>
</g>
</g>
</svg>
