<?xml version="1.0" encoding="UTF-8" standalone="no"?>
<!DOCTYPE svg PUBLIC "-//W3C//DTD SVG 1.1//EN"
 "http://www.w3.org/Graphics/SVG/1.1/DTD/svg11.dtd">
<!-- Generated by graphviz version 2.43.0 (0)
 -->
<!-- Title: %3 Pages: 1 -->
<svg width="1060pt" height="842pt"
 viewBox="0.00 0.00 1060.00 842.00" xmlns="http://www.w3.org/2000/svg" xmlns:xlink="http://www.w3.org/1999/xlink">
<g id="graph0" class="graph" transform="scale(1 1) rotate(0) translate(36 806)">
<title>%3</title>
<polygon fill="white" stroke="transparent" points="-36,36 -36,-806 1024,-806 1024,36 -36,36"/>
<text text-anchor="middle" x="494" y="-742" font-family="Comic Sans MS" font-size="30.00">System model for succinic acid production from bread &#45; CoproductsToWaste</text>
<g id="clust1" class="cluster">
<title>cluster_fg</title>
<polygon fill="none" stroke="black" stroke-width="2" points="31,-8 31,-721 957,-721 957,-8 31,-8"/>
</g>
<!-- market for enzymes -->
<g id="node1" class="node">
<title>market for enzymes</title>
<polygon fill="darkolivegreen" stroke="black" points="771,-691 637,-691 637,-655 771,-655 771,-691"/>
<text text-anchor="middle" x="704" y="-669.3" font-family="Comic Sans MS" font-size="14.00" fill="white">market for enzymes</text>
</g>
<!-- Pre&#45;treatment (bread) -->
<g id="node16" class="node">
<title>Pre&#45;treatment (bread)</title>
<polygon fill="#0a86e5" stroke="black" points="907,-582 761,-582 761,-546 907,-546 907,-582"/>
<text text-anchor="middle" x="834" y="-560.3" font-family="Comic Sans MS" font-size="14.00" fill="white">Pre&#45;treatment (bread)</text>
</g>
<!-- market for enzymes&#45;&gt;Pre&#45;treatment (bread) -->
<g id="edge1" class="edge">
<title>market for enzymes&#45;&gt;Pre&#45;treatment (bread)</title>
<path fill="none" stroke="black" d="M766,-654.51C766,-654.51 766,-592.22 766,-592.22"/>
<polygon fill="white" stroke="black" points="769.5,-592.22 766,-582.22 762.5,-592.22 769.5,-592.22"/>
<text text-anchor="middle" x="747.5" y="-625.56" font-family="Times,serif" font-size="6.00">3.68e&#45;03 kg</text>
</g>
<!-- market group for electricity -->
<g id="node2" class="node">
<title>market group for electricity</title>
<polygon fill="darkolivegreen" stroke="black" points="373,-691 195,-691 195,-655 373,-655 373,-691"/>
<text text-anchor="middle" x="284" y="-669.3" font-family="Comic Sans MS" font-size="14.00" fill="white">market group for electricity</text>
</g>
<!-- Bacterial fermentation (bread) -->
<g id="node13" class="node">
<title>Bacterial fermentation (bread)</title>
<polygon fill="#0a86e5" stroke="black" points="888,-401 692,-401 692,-365 888,-365 888,-401"/>
<text text-anchor="middle" x="790" y="-379.3" font-family="Comic Sans MS" font-size="14.00" fill="white">Bacterial fermentation (bread)</text>
</g>
<!-- market group for electricity&#45;&gt;Bacterial fermentation (bread) -->
<g id="edge17" class="edge">
<title>market group for electricity&#45;&gt;Bacterial fermentation (bread)</title>
<path fill="none" stroke="black" d="M269.75,-654.86C269.75,-591.37 269.75,-383 269.75,-383 269.75,-383 681.84,-383 681.84,-383"/>
<polygon fill="white" stroke="black" points="681.84,-386.5 691.84,-383 681.84,-379.5 681.84,-386.5"/>
<text text-anchor="middle" x="324.87" y="-385.2" font-family="Times,serif" font-size="6.00">0.18 kWh</text>
</g>
<!-- Purification (bread) -->
<g id="node15" class="node">
<title>Purification (bread)</title>
<polygon fill="#0a86e5" stroke="black" points="855.5,-220 724.5,-220 724.5,-184 855.5,-184 855.5,-220"/>
<text text-anchor="middle" x="790" y="-198.3" font-family="Comic Sans MS" font-size="14.00" fill="white">Purification (bread)</text>
</g>
<!-- market group for electricity&#45;&gt;Purification (bread) -->
<g id="edge12" class="edge">
<title>market group for electricity&#45;&gt;Purification (bread)</title>
<path fill="none" stroke="black" d="M252.83,-654.82C252.83,-568.27 252.83,-202 252.83,-202 252.83,-202 714.4,-202 714.4,-202"/>
<polygon fill="white" stroke="black" points="714.4,-205.5 724.4,-202 714.4,-198.5 714.4,-205.5"/>
<text text-anchor="middle" x="242.21" y="-204.2" font-family="Times,serif" font-size="6.00">0.18 kWh</text>
</g>
<!-- market group for electricity&#45;&gt;Pre&#45;treatment (bread) -->
<g id="edge2" class="edge">
<title>market group for electricity&#45;&gt;Pre&#45;treatment (bread)</title>
<path fill="none" stroke="black" d="M327.75,-654.54C327.75,-624.17 327.75,-567 327.75,-567 327.75,-567 750.93,-567 750.93,-567"/>
<polygon fill="white" stroke="black" points="750.93,-570.5 760.93,-567 750.93,-563.5 750.93,-570.5"/>
<text text-anchor="middle" x="480.57" y="-569.2" font-family="Times,serif" font-size="6.00">0.18 kWh</text>
</g>
<!-- market for tap water -->
<g id="node3" class="node">
<title>market for tap water</title>
<polygon fill="darkolivegreen" stroke="black" points="927,-691 789,-691 789,-655 927,-655 927,-691"/>
<text text-anchor="middle" x="858" y="-669.3" font-family="Comic Sans MS" font-size="14.00" fill="white">market for tap water</text>
</g>
<!-- market for tap water&#45;&gt;Purification (bread) -->
<g id="edge10" class="edge">
<title>market for tap water&#45;&gt;Purification (bread)</title>
<path fill="none" stroke="black" d="M917,-654.82C917,-568.27 917,-202 917,-202 917,-202 865.73,-202 865.73,-202"/>
<polygon fill="white" stroke="black" points="865.73,-198.5 855.73,-202 865.73,-205.5 865.73,-198.5"/>
<text text-anchor="middle" x="903" y="-404.98" font-family="Times,serif" font-size="6.00">56.00 kg</text>
</g>
<!-- market for tap water&#45;&gt;Pre&#45;treatment (bread) -->
<g id="edge3" class="edge">
<title>market for tap water&#45;&gt;Pre&#45;treatment (bread)</title>
<path fill="none" stroke="black" d="M848,-654.51C848,-654.51 848,-592.22 848,-592.22"/>
<polygon fill="white" stroke="black" points="851.5,-592.22 848,-582.22 844.5,-592.22 851.5,-592.22"/>
<text text-anchor="middle" x="836" y="-625.56" font-family="Times,serif" font-size="6.00">6.00 kg</text>
</g>
<!-- market for steam -->
<g id="node4" class="node">
<title>market for steam</title>
<polygon fill="darkolivegreen" stroke="black" points="618.5,-691 499.5,-691 499.5,-655 618.5,-655 618.5,-691"/>
<text text-anchor="middle" x="559" y="-669.3" font-family="Comic Sans MS" font-size="14.00" fill="white">market for steam</text>
</g>
<!-- market for steam&#45;&gt;Bacterial fermentation (bread) -->
<g id="edge20" class="edge">
<title>market for steam&#45;&gt;Bacterial fermentation (bread)</title>
<path fill="none" stroke="black" d="M559,-654.84C559,-622.9 559,-560 559,-560 559,-560 707.67,-560 707.67,-560 707.67,-560 707.67,-411.28 707.67,-411.28"/>
<polygon fill="white" stroke="black" points="711.17,-411.28 707.67,-401.28 704.17,-411.28 711.17,-411.28"/>
<text text-anchor="middle" x="648.27" y="-562.2" font-family="Times,serif" font-size="6.00">7.33 kg</text>
</g>
<!-- market for steam&#45;&gt;Purification (bread) -->
<g id="edge8" class="edge">
<title>market for steam&#45;&gt;Purification (bread)</title>
<path fill="none" stroke="black" d="M529.25,-654.77C529.25,-621.2 529.25,-553 529.25,-553 529.25,-553 684.25,-553 684.25,-553 684.25,-553 684.25,-214 684.25,-214 684.25,-214 714.23,-214 714.23,-214"/>
<polygon fill="white" stroke="black" points="714.23,-217.5 724.23,-214 714.23,-210.5 714.23,-217.5"/>
<text text-anchor="middle" x="696.25" y="-499.1" font-family="Times,serif" font-size="6.00">7.33 kg</text>
</g>
<!-- market for steam&#45;&gt;Pre&#45;treatment (bread) -->
<g id="edge4" class="edge">
<title>market for steam&#45;&gt;Pre&#45;treatment (bread)</title>
<path fill="none" stroke="black" d="M588.75,-654.84C588.75,-626.26 588.75,-574 588.75,-574 588.75,-574 750.75,-574 750.75,-574"/>
<polygon fill="white" stroke="black" points="750.75,-577.5 760.75,-574 750.75,-570.5 750.75,-577.5"/>
<text text-anchor="middle" x="617.33" y="-576.2" font-family="Times,serif" font-size="6.00">7.20 kg</text>
</g>
<!-- treatment of biowaste -->
<g id="node5" class="node">
<title>treatment of biowaste</title>
<polygon fill="darkolivegreen" stroke="black" points="244.5,-510 101.5,-510 101.5,-474 244.5,-474 244.5,-510"/>
<text text-anchor="middle" x="173" y="-488.3" font-family="Comic Sans MS" font-size="14.00" fill="white">treatment of biowaste</text>
</g>
<!-- treatment of biowaste&#45;&gt;Bacterial fermentation (bread) -->
<g id="edge14" class="edge">
<title>treatment of biowaste&#45;&gt;Bacterial fermentation (bread)</title>
<path fill="none" stroke="black" d="M170,-473.82C170,-440.72 170,-374 170,-374 170,-374 681.76,-374 681.76,-374"/>
<polygon fill="white" stroke="black" points="681.76,-377.5 691.76,-374 681.76,-370.5 681.76,-377.5"/>
<text text-anchor="middle" x="363.97" y="-376.2" font-family="Times,serif" font-size="6.00">0.50 kg</text>
</g>
<!-- treatment of biowaste&#45;&gt;Purification (bread) -->
<g id="edge5" class="edge">
<title>treatment of biowaste&#45;&gt;Purification (bread)</title>
<path fill="none" stroke="black" d="M244.6,-492C247.17,-492 248.67,-492 248.67,-492 248.67,-492 248.67,-196 248.67,-196 248.67,-196 714.43,-196 714.43,-196"/>
<polygon fill="white" stroke="black" points="714.43,-199.5 724.43,-196 714.43,-192.5 714.43,-199.5"/>
<text text-anchor="middle" x="319.52" y="-198.2" font-family="Times,serif" font-size="6.00">5.77 kg</text>
</g>
<!-- market for hydrochloric acid -->
<g id="node6" class="node">
<title>market for hydrochloric acid</title>
<polygon fill="darkolivegreen" stroke="black" points="639,-329 453,-329 453,-293 639,-293 639,-329"/>
<text text-anchor="middle" x="546" y="-307.3" font-family="Comic Sans MS" font-size="14.00" fill="white">market for hydrochloric acid</text>
</g>
<!-- market for hydrochloric acid&#45;&gt;Purification (bread) -->
<g id="edge6" class="edge">
<title>market for hydrochloric acid&#45;&gt;Purification (bread)</title>
<path fill="none" stroke="black" d="M639.25,-311C700.05,-311 768.17,-311 768.17,-311 768.17,-311 768.17,-230.49 768.17,-230.49"/>
<polygon fill="white" stroke="black" points="771.67,-230.49 768.17,-220.49 764.67,-230.49 771.67,-230.49"/>
<text text-anchor="middle" x="731.96" y="-313.2" font-family="Times,serif" font-size="6.00">0.04 kg</text>
</g>
<!-- market for sodium chloride -->
<g id="node7" class="node">
<title>market for sodium chloride</title>
<polygon fill="darkolivegreen" stroke="black" points="435,-329 257,-329 257,-293 435,-293 435,-329"/>
<text text-anchor="middle" x="346" y="-307.3" font-family="Comic Sans MS" font-size="14.00" fill="white">market for sodium chloride</text>
</g>
<!-- market for sodium chloride&#45;&gt;Purification (bread) -->
<g id="edge9" class="edge">
<title>market for sodium chloride&#45;&gt;Purification (bread)</title>
<path fill="none" stroke="black" d="M346,-292.59C346,-262.96 346,-208 346,-208 346,-208 714.49,-208 714.49,-208"/>
<polygon fill="white" stroke="black" points="714.49,-211.5 724.49,-208 714.49,-204.5 714.49,-211.5"/>
<text text-anchor="middle" x="475.95" y="-210.2" font-family="Times,serif" font-size="6.00">8.14 kg</text>
</g>
<!-- treatment of wastewater -->
<g id="node8" class="node">
<title>treatment of wastewater</title>
<polygon fill="darkolivegreen" stroke="black" points="238.5,-329 81.5,-329 81.5,-293 238.5,-293 238.5,-329"/>
<text text-anchor="middle" x="160" y="-307.3" font-family="Comic Sans MS" font-size="14.00" fill="white">treatment of wastewater</text>
</g>
<!-- treatment of wastewater&#45;&gt;Purification (bread) -->
<g id="edge11" class="edge">
<title>treatment of wastewater&#45;&gt;Purification (bread)</title>
<path fill="none" stroke="black" d="M160,-292.89C160,-259.13 160,-190 160,-190 160,-190 714.36,-190 714.36,-190"/>
<polygon fill="white" stroke="black" points="714.36,-193.5 724.36,-190 714.36,-186.5 714.36,-193.5"/>
<text text-anchor="middle" x="371.74" y="-192.2" font-family="Times,serif" font-size="6.00">62.00 kg</text>
</g>
<!-- market for neutralising agent -->
<g id="node9" class="node">
<title>market for neutralising agent</title>
<polygon fill="darkolivegreen" stroke="black" points="676.5,-510 487.5,-510 487.5,-474 676.5,-474 676.5,-510"/>
<text text-anchor="middle" x="582" y="-488.3" font-family="Comic Sans MS" font-size="14.00" fill="white">market for neutralising agent</text>
</g>
<!-- market for neutralising agent&#45;&gt;Bacterial fermentation (bread) -->
<g id="edge15" class="edge">
<title>market for neutralising agent&#45;&gt;Bacterial fermentation (bread)</title>
<path fill="none" stroke="black" d="M676.55,-492C690.25,-492 699.83,-492 699.83,-492 699.83,-492 699.83,-411.49 699.83,-411.49"/>
<polygon fill="white" stroke="black" points="703.33,-411.49 699.83,-401.49 696.33,-411.49 703.33,-411.49"/>
<text text-anchor="middle" x="687.83" y="-465.59" font-family="Times,serif" font-size="6.00">0.11 kg</text>
</g>
<!-- market for magnesium oxide -->
<g id="node10" class="node">
<title>market for magnesium oxide</title>
<polygon fill="darkolivegreen" stroke="black" points="469.5,-510 282.5,-510 282.5,-474 469.5,-474 469.5,-510"/>
<text text-anchor="middle" x="376" y="-488.3" font-family="Comic Sans MS" font-size="14.00" fill="white">market for magnesium oxide</text>
</g>
<!-- market for magnesium oxide&#45;&gt;Bacterial fermentation (bread) -->
<g id="edge16" class="edge">
<title>market for magnesium oxide&#45;&gt;Bacterial fermentation (bread)</title>
<path fill="none" stroke="black" d="M461.25,-473.66C461.25,-444.79 461.25,-392 461.25,-392 461.25,-392 681.81,-392 681.81,-392"/>
<polygon fill="white" stroke="black" points="681.81,-395.5 691.81,-392 681.81,-388.5 681.81,-395.5"/>
<text text-anchor="middle" x="518.7" y="-394.2" font-family="Times,serif" font-size="6.00">0.15 kg</text>
</g>
<!-- market for carbon dioxide -->
<g id="node11" class="node">
<title>market for carbon dioxide</title>
<polygon fill="darkolivegreen" stroke="black" points="886.5,-510 715.5,-510 715.5,-474 886.5,-474 886.5,-510"/>
<text text-anchor="middle" x="801" y="-488.3" font-family="Comic Sans MS" font-size="14.00" fill="white">market for carbon dioxide</text>
</g>
<!-- market for carbon dioxide&#45;&gt;Bacterial fermentation (bread) -->
<g id="edge18" class="edge">
<title>market for carbon dioxide&#45;&gt;Bacterial fermentation (bread)</title>
<path fill="none" stroke="black" d="M801,-473.51C801,-473.51 801,-411.22 801,-411.22"/>
<polygon fill="white" stroke="black" points="804.5,-411.22 801,-401.22 797.5,-411.22 804.5,-411.22"/>
<text text-anchor="middle" x="786" y="-444.56" font-family="Times,serif" font-size="6.00">0.32 kWh</text>
</g>
<!-- Bread waste -->
<g id="node12" class="node">
<title>Bread waste</title>
<ellipse fill="goldenrod" stroke="#000000" cx="119" cy="-673" rx="57.69" ry="18"/>
<text text-anchor="middle" x="119" y="-669.3" font-family="Comic Sans MS" font-size="14.00" fill="white">Bread waste</text>
</g>
<!-- Bacterial fermentation (bread)&#45;&gt;Purification (bread) -->
<g id="edge7" class="edge">
<title>Bacterial fermentation (bread)&#45;&gt;Purification (bread)</title>
<path fill="none" stroke="black" d="M811.83,-364.98C811.83,-364.98 811.83,-230.21 811.83,-230.21"/>
<polygon fill="black" stroke="black" points="815.33,-230.21 811.83,-220.21 808.33,-230.21 815.33,-230.21"/>
<text text-anchor="middle" x="799.83" y="-299.8" font-family="Times,serif" font-size="6.00">1.00 kg</text>
</g>
<!-- Succinic acid production (bread) -->
<g id="node14" class="node">
<title>Succinic acid production (bread)</title>
<ellipse fill="#471a87" stroke="green" cx="790" cy="-56" rx="137.28" ry="18"/>
<text text-anchor="middle" x="790" y="-52.3" font-family="Comic Sans MS" font-size="14.00" fill="white">Succinic acid production (bread)</text>
</g>
<!-- Purification (bread)&#45;&gt;Succinic acid production (bread) -->
<g id="edge13" class="edge">
<title>Purification (bread)&#45;&gt;Succinic acid production (bread)</title>
<path fill="none" stroke="black" d="M790,-183.8C790,-183.8 790,-84.43 790,-84.43"/>
<polygon fill="black" stroke="black" points="793.5,-84.43 790,-74.43 786.5,-84.43 793.5,-84.43"/>
<text text-anchor="middle" x="778" y="-136.31" font-family="Times,serif" font-size="6.00">1.00 kg</text>
</g>
<!-- Pre&#45;treatment (bread)&#45;&gt;Bacterial fermentation (bread) -->
<g id="edge19" class="edge">
<title>Pre&#45;treatment (bread)&#45;&gt;Bacterial fermentation (bread)</title>
<path fill="none" stroke="black" d="M897.5,-545.98C897.5,-500.2 897.5,-383 897.5,-383 897.5,-383 896.58,-383 896.58,-383"/>
<polygon fill="black" stroke="black" points="898.33,-379.5 888.33,-383 898.33,-386.5 898.33,-379.5"/>
<text text-anchor="middle" x="885.5" y="-466.23" font-family="Times,serif" font-size="6.00">1.00 kg</text>
</g>
</g>
</svg>
