<?xml version="1.0" encoding="UTF-8" standalone="no"?>
<!DOCTYPE svg PUBLIC "-//W3C//DTD SVG 1.1//EN"
 "http://www.w3.org/Graphics/SVG/1.1/DTD/svg11.dtd">
<!-- Generated by graphviz version 2.43.0 (0)
 -->
<!-- Title: %3 Pages: 1 -->
<svg width="1330pt" height="807pt"
 viewBox="0.00 0.00 1330.00 807.00" xmlns="http://www.w3.org/2000/svg" xmlns:xlink="http://www.w3.org/1999/xlink">
<g id="graph0" class="graph" transform="scale(1 1) rotate(0) translate(36 771)">
<title>%3</title>
<polygon fill="white" stroke="transparent" points="-36,36 -36,-771 1294,-771 1294,36 -36,36"/>
<text text-anchor="middle" x="629" y="-707" font-family="Comic Sans MS" font-size="30.00">System model for succinic acid production from corn &#45; EnergyEfficient</text>
<g id="clust1" class="cluster">
<title>cluster_fg</title>
<polygon fill="none" stroke="black" stroke-width="2" points="8,-8 8,-686 1250,-686 1250,-8 8,-8"/>
</g>
<!-- treatment of biowaste -->
<g id="node1" class="node">
<title>treatment of biowaste</title>
<polygon fill="darkolivegreen" stroke="black" points="1219.5,-656 1076.5,-656 1076.5,-620 1219.5,-620 1219.5,-656"/>
<text text-anchor="middle" x="1148" y="-634.3" font-family="Comic Sans MS" font-size="14.00" fill="white">treatment of biowaste</text>
</g>
<!-- Pre&#45;treatment (corn) -->
<g id="node11" class="node">
<title>Pre&#45;treatment (corn)</title>
<polygon fill="#0a86e5" stroke="black" points="729.5,-547 590.5,-547 590.5,-511 729.5,-511 729.5,-547"/>
<text text-anchor="middle" x="660" y="-525.3" font-family="Comic Sans MS" font-size="14.00" fill="white">Pre&#45;treatment (corn)</text>
</g>
<!-- treatment of biowaste&#45;&gt;Pre&#45;treatment (corn) -->
<g id="edge12" class="edge">
<title>treatment of biowaste&#45;&gt;Pre&#45;treatment (corn)</title>
<path fill="none" stroke="black" d="M1124.17,-619.82C1124.17,-586.72 1124.17,-520 1124.17,-520 1124.17,-520 739.74,-520 739.74,-520"/>
<polygon fill="white" stroke="black" points="739.74,-516.5 729.74,-520 739.74,-523.5 739.74,-516.5"/>
<text text-anchor="middle" x="969.86" y="-522.2" font-family="Times,serif" font-size="6.00">0.40 kg</text>
</g>
<!-- Bacterial fermentation (corn) -->
<g id="node12" class="node">
<title>Bacterial fermentation (corn)</title>
<polygon fill="#0a86e5" stroke="black" points="754,-401 566,-401 566,-365 754,-365 754,-401"/>
<text text-anchor="middle" x="660" y="-379.3" font-family="Comic Sans MS" font-size="14.00" fill="white">Bacterial fermentation (corn)</text>
</g>
<!-- treatment of biowaste&#45;&gt;Bacterial fermentation (corn) -->
<g id="edge1" class="edge">
<title>treatment of biowaste&#45;&gt;Bacterial fermentation (corn)</title>
<path fill="none" stroke="black" d="M1171.83,-619.66C1171.83,-561.19 1171.83,-383 1171.83,-383 1171.83,-383 764.18,-383 764.18,-383"/>
<polygon fill="white" stroke="black" points="764.18,-379.5 754.18,-383 764.18,-386.5 764.18,-379.5"/>
<text text-anchor="middle" x="1074.34" y="-385.2" font-family="Times,serif" font-size="6.00">0.82 kg</text>
</g>
<!-- market group for electricity -->
<g id="node2" class="node">
<title>market group for electricity</title>
<polygon fill="darkolivegreen" stroke="black" points="216,-656 38,-656 38,-620 216,-620 216,-656"/>
<text text-anchor="middle" x="127" y="-634.3" font-family="Comic Sans MS" font-size="14.00" fill="white">market group for electricity</text>
</g>
<!-- market group for electricity&#45;&gt;Pre&#45;treatment (corn) -->
<g id="edge13" class="edge">
<title>market group for electricity&#45;&gt;Pre&#45;treatment (corn)</title>
<path fill="none" stroke="black" d="M189.5,-619.82C189.5,-586.72 189.5,-520 189.5,-520 189.5,-520 580.32,-520 580.32,-520"/>
<polygon fill="white" stroke="black" points="580.32,-523.5 590.32,-520 580.32,-516.5 580.32,-523.5"/>
<text text-anchor="middle" x="320" y="-522.2" font-family="Times,serif" font-size="6.00">0.23 kWh</text>
</g>
<!-- market group for electricity&#45;&gt;Bacterial fermentation (corn) -->
<g id="edge2" class="edge">
<title>market group for electricity&#45;&gt;Bacterial fermentation (corn)</title>
<path fill="none" stroke="black" d="M163,-619.66C163,-561.19 163,-383 163,-383 163,-383 555.93,-383 555.93,-383"/>
<polygon fill="white" stroke="black" points="555.93,-386.5 565.93,-383 555.93,-379.5 555.93,-386.5"/>
<text text-anchor="middle" x="226.14" y="-385.2" font-family="Times,serif" font-size="6.00">0.23 kWh</text>
</g>
<!-- Purification (corn) -->
<g id="node14" class="node">
<title>Purification (corn)</title>
<polygon fill="#0a86e5" stroke="black" points="721.5,-220 598.5,-220 598.5,-184 721.5,-184 721.5,-220"/>
<text text-anchor="middle" x="660" y="-198.3" font-family="Comic Sans MS" font-size="14.00" fill="white">Purification (corn)</text>
</g>
<!-- market group for electricity&#45;&gt;Purification (corn) -->
<g id="edge7" class="edge">
<title>market group for electricity&#45;&gt;Purification (corn)</title>
<path fill="none" stroke="black" d="M87.25,-619.92C87.25,-536.3 87.25,-191 87.25,-191 87.25,-191 588.43,-191 588.43,-191"/>
<polygon fill="white" stroke="black" points="588.43,-194.5 598.43,-191 588.43,-187.5 588.43,-194.5"/>
<text text-anchor="middle" x="108.38" y="-193.2" font-family="Times,serif" font-size="6.00">0.23 kWh</text>
</g>
<!-- market for ammonium sulfate -->
<g id="node3" class="node">
<title>market for ammonium sulfate</title>
<polygon fill="darkolivegreen" stroke="black" points="640.5,-329 447.5,-329 447.5,-293 640.5,-293 640.5,-329"/>
<text text-anchor="middle" x="544" y="-307.3" font-family="Comic Sans MS" font-size="14.00" fill="white">market for ammonium sulfate</text>
</g>
<!-- market for ammonium sulfate&#45;&gt;Purification (corn) -->
<g id="edge4" class="edge">
<title>market for ammonium sulfate&#45;&gt;Purification (corn)</title>
<path fill="none" stroke="#8e0c0c" d="M619.5,-292.51C619.5,-292.51 619.5,-230.22 619.5,-230.22"/>
<polygon fill="white" stroke="#8e0c0c" points="623,-230.22 619.5,-220.22 616,-230.22 623,-230.22"/>
<text text-anchor="middle" x="606.5" y="-263.56" font-family="Times,serif" font-size="6.00">&#45;2.72 kg</text>
</g>
<!-- treatment of wastewater -->
<g id="node4" class="node">
<title>treatment of wastewater</title>
<polygon fill="darkolivegreen" stroke="black" points="391.5,-656 234.5,-656 234.5,-620 391.5,-620 391.5,-656"/>
<text text-anchor="middle" x="313" y="-634.3" font-family="Comic Sans MS" font-size="14.00" fill="white">treatment of wastewater</text>
</g>
<!-- treatment of wastewater&#45;&gt;Pre&#45;treatment (corn) -->
<g id="edge10" class="edge">
<title>treatment of wastewater&#45;&gt;Pre&#45;treatment (corn)</title>
<path fill="none" stroke="black" d="M330.5,-619.51C330.5,-588.41 330.5,-529 330.5,-529 330.5,-529 580.12,-529 580.12,-529"/>
<polygon fill="white" stroke="black" points="580.12,-532.5 590.12,-529 580.12,-525.5 580.12,-532.5"/>
<text text-anchor="middle" x="397.56" y="-531.2" font-family="Times,serif" font-size="6.00">0.01 m³</text>
</g>
<!-- treatment of wastewater&#45;&gt;Purification (corn) -->
<g id="edge5" class="edge">
<title>treatment of wastewater&#45;&gt;Purification (corn)</title>
<path fill="none" stroke="black" d="M260.5,-619.95C260.5,-538 260.5,-205 260.5,-205 260.5,-205 588.45,-205 588.45,-205"/>
<polygon fill="white" stroke="black" points="588.45,-208.5 598.45,-205 588.45,-201.5 588.45,-208.5"/>
<text text-anchor="middle" x="248" y="-250.7" font-family="Times,serif" font-size="6.00">0.01 m³</text>
</g>
<!-- market for ammonia -->
<g id="node5" class="node">
<title>market for ammonia</title>
<polygon fill="darkolivegreen" stroke="black" points="408.5,-329 269.5,-329 269.5,-293 408.5,-293 408.5,-329"/>
<text text-anchor="middle" x="339" y="-307.3" font-family="Comic Sans MS" font-size="14.00" fill="white">market for ammonia</text>
</g>
<!-- market for ammonia&#45;&gt;Purification (corn) -->
<g id="edge6" class="edge">
<title>market for ammonia&#45;&gt;Purification (corn)</title>
<path fill="none" stroke="black" d="M339,-292.84C339,-264.26 339,-212 339,-212 339,-212 588.49,-212 588.49,-212"/>
<polygon fill="white" stroke="black" points="588.49,-215.5 598.49,-212 588.49,-208.5 588.49,-215.5"/>
<text text-anchor="middle" x="411.32" y="-214.2" font-family="Times,serif" font-size="6.00">0.41 kg</text>
</g>
<!-- market for water -->
<g id="node6" class="node">
<title>market for water</title>
<polygon fill="darkolivegreen" stroke="black" points="251.5,-329 136.5,-329 136.5,-293 251.5,-293 251.5,-329"/>
<text text-anchor="middle" x="194" y="-307.3" font-family="Comic Sans MS" font-size="14.00" fill="white">market for water</text>
</g>
<!-- market for water&#45;&gt;Purification (corn) -->
<g id="edge9" class="edge">
<title>market for water&#45;&gt;Purification (corn)</title>
<path fill="none" stroke="black" d="M194,-292.84C194,-260.9 194,-198 194,-198 194,-198 588.12,-198 588.12,-198"/>
<polygon fill="white" stroke="black" points="588.12,-201.5 598.12,-198 588.12,-194.5 588.12,-201.5"/>
<text text-anchor="middle" x="329.64" y="-200.2" font-family="Times,serif" font-size="6.00">25.30 kg</text>
</g>
<!-- steam production -->
<g id="node7" class="node">
<title>steam production</title>
<polygon fill="darkolivegreen" stroke="black" points="1058,-656 938,-656 938,-620 1058,-620 1058,-656"/>
<text text-anchor="middle" x="998" y="-634.3" font-family="Comic Sans MS" font-size="14.00" fill="white">steam production</text>
</g>
<!-- steam production&#45;&gt;Pre&#45;treatment (corn) -->
<g id="edge11" class="edge">
<title>steam production&#45;&gt;Pre&#45;treatment (corn)</title>
<path fill="none" stroke="black" d="M998,-619.51C998,-588.41 998,-529 998,-529 998,-529 739.62,-529 739.62,-529"/>
<polygon fill="white" stroke="black" points="739.62,-525.5 729.62,-529 739.62,-532.5 739.62,-525.5"/>
<text text-anchor="middle" x="902.07" y="-531.2" font-family="Times,serif" font-size="6.00">0.02 kg</text>
</g>
<!-- market for tap water -->
<g id="node8" class="node">
<title>market for tap water</title>
<polygon fill="darkolivegreen" stroke="black" points="920,-656 782,-656 782,-620 920,-620 920,-656"/>
<text text-anchor="middle" x="851" y="-634.3" font-family="Comic Sans MS" font-size="14.00" fill="white">market for tap water</text>
</g>
<!-- market for tap water&#45;&gt;Pre&#45;treatment (corn) -->
<g id="edge14" class="edge">
<title>market for tap water&#45;&gt;Pre&#45;treatment (corn)</title>
<path fill="none" stroke="black" d="M786.97,-619.66C786.97,-590.79 786.97,-538 786.97,-538 786.97,-538 739.8,-538 739.8,-538"/>
<polygon fill="white" stroke="black" points="739.8,-534.5 729.8,-538 739.8,-541.5 739.8,-534.5"/>
<text text-anchor="middle" x="772.97" y="-557.44" font-family="Times,serif" font-size="6.00">12.90 kg</text>
</g>
<!-- market for sweet sorghum grain -->
<g id="node9" class="node">
<title>market for sweet sorghum grain</title>
<polygon fill="darkolivegreen" stroke="black" points="763.5,-656 556.5,-656 556.5,-620 763.5,-620 763.5,-656"/>
<text text-anchor="middle" x="660" y="-634.3" font-family="Comic Sans MS" font-size="14.00" fill="white">market for sweet sorghum grain</text>
</g>
<!-- market for sweet sorghum grain&#45;&gt;Pre&#45;treatment (corn) -->
<g id="edge15" class="edge">
<title>market for sweet sorghum grain&#45;&gt;Pre&#45;treatment (corn)</title>
<path fill="none" stroke="black" d="M660,-619.51C660,-619.51 660,-557.22 660,-557.22"/>
<polygon fill="white" stroke="black" points="663.5,-557.22 660,-547.22 656.5,-557.22 663.5,-557.22"/>
<text text-anchor="middle" x="648" y="-590.56" font-family="Times,serif" font-size="6.00">1.66 kg</text>
</g>
<!-- market for glucose -->
<g id="node10" class="node">
<title>market for glucose</title>
<polygon fill="darkolivegreen" stroke="black" points="538,-656 410,-656 410,-620 538,-620 538,-656"/>
<text text-anchor="middle" x="474" y="-634.3" font-family="Comic Sans MS" font-size="14.00" fill="white">market for glucose</text>
</g>
<!-- market for glucose&#45;&gt;Pre&#45;treatment (corn) -->
<g id="edge16" class="edge">
<title>market for glucose&#45;&gt;Pre&#45;treatment (corn)</title>
<path fill="none" stroke="black" d="M492.75,-619.66C492.75,-590.79 492.75,-538 492.75,-538 492.75,-538 580.04,-538 580.04,-538"/>
<polygon fill="white" stroke="black" points="580.04,-541.5 590.04,-538 580.04,-534.5 580.04,-541.5"/>
<text text-anchor="middle" x="483.57" y="-540.2" font-family="Times,serif" font-size="6.00">2.00 kg</text>
</g>
<!-- Pre&#45;treatment (corn)&#45;&gt;Bacterial fermentation (corn) -->
<g id="edge3" class="edge">
<title>Pre&#45;treatment (corn)&#45;&gt;Bacterial fermentation (corn)</title>
<path fill="none" stroke="black" d="M660,-510.8C660,-510.8 660,-411.43 660,-411.43"/>
<polygon fill="black" stroke="black" points="663.5,-411.43 660,-401.43 656.5,-411.43 663.5,-411.43"/>
<text text-anchor="middle" x="648" y="-463.31" font-family="Times,serif" font-size="6.00">1.00 kg</text>
</g>
<!-- Bacterial fermentation (corn)&#45;&gt;Purification (corn) -->
<g id="edge8" class="edge">
<title>Bacterial fermentation (corn)&#45;&gt;Purification (corn)</title>
<path fill="none" stroke="black" d="M681,-364.98C681,-364.98 681,-230.21 681,-230.21"/>
<polygon fill="black" stroke="black" points="684.5,-230.21 681,-220.21 677.5,-230.21 684.5,-230.21"/>
<text text-anchor="middle" x="669" y="-299.8" font-family="Times,serif" font-size="6.00">1.00 kg</text>
</g>
<!-- Succinic acid production (corn) -->
<g id="node13" class="node">
<title>Succinic acid production (corn)</title>
<ellipse fill="#471a87" stroke="green" cx="660" cy="-56" rx="131.88" ry="18"/>
<text text-anchor="middle" x="660" y="-52.3" font-family="Comic Sans MS" font-size="14.00" fill="white">Succinic acid production (corn)</text>
</g>
<!-- Purification (corn)&#45;&gt;Succinic acid production (corn) -->
<g id="edge17" class="edge">
<title>Purification (corn)&#45;&gt;Succinic acid production (corn)</title>
<path fill="none" stroke="black" d="M660,-183.8C660,-183.8 660,-84.43 660,-84.43"/>
<polygon fill="black" stroke="black" points="663.5,-84.43 660,-74.43 656.5,-84.43 663.5,-84.43"/>
<text text-anchor="middle" x="648" y="-136.31" font-family="Times,serif" font-size="6.00">1.00 kg</text>
</g>
</g>
</svg>
