<?xml version="1.0" encoding="UTF-8" standalone="no"?>
<!DOCTYPE svg PUBLIC "-//W3C//DTD SVG 1.1//EN"
 "http://www.w3.org/Graphics/SVG/1.1/DTD/svg11.dtd">
<!-- Generated by graphviz version 2.43.0 (0)
 -->
<!-- Title: %3 Pages: 1 -->
<svg width="1330pt" height="807pt"
 viewBox="0.00 0.00 1330.00 807.00" xmlns="http://www.w3.org/2000/svg" xmlns:xlink="http://www.w3.org/1999/xlink">
<g id="graph0" class="graph" transform="scale(1 1) rotate(0) translate(36 771)">
<title>%3</title>
<polygon fill="white" stroke="transparent" points="-36,36 -36,-771 1294,-771 1294,36 -36,36"/>
<text text-anchor="middle" x="629" y="-707" font-family="Comic Sans MS" font-size="30.00">System model for succinic acid production from corn</text>
<g id="clust1" class="cluster">
<title>cluster_fg</title>
<polygon fill="none" stroke="black" stroke-width="2" points="8,-8 8,-686 1250,-686 1250,-8 8,-8"/>
</g>
<!-- treatment of wastewater -->
<g id="node1" class="node">
<title>treatment of wastewater</title>
<polygon fill="darkolivegreen" stroke="black" points="1219.5,-656 1062.5,-656 1062.5,-620 1219.5,-620 1219.5,-656"/>
<text text-anchor="middle" x="1141" y="-634.3" font-family="Comic Sans MS" font-size="14.00" fill="white">treatment of wastewater</text>
</g>
<!-- Pre&#45;treatment (corn) -->
<g id="node12" class="node">
<title>Pre&#45;treatment (corn)</title>
<polygon fill="#0a86e5" stroke="black" points="630.5,-547 491.5,-547 491.5,-511 630.5,-511 630.5,-547"/>
<text text-anchor="middle" x="561" y="-525.3" font-family="Comic Sans MS" font-size="14.00" fill="white">Pre&#45;treatment (corn)</text>
</g>
<!-- treatment of wastewater&#45;&gt;Pre&#45;treatment (corn) -->
<g id="edge1" class="edge">
<title>treatment of wastewater&#45;&gt;Pre&#45;treatment (corn)</title>
<path fill="none" stroke="black" d="M1114.83,-619.82C1114.83,-586.72 1114.83,-520 1114.83,-520 1114.83,-520 640.58,-520 640.58,-520"/>
<polygon fill="white" stroke="black" points="640.58,-516.5 630.58,-520 640.58,-523.5 640.58,-516.5"/>
<text text-anchor="middle" x="915.12" y="-522.2" font-family="Times,serif" font-size="6.00">0.01 m³</text>
</g>
<!-- Purification (corn) -->
<g id="node14" class="node">
<title>Purification (corn)</title>
<polygon fill="#0a86e5" stroke="black" points="622.5,-220 499.5,-220 499.5,-184 622.5,-184 622.5,-220"/>
<text text-anchor="middle" x="561" y="-198.3" font-family="Comic Sans MS" font-size="14.00" fill="white">Purification (corn)</text>
</g>
<!-- treatment of wastewater&#45;&gt;Purification (corn) -->
<g id="edge9" class="edge">
<title>treatment of wastewater&#45;&gt;Purification (corn)</title>
<path fill="none" stroke="black" d="M1167.17,-619.82C1167.17,-537.3 1167.17,-202 1167.17,-202 1167.17,-202 632.74,-202 632.74,-202"/>
<polygon fill="white" stroke="black" points="632.74,-198.5 622.74,-202 632.74,-205.5 632.74,-198.5"/>
<text text-anchor="middle" x="1096.36" y="-204.2" font-family="Times,serif" font-size="6.00">0.01 m³</text>
</g>
<!-- steam production -->
<g id="node2" class="node">
<title>steam production</title>
<polygon fill="darkolivegreen" stroke="black" points="516,-656 396,-656 396,-620 516,-620 516,-656"/>
<text text-anchor="middle" x="456" y="-634.3" font-family="Comic Sans MS" font-size="14.00" fill="white">steam production</text>
</g>
<!-- steam production&#45;&gt;Pre&#45;treatment (corn) -->
<g id="edge2" class="edge">
<title>steam production&#45;&gt;Pre&#45;treatment (corn)</title>
<path fill="none" stroke="black" d="M503.75,-619.51C503.75,-619.51 503.75,-557.22 503.75,-557.22"/>
<polygon fill="white" stroke="black" points="507.25,-557.22 503.75,-547.22 500.25,-557.22 507.25,-557.22"/>
<text text-anchor="middle" x="491.75" y="-590.56" font-family="Times,serif" font-size="6.00">0.02 kg</text>
</g>
<!-- treatment of biowaste -->
<g id="node3" class="node">
<title>treatment of biowaste</title>
<polygon fill="darkolivegreen" stroke="black" points="377.5,-656 234.5,-656 234.5,-620 377.5,-620 377.5,-656"/>
<text text-anchor="middle" x="306" y="-634.3" font-family="Comic Sans MS" font-size="14.00" fill="white">treatment of biowaste</text>
</g>
<!-- Bacterial fermentation (corn) -->
<g id="node11" class="node">
<title>Bacterial fermentation (corn)</title>
<polygon fill="#0a86e5" stroke="black" points="655,-401 467,-401 467,-365 655,-365 655,-401"/>
<text text-anchor="middle" x="561" y="-379.3" font-family="Comic Sans MS" font-size="14.00" fill="white">Bacterial fermentation (corn)</text>
</g>
<!-- treatment of biowaste&#45;&gt;Bacterial fermentation (corn) -->
<g id="edge14" class="edge">
<title>treatment of biowaste&#45;&gt;Bacterial fermentation (corn)</title>
<path fill="none" stroke="black" d="M344.83,-619.69C344.83,-562.19 344.83,-389 344.83,-389 344.83,-389 456.81,-389 456.81,-389"/>
<polygon fill="white" stroke="black" points="456.82,-392.5 466.81,-389 456.81,-385.5 456.82,-392.5"/>
<text text-anchor="middle" x="332.83" y="-450.55" font-family="Times,serif" font-size="6.00">0.82 kg</text>
</g>
<!-- treatment of biowaste&#45;&gt;Pre&#45;treatment (corn) -->
<g id="edge3" class="edge">
<title>treatment of biowaste&#45;&gt;Pre&#45;treatment (corn)</title>
<path fill="none" stroke="black" d="M361.17,-619.59C361.17,-589.96 361.17,-535 361.17,-535 361.17,-535 481.39,-535 481.39,-535"/>
<polygon fill="white" stroke="black" points="481.39,-538.5 491.39,-535 481.39,-531.5 481.39,-538.5"/>
<text text-anchor="middle" x="366.98" y="-537.2" font-family="Times,serif" font-size="6.00">0.40 kg</text>
</g>
<!-- market group for electricity -->
<g id="node4" class="node">
<title>market group for electricity</title>
<polygon fill="darkolivegreen" stroke="black" points="216,-656 38,-656 38,-620 216,-620 216,-656"/>
<text text-anchor="middle" x="127" y="-634.3" font-family="Comic Sans MS" font-size="14.00" fill="white">market group for electricity</text>
</g>
<!-- market group for electricity&#45;&gt;Bacterial fermentation (corn) -->
<g id="edge15" class="edge">
<title>market group for electricity&#45;&gt;Bacterial fermentation (corn)</title>
<path fill="none" stroke="black" d="M186.33,-619.65C186.33,-560.24 186.33,-377 186.33,-377 186.33,-377 456.94,-377 456.94,-377"/>
<polygon fill="white" stroke="black" points="456.94,-380.5 466.94,-377 456.94,-373.5 456.94,-380.5"/>
<text text-anchor="middle" x="185.31" y="-379.2" font-family="Times,serif" font-size="6.00">0.90 kWh</text>
</g>
<!-- market group for electricity&#45;&gt;Pre&#45;treatment (corn) -->
<g id="edge4" class="edge">
<title>market group for electricity&#45;&gt;Pre&#45;treatment (corn)</title>
<path fill="none" stroke="black" d="M201.17,-619.78C201.17,-587.35 201.17,-523 201.17,-523 201.17,-523 481.19,-523 481.19,-523"/>
<polygon fill="white" stroke="black" points="481.19,-526.5 491.19,-523 481.19,-519.5 481.19,-526.5"/>
<text text-anchor="middle" x="277.79" y="-525.2" font-family="Times,serif" font-size="6.00">0.90 kWh</text>
</g>
<!-- market group for electricity&#45;&gt;Purification (corn) -->
<g id="edge11" class="edge">
<title>market group for electricity&#45;&gt;Purification (corn)</title>
<path fill="none" stroke="black" d="M162.5,-619.82C162.5,-537.3 162.5,-202 162.5,-202 162.5,-202 489.17,-202 489.17,-202"/>
<polygon fill="white" stroke="black" points="489.17,-205.5 499.17,-202 489.17,-198.5 489.17,-205.5"/>
<text text-anchor="middle" x="147.5" y="-249.77" font-family="Times,serif" font-size="6.00">0.90 kWh</text>
</g>
<!-- market for tap water -->
<g id="node5" class="node">
<title>market for tap water</title>
<polygon fill="darkolivegreen" stroke="black" points="1044,-656 906,-656 906,-620 1044,-620 1044,-656"/>
<text text-anchor="middle" x="975" y="-634.3" font-family="Comic Sans MS" font-size="14.00" fill="white">market for tap water</text>
</g>
<!-- market for tap water&#45;&gt;Pre&#45;treatment (corn) -->
<g id="edge5" class="edge">
<title>market for tap water&#45;&gt;Pre&#45;treatment (corn)</title>
<path fill="none" stroke="black" d="M975,-619.51C975,-588.41 975,-529 975,-529 975,-529 640.76,-529 640.76,-529"/>
<polygon fill="white" stroke="black" points="640.76,-525.5 630.76,-529 640.76,-532.5 640.76,-525.5"/>
<text text-anchor="middle" x="839.14" y="-531.2" font-family="Times,serif" font-size="6.00">12.90 kg</text>
</g>
<!-- market for sweet sorghum grain -->
<g id="node6" class="node">
<title>market for sweet sorghum grain</title>
<polygon fill="darkolivegreen" stroke="black" points="887.5,-656 680.5,-656 680.5,-620 887.5,-620 887.5,-656"/>
<text text-anchor="middle" x="784" y="-634.3" font-family="Comic Sans MS" font-size="14.00" fill="white">market for sweet sorghum grain</text>
</g>
<!-- market for sweet sorghum grain&#45;&gt;Pre&#45;treatment (corn) -->
<g id="edge6" class="edge">
<title>market for sweet sorghum grain&#45;&gt;Pre&#45;treatment (corn)</title>
<path fill="none" stroke="black" d="M686.72,-619.66C686.72,-590.79 686.72,-538 686.72,-538 686.72,-538 640.84,-538 640.84,-538"/>
<polygon fill="white" stroke="black" points="640.84,-534.5 630.84,-538 640.84,-541.5 640.84,-534.5"/>
<text text-anchor="middle" x="674.72" y="-558.09" font-family="Times,serif" font-size="6.00">1.66 kg</text>
</g>
<!-- market for glucose -->
<g id="node7" class="node">
<title>market for glucose</title>
<polygon fill="darkolivegreen" stroke="black" points="662,-656 534,-656 534,-620 662,-620 662,-656"/>
<text text-anchor="middle" x="598" y="-634.3" font-family="Comic Sans MS" font-size="14.00" fill="white">market for glucose</text>
</g>
<!-- market for glucose&#45;&gt;Pre&#45;treatment (corn) -->
<g id="edge7" class="edge">
<title>market for glucose&#45;&gt;Pre&#45;treatment (corn)</title>
<path fill="none" stroke="black" d="M582.25,-619.51C582.25,-619.51 582.25,-557.22 582.25,-557.22"/>
<polygon fill="white" stroke="black" points="585.75,-557.22 582.25,-547.22 578.75,-557.22 585.75,-557.22"/>
<text text-anchor="middle" x="570.25" y="-590.56" font-family="Times,serif" font-size="6.00">2.00 kg</text>
</g>
<!-- market for ammonium sulfate -->
<g id="node8" class="node">
<title>market for ammonium sulfate</title>
<polygon fill="darkolivegreen" stroke="black" points="521.5,-329 328.5,-329 328.5,-293 521.5,-293 521.5,-329"/>
<text text-anchor="middle" x="425" y="-307.3" font-family="Comic Sans MS" font-size="14.00" fill="white">market for ammonium sulfate</text>
</g>
<!-- market for ammonium sulfate&#45;&gt;Purification (corn) -->
<g id="edge8" class="edge">
<title>market for ammonium sulfate&#45;&gt;Purification (corn)</title>
<path fill="none" stroke="#8e0c0c" d="M510.5,-292.51C510.5,-292.51 510.5,-230.22 510.5,-230.22"/>
<polygon fill="white" stroke="#8e0c0c" points="514,-230.22 510.5,-220.22 507,-230.22 514,-230.22"/>
<text text-anchor="middle" x="497.5" y="-263.56" font-family="Times,serif" font-size="6.00">&#45;2.72 kg</text>
</g>
<!-- market for ammonia -->
<g id="node9" class="node">
<title>market for ammonia</title>
<polygon fill="darkolivegreen" stroke="black" points="310.5,-329 171.5,-329 171.5,-293 310.5,-293 310.5,-329"/>
<text text-anchor="middle" x="241" y="-307.3" font-family="Comic Sans MS" font-size="14.00" fill="white">market for ammonia</text>
</g>
<!-- market for ammonia&#45;&gt;Purification (corn) -->
<g id="edge10" class="edge">
<title>market for ammonia&#45;&gt;Purification (corn)</title>
<path fill="none" stroke="black" d="M241,-292.66C241,-263.79 241,-211 241,-211 241,-211 489.3,-211 489.3,-211"/>
<polygon fill="white" stroke="black" points="489.3,-214.5 499.3,-211 489.3,-207.5 489.3,-214.5"/>
<text text-anchor="middle" x="312.32" y="-213.2" font-family="Times,serif" font-size="6.00">0.41 kg</text>
</g>
<!-- market for water -->
<g id="node10" class="node">
<title>market for water</title>
<polygon fill="darkolivegreen" stroke="black" points="153.5,-329 38.5,-329 38.5,-293 153.5,-293 153.5,-329"/>
<text text-anchor="middle" x="96" y="-307.3" font-family="Comic Sans MS" font-size="14.00" fill="white">market for water</text>
</g>
<!-- market for water&#45;&gt;Purification (corn) -->
<g id="edge13" class="edge">
<title>market for water&#45;&gt;Purification (corn)</title>
<path fill="none" stroke="black" d="M96,-292.82C96,-259.72 96,-193 96,-193 96,-193 489.25,-193 489.25,-193"/>
<polygon fill="white" stroke="black" points="489.25,-196.5 499.25,-193 489.25,-189.5 489.25,-196.5"/>
<text text-anchor="middle" x="228.72" y="-195.2" font-family="Times,serif" font-size="6.00">25.30 kg</text>
</g>
<!-- Bacterial fermentation (corn)&#45;&gt;Purification (corn) -->
<g id="edge12" class="edge">
<title>Bacterial fermentation (corn)&#45;&gt;Purification (corn)</title>
<path fill="none" stroke="black" d="M572,-364.98C572,-364.98 572,-230.21 572,-230.21"/>
<polygon fill="black" stroke="black" points="575.5,-230.21 572,-220.21 568.5,-230.21 575.5,-230.21"/>
<text text-anchor="middle" x="560" y="-299.8" font-family="Times,serif" font-size="6.00">1.00 kg</text>
</g>
<!-- Pre&#45;treatment (corn)&#45;&gt;Bacterial fermentation (corn) -->
<g id="edge16" class="edge">
<title>Pre&#45;treatment (corn)&#45;&gt;Bacterial fermentation (corn)</title>
<path fill="none" stroke="black" d="M561,-510.8C561,-510.8 561,-411.43 561,-411.43"/>
<polygon fill="black" stroke="black" points="564.5,-411.43 561,-401.43 557.5,-411.43 564.5,-411.43"/>
<text text-anchor="middle" x="549" y="-463.31" font-family="Times,serif" font-size="6.00">1.00 kg</text>
</g>
<!-- Succinic acid production (corn) -->
<g id="node13" class="node">
<title>Succinic acid production (corn)</title>
<ellipse fill="#471a87" stroke="green" cx="561" cy="-56" rx="131.88" ry="18"/>
<text text-anchor="middle" x="561" y="-52.3" font-family="Comic Sans MS" font-size="14.00" fill="white">Succinic acid production (corn)</text>
</g>
<!-- Purification (corn)&#45;&gt;Succinic acid production (corn) -->
<g id="edge17" class="edge">
<title>Purification (corn)&#45;&gt;Succinic acid production (corn)</title>
<path fill="none" stroke="black" d="M561,-183.8C561,-183.8 561,-84.43 561,-84.43"/>
<polygon fill="black" stroke="black" points="564.5,-84.43 561,-74.43 557.5,-84.43 564.5,-84.43"/>
<text text-anchor="middle" x="549" y="-136.31" font-family="Times,serif" font-size="6.00">1.00 kg</text>
</g>
</g>
</svg>
