<?xml version="1.0" encoding="UTF-8" standalone="no"?>
<!DOCTYPE svg PUBLIC "-//W3C//DTD SVG 1.1//EN"
 "http://www.w3.org/Graphics/SVG/1.1/DTD/svg11.dtd">
<!-- Generated by graphviz version 2.43.0 (0)
 -->
<!-- Title: %3 Pages: 1 -->
<svg width="1329pt" height="807pt"
 viewBox="0.00 0.00 1329.00 807.00" xmlns="http://www.w3.org/2000/svg" xmlns:xlink="http://www.w3.org/1999/xlink">
<g id="graph0" class="graph" transform="scale(1 1) rotate(0) translate(36 771)">
<title>%3</title>
<polygon fill="white" stroke="transparent" points="-36,36 -36,-771 1293,-771 1293,36 -36,36"/>
<text text-anchor="middle" x="628.5" y="-707" font-family="Comic Sans MS" font-size="30.00">System model for succinic acid production from corn &#45; WaterEfficient</text>
<g id="clust1" class="cluster">
<title>cluster_fg</title>
<polygon fill="none" stroke="black" stroke-width="2" points="8,-8 8,-686 1249,-686 1249,-8 8,-8"/>
</g>
<!-- treatment of inert waste -->
<g id="node1" class="node">
<title>treatment of inert waste</title>
<polygon fill="darkolivegreen" stroke="black" points="818,-329 662,-329 662,-293 818,-293 818,-329"/>
<text text-anchor="middle" x="740" y="-307.3" font-family="Comic Sans MS" font-size="14.00" fill="white">treatment of inert waste</text>
</g>
<!-- Purification (corn) -->
<g id="node14" class="node">
<title>Purification (corn)</title>
<polygon fill="#0a86e5" stroke="black" points="526.5,-220 403.5,-220 403.5,-184 526.5,-184 526.5,-220"/>
<text text-anchor="middle" x="465" y="-198.3" font-family="Comic Sans MS" font-size="14.00" fill="white">Purification (corn)</text>
</g>
<!-- treatment of inert waste&#45;&gt;Purification (corn) -->
<g id="edge1" class="edge">
<title>treatment of inert waste&#45;&gt;Purification (corn)</title>
<path fill="none" stroke="black" d="M740,-292.59C740,-262.96 740,-208 740,-208 740,-208 536.72,-208 536.72,-208"/>
<polygon fill="white" stroke="black" points="536.72,-204.5 526.72,-208 536.72,-211.5 536.72,-204.5"/>
<text text-anchor="middle" x="668.65" y="-210.2" font-family="Times,serif" font-size="6.00">2.72 kg</text>
</g>
<!-- treatment of wastewater -->
<g id="node2" class="node">
<title>treatment of wastewater</title>
<polygon fill="darkolivegreen" stroke="black" points="1218.5,-656 1061.5,-656 1061.5,-620 1218.5,-620 1218.5,-656"/>
<text text-anchor="middle" x="1140" y="-634.3" font-family="Comic Sans MS" font-size="14.00" fill="white">treatment of wastewater</text>
</g>
<!-- Pre&#45;treatment (corn) -->
<g id="node12" class="node">
<title>Pre&#45;treatment (corn)</title>
<polygon fill="#0a86e5" stroke="black" points="534.5,-547 395.5,-547 395.5,-511 534.5,-511 534.5,-547"/>
<text text-anchor="middle" x="465" y="-525.3" font-family="Comic Sans MS" font-size="14.00" fill="white">Pre&#45;treatment (corn)</text>
</g>
<!-- treatment of wastewater&#45;&gt;Pre&#45;treatment (corn) -->
<g id="edge7" class="edge">
<title>treatment of wastewater&#45;&gt;Pre&#45;treatment (corn)</title>
<path fill="none" stroke="black" d="M1113.83,-619.77C1113.83,-586.2 1113.83,-518 1113.83,-518 1113.83,-518 544.74,-518 544.74,-518"/>
<polygon fill="white" stroke="black" points="544.74,-514.5 534.74,-518 544.74,-521.5 544.74,-514.5"/>
<text text-anchor="middle" x="861.18" y="-520.2" font-family="Times,serif" font-size="6.00">3.25e&#45;03 m³</text>
</g>
<!-- treatment of wastewater&#45;&gt;Purification (corn) -->
<g id="edge2" class="edge">
<title>treatment of wastewater&#45;&gt;Purification (corn)</title>
<path fill="none" stroke="black" d="M1166.17,-619.85C1166.17,-536.68 1166.17,-196 1166.17,-196 1166.17,-196 536.61,-196 536.61,-196"/>
<polygon fill="white" stroke="black" points="536.61,-192.5 526.61,-196 536.61,-199.5 536.61,-192.5"/>
<text text-anchor="middle" x="1044.31" y="-198.2" font-family="Times,serif" font-size="6.00">2.75e&#45;03 m³</text>
</g>
<!-- market for ammonia -->
<g id="node3" class="node">
<title>market for ammonia</title>
<polygon fill="darkolivegreen" stroke="black" points="623.5,-329 484.5,-329 484.5,-293 623.5,-293 623.5,-329"/>
<text text-anchor="middle" x="554" y="-307.3" font-family="Comic Sans MS" font-size="14.00" fill="white">market for ammonia</text>
</g>
<!-- market for ammonia&#45;&gt;Purification (corn) -->
<g id="edge3" class="edge">
<title>market for ammonia&#45;&gt;Purification (corn)</title>
<path fill="none" stroke="black" d="M505.5,-292.51C505.5,-292.51 505.5,-230.22 505.5,-230.22"/>
<polygon fill="white" stroke="black" points="509,-230.22 505.5,-220.22 502,-230.22 509,-230.22"/>
<text text-anchor="middle" x="493.5" y="-263.56" font-family="Times,serif" font-size="6.00">0.41 kg</text>
</g>
<!-- market group for electricity -->
<g id="node4" class="node">
<title>market group for electricity</title>
<polygon fill="darkolivegreen" stroke="black" points="216,-656 38,-656 38,-620 216,-620 216,-656"/>
<text text-anchor="middle" x="127" y="-634.3" font-family="Comic Sans MS" font-size="14.00" fill="white">market group for electricity</text>
</g>
<!-- Bacterial fermentation (corn) -->
<g id="node11" class="node">
<title>Bacterial fermentation (corn)</title>
<polygon fill="#0a86e5" stroke="black" points="559,-401 371,-401 371,-365 559,-365 559,-401"/>
<text text-anchor="middle" x="465" y="-379.3" font-family="Comic Sans MS" font-size="14.00" fill="white">Bacterial fermentation (corn)</text>
</g>
<!-- market group for electricity&#45;&gt;Bacterial fermentation (corn) -->
<g id="edge15" class="edge">
<title>market group for electricity&#45;&gt;Bacterial fermentation (corn)</title>
<path fill="none" stroke="black" d="M127,-619.66C127,-561.19 127,-383 127,-383 127,-383 360.85,-383 360.85,-383"/>
<polygon fill="white" stroke="black" points="360.85,-386.5 370.85,-383 360.85,-379.5 360.85,-386.5"/>
<text text-anchor="middle" x="112" y="-386.61" font-family="Times,serif" font-size="6.00">0.23 kWh</text>
</g>
<!-- market group for electricity&#45;&gt;Pre&#45;treatment (corn) -->
<g id="edge10" class="edge">
<title>market group for electricity&#45;&gt;Pre&#45;treatment (corn)</title>
<path fill="none" stroke="black" d="M171.5,-619.78C171.5,-587.35 171.5,-523 171.5,-523 171.5,-523 385.44,-523 385.44,-523"/>
<polygon fill="white" stroke="black" points="385.44,-526.5 395.44,-523 385.44,-519.5 385.44,-526.5"/>
<text text-anchor="middle" x="215.08" y="-525.2" font-family="Times,serif" font-size="6.00">0.23 kWh</text>
</g>
<!-- market group for electricity&#45;&gt;Purification (corn) -->
<g id="edge4" class="edge">
<title>market group for electricity&#45;&gt;Purification (corn)</title>
<path fill="none" stroke="black" d="M82.5,-619.82C82.5,-537.3 82.5,-202 82.5,-202 82.5,-202 393.12,-202 393.12,-202"/>
<polygon fill="white" stroke="black" points="393.12,-205.5 403.12,-202 393.12,-198.5 393.12,-205.5"/>
<text text-anchor="middle" x="67.5" y="-257.8" font-family="Times,serif" font-size="6.00">0.23 kWh</text>
</g>
<!-- market for water -->
<g id="node5" class="node">
<title>market for water</title>
<polygon fill="darkolivegreen" stroke="black" points="445.5,-329 330.5,-329 330.5,-293 445.5,-293 445.5,-329"/>
<text text-anchor="middle" x="388" y="-307.3" font-family="Comic Sans MS" font-size="14.00" fill="white">market for water</text>
</g>
<!-- market for water&#45;&gt;Purification (corn) -->
<g id="edge6" class="edge">
<title>market for water&#45;&gt;Purification (corn)</title>
<path fill="none" stroke="black" d="M424.5,-292.51C424.5,-292.51 424.5,-230.22 424.5,-230.22"/>
<polygon fill="white" stroke="black" points="428,-230.22 424.5,-220.22 421,-230.22 428,-230.22"/>
<text text-anchor="middle" x="412.5" y="-263.56" font-family="Times,serif" font-size="6.00">6.33 kg</text>
</g>
<!-- steam production -->
<g id="node6" class="node">
<title>steam production</title>
<polygon fill="darkolivegreen" stroke="black" points="818,-656 698,-656 698,-620 818,-620 818,-656"/>
<text text-anchor="middle" x="758" y="-634.3" font-family="Comic Sans MS" font-size="14.00" fill="white">steam production</text>
</g>
<!-- steam production&#45;&gt;Pre&#45;treatment (corn) -->
<g id="edge8" class="edge">
<title>steam production&#45;&gt;Pre&#45;treatment (corn)</title>
<path fill="none" stroke="black" d="M758,-619.54C758,-589.17 758,-532 758,-532 758,-532 544.81,-532 544.81,-532"/>
<polygon fill="white" stroke="black" points="544.81,-528.5 534.81,-532 544.81,-535.5 544.81,-528.5"/>
<text text-anchor="middle" x="683.17" y="-534.2" font-family="Times,serif" font-size="6.00">0.02 kg</text>
</g>
<!-- treatment of biowaste -->
<g id="node7" class="node">
<title>treatment of biowaste</title>
<polygon fill="darkolivegreen" stroke="black" points="377.5,-656 234.5,-656 234.5,-620 377.5,-620 377.5,-656"/>
<text text-anchor="middle" x="306" y="-634.3" font-family="Comic Sans MS" font-size="14.00" fill="white">treatment of biowaste</text>
</g>
<!-- treatment of biowaste&#45;&gt;Bacterial fermentation (corn) -->
<g id="edge14" class="edge">
<title>treatment of biowaste&#45;&gt;Bacterial fermentation (corn)</title>
<path fill="none" stroke="black" d="M377.58,-638C383.05,-638 386.5,-638 386.5,-638 386.5,-638 386.5,-411.34 386.5,-411.34"/>
<polygon fill="white" stroke="black" points="390,-411.34 386.5,-401.34 383,-411.34 390,-411.34"/>
<text text-anchor="middle" x="374.5" y="-531.33" font-family="Times,serif" font-size="6.00">0.82 kg</text>
</g>
<!-- treatment of biowaste&#45;&gt;Pre&#45;treatment (corn) -->
<g id="edge9" class="edge">
<title>treatment of biowaste&#45;&gt;Pre&#45;treatment (corn)</title>
<path fill="none" stroke="black" d="M350.75,-619.59C350.75,-589.96 350.75,-535 350.75,-535 350.75,-535 385.25,-535 385.25,-535"/>
<polygon fill="white" stroke="black" points="385.25,-538.5 395.25,-535 385.25,-531.5 385.25,-538.5"/>
<text text-anchor="middle" x="338.75" y="-562.24" font-family="Times,serif" font-size="6.00">0.40 kg</text>
</g>
<!-- market for tap water -->
<g id="node8" class="node">
<title>market for tap water</title>
<polygon fill="darkolivegreen" stroke="black" points="534,-656 396,-656 396,-620 534,-620 534,-656"/>
<text text-anchor="middle" x="465" y="-634.3" font-family="Comic Sans MS" font-size="14.00" fill="white">market for tap water</text>
</g>
<!-- market for tap water&#45;&gt;Pre&#45;treatment (corn) -->
<g id="edge11" class="edge">
<title>market for tap water&#45;&gt;Pre&#45;treatment (corn)</title>
<path fill="none" stroke="black" d="M465,-619.51C465,-619.51 465,-557.22 465,-557.22"/>
<polygon fill="white" stroke="black" points="468.5,-557.22 465,-547.22 461.5,-557.22 468.5,-557.22"/>
<text text-anchor="middle" x="453" y="-590.56" font-family="Times,serif" font-size="6.00">3.23 kg</text>
</g>
<!-- market for sweet sorghum grain -->
<g id="node9" class="node">
<title>market for sweet sorghum grain</title>
<polygon fill="darkolivegreen" stroke="black" points="1043.5,-656 836.5,-656 836.5,-620 1043.5,-620 1043.5,-656"/>
<text text-anchor="middle" x="940" y="-634.3" font-family="Comic Sans MS" font-size="14.00" fill="white">market for sweet sorghum grain</text>
</g>
<!-- market for sweet sorghum grain&#45;&gt;Pre&#45;treatment (corn) -->
<g id="edge12" class="edge">
<title>market for sweet sorghum grain&#45;&gt;Pre&#45;treatment (corn)</title>
<path fill="none" stroke="black" d="M940,-619.84C940,-587.9 940,-525 940,-525 940,-525 544.58,-525 544.58,-525"/>
<polygon fill="white" stroke="black" points="544.58,-521.5 534.58,-525 544.58,-528.5 544.58,-521.5"/>
<text text-anchor="middle" x="777.71" y="-527.2" font-family="Times,serif" font-size="6.00">1.66 kg</text>
</g>
<!-- market for glucose -->
<g id="node10" class="node">
<title>market for glucose</title>
<polygon fill="darkolivegreen" stroke="black" points="680,-656 552,-656 552,-620 680,-620 680,-656"/>
<text text-anchor="middle" x="616" y="-634.3" font-family="Comic Sans MS" font-size="14.00" fill="white">market for glucose</text>
</g>
<!-- market for glucose&#45;&gt;Pre&#45;treatment (corn) -->
<g id="edge13" class="edge">
<title>market for glucose&#45;&gt;Pre&#45;treatment (corn)</title>
<path fill="none" stroke="black" d="M555.5,-619.84C555.5,-591.26 555.5,-539 555.5,-539 555.5,-539 544.51,-539 544.51,-539"/>
<polygon fill="white" stroke="black" points="544.51,-535.5 534.51,-539 544.51,-542.5 544.51,-535.5"/>
<text text-anchor="middle" x="543.5" y="-576.13" font-family="Times,serif" font-size="6.00">2.00 kg</text>
</g>
<!-- Bacterial fermentation (corn)&#45;&gt;Purification (corn) -->
<g id="edge5" class="edge">
<title>Bacterial fermentation (corn)&#45;&gt;Purification (corn)</title>
<path fill="none" stroke="black" d="M465,-364.98C465,-364.98 465,-230.21 465,-230.21"/>
<polygon fill="black" stroke="black" points="468.5,-230.21 465,-220.21 461.5,-230.21 468.5,-230.21"/>
<text text-anchor="middle" x="471" y="-292.8" font-family="Times,serif" font-size="6.00">1.00 kg</text>
</g>
<!-- Pre&#45;treatment (corn)&#45;&gt;Bacterial fermentation (corn) -->
<g id="edge16" class="edge">
<title>Pre&#45;treatment (corn)&#45;&gt;Bacterial fermentation (corn)</title>
<path fill="none" stroke="black" d="M465,-510.8C465,-510.8 465,-411.43 465,-411.43"/>
<polygon fill="black" stroke="black" points="468.5,-411.43 465,-401.43 461.5,-411.43 468.5,-411.43"/>
<text text-anchor="middle" x="453" y="-463.31" font-family="Times,serif" font-size="6.00">1.00 kg</text>
</g>
<!-- Succinic acid production (corn) -->
<g id="node13" class="node">
<title>Succinic acid production (corn)</title>
<ellipse fill="#471a87" stroke="green" cx="465" cy="-56" rx="131.88" ry="18"/>
<text text-anchor="middle" x="465" y="-52.3" font-family="Comic Sans MS" font-size="14.00" fill="white">Succinic acid production (corn)</text>
</g>
<!-- Purification (corn)&#45;&gt;Succinic acid production (corn) -->
<g id="edge17" class="edge">
<title>Purification (corn)&#45;&gt;Succinic acid production (corn)</title>
<path fill="none" stroke="black" d="M465,-183.8C465,-183.8 465,-84.43 465,-84.43"/>
<polygon fill="black" stroke="black" points="468.5,-84.43 465,-74.43 461.5,-84.43 468.5,-84.43"/>
<text text-anchor="middle" x="453" y="-136.31" font-family="Times,serif" font-size="6.00">1.00 kg</text>
</g>
</g>
</svg>
