<?xml version="1.0" encoding="UTF-8" standalone="no"?>
<!DOCTYPE svg PUBLIC "-//W3C//DTD SVG 1.1//EN"
 "http://www.w3.org/Graphics/SVG/1.1/DTD/svg11.dtd">
<!-- Generated by graphviz version 2.43.0 (0)
 -->
<!-- Title: %3 Pages: 1 -->
<svg width="1013pt" height="842pt"
 viewBox="0.00 0.00 1013.00 842.00" xmlns="http://www.w3.org/2000/svg" xmlns:xlink="http://www.w3.org/1999/xlink">
<g id="graph0" class="graph" transform="scale(1 1) rotate(0) translate(36 806)">
<title>%3</title>
<polygon fill="white" stroke="transparent" points="-36,36 -36,-806 977,-806 977,36 -36,36"/>
<text text-anchor="middle" x="470.5" y="-742" font-family="Comic Sans MS" font-size="30.00">System model for succinic acid production from bread</text>
<g id="clust1" class="cluster">
<title>cluster_fg</title>
<polygon fill="none" stroke="black" stroke-width="2" points="8,-8 8,-721 933,-721 933,-8 8,-8"/>
</g>
<!-- market for enzymes -->
<g id="node1" class="node">
<title>market for enzymes</title>
<polygon fill="darkolivegreen" stroke="black" points="551,-691 417,-691 417,-655 551,-655 551,-691"/>
<text text-anchor="middle" x="484" y="-669.3" font-family="Comic Sans MS" font-size="14.00" fill="white">market for enzymes</text>
</g>
<!-- Pre&#45;treatment -->
<g id="node16" class="node">
<title>Pre&#45;treatment</title>
<polygon fill="#0a86e5" stroke="black" points="843,-582 745,-582 745,-546 843,-546 843,-582"/>
<text text-anchor="middle" x="794" y="-560.3" font-family="Comic Sans MS" font-size="14.00" fill="white">Pre&#45;treatment</text>
</g>
<!-- market for enzymes&#45;&gt;Pre&#45;treatment -->
<g id="edge2" class="edge">
<title>market for enzymes&#45;&gt;Pre&#45;treatment</title>
<path fill="none" stroke="black" d="M484,-654.51C484,-623.41 484,-564 484,-564 484,-564 734.88,-564 734.88,-564"/>
<polygon fill="white" stroke="black" points="734.88,-567.5 744.88,-564 734.88,-560.5 734.88,-567.5"/>
<text text-anchor="middle" x="545.68" y="-566.2" font-family="Times,serif" font-size="6.00">3.68e&#45;03 kg</text>
</g>
<!-- market group for electricity -->
<g id="node2" class="node">
<title>market group for electricity</title>
<polygon fill="darkolivegreen" stroke="black" points="903,-691 725,-691 725,-655 903,-655 903,-691"/>
<text text-anchor="middle" x="814" y="-669.3" font-family="Comic Sans MS" font-size="14.00" fill="white">market group for electricity</text>
</g>
<!-- Purification -->
<g id="node14" class="node">
<title>Purification</title>
<polygon fill="#0a86e5" stroke="black" points="807.5,-220 724.5,-220 724.5,-184 807.5,-184 807.5,-220"/>
<text text-anchor="middle" x="766" y="-198.3" font-family="Comic Sans MS" font-size="14.00" fill="white">Purification</text>
</g>
<!-- market group for electricity&#45;&gt;Purification -->
<g id="edge20" class="edge">
<title>market group for electricity&#45;&gt;Purification</title>
<path fill="none" stroke="black" d="M883,-654.82C883,-568.27 883,-202 883,-202 883,-202 817.58,-202 817.58,-202"/>
<polygon fill="white" stroke="black" points="817.58,-198.5 807.58,-202 817.58,-205.5 817.58,-198.5"/>
<text text-anchor="middle" x="868" y="-397.9" font-family="Times,serif" font-size="6.00">0.18 kWh</text>
</g>
<!-- market group for electricity&#45;&gt;Pre&#45;treatment -->
<g id="edge3" class="edge">
<title>market group for electricity&#45;&gt;Pre&#45;treatment</title>
<path fill="none" stroke="black" d="M794,-654.51C794,-654.51 794,-592.22 794,-592.22"/>
<polygon fill="white" stroke="black" points="797.5,-592.22 794,-582.22 790.5,-592.22 797.5,-592.22"/>
<text text-anchor="middle" x="779" y="-625.56" font-family="Times,serif" font-size="6.00">0.18 kWh</text>
</g>
<!-- Bacterial fermentation -->
<g id="node17" class="node">
<title>Bacterial fermentation</title>
<polygon fill="#0a86e5" stroke="black" points="843,-401 695,-401 695,-365 843,-365 843,-401"/>
<text text-anchor="middle" x="769" y="-379.3" font-family="Comic Sans MS" font-size="14.00" fill="white">Bacterial fermentation</text>
</g>
<!-- market group for electricity&#45;&gt;Bacterial fermentation -->
<g id="edge9" class="edge">
<title>market group for electricity&#45;&gt;Bacterial fermentation</title>
<path fill="none" stroke="black" d="M863,-654.86C863,-591.37 863,-383 863,-383 863,-383 853.07,-383 853.07,-383"/>
<polygon fill="white" stroke="black" points="853.07,-379.5 843.07,-383 853.06,-386.5 853.07,-379.5"/>
<text text-anchor="middle" x="848" y="-516.16" font-family="Times,serif" font-size="6.00">0.18 kWh</text>
</g>
<!-- market for tap water -->
<g id="node3" class="node">
<title>market for tap water</title>
<polygon fill="darkolivegreen" stroke="black" points="707,-691 569,-691 569,-655 707,-655 707,-691"/>
<text text-anchor="middle" x="638" y="-669.3" font-family="Comic Sans MS" font-size="14.00" fill="white">market for tap water</text>
</g>
<!-- market for tap water&#45;&gt;Purification -->
<g id="edge18" class="edge">
<title>market for tap water&#45;&gt;Purification</title>
<path fill="none" stroke="black" d="M604.75,-654.72C604.75,-569.35 604.75,-214 604.75,-214 604.75,-214 714.47,-214 714.47,-214"/>
<polygon fill="white" stroke="black" points="714.47,-217.5 724.47,-214 714.47,-210.5 714.47,-217.5"/>
<text text-anchor="middle" x="590.75" y="-381.7" font-family="Times,serif" font-size="6.00">56.00 kg</text>
</g>
<!-- market for tap water&#45;&gt;Pre&#45;treatment -->
<g id="edge4" class="edge">
<title>market for tap water&#45;&gt;Pre&#45;treatment</title>
<path fill="none" stroke="black" d="M660.25,-654.66C660.25,-625.79 660.25,-573 660.25,-573 660.25,-573 734.96,-573 734.96,-573"/>
<polygon fill="white" stroke="black" points="734.96,-576.5 744.96,-573 734.96,-569.5 734.96,-576.5"/>
<text text-anchor="middle" x="648.25" y="-578.68" font-family="Times,serif" font-size="6.00">6.00 kg</text>
</g>
<!-- market for steam -->
<g id="node4" class="node">
<title>market for steam</title>
<polygon fill="darkolivegreen" stroke="black" points="398.5,-691 279.5,-691 279.5,-655 398.5,-655 398.5,-691"/>
<text text-anchor="middle" x="339" y="-669.3" font-family="Comic Sans MS" font-size="14.00" fill="white">market for steam</text>
</g>
<!-- market for steam&#45;&gt;Purification -->
<g id="edge16" class="edge">
<title>market for steam&#45;&gt;Purification</title>
<path fill="none" stroke="black" d="M398.86,-673C401.76,-673 403.5,-673 403.5,-673 403.5,-673 403.5,-202 403.5,-202 403.5,-202 714.42,-202 714.42,-202"/>
<polygon fill="white" stroke="black" points="714.42,-205.5 724.42,-202 714.42,-198.5 714.42,-205.5"/>
<text text-anchor="middle" x="391.5" y="-286.56" font-family="Times,serif" font-size="6.00">7.33 kg</text>
</g>
<!-- market for steam&#45;&gt;Pre&#45;treatment -->
<g id="edge5" class="edge">
<title>market for steam&#45;&gt;Pre&#45;treatment</title>
<path fill="none" stroke="black" d="M384.83,-654.82C384.83,-621.72 384.83,-555 384.83,-555 384.83,-555 734.64,-555 734.64,-555"/>
<polygon fill="white" stroke="black" points="734.64,-558.5 744.64,-555 734.64,-551.5 734.64,-558.5"/>
<text text-anchor="middle" x="497.83" y="-557.2" font-family="Times,serif" font-size="6.00">7.20 kg</text>
</g>
<!-- market for steam&#45;&gt;Bacterial fermentation -->
<g id="edge12" class="edge">
<title>market for steam&#45;&gt;Bacterial fermentation</title>
<path fill="none" stroke="black" d="M377.67,-654.61C377.67,-591.27 377.67,-386 377.67,-386 377.67,-386 684.93,-386 684.93,-386"/>
<polygon fill="white" stroke="black" points="684.93,-389.5 694.93,-386 684.93,-382.5 684.93,-389.5"/>
<text text-anchor="middle" x="384.99" y="-388.2" font-family="Times,serif" font-size="6.00">7.33 kg</text>
</g>
<!-- treatment of biowaste -->
<g id="node5" class="node">
<title>treatment of biowaste</title>
<polygon fill="darkolivegreen" stroke="black" points="181.5,-510 38.5,-510 38.5,-474 181.5,-474 181.5,-510"/>
<text text-anchor="middle" x="110" y="-488.3" font-family="Comic Sans MS" font-size="14.00" fill="white">treatment of biowaste</text>
</g>
<!-- treatment of biowaste&#45;&gt;Bacterial fermentation -->
<g id="edge6" class="edge">
<title>treatment of biowaste&#45;&gt;Bacterial fermentation</title>
<path fill="none" stroke="black" d="M110,-473.77C110,-440.2 110,-372 110,-372 110,-372 684.69,-372 684.69,-372"/>
<polygon fill="white" stroke="black" points="684.69,-375.5 694.69,-372 684.69,-368.5 684.69,-375.5"/>
<text text-anchor="middle" x="334.46" y="-374.2" font-family="Times,serif" font-size="6.00">0.50 kg</text>
</g>
<!-- market for neutralising agent -->
<g id="node6" class="node">
<title>market for neutralising agent</title>
<polygon fill="darkolivegreen" stroke="black" points="802.5,-510 613.5,-510 613.5,-474 802.5,-474 802.5,-510"/>
<text text-anchor="middle" x="708" y="-488.3" font-family="Comic Sans MS" font-size="14.00" fill="white">market for neutralising agent</text>
</g>
<!-- market for neutralising agent&#45;&gt;Bacterial fermentation -->
<g id="edge7" class="edge">
<title>market for neutralising agent&#45;&gt;Bacterial fermentation</title>
<path fill="none" stroke="black" d="M748.75,-473.51C748.75,-473.51 748.75,-411.22 748.75,-411.22"/>
<polygon fill="white" stroke="black" points="752.25,-411.22 748.75,-401.22 745.25,-411.22 752.25,-411.22"/>
<text text-anchor="middle" x="736.75" y="-444.56" font-family="Times,serif" font-size="6.00">0.11 kg</text>
</g>
<!-- market for magnesium oxide -->
<g id="node7" class="node">
<title>market for magnesium oxide</title>
<polygon fill="darkolivegreen" stroke="black" points="595.5,-510 408.5,-510 408.5,-474 595.5,-474 595.5,-510"/>
<text text-anchor="middle" x="502" y="-488.3" font-family="Comic Sans MS" font-size="14.00" fill="white">market for magnesium oxide</text>
</g>
<!-- market for magnesium oxide&#45;&gt;Bacterial fermentation -->
<g id="edge8" class="edge">
<title>market for magnesium oxide&#45;&gt;Bacterial fermentation</title>
<path fill="none" stroke="black" d="M502.75,-473.84C502.75,-445.26 502.75,-393 502.75,-393 502.75,-393 684.83,-393 684.83,-393"/>
<polygon fill="white" stroke="black" points="684.83,-396.5 694.83,-393 684.83,-389.5 684.83,-396.5"/>
<text text-anchor="middle" x="541.37" y="-395.2" font-family="Times,serif" font-size="6.00">0.15 kg</text>
</g>
<!-- market for carbon dioxide -->
<g id="node8" class="node">
<title>market for carbon dioxide</title>
<polygon fill="darkolivegreen" stroke="black" points="370.5,-510 199.5,-510 199.5,-474 370.5,-474 370.5,-510"/>
<text text-anchor="middle" x="285" y="-488.3" font-family="Comic Sans MS" font-size="14.00" fill="white">market for carbon dioxide</text>
</g>
<!-- market for carbon dioxide&#45;&gt;Bacterial fermentation -->
<g id="edge10" class="edge">
<title>market for carbon dioxide&#45;&gt;Bacterial fermentation</title>
<path fill="none" stroke="black" d="M292.25,-473.84C292.25,-441.9 292.25,-379 292.25,-379 292.25,-379 684.77,-379 684.77,-379"/>
<polygon fill="white" stroke="black" points="684.77,-382.5 694.77,-379 684.77,-375.5 684.77,-382.5"/>
<text text-anchor="middle" x="426.09" y="-381.2" font-family="Times,serif" font-size="6.00">0.32 kWh</text>
</g>
<!-- market for soybean meal -->
<g id="node9" class="node">
<title>market for soybean meal</title>
<polygon fill="darkolivegreen" stroke="black" points="779.5,-329 614.5,-329 614.5,-293 779.5,-293 779.5,-329"/>
<text text-anchor="middle" x="697" y="-307.3" font-family="Comic Sans MS" font-size="14.00" fill="white">market for soybean meal</text>
</g>
<!-- market for soybean meal&#45;&gt;Purification -->
<g id="edge13" class="edge">
<title>market for soybean meal&#45;&gt;Purification</title>
<path fill="none" stroke="#8e0c0c" d="M752,-292.51C752,-292.51 752,-230.22 752,-230.22"/>
<polygon fill="white" stroke="#8e0c0c" points="755.5,-230.22 752,-220.22 748.5,-230.22 755.5,-230.22"/>
<text text-anchor="middle" x="739" y="-263.56" font-family="Times,serif" font-size="6.00">&#45;5.77 kg</text>
</g>
<!-- market for hydrochloric acid -->
<g id="node10" class="node">
<title>market for hydrochloric acid</title>
<polygon fill="darkolivegreen" stroke="black" points="596,-329 410,-329 410,-293 596,-293 596,-329"/>
<text text-anchor="middle" x="503" y="-307.3" font-family="Comic Sans MS" font-size="14.00" fill="white">market for hydrochloric acid</text>
</g>
<!-- market for hydrochloric acid&#45;&gt;Purification -->
<g id="edge14" class="edge">
<title>market for hydrochloric acid&#45;&gt;Purification</title>
<path fill="none" stroke="black" d="M503,-292.59C503,-262.96 503,-208 503,-208 503,-208 714.33,-208 714.33,-208"/>
<polygon fill="white" stroke="black" points="714.33,-211.5 724.33,-208 714.33,-204.5 714.33,-211.5"/>
<text text-anchor="middle" x="554.37" y="-210.2" font-family="Times,serif" font-size="6.00">0.04 kg</text>
</g>
<!-- market for sodium chloride -->
<g id="node11" class="node">
<title>market for sodium chloride</title>
<polygon fill="darkolivegreen" stroke="black" points="392,-329 214,-329 214,-293 392,-293 392,-329"/>
<text text-anchor="middle" x="303" y="-307.3" font-family="Comic Sans MS" font-size="14.00" fill="white">market for sodium chloride</text>
</g>
<!-- market for sodium chloride&#45;&gt;Purification -->
<g id="edge17" class="edge">
<title>market for sodium chloride&#45;&gt;Purification</title>
<path fill="none" stroke="black" d="M303,-292.78C303,-260.35 303,-196 303,-196 303,-196 714.1,-196 714.1,-196"/>
<polygon fill="white" stroke="black" points="714.1,-199.5 724.1,-196 714.1,-192.5 714.1,-199.5"/>
<text text-anchor="middle" x="448.16" y="-198.2" font-family="Times,serif" font-size="6.00">8.14 kg</text>
</g>
<!-- treatment of wastewater -->
<g id="node12" class="node">
<title>treatment of wastewater</title>
<polygon fill="darkolivegreen" stroke="black" points="195.5,-329 38.5,-329 38.5,-293 195.5,-293 195.5,-329"/>
<text text-anchor="middle" x="117" y="-307.3" font-family="Comic Sans MS" font-size="14.00" fill="white">treatment of wastewater</text>
</g>
<!-- treatment of wastewater&#45;&gt;Purification -->
<g id="edge19" class="edge">
<title>treatment of wastewater&#45;&gt;Purification</title>
<path fill="none" stroke="black" d="M117,-292.89C117,-259.13 117,-190 117,-190 117,-190 714.41,-190 714.41,-190"/>
<polygon fill="white" stroke="black" points="714.41,-193.5 724.41,-190 714.41,-186.5 714.41,-193.5"/>
<text text-anchor="middle" x="350.26" y="-192.2" font-family="Times,serif" font-size="6.00">62.00 kg</text>
</g>
<!-- Succinic acid production (bread) -->
<g id="node13" class="node">
<title>Succinic acid production (bread)</title>
<ellipse fill="#471a87" stroke="green" cx="766" cy="-56" rx="137.28" ry="18"/>
<text text-anchor="middle" x="766" y="-52.3" font-family="Comic Sans MS" font-size="14.00" fill="white">Succinic acid production (bread)</text>
</g>
<!-- Purification&#45;&gt;Succinic acid production (bread) -->
<g id="edge1" class="edge">
<title>Purification&#45;&gt;Succinic acid production (bread)</title>
<path fill="none" stroke="black" d="M766,-183.8C766,-183.8 766,-84.43 766,-84.43"/>
<polygon fill="black" stroke="black" points="769.5,-84.43 766,-74.43 762.5,-84.43 769.5,-84.43"/>
<text text-anchor="middle" x="754" y="-136.31" font-family="Times,serif" font-size="6.00">1.00 kg</text>
</g>
<!-- Bread waste -->
<g id="node15" class="node">
<title>Bread waste</title>
<ellipse fill="goldenrod" stroke="#000000" cx="150" cy="-673" rx="57.69" ry="18"/>
<text text-anchor="middle" x="150" y="-669.3" font-family="Comic Sans MS" font-size="14.00" fill="white">Bread waste</text>
</g>
<!-- Pre&#45;treatment&#45;&gt;Bacterial fermentation -->
<g id="edge11" class="edge">
<title>Pre&#45;treatment&#45;&gt;Bacterial fermentation</title>
<path fill="none" stroke="black" d="M822.75,-545.98C822.75,-545.98 822.75,-411.21 822.75,-411.21"/>
<polygon fill="black" stroke="black" points="826.25,-411.21 822.75,-401.21 819.25,-411.21 826.25,-411.21"/>
<text text-anchor="middle" x="834.75" y="-480.8" font-family="Times,serif" font-size="6.00">1.00 kg</text>
</g>
<!-- Bacterial fermentation&#45;&gt;Purification -->
<g id="edge15" class="edge">
<title>Bacterial fermentation&#45;&gt;Purification</title>
<path fill="none" stroke="black" d="M793.5,-364.98C793.5,-364.98 793.5,-230.21 793.5,-230.21"/>
<polygon fill="black" stroke="black" points="797,-230.21 793.5,-220.21 790,-230.21 797,-230.21"/>
<text text-anchor="middle" x="805.5" y="-299.8" font-family="Times,serif" font-size="6.00">1.00 kg</text>
</g>
</g>
</svg>
