<?xml version="1.0" encoding="UTF-8" standalone="no"?>
<!DOCTYPE svg PUBLIC "-//W3C//DTD SVG 1.1//EN"
 "http://www.w3.org/Graphics/SVG/1.1/DTD/svg11.dtd">
<!-- Generated by graphviz version 2.43.0 (0)
 -->
<!-- Title: %3 Pages: 1 -->
<svg width="1328pt" height="807pt"
 viewBox="0.00 0.00 1328.00 807.00" xmlns="http://www.w3.org/2000/svg" xmlns:xlink="http://www.w3.org/1999/xlink">
<g id="graph0" class="graph" transform="scale(1 1) rotate(0) translate(36 771)">
<title>%3</title>
<polygon fill="white" stroke="transparent" points="-36,36 -36,-771 1292,-771 1292,36 -36,36"/>
<text text-anchor="middle" x="628" y="-707" font-family="Comic Sans MS" font-size="30.00">System model for succinic acid production from corn</text>
<g id="clust1" class="cluster">
<title>cluster_fg</title>
<polygon fill="none" stroke="black" stroke-width="2" points="8,-8 8,-686 1248,-686 1248,-8 8,-8"/>
</g>
<!-- treatment of biowaste -->
<g id="node1" class="node">
<title>treatment of biowaste</title>
<polygon fill="darkolivegreen" stroke="black" points="356.5,-656 213.5,-656 213.5,-620 356.5,-620 356.5,-656"/>
<text text-anchor="middle" x="285" y="-634.3" font-family="Comic Sans MS" font-size="14.00" fill="white">treatment of biowaste</text>
</g>
<!-- Pre&#45;treatment (corn) -->
<g id="node13" class="node">
<title>Pre&#45;treatment (corn)</title>
<polygon fill="#0a86e5" stroke="black" points="738.5,-547 599.5,-547 599.5,-511 738.5,-511 738.5,-547"/>
<text text-anchor="middle" x="669" y="-525.3" font-family="Comic Sans MS" font-size="14.00" fill="white">Pre&#45;treatment (corn)</text>
</g>
<!-- treatment of biowaste&#45;&gt;Pre&#45;treatment (corn) -->
<g id="edge7" class="edge">
<title>treatment of biowaste&#45;&gt;Pre&#45;treatment (corn)</title>
<path fill="none" stroke="black" d="M315.17,-619.51C315.17,-588.41 315.17,-529 315.17,-529 315.17,-529 589.09,-529 589.09,-529"/>
<polygon fill="white" stroke="black" points="589.09,-532.5 599.09,-529 589.09,-525.5 589.09,-532.5"/>
<text text-anchor="middle" x="394.88" y="-531.2" font-family="Times,serif" font-size="6.00">0.40 kg</text>
</g>
<!-- Bacterial fermentation (corn) -->
<g id="node14" class="node">
<title>Bacterial fermentation (corn)</title>
<polygon fill="#0a86e5" stroke="black" points="763,-401 575,-401 575,-365 763,-365 763,-401"/>
<text text-anchor="middle" x="669" y="-379.3" font-family="Comic Sans MS" font-size="14.00" fill="white">Bacterial fermentation (corn)</text>
</g>
<!-- treatment of biowaste&#45;&gt;Bacterial fermentation (corn) -->
<g id="edge2" class="edge">
<title>treatment of biowaste&#45;&gt;Bacterial fermentation (corn)</title>
<path fill="none" stroke="black" d="M273.83,-619.66C273.83,-561.19 273.83,-383 273.83,-383 273.83,-383 564.85,-383 564.85,-383"/>
<polygon fill="white" stroke="black" points="564.85,-386.5 574.85,-383 564.85,-379.5 564.85,-386.5"/>
<text text-anchor="middle" x="289.01" y="-385.2" font-family="Times,serif" font-size="6.00">0.82 kg</text>
</g>
<!-- market group for electricity -->
<g id="node2" class="node">
<title>market group for electricity</title>
<polygon fill="darkolivegreen" stroke="black" points="1218,-656 1040,-656 1040,-620 1218,-620 1218,-656"/>
<text text-anchor="middle" x="1129" y="-634.3" font-family="Comic Sans MS" font-size="14.00" fill="white">market group for electricity</text>
</g>
<!-- Purification (corn) -->
<g id="node12" class="node">
<title>Purification (corn)</title>
<polygon fill="#0a86e5" stroke="black" points="730.5,-220 607.5,-220 607.5,-184 730.5,-184 730.5,-220"/>
<text text-anchor="middle" x="669" y="-198.3" font-family="Comic Sans MS" font-size="14.00" fill="white">Purification (corn)</text>
</g>
<!-- market group for electricity&#45;&gt;Purification (corn) -->
<g id="edge15" class="edge">
<title>market group for electricity&#45;&gt;Purification (corn)</title>
<path fill="none" stroke="black" d="M1173.5,-619.82C1173.5,-537.3 1173.5,-202 1173.5,-202 1173.5,-202 740.61,-202 740.61,-202"/>
<polygon fill="white" stroke="black" points="740.61,-198.5 730.61,-202 740.61,-205.5 740.61,-198.5"/>
<text text-anchor="middle" x="1150.96" y="-204.2" font-family="Times,serif" font-size="6.00">0.90 kWh</text>
</g>
<!-- market group for electricity&#45;&gt;Pre&#45;treatment (corn) -->
<g id="edge8" class="edge">
<title>market group for electricity&#45;&gt;Pre&#45;treatment (corn)</title>
<path fill="none" stroke="black" d="M1084.5,-619.82C1084.5,-586.72 1084.5,-520 1084.5,-520 1084.5,-520 748.55,-520 748.55,-520"/>
<polygon fill="white" stroke="black" points="748.55,-516.5 738.55,-520 748.55,-523.5 748.55,-516.5"/>
<text text-anchor="middle" x="951.43" y="-522.2" font-family="Times,serif" font-size="6.00">0.90 kWh</text>
</g>
<!-- market group for electricity&#45;&gt;Bacterial fermentation (corn) -->
<g id="edge3" class="edge">
<title>market group for electricity&#45;&gt;Bacterial fermentation (corn)</title>
<path fill="none" stroke="black" d="M1129,-619.66C1129,-561.19 1129,-383 1129,-383 1129,-383 773.2,-383 773.2,-383"/>
<polygon fill="white" stroke="black" points="773.2,-379.5 763.2,-383 773.2,-386.5 773.2,-379.5"/>
<text text-anchor="middle" x="1054.43" y="-385.2" font-family="Times,serif" font-size="6.00">0.90 kWh</text>
</g>
<!-- treatment of wastewater -->
<g id="node3" class="node">
<title>treatment of wastewater</title>
<polygon fill="darkolivegreen" stroke="black" points="195.5,-656 38.5,-656 38.5,-620 195.5,-620 195.5,-656"/>
<text text-anchor="middle" x="117" y="-634.3" font-family="Comic Sans MS" font-size="14.00" fill="white">treatment of wastewater</text>
</g>
<!-- treatment of wastewater&#45;&gt;Purification (corn) -->
<g id="edge13" class="edge">
<title>treatment of wastewater&#45;&gt;Purification (corn)</title>
<path fill="none" stroke="black" d="M69,-619.92C69,-536.3 69,-191 69,-191 69,-191 597.33,-191 597.33,-191"/>
<polygon fill="white" stroke="black" points="597.33,-194.5 607.33,-191 597.33,-187.5 597.33,-194.5"/>
<text text-anchor="middle" x="106.2" y="-193.2" font-family="Times,serif" font-size="6.00">0.01 m³</text>
</g>
<!-- treatment of wastewater&#45;&gt;Pre&#45;treatment (corn) -->
<g id="edge5" class="edge">
<title>treatment of wastewater&#45;&gt;Pre&#45;treatment (corn)</title>
<path fill="none" stroke="black" d="M147.5,-619.82C147.5,-586.72 147.5,-520 147.5,-520 147.5,-520 589.48,-520 589.48,-520"/>
<polygon fill="white" stroke="black" points="589.48,-523.5 599.48,-520 589.48,-516.5 589.48,-523.5"/>
<text text-anchor="middle" x="306.08" y="-522.2" font-family="Times,serif" font-size="6.00">0.01 m³</text>
</g>
<!-- steam production -->
<g id="node4" class="node">
<title>steam production</title>
<polygon fill="darkolivegreen" stroke="black" points="876,-656 756,-656 756,-620 876,-620 876,-656"/>
<text text-anchor="middle" x="816" y="-634.3" font-family="Comic Sans MS" font-size="14.00" fill="white">steam production</text>
</g>
<!-- steam production&#45;&gt;Pre&#45;treatment (corn) -->
<g id="edge6" class="edge">
<title>steam production&#45;&gt;Pre&#45;treatment (corn)</title>
<path fill="none" stroke="black" d="M759.5,-619.66C759.5,-590.79 759.5,-538 759.5,-538 759.5,-538 748.51,-538 748.51,-538"/>
<polygon fill="white" stroke="black" points="748.51,-534.5 738.51,-538 748.51,-541.5 748.51,-534.5"/>
<text text-anchor="middle" x="747.5" y="-575.53" font-family="Times,serif" font-size="6.00">0.02 kg</text>
</g>
<!-- market for tap water -->
<g id="node5" class="node">
<title>market for tap water</title>
<polygon fill="darkolivegreen" stroke="black" points="738,-656 600,-656 600,-620 738,-620 738,-656"/>
<text text-anchor="middle" x="669" y="-634.3" font-family="Comic Sans MS" font-size="14.00" fill="white">market for tap water</text>
</g>
<!-- market for tap water&#45;&gt;Pre&#45;treatment (corn) -->
<g id="edge9" class="edge">
<title>market for tap water&#45;&gt;Pre&#45;treatment (corn)</title>
<path fill="none" stroke="black" d="M669,-619.51C669,-619.51 669,-557.22 669,-557.22"/>
<polygon fill="white" stroke="black" points="672.5,-557.22 669,-547.22 665.5,-557.22 672.5,-557.22"/>
<text text-anchor="middle" x="655" y="-590.56" font-family="Times,serif" font-size="6.00">12.90 kg</text>
</g>
<!-- market for sweet sorghum grain -->
<g id="node6" class="node">
<title>market for sweet sorghum grain</title>
<polygon fill="darkolivegreen" stroke="black" points="581.5,-656 374.5,-656 374.5,-620 581.5,-620 581.5,-656"/>
<text text-anchor="middle" x="478" y="-634.3" font-family="Comic Sans MS" font-size="14.00" fill="white">market for sweet sorghum grain</text>
</g>
<!-- market for sweet sorghum grain&#45;&gt;Pre&#45;treatment (corn) -->
<g id="edge10" class="edge">
<title>market for sweet sorghum grain&#45;&gt;Pre&#45;treatment (corn)</title>
<path fill="none" stroke="black" d="M482.25,-619.66C482.25,-590.79 482.25,-538 482.25,-538 482.25,-538 589.46,-538 589.46,-538"/>
<polygon fill="white" stroke="black" points="589.46,-541.5 599.46,-538 589.46,-534.5 589.46,-541.5"/>
<text text-anchor="middle" x="483.03" y="-540.2" font-family="Times,serif" font-size="6.00">1.66 kg</text>
</g>
<!-- market for glucose -->
<g id="node7" class="node">
<title>market for glucose</title>
<polygon fill="darkolivegreen" stroke="black" points="1022,-656 894,-656 894,-620 1022,-620 1022,-656"/>
<text text-anchor="middle" x="958" y="-634.3" font-family="Comic Sans MS" font-size="14.00" fill="white">market for glucose</text>
</g>
<!-- market for glucose&#45;&gt;Pre&#45;treatment (corn) -->
<g id="edge11" class="edge">
<title>market for glucose&#45;&gt;Pre&#45;treatment (corn)</title>
<path fill="none" stroke="black" d="M958,-619.51C958,-588.41 958,-529 958,-529 958,-529 748.59,-529 748.59,-529"/>
<polygon fill="white" stroke="black" points="748.59,-525.5 738.59,-529 748.59,-532.5 748.59,-525.5"/>
<text text-anchor="middle" x="886.55" y="-531.2" font-family="Times,serif" font-size="6.00">2.00 kg</text>
</g>
<!-- market for ammonium sulfate -->
<g id="node8" class="node">
<title>market for ammonium sulfate</title>
<polygon fill="darkolivegreen" stroke="black" points="582.5,-329 389.5,-329 389.5,-293 582.5,-293 582.5,-329"/>
<text text-anchor="middle" x="486" y="-307.3" font-family="Comic Sans MS" font-size="14.00" fill="white">market for ammonium sulfate</text>
</g>
<!-- market for ammonium sulfate&#45;&gt;Purification (corn) -->
<g id="edge12" class="edge">
<title>market for ammonium sulfate&#45;&gt;Purification (corn)</title>
<path fill="none" stroke="#8e0c0c" d="M559.78,-292.84C559.78,-264.26 559.78,-212 559.78,-212 559.78,-212 597.37,-212 597.37,-212"/>
<polygon fill="white" stroke="#8e0c0c" points="597.37,-215.5 607.37,-212 597.37,-208.5 597.37,-215.5"/>
<text text-anchor="middle" x="546.78" y="-235.83" font-family="Times,serif" font-size="6.00">&#45;2.72 kg</text>
</g>
<!-- market for ammonia -->
<g id="node9" class="node">
<title>market for ammonia</title>
<polygon fill="darkolivegreen" stroke="black" points="371.5,-329 232.5,-329 232.5,-293 371.5,-293 371.5,-329"/>
<text text-anchor="middle" x="302" y="-307.3" font-family="Comic Sans MS" font-size="14.00" fill="white">market for ammonia</text>
</g>
<!-- market for ammonia&#45;&gt;Purification (corn) -->
<g id="edge14" class="edge">
<title>market for ammonia&#45;&gt;Purification (corn)</title>
<path fill="none" stroke="black" d="M302,-292.54C302,-262.17 302,-205 302,-205 302,-205 597.16,-205 597.16,-205"/>
<polygon fill="white" stroke="black" points="597.16,-208.5 607.16,-205 597.16,-201.5 597.16,-208.5"/>
<text text-anchor="middle" x="393.81" y="-207.2" font-family="Times,serif" font-size="6.00">0.41 kg</text>
</g>
<!-- market for water -->
<g id="node10" class="node">
<title>market for water</title>
<polygon fill="darkolivegreen" stroke="black" points="214.5,-329 99.5,-329 99.5,-293 214.5,-293 214.5,-329"/>
<text text-anchor="middle" x="157" y="-307.3" font-family="Comic Sans MS" font-size="14.00" fill="white">market for water</text>
</g>
<!-- market for water&#45;&gt;Purification (corn) -->
<g id="edge17" class="edge">
<title>market for water&#45;&gt;Purification (corn)</title>
<path fill="none" stroke="black" d="M157,-292.84C157,-260.9 157,-198 157,-198 157,-198 597.5,-198 597.5,-198"/>
<polygon fill="white" stroke="black" points="597.5,-201.5 607.5,-198 597.5,-194.5 597.5,-201.5"/>
<text text-anchor="middle" x="315.83" y="-200.2" font-family="Times,serif" font-size="6.00">25.30 kg</text>
</g>
<!-- Succinic acid production (corn) -->
<g id="node11" class="node">
<title>Succinic acid production (corn)</title>
<ellipse fill="#471a87" stroke="green" cx="669" cy="-56" rx="131.88" ry="18"/>
<text text-anchor="middle" x="669" y="-52.3" font-family="Comic Sans MS" font-size="14.00" fill="white">Succinic acid production (corn)</text>
</g>
<!-- Purification (corn)&#45;&gt;Succinic acid production (corn) -->
<g id="edge1" class="edge">
<title>Purification (corn)&#45;&gt;Succinic acid production (corn)</title>
<path fill="none" stroke="black" d="M669,-183.8C669,-183.8 669,-84.43 669,-84.43"/>
<polygon fill="black" stroke="black" points="672.5,-84.43 669,-74.43 665.5,-84.43 672.5,-84.43"/>
<text text-anchor="middle" x="657" y="-136.31" font-family="Times,serif" font-size="6.00">1.00 kg</text>
</g>
<!-- Pre&#45;treatment (corn)&#45;&gt;Bacterial fermentation (corn) -->
<g id="edge4" class="edge">
<title>Pre&#45;treatment (corn)&#45;&gt;Bacterial fermentation (corn)</title>
<path fill="none" stroke="black" d="M669,-510.8C669,-510.8 669,-411.43 669,-411.43"/>
<polygon fill="black" stroke="black" points="672.5,-411.43 669,-401.43 665.5,-411.43 672.5,-411.43"/>
<text text-anchor="middle" x="657" y="-463.31" font-family="Times,serif" font-size="6.00">1.00 kg</text>
</g>
<!-- Bacterial fermentation (corn)&#45;&gt;Purification (corn) -->
<g id="edge16" class="edge">
<title>Bacterial fermentation (corn)&#45;&gt;Purification (corn)</title>
<path fill="none" stroke="black" d="M669,-364.98C669,-364.98 669,-230.21 669,-230.21"/>
<polygon fill="black" stroke="black" points="672.5,-230.21 669,-220.21 665.5,-230.21 672.5,-230.21"/>
<text text-anchor="middle" x="657" y="-299.8" font-family="Times,serif" font-size="6.00">1.00 kg</text>
</g>
</g>
</svg>
