<?xml version="1.0" encoding="UTF-8" standalone="no"?>
<!DOCTYPE svg PUBLIC "-//W3C//DTD SVG 1.1//EN"
 "http://www.w3.org/Graphics/SVG/1.1/DTD/svg11.dtd">
<!-- Generated by graphviz version 2.43.0 (0)
 -->
<!-- Title: %3 Pages: 1 -->
<svg width="1328pt" height="807pt"
 viewBox="0.00 0.00 1328.00 807.00" xmlns="http://www.w3.org/2000/svg" xmlns:xlink="http://www.w3.org/1999/xlink">
<g id="graph0" class="graph" transform="scale(1 1) rotate(0) translate(36 771)">
<title>%3</title>
<polygon fill="white" stroke="transparent" points="-36,36 -36,-771 1292,-771 1292,36 -36,36"/>
<text text-anchor="middle" x="628" y="-707" font-family="Comic Sans MS" font-size="30.00">System model for succinic acid production from corn &#45; EnergyEfficient</text>
<g id="clust1" class="cluster">
<title>cluster_fg</title>
<polygon fill="none" stroke="black" stroke-width="2" points="8,-8 8,-686 1248,-686 1248,-8 8,-8"/>
</g>
<!-- market for ammonium sulfate -->
<g id="node1" class="node">
<title>market for ammonium sulfate</title>
<polygon fill="darkolivegreen" stroke="black" points="982.5,-329 789.5,-329 789.5,-293 982.5,-293 982.5,-329"/>
<text text-anchor="middle" x="886" y="-307.3" font-family="Comic Sans MS" font-size="14.00" fill="white">market for ammonium sulfate</text>
</g>
<!-- Purification (corn) -->
<g id="node13" class="node">
<title>Purification (corn)</title>
<polygon fill="#0a86e5" stroke="black" points="653.5,-220 530.5,-220 530.5,-184 653.5,-184 653.5,-220"/>
<text text-anchor="middle" x="592" y="-198.3" font-family="Comic Sans MS" font-size="14.00" fill="white">Purification (corn)</text>
</g>
<!-- market for ammonium sulfate&#45;&gt;Purification (corn) -->
<g id="edge1" class="edge">
<title>market for ammonium sulfate&#45;&gt;Purification (corn)</title>
<path fill="none" stroke="#8e0c0c" d="M886,-292.59C886,-262.96 886,-208 886,-208 886,-208 663.63,-208 663.63,-208"/>
<polygon fill="white" stroke="#8e0c0c" points="663.63,-204.5 653.63,-208 663.63,-211.5 663.63,-204.5"/>
<text text-anchor="middle" x="804.11" y="-210.2" font-family="Times,serif" font-size="6.00">&#45;2.72 kg</text>
</g>
<!-- treatment of wastewater -->
<g id="node2" class="node">
<title>treatment of wastewater</title>
<polygon fill="darkolivegreen" stroke="black" points="1217.5,-656 1060.5,-656 1060.5,-620 1217.5,-620 1217.5,-656"/>
<text text-anchor="middle" x="1139" y="-634.3" font-family="Comic Sans MS" font-size="14.00" fill="white">treatment of wastewater</text>
</g>
<!-- treatment of wastewater&#45;&gt;Purification (corn) -->
<g id="edge2" class="edge">
<title>treatment of wastewater&#45;&gt;Purification (corn)</title>
<path fill="none" stroke="black" d="M1165.17,-619.85C1165.17,-536.68 1165.17,-196 1165.17,-196 1165.17,-196 663.61,-196 663.61,-196"/>
<polygon fill="white" stroke="black" points="663.61,-192.5 653.61,-196 663.61,-199.5 663.61,-192.5"/>
<text text-anchor="middle" x="1113.81" y="-198.2" font-family="Times,serif" font-size="6.00">0.01 m³</text>
</g>
<!-- Pre&#45;treatment (corn) -->
<g id="node14" class="node">
<title>Pre&#45;treatment (corn)</title>
<polygon fill="#0a86e5" stroke="black" points="661.5,-547 522.5,-547 522.5,-511 661.5,-511 661.5,-547"/>
<text text-anchor="middle" x="592" y="-525.3" font-family="Comic Sans MS" font-size="14.00" fill="white">Pre&#45;treatment (corn)</text>
</g>
<!-- treatment of wastewater&#45;&gt;Pre&#45;treatment (corn) -->
<g id="edge11" class="edge">
<title>treatment of wastewater&#45;&gt;Pre&#45;treatment (corn)</title>
<path fill="none" stroke="black" d="M1112.83,-619.82C1112.83,-586.72 1112.83,-520 1112.83,-520 1112.83,-520 671.7,-520 671.7,-520"/>
<polygon fill="white" stroke="black" points="671.7,-516.5 661.7,-520 671.7,-523.5 671.7,-516.5"/>
<text text-anchor="middle" x="929.68" y="-522.2" font-family="Times,serif" font-size="6.00">0.01 m³</text>
</g>
<!-- market for ammonia -->
<g id="node3" class="node">
<title>market for ammonia</title>
<polygon fill="darkolivegreen" stroke="black" points="750.5,-329 611.5,-329 611.5,-293 750.5,-293 750.5,-329"/>
<text text-anchor="middle" x="681" y="-307.3" font-family="Comic Sans MS" font-size="14.00" fill="white">market for ammonia</text>
</g>
<!-- market for ammonia&#45;&gt;Purification (corn) -->
<g id="edge3" class="edge">
<title>market for ammonia&#45;&gt;Purification (corn)</title>
<path fill="none" stroke="black" d="M632.5,-292.51C632.5,-292.51 632.5,-230.22 632.5,-230.22"/>
<polygon fill="white" stroke="black" points="636,-230.22 632.5,-220.22 629,-230.22 636,-230.22"/>
<text text-anchor="middle" x="620.5" y="-263.56" font-family="Times,serif" font-size="6.00">0.41 kg</text>
</g>
<!-- market group for electricity -->
<g id="node4" class="node">
<title>market group for electricity</title>
<polygon fill="darkolivegreen" stroke="black" points="216,-656 38,-656 38,-620 216,-620 216,-656"/>
<text text-anchor="middle" x="127" y="-634.3" font-family="Comic Sans MS" font-size="14.00" fill="white">market group for electricity</text>
</g>
<!-- Bacterial fermentation (corn) -->
<g id="node11" class="node">
<title>Bacterial fermentation (corn)</title>
<polygon fill="#0a86e5" stroke="black" points="686,-401 498,-401 498,-365 686,-365 686,-401"/>
<text text-anchor="middle" x="592" y="-379.3" font-family="Comic Sans MS" font-size="14.00" fill="white">Bacterial fermentation (corn)</text>
</g>
<!-- market group for electricity&#45;&gt;Bacterial fermentation (corn) -->
<g id="edge9" class="edge">
<title>market group for electricity&#45;&gt;Bacterial fermentation (corn)</title>
<path fill="none" stroke="black" d="M127,-619.66C127,-561.19 127,-383 127,-383 127,-383 487.9,-383 487.9,-383"/>
<polygon fill="white" stroke="black" points="487.9,-386.5 497.9,-383 487.9,-379.5 487.9,-386.5"/>
<text text-anchor="middle" x="174.12" y="-385.2" font-family="Times,serif" font-size="6.00">0.23 kWh</text>
</g>
<!-- market group for electricity&#45;&gt;Purification (corn) -->
<g id="edge4" class="edge">
<title>market group for electricity&#45;&gt;Purification (corn)</title>
<path fill="none" stroke="black" d="M82.5,-619.82C82.5,-537.3 82.5,-202 82.5,-202 82.5,-202 520.29,-202 520.29,-202"/>
<polygon fill="white" stroke="black" points="520.29,-205.5 530.29,-202 520.29,-198.5 520.29,-205.5"/>
<text text-anchor="middle" x="77.48" y="-204.2" font-family="Times,serif" font-size="6.00">0.23 kWh</text>
</g>
<!-- market group for electricity&#45;&gt;Pre&#45;treatment (corn) -->
<g id="edge14" class="edge">
<title>market group for electricity&#45;&gt;Pre&#45;treatment (corn)</title>
<path fill="none" stroke="black" d="M171.5,-619.82C171.5,-586.72 171.5,-520 171.5,-520 171.5,-520 512.09,-520 512.09,-520"/>
<polygon fill="white" stroke="black" points="512.09,-523.5 522.09,-520 512.09,-516.5 512.09,-523.5"/>
<text text-anchor="middle" x="276.88" y="-522.2" font-family="Times,serif" font-size="6.00">0.23 kWh</text>
</g>
<!-- market for water -->
<g id="node5" class="node">
<title>market for water</title>
<polygon fill="darkolivegreen" stroke="black" points="572.5,-329 457.5,-329 457.5,-293 572.5,-293 572.5,-329"/>
<text text-anchor="middle" x="515" y="-307.3" font-family="Comic Sans MS" font-size="14.00" fill="white">market for water</text>
</g>
<!-- market for water&#45;&gt;Purification (corn) -->
<g id="edge6" class="edge">
<title>market for water&#45;&gt;Purification (corn)</title>
<path fill="none" stroke="black" d="M551.5,-292.51C551.5,-292.51 551.5,-230.22 551.5,-230.22"/>
<polygon fill="white" stroke="black" points="555,-230.22 551.5,-220.22 548,-230.22 555,-230.22"/>
<text text-anchor="middle" x="537.5" y="-263.56" font-family="Times,serif" font-size="6.00">25.30 kg</text>
</g>
<!-- treatment of biowaste -->
<g id="node6" class="node">
<title>treatment of biowaste</title>
<polygon fill="darkolivegreen" stroke="black" points="1042.5,-656 899.5,-656 899.5,-620 1042.5,-620 1042.5,-656"/>
<text text-anchor="middle" x="971" y="-634.3" font-family="Comic Sans MS" font-size="14.00" fill="white">treatment of biowaste</text>
</g>
<!-- treatment of biowaste&#45;&gt;Bacterial fermentation (corn) -->
<g id="edge8" class="edge">
<title>treatment of biowaste&#45;&gt;Bacterial fermentation (corn)</title>
<path fill="none" stroke="black" d="M954.83,-619.66C954.83,-561.19 954.83,-383 954.83,-383 954.83,-383 696.38,-383 696.38,-383"/>
<polygon fill="white" stroke="black" points="696.38,-379.5 686.38,-383 696.38,-386.5 696.38,-379.5"/>
<text text-anchor="middle" x="931.94" y="-385.2" font-family="Times,serif" font-size="6.00">0.82 kg</text>
</g>
<!-- treatment of biowaste&#45;&gt;Pre&#45;treatment (corn) -->
<g id="edge13" class="edge">
<title>treatment of biowaste&#45;&gt;Pre&#45;treatment (corn)</title>
<path fill="none" stroke="black" d="M927.17,-619.51C927.17,-588.41 927.17,-529 927.17,-529 927.17,-529 671.85,-529 671.85,-529"/>
<polygon fill="white" stroke="black" points="671.85,-525.5 661.85,-529 671.85,-532.5 671.85,-525.5"/>
<text text-anchor="middle" x="832.77" y="-531.2" font-family="Times,serif" font-size="6.00">0.40 kg</text>
</g>
<!-- steam production -->
<g id="node7" class="node">
<title>steam production</title>
<polygon fill="darkolivegreen" stroke="black" points="510,-656 390,-656 390,-620 510,-620 510,-656"/>
<text text-anchor="middle" x="450" y="-634.3" font-family="Comic Sans MS" font-size="14.00" fill="white">steam production</text>
</g>
<!-- steam production&#45;&gt;Pre&#45;treatment (corn) -->
<g id="edge12" class="edge">
<title>steam production&#45;&gt;Pre&#45;treatment (corn)</title>
<path fill="none" stroke="black" d="M504,-619.66C504,-590.79 504,-538 504,-538 504,-538 512.23,-538 512.23,-538"/>
<polygon fill="white" stroke="black" points="512.23,-541.5 522.23,-538 512.23,-534.5 512.23,-541.5"/>
<text text-anchor="middle" x="492" y="-576.91" font-family="Times,serif" font-size="6.00">0.02 kg</text>
</g>
<!-- market for tap water -->
<g id="node8" class="node">
<title>market for tap water</title>
<polygon fill="darkolivegreen" stroke="black" points="372,-656 234,-656 234,-620 372,-620 372,-656"/>
<text text-anchor="middle" x="303" y="-634.3" font-family="Comic Sans MS" font-size="14.00" fill="white">market for tap water</text>
</g>
<!-- market for tap water&#45;&gt;Pre&#45;treatment (corn) -->
<g id="edge15" class="edge">
<title>market for tap water&#45;&gt;Pre&#45;treatment (corn)</title>
<path fill="none" stroke="black" d="M303,-619.51C303,-588.41 303,-529 303,-529 303,-529 512.41,-529 512.41,-529"/>
<polygon fill="white" stroke="black" points="512.41,-532.5 522.41,-529 512.41,-525.5 512.41,-532.5"/>
<text text-anchor="middle" x="348.45" y="-531.2" font-family="Times,serif" font-size="6.00">12.90 kg</text>
</g>
<!-- market for sweet sorghum grain -->
<g id="node9" class="node">
<title>market for sweet sorghum grain</title>
<polygon fill="darkolivegreen" stroke="black" points="881.5,-656 674.5,-656 674.5,-620 881.5,-620 881.5,-656"/>
<text text-anchor="middle" x="778" y="-634.3" font-family="Comic Sans MS" font-size="14.00" fill="white">market for sweet sorghum grain</text>
</g>
<!-- market for sweet sorghum grain&#45;&gt;Pre&#45;treatment (corn) -->
<g id="edge16" class="edge">
<title>market for sweet sorghum grain&#45;&gt;Pre&#45;treatment (corn)</title>
<path fill="none" stroke="black" d="M680.25,-619.66C680.25,-590.79 680.25,-538 680.25,-538 680.25,-538 671.53,-538 671.53,-538"/>
<polygon fill="white" stroke="black" points="671.53,-534.5 661.53,-538 671.53,-541.5 671.53,-534.5"/>
<text text-anchor="middle" x="668.25" y="-576.67" font-family="Times,serif" font-size="6.00">1.66 kg</text>
</g>
<!-- market for glucose -->
<g id="node10" class="node">
<title>market for glucose</title>
<polygon fill="darkolivegreen" stroke="black" points="656,-656 528,-656 528,-620 656,-620 656,-656"/>
<text text-anchor="middle" x="592" y="-634.3" font-family="Comic Sans MS" font-size="14.00" fill="white">market for glucose</text>
</g>
<!-- market for glucose&#45;&gt;Pre&#45;treatment (corn) -->
<g id="edge17" class="edge">
<title>market for glucose&#45;&gt;Pre&#45;treatment (corn)</title>
<path fill="none" stroke="black" d="M592,-619.51C592,-619.51 592,-557.22 592,-557.22"/>
<polygon fill="white" stroke="black" points="595.5,-557.22 592,-547.22 588.5,-557.22 595.5,-557.22"/>
<text text-anchor="middle" x="580" y="-590.56" font-family="Times,serif" font-size="6.00">2.00 kg</text>
</g>
<!-- Bacterial fermentation (corn)&#45;&gt;Purification (corn) -->
<g id="edge5" class="edge">
<title>Bacterial fermentation (corn)&#45;&gt;Purification (corn)</title>
<path fill="none" stroke="black" d="M592,-364.98C592,-364.98 592,-230.21 592,-230.21"/>
<polygon fill="black" stroke="black" points="595.5,-230.21 592,-220.21 588.5,-230.21 595.5,-230.21"/>
<text text-anchor="middle" x="598" y="-292.8" font-family="Times,serif" font-size="6.00">1.00 kg</text>
</g>
<!-- Succinic acid production (corn) -->
<g id="node12" class="node">
<title>Succinic acid production (corn)</title>
<ellipse fill="#471a87" stroke="green" cx="592" cy="-56" rx="131.88" ry="18"/>
<text text-anchor="middle" x="592" y="-52.3" font-family="Comic Sans MS" font-size="14.00" fill="white">Succinic acid production (corn)</text>
</g>
<!-- Purification (corn)&#45;&gt;Succinic acid production (corn) -->
<g id="edge7" class="edge">
<title>Purification (corn)&#45;&gt;Succinic acid production (corn)</title>
<path fill="none" stroke="black" d="M592,-183.8C592,-183.8 592,-84.43 592,-84.43"/>
<polygon fill="black" stroke="black" points="595.5,-84.43 592,-74.43 588.5,-84.43 595.5,-84.43"/>
<text text-anchor="middle" x="580" y="-136.31" font-family="Times,serif" font-size="6.00">1.00 kg</text>
</g>
<!-- Pre&#45;treatment (corn)&#45;&gt;Bacterial fermentation (corn) -->
<g id="edge10" class="edge">
<title>Pre&#45;treatment (corn)&#45;&gt;Bacterial fermentation (corn)</title>
<path fill="none" stroke="black" d="M592,-510.8C592,-510.8 592,-411.43 592,-411.43"/>
<polygon fill="black" stroke="black" points="595.5,-411.43 592,-401.43 588.5,-411.43 595.5,-411.43"/>
<text text-anchor="middle" x="580" y="-463.31" font-family="Times,serif" font-size="6.00">1.00 kg</text>
</g>
</g>
</svg>
